<?xml version="1.0" encoding="UTF-8"?><svg xmlns="http://www.w3.org/2000/svg" xmlns:xlink="http://www.w3.org/1999/xlink" viewBox="0 0 511.09 449.62"><defs><style>.e{fill:url(#d);}</style><linearGradient id="d" x1="0" y1="224.81" x2="511.09" y2="224.81" gradientTransform="matrix(1, 0, 0, 1, 0, 0)" gradientUnits="userSpaceOnUse"><stop offset="0" stop-color="#2e3159"/><stop offset="1" stop-color="#a21d34"/></linearGradient></defs><g id="a"/><g id="b"><g id="c"><path class="e" d="M470.54,448.88l-11.1,.74c-14.33-1.98-25.15-9.57-35.3-19.19-54.97-52.1-110.2-103.93-165.35-155.84-1.04-.98-2.12-1.93-3.26-2.96-1.38,1.26-2.47,2.24-3.54,3.24-56.83,53.5-113.68,106.98-170.47,160.52-6.59,6.21-14.68,10.61-23.48,12.77l-.54,.13c-2.58,.63-5.23,.95-7.89,.95h-2.63c-2.02,0-5.3-.34-7.28-.75l-.17-.04c-18.58-3.89-33.41-17.88-38.37-36.21h0C.39,409.36,0,406.4,0,403.43c0-41.95,0-83.91,0-125.86H68.57v76.52L205.91,224.78c-45.71-43.04-91.21-85.87-136.7-128.7l-.96,.42v75.49H0V45.61c0-2.28,.39-4.52,.84-6.75v-.03C6.19,11.95,33.03-4.89,59.59,1.81c10.59,2.67,18.57,9.14,26.28,16.41,55.38,52.27,110.86,104.45,166.31,156.65,1.05,.99,2.16,1.92,3.35,2.98,.98-.85,1.8-1.51,2.57-2.23,13.11-12.33,26.22-24.67,39.32-37,44.4-41.79,88.67-83.73,133.28-125.3,15.1-14.07,33.11-17.01,51.94-8.7,18.71,8.25,28.25,23.45,28.34,43.96,.18,39.62,.05,79.24,.05,118.86,0,1.43,0,2.86,0,4.34h-68.39V95.34c-46.3,43.59-91.79,86.42-137.48,129.44,45.76,43.08,91.25,85.91,137.62,129.56v-76.59h68.26v3.75c0,40.16,.03,80.31-.01,120.47-.02,21.57-14.75,40.34-35.7,45.67-1.6,.41-3.2,.83-4.8,1.24Z"/></g></g></svg>