<svg width="46" height="57" viewBox="0 0 46 57" fill="none" xmlns="http://www.w3.org/2000/svg">
<path fill-rule="evenodd" clip-rule="evenodd" d="M20.7974 0.565273C16.9094 0.933262 13.0056 2.22168 9.72123 4.22087C8.41571 5.01548 6.59703 6.41603 6.29715 6.85759C5.80189 7.58718 5.7397 8.71362 6.15303 9.47139C6.24915 9.64786 6.1163 9.8639 5.37253 10.7403C2.94258 13.6036 1.2721 17.0119 0.509267 20.6632C0.120703 22.5229 -0.0377208 25.319 0.00749338 29.5152C0.0415493 32.6733 0.0561949 32.8701 0.269132 33.0228C0.575054 33.2422 0.756492 33.2263 1.0315 32.9564C1.25629 32.7358 1.26408 32.5748 1.26605 28.0799C1.26826 23.3356 1.34242 22.2302 1.78631 20.3266C2.54751 17.0621 4.44442 13.4563 6.67549 11.0328L7.10229 10.569L7.50782 10.7588C8.07992 11.0265 8.79765 11.1002 9.36719 10.9496C9.64475 10.8763 10.3452 10.4621 10.9933 9.98813C13.009 8.51366 14.7726 7.59563 16.9342 6.89547C17.9839 6.55554 18.2613 6.28428 18.017 5.83644C17.8177 5.47096 17.4992 5.46879 16.4098 5.82538C14.3173 6.51037 12.0009 7.7462 10.0284 9.22979C9.11485 9.91706 8.76348 10.0018 8.07236 9.70181C7.43797 9.42633 7.0766 8.90252 7.07602 8.25723C7.07544 7.65779 7.24375 7.44095 8.38793 6.56706C9.76517 5.51533 10.8816 4.84061 12.5966 4.02353C20.7115 0.156903 30.3223 1.11338 37.5466 6.50637C38.6927 7.36201 38.9232 7.65357 38.9226 8.24719C38.9221 8.90309 38.5649 9.42451 37.9263 9.70181C37.2333 10.0026 36.8839 9.91718 35.9575 9.22021C33.5489 7.40844 31.0069 6.15778 28.329 5.46685C26.9452 5.10982 26.575 5.15852 26.5094 5.70617C26.4608 6.11352 26.6581 6.23443 27.8998 6.55805C29.3349 6.93208 30.3687 7.31718 31.7557 7.99441C32.9304 8.56807 34.6617 9.65459 35.3606 10.2568C36.2699 11.0403 37.3783 11.2479 38.3419 10.8151L38.865 10.5801L39.4637 11.2228C41.5537 13.4663 43.4507 17.1136 44.2192 20.3656C44.6543 22.2068 44.7304 23.3511 44.7326 28.0799C44.7346 32.5748 44.7424 32.7358 44.9672 32.9564C45.2422 33.2263 45.4236 33.2422 45.7295 33.0228C45.9425 32.8701 45.9572 32.673 45.9918 29.5152C46.0552 23.7225 45.7617 20.9352 44.7839 18.0411C43.934 15.5258 42.3199 12.7109 40.5335 10.6285C39.862 9.84588 39.7468 9.65276 39.8444 9.47379C40.139 8.93344 40.2131 8.18582 40.031 7.58958C39.8146 6.88064 39.4856 6.49907 38.3185 5.60305C35.1266 3.15272 30.7372 1.33239 26.5858 0.737404C25.0219 0.513257 22.2253 0.4301 20.7974 0.565273ZM22.2331 5.06635C22.0599 5.32575 22.0591 5.37605 22.2241 5.62313C22.3914 5.87374 22.4985 5.89884 23.6032 5.94618C24.262 5.97435 24.8678 5.97446 24.9495 5.94629C25.178 5.86747 25.3452 5.48294 25.2624 5.22662C25.1524 4.88681 24.7385 4.78118 23.5175 4.78118C22.4788 4.78118 22.4139 4.79555 22.2331 5.06635ZM22.0695 27.5475C21.9097 27.5752 21.4651 27.6531 21.0815 27.7206C19.0673 28.0753 16.8588 29.4783 15.6072 31.1985C14.3667 32.9035 13.8758 34.427 13.8833 36.5496C13.8927 39.2679 14.7406 41.1924 16.7566 43.0713C17.7632 44.0095 18.9318 44.6908 20.2679 45.1187C21.479 45.5064 23.5689 45.6134 24.8216 45.3518C28.2285 44.6405 30.9751 42.0872 31.9046 38.7674C32.1899 37.7483 32.1975 35.3487 31.9185 34.3253C31.6479 33.3324 30.8025 31.6808 30.1536 30.8779C29.0226 29.478 26.9809 28.1994 25.2018 27.7767C24.4218 27.5915 22.5895 27.4574 22.0695 27.5475ZM24.9172 28.9178C26.0841 29.1879 27.4543 29.9223 28.3656 30.7661C30.1546 32.4224 30.9431 34.172 30.9463 36.4926C30.9483 37.8878 30.7398 38.7994 30.1509 39.9717C29.3401 41.5852 28.13 42.7527 26.4282 43.5633C24.1807 44.6336 21.7426 44.6148 19.4543 43.5095C16.0599 41.87 14.3248 38.1328 15.2794 34.5173C16.0752 31.5035 18.8982 29.0932 22.0416 28.7437C22.9824 28.6391 23.9728 28.6991 24.9172 28.9178ZM5.95241 30.385C5.22747 30.8213 4.98338 31.4062 4.98338 32.7073V33.7549H3.78143C1.85965 33.7549 1.02569 34.1256 0.381877 35.2659L0.0435254 35.8652V39.5725C0.0435254 42.7267 0.0711886 43.3393 0.229264 43.679C0.528561 44.322 1.03801 44.833 1.66601 45.12C2.17557 45.353 2.42988 45.388 3.61766 45.3889L4.98338 45.39L4.98524 46.5022C4.98687 47.443 5.02755 47.6842 5.24862 48.0673C5.55524 48.5987 6.12013 49.0039 6.70455 49.1115C7.24084 49.2101 9.17378 48.6061 9.84223 48.1309C10.3611 47.762 10.9192 47.0212 11.1252 46.4282C11.2212 46.1519 11.2596 44.1672 11.2587 39.527L11.2576 33.0135L10.9778 32.4236C10.5609 31.5448 9.89569 30.9765 8.78115 30.5468C7.47621 30.0438 6.60226 29.9938 5.95241 30.385ZM37.5025 30.4355C36.4333 30.8144 35.7931 31.2275 35.3928 31.7963C34.7181 32.7553 34.7388 32.5103 34.7388 39.5271C34.7388 43.8428 34.7806 46.1282 34.8649 46.4039C35.2146 47.5495 36.1017 48.2914 37.7456 48.8129C39.0367 49.2224 39.4359 49.2164 40.0997 48.7775C40.7924 48.3194 41.0112 47.7746 41.0134 46.5022L41.0153 45.39L42.381 45.3889C43.5688 45.388 43.8231 45.353 44.3327 45.12C44.9607 44.833 45.4701 44.322 45.7694 43.679C45.9275 43.3393 45.9551 42.7267 45.9551 39.5725V35.8652L45.6168 35.2659C44.973 34.1256 44.139 33.7549 42.2172 33.7549H41.0153V32.6892C41.0153 31.7941 40.972 31.543 40.745 31.1207C40.1882 30.0847 39.1258 29.8602 37.5025 30.4355ZM8.19057 31.5845C9.21364 31.9711 9.57303 32.2513 9.87791 32.8994C10.0782 33.3252 10.0927 33.7734 10.095 39.6123C10.0978 46.5174 10.1256 46.2417 9.35277 46.9769C8.8281 47.4759 7.1933 48.0421 6.73232 47.8844C6.55519 47.8237 6.35074 47.646 6.27797 47.4893C6.18325 47.2853 6.1457 45.0168 6.1457 39.5048V31.8054L6.43105 31.5254C6.8009 31.1623 7.1002 31.1724 8.19057 31.5845ZM39.5676 31.5254L39.853 31.8054V39.5177C39.853 47.2457 39.8379 47.5633 39.4578 47.8123C39.0342 48.0898 37.2629 47.5561 36.6321 46.9608C35.8754 46.2468 35.9008 46.5035 35.9036 39.6123C35.906 33.7734 35.9205 33.3252 36.1208 32.8994C36.4223 32.2583 36.7832 31.9724 37.7722 31.5907C38.8457 31.1765 39.199 31.1636 39.5676 31.5254ZM18.6697 33.0796C18.4361 33.2132 18.3967 33.755 18.6058 33.9602C18.697 34.0498 19.1791 34.0971 20.0005 34.0971H21.2559V35.0097V35.9222H20.0437C19.0967 35.9222 18.7916 35.9615 18.6489 36.1015C18.4987 36.2489 18.4663 36.5926 18.4663 38.038C18.4663 40.269 18.3743 40.1775 20.5619 40.1236C21.9135 40.0901 22.1076 40.0604 22.2535 39.8644C22.4769 39.564 22.4607 39.3861 22.1857 39.1162C21.9843 38.9185 21.7983 38.8881 20.7909 38.8881H19.6286V37.9755V37.0629H20.9031C22.0441 37.0629 22.1901 37.0399 22.2979 36.8423C22.3648 36.7195 22.4182 35.8928 22.4182 34.9779C22.4182 32.8551 22.5166 32.9553 20.433 32.9599C19.5751 32.9618 18.7816 33.0156 18.6697 33.0796ZM23.7729 33.1651C23.6128 33.3386 23.5805 33.6466 23.5805 34.9976C23.5805 35.899 23.6341 36.7198 23.7008 36.8423C23.8085 37.0398 23.9545 37.0629 25.092 37.0629H26.3629L26.3955 38.4571C26.4274 39.8147 26.4357 39.855 26.7177 39.9927C26.9511 40.1068 27.0523 40.1047 27.2408 39.9821C27.4644 39.8363 27.4755 39.6909 27.5052 36.5358C27.5334 33.5401 27.5182 33.2287 27.3377 33.099C27.0688 32.9059 26.7728 32.9197 26.5527 33.1356C26.408 33.2778 26.3701 33.5855 26.3701 34.6185V35.9222H25.5564H24.7428V34.5762C24.7428 33.6815 24.6961 33.1843 24.6033 33.0933C24.398 32.8918 23.9927 32.9268 23.7729 33.1651ZM4.98338 39.6295V44.2493H3.7497C2.71291 44.2493 2.44697 44.2112 2.08293 44.0105C1.2664 43.5601 1.26396 43.5468 1.26396 39.6348C1.26396 35.8449 1.27965 35.7396 1.9166 35.2479C2.1901 35.0367 2.38176 35.0097 3.60429 35.0097H4.98338V39.6295ZM44.0821 35.2479C44.719 35.7396 44.7347 35.8449 44.7347 39.6348C44.7347 43.5596 44.7241 43.6151 43.8967 44.032C43.553 44.2052 43.2166 44.2493 42.2404 44.2493H41.0153V39.6295V35.0097H42.3944C43.6169 35.0097 43.8086 35.0367 44.0821 35.2479ZM22.0386 49.7276C20.9161 50.0054 19.9358 50.7525 19.4224 51.7209C18.9944 52.5283 18.9949 53.6498 19.4235 54.4658C19.8018 55.1864 20.5086 55.822 21.3581 56.2058C21.8992 56.4503 22.1809 56.5008 22.9993 56.5C23.8289 56.4991 24.1013 56.4483 24.6983 56.1829C25.5435 55.8072 26.267 55.1196 26.6024 54.373L26.8459 53.8312H31.8281C36.323 53.8312 36.8766 53.8109 37.4889 53.6233C38.6238 53.2756 39.6327 52.5248 40.2455 51.5719C40.6635 50.9219 40.7182 50.6541 40.4847 50.4009C40.1216 50.0071 39.7835 50.1203 39.3533 50.7798C38.8792 51.5067 38.242 52.0719 37.5343 52.3932C37.0259 52.6241 36.8077 52.6347 31.9201 52.6666C26.8421 52.6995 26.835 52.6992 26.835 52.4631C26.835 52.0864 26.3131 51.1876 25.828 50.7287C24.9273 49.8768 23.2384 49.4305 22.0386 49.7276ZM24.3652 51.1096C25.3361 51.5665 25.8608 52.5654 25.644 53.5438C25.5023 54.1828 25.081 54.6717 24.3746 55.0172C23.1516 55.6153 21.4629 55.2939 20.7051 54.3191C20.2869 53.7809 20.204 52.7118 20.5346 52.123C21.2158 50.9105 22.9607 50.4488 24.3652 51.1096Z" fill="#A21D34"/>
</svg>
