<svg width="63" height="77" viewBox="0 0 63 77" fill="none" xmlns="http://www.w3.org/2000/svg">
<path fill-rule="evenodd" clip-rule="evenodd" d="M28.3457 0.0889635C23.0465 0.590512 17.7259 2.34656 13.2495 5.07134C11.4701 6.15435 8.99138 8.06322 8.58267 8.66505C7.90765 9.65944 7.8229 11.1947 8.38623 12.2275C8.51724 12.468 8.33617 12.7625 7.32245 13.957C4.01058 17.8594 1.7338 22.5047 0.694102 27.4814C0.164512 30.016 -0.0514114 33.8269 0.0102131 39.5461C0.0566294 43.8504 0.0765906 44.1186 0.366812 44.3268C0.783767 44.6258 1.03106 44.6041 1.40587 44.2363C1.71225 43.9356 1.72287 43.7161 1.72556 37.5899C1.72857 31.1236 1.82964 29.6171 2.43464 27.0226C3.47211 22.5732 6.05749 17.6587 9.09832 14.3556L9.68003 13.7234L10.2327 13.9821C11.0125 14.347 11.9907 14.4475 12.767 14.2423C13.1453 14.1423 14.0999 13.5778 14.9832 12.9318C17.7305 10.9222 20.1342 9.67094 23.0804 8.71666C24.5111 8.25336 24.8891 7.88365 24.5562 7.27327C24.2845 6.77514 23.8505 6.77219 22.3656 7.25819C19.5136 8.19179 16.3565 9.87616 13.6682 11.8982C12.423 12.8349 11.9441 12.9504 11.0022 12.5416C10.1375 12.1661 9.64502 11.4522 9.64422 10.5727C9.64343 9.75567 9.87282 9.46012 11.4323 8.26906C13.3094 6.83562 14.831 5.91601 17.1684 4.80237C28.2287 -0.467622 41.3276 0.836001 51.1739 8.18635C52.736 9.35254 53.0502 9.74992 53.0494 10.559C53.0486 11.4529 52.5618 12.1636 51.6914 12.5416C50.747 12.9515 50.2707 12.8351 49.008 11.8852C45.7253 9.41581 42.2607 7.71123 38.6109 6.76955C36.7248 6.28292 36.2202 6.34931 36.1309 7.09572C36.0646 7.65091 36.3335 7.81571 38.0259 8.25678C39.9818 8.76657 41.3908 9.29144 43.2812 10.2145C44.8823 10.9963 47.242 12.4772 48.1945 13.2979C49.4338 14.3658 50.9445 14.6488 52.2579 14.059L52.9708 13.7387L53.7868 14.6146C56.6353 17.6724 59.2209 22.6434 60.2683 27.0757C60.8613 29.5852 60.965 31.1447 60.9681 37.5899C60.9707 43.7161 60.9814 43.9356 61.2877 44.2363C61.6626 44.6041 61.9098 44.6258 62.3268 44.3268C62.617 44.1186 62.6371 43.85 62.6842 39.5461C62.7707 31.6509 62.3707 27.852 61.0379 23.9076C59.8796 20.4793 57.6796 16.6427 55.2449 13.8046C54.3297 12.7379 54.1727 12.4747 54.3056 12.2308C54.7072 11.4943 54.8081 10.4753 54.5601 9.6627C54.2651 8.69645 53.8166 8.1764 52.2259 6.95518C47.8756 3.61551 41.8931 1.1345 36.2349 0.323569C34.1034 0.0180688 30.2919 -0.0952694 28.3457 0.0889635ZM30.3025 6.22369C30.0665 6.57723 30.0654 6.64579 30.2902 6.98254C30.5183 7.32411 30.6642 7.35831 32.1698 7.42283C33.0677 7.46124 33.8934 7.46139 34.0047 7.42299C34.3162 7.31556 34.5442 6.79147 34.4312 6.44212C34.2813 5.97898 33.7172 5.83501 32.053 5.83501C30.6374 5.83501 30.5489 5.8546 30.3025 6.22369ZM30.0795 36.8642C29.8616 36.902 29.2557 37.0082 28.7329 37.1002C25.9877 37.5836 22.9776 39.4958 21.2718 41.8403C19.581 44.1642 18.912 46.2406 18.9221 49.1336C18.9349 52.8385 20.0906 55.4615 22.8384 58.0224C24.2103 59.301 25.803 60.2296 27.624 60.8128C29.2747 61.3412 32.1231 61.487 33.8305 61.1305C38.4739 60.161 42.2173 56.681 43.4841 52.1563C43.8731 50.7673 43.8833 47.4968 43.5031 46.102C43.1343 44.7487 41.982 42.4977 41.0977 41.4033C39.5562 39.4954 36.7734 37.7527 34.3487 37.1767C33.2855 36.9242 30.7882 36.7414 30.0795 36.8642ZM33.9607 38.7319C35.5512 39.1 37.4186 40.1009 38.6608 41.251C41.099 43.5084 42.1737 45.893 42.1781 49.0559C42.1808 50.9575 41.8966 52.2 41.0939 53.7978C39.989 55.9969 38.3397 57.5881 36.0201 58.6929C32.957 60.1517 29.634 60.126 26.5151 58.6195C21.8888 56.385 19.5239 51.2914 20.825 46.3636C21.9096 42.2561 25.7572 38.971 30.0414 38.4946C31.3237 38.352 32.6736 38.4338 33.9607 38.7319ZM8.1128 40.7315C7.12475 41.3262 6.79207 42.1235 6.79207 43.8968V45.3246H5.15387C2.5346 45.3246 1.39795 45.8299 0.520476 47.384L0.0593227 48.2008V53.2536C0.0593227 57.5527 0.0970261 58.3876 0.312474 58.8506C0.720399 59.727 1.41474 60.4235 2.27067 60.8146C2.96518 61.1321 3.3118 61.1798 4.93067 61.1811L6.79207 61.1826L6.79461 62.6985C6.79682 63.9806 6.85227 64.3095 7.15358 64.8315C7.57149 65.5559 8.3414 66.1081 9.13792 66.2547C9.86886 66.3892 12.5033 65.566 13.4144 64.9183C14.1216 64.4155 14.8823 63.4059 15.163 62.5976C15.2939 62.221 15.3462 59.516 15.345 53.1916L15.3435 44.314L14.9621 43.5101C14.3939 42.3124 13.4873 41.5378 11.9682 40.9521C10.1897 40.2665 8.99851 40.1984 8.1128 40.7315ZM51.1138 40.8004C49.6566 41.3169 48.784 41.8798 48.2384 42.6552C47.3188 43.9622 47.347 43.6283 47.347 53.1917C47.347 59.0738 47.404 62.1887 47.5189 62.5645C47.9956 64.1258 49.2046 65.137 51.4451 65.8478C53.2048 66.406 53.749 66.3977 54.6537 65.7995C55.5977 65.1751 55.896 64.4326 55.899 62.6985L55.9015 61.1826L57.763 61.1811C59.3818 61.1798 59.7284 61.1321 60.4229 60.8146C61.2789 60.4235 61.9732 59.727 62.3811 58.8506C62.5966 58.3876 62.6343 57.5527 62.6343 53.2536V48.2008L62.1731 47.384C61.2957 45.8299 60.159 45.3246 57.5397 45.3246H55.9015V43.872C55.9015 42.6521 55.8426 42.3099 55.5332 41.7343C54.7742 40.3223 53.3263 40.0164 51.1138 40.8004ZM11.1633 42.3665C12.5577 42.8933 13.0475 43.2752 13.463 44.1586C13.736 44.7389 13.7558 45.3498 13.759 53.3079C13.7628 62.7191 13.8006 62.3434 12.7473 63.3454C12.0322 64.0256 9.80407 64.7972 9.17578 64.5823C8.93435 64.4996 8.6557 64.2574 8.55653 64.0438C8.42742 63.7658 8.37625 60.6739 8.37625 53.1614V42.6674L8.76516 42.2859C9.26925 41.7911 9.67718 41.8047 11.1633 42.3665ZM53.9285 42.2859L54.3174 42.6674V53.179C54.3174 63.7118 54.2968 64.1447 53.7787 64.484C53.2015 64.8623 50.7872 64.1349 49.9275 63.3235C48.8962 62.3504 48.9309 62.7002 48.9347 53.3079C48.9378 45.3498 48.9576 44.7389 49.2306 44.1586C49.6415 43.2848 50.1334 42.8951 51.4814 42.3749C52.9445 41.8103 53.4261 41.7928 53.9285 42.2859ZM25.4457 44.4042C25.1273 44.5863 25.0736 45.3248 25.3586 45.6044C25.483 45.7265 26.1401 45.791 27.2596 45.791H28.9705V47.0348V48.2785H27.3184C26.0278 48.2785 25.6119 48.332 25.4174 48.5228C25.2127 48.7238 25.1685 49.1922 25.1685 51.1622C25.1685 54.2029 25.0432 54.0782 28.0248 54.0047C29.8669 53.9591 30.1314 53.9186 30.3302 53.6515C30.6347 53.2421 30.6127 52.9996 30.2379 52.6317C29.9633 52.3623 29.7099 52.3208 28.3369 52.3208H26.7527V51.077V49.8333H28.4897C30.0449 49.8333 30.2439 49.8019 30.3908 49.5326C30.482 49.3651 30.5547 48.2384 30.5547 46.9914C30.5547 44.0982 30.6889 44.2348 27.8491 44.241C26.6798 44.2436 25.5983 44.317 25.4457 44.4042ZM32.4011 44.5207C32.1829 44.7571 32.1389 45.1769 32.1389 47.0183C32.1389 48.2468 32.2119 49.3656 32.3029 49.5326C32.4497 49.8017 32.6487 49.8333 34.199 49.8333H35.9311L35.9756 51.7334C36.019 53.5837 36.0304 53.6387 36.4147 53.8264C36.7328 53.9818 36.8708 53.979 37.1276 53.8119C37.4324 53.6132 37.4476 53.415 37.488 49.1148C37.5265 45.0318 37.5058 44.6074 37.2597 44.4306C36.8933 44.1674 36.4898 44.1862 36.1898 44.4806C35.9926 44.6743 35.9409 45.0937 35.9409 46.5017V48.2785H34.832H33.7231V46.444C33.7231 45.2245 33.6594 44.5469 33.533 44.4229C33.253 44.1482 32.7006 44.1959 32.4011 44.5207ZM6.79207 53.3313V59.6279H5.11063C3.69754 59.6279 3.33508 59.576 2.83892 59.3024C1.72603 58.6886 1.72271 58.6704 1.72271 53.3385C1.72271 48.1731 1.74409 48.0296 2.61222 47.3594C2.98498 47.0716 3.24621 47.0348 4.91245 47.0348H6.79207V53.3313ZM60.0814 47.3594C60.9495 48.0296 60.9709 48.1731 60.9709 53.3385C60.9709 58.6878 60.9565 58.7635 59.8287 59.3317C59.3603 59.5678 58.9018 59.6279 57.5713 59.6279H55.9015V53.3313V47.0348H57.7812C59.4474 47.0348 59.7086 47.0716 60.0814 47.3594ZM30.0373 67.0944C28.5075 67.4731 27.1714 68.4913 26.4717 69.8113C25.8884 70.9117 25.889 72.4403 26.4731 73.5524C26.9887 74.5345 27.9521 75.4007 29.1099 75.9239C29.8474 76.2571 30.2314 76.326 31.3468 76.3249C32.4774 76.3236 32.8488 76.2544 33.6624 75.8927C34.8144 75.3807 35.8004 74.4435 36.2576 73.426L36.5895 72.6875H43.3799C49.5062 72.6875 50.2608 72.6598 51.0953 72.404C52.6421 71.9302 54.0172 70.9069 54.8523 69.6082C55.422 68.7222 55.4966 68.3573 55.1784 68.0122C54.6835 67.4755 54.2226 67.6297 53.6363 68.5286C52.9901 69.5193 52.1217 70.2896 51.1571 70.7276C50.4642 71.0423 50.1668 71.0567 43.5054 71.1001C36.5843 71.145 36.5746 71.1446 36.5746 70.8228C36.5746 70.3094 35.8633 69.0844 35.2021 68.459C33.9745 67.2978 31.6727 66.6896 30.0373 67.0944ZM33.2084 68.9781C34.5316 69.6007 35.2469 70.9622 34.9513 72.2957C34.7582 73.1666 34.1841 73.833 33.2212 74.3039C31.5543 75.119 29.2527 74.6811 28.22 73.3524C27.65 72.6189 27.5369 71.1618 27.9876 70.3593C28.9159 68.7066 31.2942 68.0774 33.2084 68.9781Z" fill="#A21D34"/>
</svg>
