<svg width="88" height="102" viewBox="0 0 88 102" fill="none" xmlns="http://www.w3.org/2000/svg">
<path d="M0 26L44 0L87.5 26V77.5L44 102L0 77.5V26Z" fill="#A21D34" fill-opacity="0.06"/>
<path fill-rule="evenodd" clip-rule="evenodd" d="M41.7974 22.5653C37.9094 22.9333 34.0056 24.2217 30.7212 26.2209C29.4157 27.0155 27.597 28.416 27.2972 28.8576C26.8019 29.5872 26.7397 30.7136 27.153 31.4714C27.2491 31.6479 27.1163 31.8639 26.3725 32.7403C23.9426 35.6036 22.2721 39.0119 21.5093 42.6632C21.1207 44.5229 20.9623 47.319 21.0075 51.5152C21.0415 54.6733 21.0562 54.8701 21.2691 55.0228C21.5751 55.2422 21.7565 55.2263 22.0315 54.9564C22.2563 54.7358 22.2641 54.5748 22.2661 50.0799C22.2683 45.3356 22.3424 44.2302 22.7863 42.3266C23.5475 39.0621 25.4444 35.4563 27.6755 33.0328L28.1023 32.569L28.5078 32.7588C29.0799 33.0265 29.7977 33.1002 30.3672 32.9496C30.6447 32.8763 31.3452 32.4621 31.9933 31.9881C34.009 30.5137 35.7726 29.5956 37.9342 28.8955C38.9839 28.5555 39.2613 28.2843 39.017 27.8364C38.8177 27.471 38.4992 27.4688 37.4098 27.8254C35.3173 28.5104 33.0009 29.7462 31.0284 31.2298C30.1148 31.9171 29.7635 32.0018 29.0724 31.7018C28.438 31.4263 28.0766 30.9025 28.076 30.2572C28.0754 29.6578 28.2437 29.4409 29.3879 28.5671C30.7652 27.5153 31.8816 26.8406 33.5966 26.0235C41.7115 22.1569 51.3223 23.1134 58.5466 28.5064C59.6927 29.362 59.9232 29.6536 59.9226 30.2472C59.9221 30.9031 59.5649 31.4245 58.9263 31.7018C58.2333 32.0026 57.8839 31.9172 56.9575 31.2202C54.5489 29.4084 52.0069 28.1578 49.329 27.4669C47.9452 27.1098 47.575 27.1585 47.5094 27.7062C47.4608 28.1135 47.6581 28.2344 48.8998 28.558C50.3349 28.9321 51.3687 29.3172 52.7557 29.9944C53.9304 30.5681 55.6617 31.6546 56.3606 32.2568C57.2699 33.0403 58.3783 33.2479 59.3419 32.8151L59.865 32.5801L60.4637 33.2228C62.5537 35.4663 64.4507 39.1136 65.2192 42.3656C65.6543 44.2068 65.7304 45.3511 65.7326 50.0799C65.7346 54.5748 65.7424 54.7358 65.9672 54.9564C66.2422 55.2263 66.4236 55.2422 66.7295 55.0228C66.9425 54.8701 66.9572 54.673 66.9918 51.5152C67.0552 45.7225 66.7617 42.9352 65.7839 40.0411C64.934 37.5258 63.3199 34.7109 61.5335 32.6285C60.862 31.8459 60.7468 31.6528 60.8444 31.4738C61.139 30.9334 61.2131 30.1858 61.031 29.5896C60.8146 28.8806 60.4856 28.4991 59.3185 27.6031C56.1266 25.1527 51.7372 23.3324 47.5858 22.7374C46.0219 22.5133 43.2253 22.4301 41.7974 22.5653ZM43.2331 27.0664C43.0599 27.3257 43.0591 27.3761 43.2241 27.6231C43.3914 27.8737 43.4985 27.8988 44.6032 27.9462C45.262 27.9744 45.8678 27.9745 45.9495 27.9463C46.178 27.8675 46.3452 27.4829 46.2624 27.2266C46.1524 26.8868 45.7385 26.7812 44.5175 26.7812C43.4788 26.7812 43.4139 26.7956 43.2331 27.0664ZM43.0695 49.5475C42.9097 49.5752 42.4651 49.6531 42.0815 49.7206C40.0673 50.0753 37.8588 51.4783 36.6072 53.1985C35.3667 54.9035 34.8758 56.427 34.8833 58.5496C34.8927 61.2679 35.7406 63.1924 37.7566 65.0713C38.7632 66.0095 39.9318 66.6908 41.2679 67.1187C42.479 67.5064 44.5689 67.6134 45.8216 67.3518C49.2285 66.6405 51.9751 64.0872 52.9046 60.7674C53.1899 59.7483 53.1975 57.3487 52.9185 56.3253C52.6479 55.3324 51.8025 53.6808 51.1536 52.8779C50.0226 51.478 47.9809 50.1994 46.2018 49.7767C45.4218 49.5915 43.5895 49.4574 43.0695 49.5475ZM45.9172 50.9178C47.0841 51.1879 48.4543 51.9223 49.3656 52.7661C51.1546 54.4224 51.9431 56.172 51.9463 58.4926C51.9483 59.8878 51.7398 60.7994 51.1509 61.9717C50.3401 63.5852 49.13 64.7527 47.4282 65.5633C45.1807 66.6336 42.7426 66.6148 40.4543 65.5095C37.0599 63.87 35.3248 60.1328 36.2794 56.5173C37.0752 53.5035 39.8982 51.0932 43.0416 50.7437C43.9824 50.6391 44.9728 50.6991 45.9172 50.9178ZM26.9524 52.385C26.2275 52.8213 25.9834 53.4062 25.9834 54.7073V55.7549H24.7814C22.8596 55.7549 22.0257 56.1256 21.3819 57.2659L21.0435 57.8652V61.5725C21.0435 64.7267 21.0712 65.3393 21.2293 65.679C21.5286 66.322 22.038 66.833 22.666 67.12C23.1756 67.353 23.4299 67.388 24.6177 67.3889L25.9834 67.39L25.9852 68.5022C25.9869 69.443 26.0276 69.6842 26.2486 70.0673C26.5552 70.5987 27.1201 71.0039 27.7045 71.1115C28.2408 71.2101 30.1738 70.6061 30.8422 70.1309C31.3611 69.762 31.9192 69.0212 32.1252 68.4282C32.2212 68.1519 32.2596 66.1672 32.2587 61.527L32.2576 55.0135L31.9778 54.4236C31.5609 53.5448 30.8957 52.9765 29.7811 52.5468C28.4762 52.0438 27.6023 51.9938 26.9524 52.385ZM58.5025 52.4355C57.4333 52.8144 56.7931 53.2275 56.3928 53.7963C55.7181 54.7553 55.7388 54.5103 55.7388 61.5271C55.7388 65.8428 55.7806 68.1282 55.8649 68.4039C56.2146 69.5495 57.1017 70.2914 58.7456 70.8129C60.0367 71.2224 60.4359 71.2164 61.0997 70.7775C61.7924 70.3194 62.0112 69.7746 62.0134 68.5022L62.0153 67.39L63.381 67.3889C64.5688 67.388 64.8231 67.353 65.3327 67.12C65.9607 66.833 66.4701 66.322 66.7694 65.679C66.9275 65.3393 66.9551 64.7267 66.9551 61.5725V57.8652L66.6168 57.2659C65.973 56.1256 65.139 55.7549 63.2172 55.7549H62.0153V54.6892C62.0153 53.7941 61.972 53.543 61.745 53.1207C61.1882 52.0847 60.1258 51.8602 58.5025 52.4355ZM29.1906 53.5845C30.2136 53.9711 30.573 54.2513 30.8779 54.8994C31.0782 55.3252 31.0927 55.7734 31.095 61.6123C31.0978 68.5174 31.1256 68.2417 30.3528 68.9769C29.8281 69.4759 28.1933 70.0421 27.7323 69.8844C27.5552 69.8237 27.3507 69.646 27.278 69.4893C27.1832 69.2853 27.1457 67.0168 27.1457 61.5048V53.8054L27.4311 53.5254C27.8009 53.1623 28.1002 53.1724 29.1906 53.5845ZM60.5676 53.5254L60.853 53.8054V61.5177C60.853 69.2457 60.8379 69.5633 60.4578 69.8123C60.0342 70.0898 58.2629 69.5561 57.6321 68.9608C56.8754 68.2468 56.9008 68.5035 56.9036 61.6123C56.906 55.7734 56.9205 55.3252 57.1208 54.8994C57.4223 54.2583 57.7832 53.9724 58.7722 53.5907C59.8457 53.1765 60.199 53.1636 60.5676 53.5254ZM39.6697 55.0796C39.4361 55.2132 39.3967 55.755 39.6058 55.9602C39.697 56.0498 40.1791 56.0971 41.0005 56.0971H42.2559V57.0097V57.9222H41.0437C40.0967 57.9222 39.7916 57.9615 39.6489 58.1015C39.4987 58.2489 39.4663 58.5926 39.4663 60.038C39.4663 62.269 39.3743 62.1775 41.5619 62.1236C42.9135 62.0901 43.1076 62.0604 43.2535 61.8644C43.4769 61.564 43.4607 61.3861 43.1857 61.1162C42.9843 60.9185 42.7983 60.8881 41.7909 60.8881H40.6286V59.9755V59.0629H41.9031C43.0441 59.0629 43.1901 59.0399 43.2979 58.8423C43.3648 58.7195 43.4182 57.8928 43.4182 56.9779C43.4182 54.8551 43.5166 54.9553 41.433 54.9599C40.5751 54.9618 39.7816 55.0156 39.6697 55.0796ZM44.7729 55.1651C44.6128 55.3386 44.5805 55.6466 44.5805 56.9976C44.5805 57.899 44.6341 58.7198 44.7008 58.8423C44.8085 59.0398 44.9545 59.0629 46.092 59.0629H47.3629L47.3955 60.4571C47.4274 61.8147 47.4357 61.855 47.7177 61.9927C47.9511 62.1068 48.0523 62.1047 48.2408 61.9821C48.4644 61.8363 48.4755 61.6909 48.5052 58.5358C48.5334 55.5401 48.5182 55.2287 48.3377 55.099C48.0688 54.9059 47.7728 54.9197 47.5527 55.1356C47.408 55.2778 47.3701 55.5855 47.3701 56.6185V57.9222H46.5564H45.7428V56.5762C45.7428 55.6815 45.6961 55.1843 45.6033 55.0933C45.398 54.8918 44.9927 54.9268 44.7729 55.1651ZM25.9834 61.6295V66.2493H24.7497C23.7129 66.2493 23.447 66.2112 23.0829 66.0105C22.2664 65.5601 22.264 65.5468 22.264 61.6348C22.264 57.8449 22.2797 57.7396 22.9166 57.2479C23.1901 57.0367 23.3818 57.0097 24.6043 57.0097H25.9834V61.6295ZM65.0821 57.2479C65.719 57.7396 65.7347 57.8449 65.7347 61.6348C65.7347 65.5596 65.7241 65.6151 64.8967 66.032C64.553 66.2052 64.2166 66.2493 63.2404 66.2493H62.0153V61.6295V57.0097H63.3944C64.6169 57.0097 64.8086 57.0367 65.0821 57.2479ZM43.0386 71.7276C41.9161 72.0054 40.9358 72.7525 40.4224 73.7209C39.9944 74.5283 39.9949 75.6498 40.4235 76.4658C40.8018 77.1864 41.5086 77.822 42.3581 78.2058C42.8992 78.4503 43.1809 78.5008 43.9993 78.5C44.8289 78.4991 45.1013 78.4483 45.6983 78.1829C46.5435 77.8072 47.267 77.1196 47.6024 76.373L47.8459 75.8312H52.8281C57.323 75.8312 57.8766 75.8109 58.4889 75.6233C59.6238 75.2756 60.6327 74.5248 61.2455 73.5719C61.6635 72.9219 61.7182 72.6541 61.4847 72.4009C61.1216 72.0071 60.7835 72.1203 60.3533 72.7798C59.8792 73.5067 59.242 74.0719 58.5343 74.3932C58.0259 74.6241 57.8077 74.6347 52.9201 74.6666C47.8421 74.6995 47.835 74.6992 47.835 74.4631C47.835 74.0864 47.3131 73.1876 46.828 72.7287C45.9273 71.8768 44.2384 71.4305 43.0386 71.7276ZM45.3652 73.1096C46.3361 73.5665 46.8608 74.5654 46.644 75.5438C46.5023 76.1828 46.081 76.6717 45.3746 77.0172C44.1516 77.6153 42.4629 77.2939 41.7051 76.3191C41.2869 75.7809 41.204 74.7118 41.5346 74.123C42.2158 72.9105 43.9607 72.4488 45.3652 73.1096Z" fill="#A21D34"/>
</svg>
