<svg width="42" height="42" viewBox="0 0 42 42" fill="none" xmlns="http://www.w3.org/2000/svg">
<path fill-rule="evenodd" clip-rule="evenodd" d="M24.1357 0.109977C23.7378 0.252023 23.2706 0.692868 23.0701 1.11547C22.9876 1.2894 22.9286 1.6052 22.9296 1.86719C22.9328 2.66944 23.3208 3.29283 24.0228 3.62367C24.385 3.79439 24.5028 3.79866 29.9157 3.83892L35.4391 3.88L25.5369 13.7797C19.6001 19.715 15.5644 23.811 15.4591 24.008C15.111 24.6593 15.2521 25.5416 15.7987 26.1311C16.3428 26.7178 17.3112 26.8971 17.9863 26.536C18.1832 26.4307 22.2779 22.3937 28.2114 16.455L38.1079 6.54963L38.149 12.0748C38.1868 17.1698 38.2015 17.6255 38.3381 17.9285C38.6599 18.6426 39.321 19.0641 40.1201 19.0647C40.6565 19.065 41.0597 18.8919 41.4639 18.4875C42.0387 17.9125 42.0147 18.3286 41.9901 9.37248L41.968 1.3202L41.7195 0.918137C41.5654 0.668961 41.3179 0.421427 41.0688 0.267304L40.6669 0.0187025L32.5707 0.00383241C25.6226 -0.00890164 24.4264 0.00613275 24.1357 0.109977ZM1.25715 7.74047C0.801334 7.90905 0.460252 8.19249 0.217806 8.60392L0 8.97362V24.836V40.6984L0.248523 41.1006C0.402597 41.3498 0.64997 41.5973 0.89915 41.7514L1.30117 42H17.1586H33.0159L33.3912 41.7792C33.8139 41.5307 34.1483 41.0912 34.2861 40.6034C34.3535 40.365 34.3722 37.5539 34.3545 30.375L34.33 20.4753L34.1532 20.1467C33.926 19.7244 33.681 19.4995 33.2212 19.291C32.1044 18.7845 30.8236 19.4652 30.5917 20.6883C30.5421 20.9499 30.511 24.4029 30.511 29.6468V38.1798H17.165H3.819V24.8296V11.4793H12.3493C17.5916 11.4793 21.0435 11.4482 21.305 11.3986C22.5277 11.1667 23.2081 9.88537 22.7018 8.76823C22.4934 8.30832 22.2685 8.06325 21.8463 7.83601L21.5178 7.65913L11.5391 7.64369C3.27974 7.63095 1.50822 7.64763 1.25715 7.74047Z" fill="white"/>
</svg>
