<svg width="135" height="117" viewBox="0 0 135 117" fill="none" xmlns="http://www.w3.org/2000/svg">
<path d="M44.7526 78.9865C39.4092 78.9865 34.5687 77.5406 30.2311 74.6489C25.8935 71.7571 22.4674 67.7338 19.9528 62.579C17.5011 57.3613 16.2753 51.3578 16.2753 44.5685C16.2753 37.7163 17.5011 31.7442 19.9528 26.6523C22.4045 21.4974 25.7677 17.5056 30.0425 14.6767C34.3172 11.7849 39.1577 10.3391 44.564 10.3391C50.0332 10.3391 54.9052 11.7849 59.1799 14.6767C63.4547 17.5056 66.8179 21.4974 69.2696 26.6523C71.7841 31.8071 73.0414 37.8106 73.0414 44.6628C73.0414 51.5149 71.7841 57.5184 69.2696 62.6733C66.8179 67.8281 63.4547 71.8514 59.1799 74.7432C54.968 77.572 50.1589 78.9865 44.7526 78.9865ZM44.6583 65.8793C47.4244 65.8793 49.8132 65.0935 51.8248 63.5219C53.8365 61.8875 55.3766 59.4987 56.4453 56.3555C57.5769 53.1494 58.1427 49.2518 58.1427 44.6628C58.1427 40.0108 57.5769 36.1133 56.4453 32.9701C55.3766 29.8269 53.8365 27.4695 51.8248 25.8979C49.8132 24.2634 47.3929 23.4462 44.564 23.4462C41.8609 23.4462 39.4721 24.232 37.3976 25.8036C35.3859 27.3752 33.8457 29.7326 32.7771 32.8758C31.7084 36.019 31.174 39.9165 31.174 44.5685C31.174 49.2204 31.7084 53.118 32.7771 56.2612C33.8457 59.4044 35.3859 61.7932 37.3976 63.4277C39.4721 65.0621 41.8923 65.8793 44.6583 65.8793ZM78.0406 54.8467L99.9172 11.3763L116.042 11.3763L93.6937 54.8467L78.0406 54.8467ZM78.0406 63.1448V54.8467L82.9439 50.6034L131.412 50.6034V63.1448L78.0406 63.1448ZM109.441 77.9492L109.441 36.7419L123.963 36.7419L123.963 77.9492H109.441Z" fill="#A21D34" fill-opacity="0.08"/>
<path d="M2.82384 107.4L1.41584 108.376C1.66118 108.888 1.99184 109.363 2.40784 109.8C2.82384 110.237 3.30918 110.589 3.86384 110.856C4.42918 111.112 5.04251 111.24 5.70384 111.24C6.18384 111.24 6.64251 111.16 7.07984 111C7.52784 110.851 7.92784 110.637 8.27984 110.36C8.63184 110.072 8.90918 109.72 9.11184 109.304C9.31451 108.888 9.41584 108.419 9.41584 107.896C9.41584 107.405 9.33051 106.979 9.15984 106.616C8.99984 106.253 8.78118 105.939 8.50384 105.672C8.22651 105.395 7.91718 105.165 7.57584 104.984C7.24518 104.803 6.91451 104.653 6.58384 104.536C5.98651 104.323 5.50118 104.115 5.12784 103.912C4.75451 103.709 4.47718 103.496 4.29584 103.272C4.12518 103.037 4.03984 102.776 4.03984 102.488C4.03984 102.168 4.16251 101.891 4.40784 101.656C4.65318 101.411 5.03718 101.288 5.55984 101.288C5.93318 101.288 6.25851 101.363 6.53584 101.512C6.82384 101.651 7.07451 101.843 7.28784 102.088C7.50118 102.323 7.67718 102.579 7.81584 102.856L9.35184 101.992C9.15984 101.597 8.89318 101.219 8.55184 100.856C8.22118 100.493 7.81051 100.195 7.31984 99.96C6.82918 99.7253 6.25318 99.608 5.59184 99.608C4.91984 99.608 4.31718 99.736 3.78384 99.992C3.26118 100.237 2.84518 100.589 2.53584 101.048C2.22651 101.496 2.07184 102.019 2.07184 102.616C2.07184 103.139 2.17318 103.587 2.37584 103.96C2.57851 104.323 2.83451 104.632 3.14384 104.888C3.45318 105.133 3.77851 105.341 4.11984 105.512C4.46118 105.672 4.77051 105.8 5.04784 105.896C5.51718 106.067 5.92784 106.243 6.27984 106.424C6.64251 106.595 6.92518 106.808 7.12784 107.064C7.33051 107.309 7.43184 107.64 7.43184 108.056C7.43184 108.493 7.27184 108.851 6.95184 109.128C6.63184 109.405 6.21584 109.544 5.70384 109.544C5.27718 109.544 4.89318 109.459 4.55184 109.288C4.21051 109.107 3.89584 108.856 3.60784 108.536C3.33051 108.205 3.06918 107.827 2.82384 107.4ZM11.1455 100.712C11.1455 101 11.2521 101.251 11.4655 101.464C11.6895 101.667 11.9455 101.768 12.2335 101.768C12.5428 101.768 12.7988 101.667 13.0015 101.464C13.2148 101.251 13.3215 101 13.3215 100.712C13.3215 100.413 13.2148 100.163 13.0015 99.96C12.7988 99.7573 12.5428 99.656 12.2335 99.656C11.9455 99.656 11.6895 99.7573 11.4655 99.96C11.2521 100.163 11.1455 100.413 11.1455 100.712ZM11.3855 103.64L11.3855 111H13.0815L13.0815 103.64H11.3855ZM15.0435 111.496C15.0648 112.136 15.2248 112.701 15.5235 113.192C15.8328 113.683 16.2701 114.061 16.8355 114.328C17.4008 114.605 18.0835 114.744 18.8835 114.744C19.5555 114.744 20.1795 114.6 20.7555 114.312C21.3315 114.035 21.7955 113.608 22.1475 113.032C22.5101 112.456 22.6915 111.725 22.6915 110.84L22.6915 103.64H20.9955L20.9955 110.84C20.9955 111.395 20.8888 111.848 20.6755 112.2C20.4728 112.552 20.2061 112.813 19.8755 112.984C19.5448 113.155 19.1981 113.24 18.8355 113.24C18.4301 113.24 18.0728 113.165 17.7635 113.016C17.4541 112.867 17.2088 112.659 17.0275 112.392C16.8568 112.125 16.7661 111.827 16.7555 111.496H15.0435ZM14.8995 107.288C14.8995 108.088 15.0648 108.771 15.3955 109.336C15.7261 109.901 16.1635 110.333 16.7075 110.632C17.2621 110.931 17.8541 111.08 18.4835 111.08C19.1021 111.08 19.6408 110.931 20.0995 110.632C20.5688 110.323 20.9368 109.885 21.2035 109.32C21.4808 108.755 21.6195 108.077 21.6195 107.288C21.6195 106.488 21.4808 105.805 21.2035 105.24C20.9368 104.675 20.5688 104.243 20.0995 103.944C19.6408 103.635 19.1021 103.48 18.4835 103.48C17.8541 103.48 17.2621 103.629 16.7075 103.928C16.1635 104.227 15.7261 104.659 15.3955 105.224C15.0648 105.779 14.8995 106.467 14.8995 107.288ZM16.6915 107.288C16.6915 106.787 16.7928 106.365 16.9955 106.024C17.1981 105.683 17.4648 105.427 17.7955 105.256C18.1368 105.075 18.5048 104.984 18.8995 104.984C19.1448 104.984 19.3901 105.032 19.6355 105.128C19.8915 105.224 20.1208 105.373 20.3235 105.576C20.5261 105.768 20.6861 106.008 20.8035 106.296C20.9315 106.573 20.9955 106.904 20.9955 107.288C20.9955 107.779 20.8888 108.2 20.6755 108.552C20.4728 108.893 20.2061 109.149 19.8755 109.32C19.5555 109.491 19.2301 109.576 18.8995 109.576C18.5048 109.576 18.1368 109.491 17.7955 109.32C17.4648 109.139 17.1981 108.877 16.9955 108.536C16.7928 108.195 16.6915 107.779 16.6915 107.288ZM29.5705 106.52V111H31.3465V106.328C31.3465 105.443 31.1278 104.749 30.6905 104.248C30.2531 103.736 29.6185 103.48 28.7865 103.48C28.2745 103.48 27.8318 103.587 27.4585 103.8C27.0958 104.013 26.7971 104.339 26.5625 104.776V103.64H24.8345L24.8345 111H26.5625V106.52C26.5625 106.189 26.6318 105.901 26.7705 105.656C26.9091 105.4 27.1011 105.208 27.3465 105.08C27.5918 104.941 27.8745 104.872 28.1945 104.872C28.6638 104.872 29.0105 105.011 29.2345 105.288C29.4585 105.565 29.5705 105.976 29.5705 106.52ZM37.3261 103.64V105.16H41.5021V103.64H37.3261ZM38.5581 101.08V111H40.2701V101.08H38.5581ZM44.4218 98.52H42.6938V111H44.4218V98.52ZM47.4298 106.52V111H49.1738V106.28C49.1738 105.651 49.0778 105.128 48.8858 104.712C48.6938 104.285 48.4058 103.965 48.0218 103.752C47.6485 103.539 47.1898 103.432 46.6458 103.432C46.0912 103.432 45.6165 103.571 45.2218 103.848C44.8378 104.125 44.5392 104.493 44.3258 104.952C44.1125 105.411 44.0058 105.933 44.0058 106.52H44.4218C44.4218 106.189 44.4912 105.901 44.6298 105.656C44.7685 105.411 44.9605 105.219 45.2058 105.08C45.4512 104.941 45.7338 104.872 46.0538 104.872C46.5338 104.872 46.8805 105.011 47.0938 105.288C47.3178 105.565 47.4298 105.976 47.4298 106.52ZM54.5657 111.16C55.4191 111.16 56.1497 110.995 56.7577 110.664C57.3657 110.333 57.8617 109.837 58.2457 109.176L56.7577 108.568C56.5231 108.963 56.2297 109.256 55.8777 109.448C55.5257 109.64 55.1151 109.736 54.6457 109.736C54.1977 109.736 53.8137 109.64 53.4937 109.448C53.1844 109.256 52.9497 108.979 52.7897 108.616C52.6297 108.243 52.5497 107.789 52.5497 107.256C52.5604 106.723 52.6457 106.275 52.8057 105.912C52.9657 105.549 53.2004 105.272 53.5097 105.08C53.8191 104.888 54.1924 104.792 54.6297 104.792C54.9924 104.792 55.3071 104.872 55.5737 105.032C55.8511 105.192 56.0644 105.416 56.2137 105.704C56.3737 105.992 56.4537 106.333 56.4537 106.728C56.4537 106.803 56.4324 106.899 56.3897 107.016C56.3577 107.123 56.3257 107.208 56.2937 107.272L56.8217 106.536H51.8297V107.72H58.2937C58.3044 107.677 58.3097 107.608 58.3097 107.512C58.3204 107.416 58.3257 107.325 58.3257 107.24C58.3257 106.451 58.1764 105.779 57.8777 105.224C57.5897 104.659 57.1737 104.227 56.6297 103.928C56.0857 103.629 55.4244 103.48 54.6457 103.48C53.8671 103.48 53.1897 103.64 52.6137 103.96C52.0377 104.269 51.5897 104.712 51.2697 105.288C50.9604 105.864 50.8057 106.541 50.8057 107.32C50.8057 108.088 50.9604 108.76 51.2697 109.336C51.5791 109.912 52.0164 110.36 52.5817 110.68C53.1577 111 53.8191 111.16 54.5657 111.16ZM66.308 105.4C66.308 104.6 66.484 103.907 66.836 103.32C67.1986 102.723 67.668 102.264 68.244 101.944C68.8306 101.613 69.4653 101.448 70.148 101.448C70.6813 101.448 71.1613 101.517 71.588 101.656C72.0146 101.795 72.3986 101.987 72.74 102.232C73.092 102.467 73.396 102.733 73.652 103.032V100.792C73.1826 100.408 72.676 100.115 72.132 99.912C71.588 99.7093 70.9053 99.608 70.084 99.608C69.2626 99.608 68.4946 99.7467 67.78 100.024C67.076 100.301 66.4626 100.701 65.94 101.224C65.4173 101.747 65.0066 102.365 64.708 103.08C64.42 103.784 64.276 104.557 64.276 105.4C64.276 106.243 64.42 107.021 64.708 107.736C65.0066 108.44 65.4173 109.053 65.94 109.576C66.4626 110.099 67.076 110.499 67.78 110.776C68.4946 111.053 69.2626 111.192 70.084 111.192C70.9053 111.192 71.588 111.091 72.132 110.888C72.676 110.685 73.1826 110.392 73.652 110.008V107.768C73.396 108.067 73.092 108.339 72.74 108.584C72.3986 108.819 72.0146 109.005 71.588 109.144C71.1613 109.283 70.6813 109.352 70.148 109.352C69.4653 109.352 68.8306 109.192 68.244 108.872C67.668 108.541 67.1986 108.077 66.836 107.48C66.484 106.883 66.308 106.189 66.308 105.4ZM75.2745 107.32C75.2745 108.067 75.4451 108.733 75.7865 109.32C76.1385 109.896 76.6131 110.349 77.2105 110.68C77.8078 111 78.4851 111.16 79.2425 111.16C79.9998 111.16 80.6718 111 81.2585 110.68C81.8558 110.349 82.3305 109.896 82.6825 109.32C83.0345 108.733 83.2105 108.067 83.2105 107.32C83.2105 106.563 83.0345 105.896 82.6825 105.32C82.3305 104.744 81.8558 104.296 81.2585 103.976C80.6718 103.645 79.9998 103.48 79.2425 103.48C78.4851 103.48 77.8078 103.645 77.2105 103.976C76.6131 104.296 76.1385 104.744 75.7865 105.32C75.4451 105.896 75.2745 106.563 75.2745 107.32ZM77.0505 107.32C77.0505 106.861 77.1465 106.456 77.3385 106.104C77.5305 105.752 77.7918 105.48 78.1225 105.288C78.4531 105.096 78.8265 105 79.2425 105C79.6478 105 80.0158 105.096 80.3465 105.288C80.6878 105.48 80.9545 105.752 81.1465 106.104C81.3385 106.456 81.4345 106.861 81.4345 107.32C81.4345 107.779 81.3385 108.184 81.1465 108.536C80.9545 108.877 80.6878 109.149 80.3465 109.352C80.0158 109.544 79.6478 109.64 79.2425 109.64C78.8265 109.64 78.4531 109.544 78.1225 109.352C77.7918 109.149 77.5305 108.877 77.3385 108.536C77.1465 108.184 77.0505 107.779 77.0505 107.32ZM89.5861 106.52V111H91.3621V106.328C91.3621 105.443 91.1434 104.749 90.7061 104.248C90.2688 103.736 89.6341 103.48 88.8021 103.48C88.2901 103.48 87.8474 103.587 87.4741 103.8C87.1114 104.013 86.8128 104.339 86.5781 104.776V103.64H84.8501V111H86.5781V106.52C86.5781 106.189 86.6474 105.901 86.7861 105.656C86.9248 105.4 87.1168 105.208 87.3621 105.08C87.6074 104.941 87.8901 104.872 88.2101 104.872C88.6794 104.872 89.0261 105.011 89.2501 105.288C89.4741 105.565 89.5861 105.976 89.5861 106.52ZM92.5448 103.64V105.16H96.7208V103.64H92.5448ZM93.7768 101.08V111H95.4888V101.08H93.7768ZM99.6246 103.64H97.9126V111H99.6246V103.64ZM101.817 105.48L102.649 104.024C102.489 103.821 102.291 103.683 102.057 103.608C101.822 103.523 101.571 103.48 101.305 103.48C100.931 103.48 100.569 103.613 100.217 103.88C99.8753 104.147 99.5926 104.509 99.3686 104.968C99.1553 105.416 99.0486 105.933 99.0486 106.52L99.6246 106.856C99.6246 106.504 99.6619 106.2 99.7366 105.944C99.8219 105.677 99.9553 105.469 100.137 105.32C100.318 105.171 100.553 105.096 100.841 105.096C101.054 105.096 101.23 105.128 101.369 105.192C101.507 105.256 101.657 105.352 101.817 105.48ZM104.922 108.712C104.922 108.477 104.976 108.28 105.082 108.12C105.2 107.96 105.37 107.837 105.594 107.752C105.818 107.656 106.112 107.608 106.474 107.608C106.89 107.608 107.285 107.661 107.658 107.768C108.032 107.875 108.384 108.045 108.714 108.28V107.4C108.618 107.283 108.453 107.155 108.218 107.016C107.984 106.867 107.685 106.739 107.322 106.632C106.97 106.525 106.549 106.472 106.058 106.472C105.141 106.472 104.432 106.685 103.93 107.112C103.429 107.528 103.178 108.093 103.178 108.808C103.178 109.309 103.296 109.736 103.53 110.088C103.765 110.44 104.08 110.707 104.474 110.888C104.869 111.069 105.296 111.16 105.754 111.16C106.181 111.16 106.597 111.085 107.002 110.936C107.418 110.776 107.76 110.541 108.026 110.232C108.304 109.912 108.442 109.517 108.442 109.048L108.186 108.088C108.186 108.451 108.096 108.771 107.914 109.048C107.744 109.315 107.514 109.517 107.226 109.656C106.949 109.795 106.64 109.864 106.298 109.864C106.032 109.864 105.792 109.821 105.578 109.736C105.376 109.651 105.216 109.523 105.098 109.352C104.981 109.171 104.922 108.957 104.922 108.712ZM104.378 105.56C104.485 105.485 104.645 105.395 104.858 105.288C105.082 105.171 105.344 105.075 105.642 105C105.952 104.915 106.277 104.872 106.618 104.872C106.842 104.872 107.05 104.893 107.242 104.936C107.434 104.979 107.6 105.048 107.738 105.144C107.877 105.24 107.984 105.363 108.058 105.512C108.144 105.661 108.186 105.853 108.186 106.088V111H109.882V105.752C109.882 105.261 109.749 104.851 109.482 104.52C109.216 104.179 108.848 103.917 108.378 103.736C107.92 103.555 107.386 103.464 106.778 103.464C106.096 103.464 105.488 103.56 104.954 103.752C104.432 103.944 104.005 104.141 103.674 104.344L104.378 105.56ZM113.049 107.32C113.049 106.861 113.15 106.456 113.353 106.104C113.556 105.752 113.828 105.475 114.169 105.272C114.521 105.069 114.91 104.968 115.337 104.968C115.678 104.968 116.009 105.021 116.329 105.128C116.649 105.235 116.932 105.384 117.177 105.576C117.433 105.757 117.62 105.971 117.737 106.216V104.312C117.481 104.056 117.134 103.853 116.697 103.704C116.26 103.555 115.78 103.48 115.257 103.48C114.5 103.48 113.817 103.645 113.209 103.976C112.612 104.296 112.137 104.744 111.785 105.32C111.444 105.896 111.273 106.563 111.273 107.32C111.273 108.067 111.444 108.733 111.785 109.32C112.137 109.896 112.612 110.349 113.209 110.68C113.817 111 114.5 111.16 115.257 111.16C115.78 111.16 116.26 111.085 116.697 110.936C117.134 110.787 117.481 110.584 117.737 110.328V108.424C117.62 108.659 117.438 108.872 117.193 109.064C116.948 109.256 116.665 109.405 116.345 109.512C116.025 109.619 115.689 109.672 115.337 109.672C114.91 109.672 114.521 109.571 114.169 109.368C113.828 109.165 113.556 108.893 113.353 108.552C113.15 108.2 113.049 107.789 113.049 107.32ZM118.623 103.64V105.16H122.799V103.64H118.623ZM119.855 101.08V111H121.567V101.08H119.855Z" fill="#A21D34"/>
<path fill-rule="evenodd" clip-rule="evenodd" d="M1.46285 31.2704C1.34863 31.3172 1.16173 31.4591 1.04751 31.586C0.840986 31.8153 0.839844 31.9627 0.839844 57.738V83.6596L1.12777 83.9471L1.4156 84.2348H21.7623H42.1091L42.3969 83.9471L42.6848 83.6596V74.8983V66.137L42.3993 65.8518C41.9744 65.4274 41.367 65.4489 40.961 65.903L40.6601 66.2394V74.2257V82.2119H21.7623H2.8646V57.7295V33.2472H15.5842H28.3039L28.305 38.7194C28.3056 41.7292 28.335 44.3664 28.3704 44.5799C28.4057 44.7935 28.5518 45.0853 28.6949 45.2283L28.9552 45.4884H34.8076H40.6601V51.5121C40.6601 55.7442 40.6945 57.6031 40.776 57.7623C40.9633 58.1281 41.3089 58.3474 41.6984 58.3474C42.0879 58.3474 42.4335 58.1281 42.6208 57.7623C42.7026 57.6025 42.7367 55.5925 42.7367 50.9363C42.7367 45.4015 42.7126 44.2917 42.5877 44.0568C42.4076 43.7182 30.1126 31.4497 29.7903 31.2869C29.5191 31.15 1.79688 31.1339 1.46285 31.2704ZM49.0475 31.3531C48.8268 31.4897 48.3826 32.3369 47.0228 35.2146L45.2807 38.9009V60.7461V82.5913L45.5949 83.0991C45.7897 83.4138 46.1024 83.7263 46.4174 83.9209L46.9257 84.2348H49.5898H52.2538L52.7621 83.9209C53.0771 83.7263 53.3899 83.4138 53.5847 83.0991L53.8989 82.5913V60.7461V38.9009L52.1543 35.2116C50.7329 32.2052 50.3551 31.4897 50.1136 31.3473C49.7407 31.1273 49.4091 31.129 49.0475 31.3531ZM34.8454 39.1084L39.1535 43.4136H34.8189H30.4844V39.1084C30.4844 36.7406 30.4963 34.8033 30.5108 34.8033C30.5254 34.8033 32.4759 36.7406 34.8454 39.1084ZM50.4499 36.489L51.2372 38.1748L50.4135 38.2049C49.9604 38.2215 49.2191 38.2215 48.766 38.2049L47.9423 38.1748L48.7296 36.489C49.1626 35.5619 49.5497 34.8033 49.5898 34.8033C49.6298 34.8033 50.0169 35.5619 50.4499 36.489ZM51.8741 58.0926V75.8838H49.5898H47.3054V58.0926V40.3014H49.5898H51.8741V58.0926ZM8.93887 42.2668C8.27787 42.5371 8.10218 43.4027 8.60598 43.9063L8.89142 44.1916L12.1339 44.2221C13.9174 44.2388 15.4857 44.2253 15.619 44.1919C15.7524 44.1586 15.9743 44.0098 16.1122 43.8611C16.5588 43.3797 16.391 42.6005 15.7728 42.2846C15.5052 42.1479 9.26937 42.1317 8.93887 42.2668ZM18.9588 42.3008C18.568 42.4949 18.3021 43.1038 18.4445 43.4782C18.6986 44.146 19.2886 44.4003 19.8776 44.096C20.2607 43.8981 20.4125 43.6454 20.4125 43.2061C20.4125 42.7721 20.2612 42.5144 19.8954 42.3254C19.529 42.1361 19.3022 42.1301 18.9588 42.3008ZM8.93887 48.4911C8.27787 48.7614 8.10218 49.6271 8.60608 50.1307L8.89163 50.416L21.7098 50.4431L34.5279 50.4702L34.8659 50.1684C35.1461 49.9184 35.2041 49.7918 35.2041 49.4304C35.2041 49.0694 35.146 48.9424 34.8673 48.6937L34.5305 48.393L21.8385 48.3996C14.8579 48.4032 9.05309 48.4444 8.93887 48.4911ZM8.93887 54.7154C8.27787 54.9858 8.10218 55.8514 8.60608 56.355L8.89163 56.6403L21.7098 56.6675L34.5279 56.6945L34.8659 56.3928C35.1461 56.1427 35.2041 56.0161 35.2041 55.6548C35.2041 55.2938 35.146 55.1668 34.8673 54.918L34.5305 54.6174L21.8385 54.6239C14.8579 54.6275 9.05309 54.6687 8.93887 54.7154ZM8.93887 60.9397C8.27787 61.2101 8.10218 62.0758 8.60608 62.5793L8.89163 62.8646L21.7098 62.8918L34.5279 62.9189L34.8659 62.6171C35.1461 62.3671 35.2041 62.2404 35.2041 61.8791C35.2041 61.5181 35.146 61.3911 34.8673 61.1423L34.5305 60.8417L21.8385 60.8482C14.8579 60.8519 9.05309 60.8931 8.93887 60.9397ZM41.3233 60.9394C40.9942 61.0782 40.6601 61.5578 40.6601 61.8914C40.6601 62.071 40.7782 62.3191 40.961 62.5234C41.5856 63.222 42.6801 62.8118 42.6801 61.8791C42.6801 61.1901 41.9418 60.6787 41.3233 60.9394ZM8.93887 67.1641C8.27787 67.4344 8.10218 68.3001 8.60608 68.8036L8.89163 69.0889L21.7098 69.1161L34.5279 69.1432L34.8659 68.8414C35.1461 68.5914 35.2041 68.4647 35.2041 68.1034C35.2041 67.7424 35.146 67.6154 34.8673 67.3667L34.5305 67.066L21.8385 67.0726C14.8579 67.0762 9.05309 67.1174 8.93887 67.1641ZM8.93887 73.3884C8.27787 73.6587 8.10218 74.5244 8.60608 75.028L8.89163 75.3133L21.7098 75.3404L34.5279 75.3675L34.8659 75.0657C35.1461 74.8157 35.2041 74.6891 35.2041 74.3277C35.2041 73.9667 35.146 73.8398 34.8673 73.591L34.5305 73.2904L21.8385 73.2969C14.8579 73.3005 9.05309 73.3417 8.93887 73.3884ZM51.8741 79.9608C51.8741 81.3797 51.8378 81.9992 51.7495 82.0874C51.5735 82.2632 47.606 82.2632 47.43 82.0874C47.3418 81.9992 47.3054 81.3797 47.3054 79.9608V77.9586H49.5898H51.8741V79.9608Z" fill="#A21D34"/>
</svg>
