<svg width="100" height="118" viewBox="0 0 100 118" fill="none" xmlns="http://www.w3.org/2000/svg">
<path d="M31.4948 78.0373C26.1514 78.0373 21.3109 76.5914 16.9733 73.6996C12.6356 70.8079 9.20957 66.7846 6.69501 61.6298C4.24331 56.4121 3.01747 50.4086 3.01747 43.6193C3.01747 36.7671 4.24331 30.795 6.69501 25.703C9.1467 20.5482 12.5099 16.5563 16.7847 13.7275C21.0594 10.8357 25.8999 9.38985 31.3062 9.38985C36.7754 9.38985 41.6474 10.8357 45.9221 13.7275C50.1968 16.5563 53.5601 20.5482 56.0118 25.703C58.5263 30.8579 59.7836 36.8614 59.7836 43.7136C59.7836 50.5657 58.5263 56.5692 56.0118 61.7241C53.5601 66.8789 50.1968 70.9022 45.9221 73.7939C41.7102 76.6228 36.9011 78.0373 31.4948 78.0373ZM31.4005 64.9301C34.1665 64.9301 36.5554 64.1443 38.567 62.5727C40.5787 60.9383 42.1188 58.5494 43.1875 55.4062C44.3191 52.2002 44.8848 48.3026 44.8848 43.7136C44.8848 39.0616 44.3191 35.1641 43.1875 32.0209C42.1188 28.8777 40.5787 26.5203 38.567 24.9487C36.5554 23.3142 34.1351 22.497 31.3062 22.497C28.6031 22.497 26.2143 23.2828 24.1397 24.8544C22.1281 26.426 20.5879 28.7834 19.5192 31.9266C18.4506 35.0698 17.9162 38.9673 17.9162 43.6193C17.9162 48.2712 18.4506 52.1688 19.5192 55.3119C20.5879 58.4551 22.1281 60.844 24.1397 62.4784C26.2143 64.1129 28.6345 64.9301 31.4005 64.9301ZM77.5127 77L77.5127 10.4271L92.2228 10.4271L92.2228 77H77.5127ZM64.6884 22.9685V10.4271L91.2799 10.4271V22.9685L64.6884 22.9685Z" fill="#A21D34" fill-opacity="0.08"/>
<path d="M3.552 106.656L7.12 112H9.392L5.6 106.656H3.552ZM1.248 100.8L1.248 112H3.136L3.136 100.8H1.248ZM2.368 102.432H4.624C5.05067 102.432 5.424 102.507 5.744 102.656C6.07467 102.805 6.33067 103.019 6.512 103.296C6.69333 103.573 6.784 103.915 6.784 104.32C6.784 104.715 6.69333 105.056 6.512 105.344C6.33067 105.621 6.07467 105.835 5.744 105.984C5.424 106.133 5.05067 106.208 4.624 106.208H2.368L2.368 107.76H4.704C5.51467 107.76 6.21867 107.616 6.816 107.328C7.424 107.04 7.89333 106.635 8.224 106.112C8.55467 105.589 8.72 104.976 8.72 104.272C8.72 103.568 8.55467 102.96 8.224 102.448C7.89333 101.925 7.424 101.52 6.816 101.232C6.21867 100.944 5.51467 100.8 4.704 100.8H2.368L2.368 102.432ZM13.8196 112.16C14.673 112.16 15.4036 111.995 16.0116 111.664C16.6196 111.333 17.1156 110.837 17.4996 110.176L16.0116 109.568C15.777 109.963 15.4836 110.256 15.1316 110.448C14.7796 110.64 14.369 110.736 13.8996 110.736C13.4516 110.736 13.0676 110.64 12.7476 110.448C12.4383 110.256 12.2036 109.979 12.0436 109.616C11.8836 109.243 11.8036 108.789 11.8036 108.256C11.8143 107.723 11.8996 107.275 12.0596 106.912C12.2196 106.549 12.4543 106.272 12.7636 106.08C13.073 105.888 13.4463 105.792 13.8836 105.792C14.2463 105.792 14.561 105.872 14.8276 106.032C15.105 106.192 15.3183 106.416 15.4676 106.704C15.6276 106.992 15.7076 107.333 15.7076 107.728C15.7076 107.803 15.6863 107.899 15.6436 108.016C15.6116 108.123 15.5796 108.208 15.5476 108.272L16.0756 107.536H11.0836V108.72H17.5476C17.5583 108.677 17.5636 108.608 17.5636 108.512C17.5743 108.416 17.5796 108.325 17.5796 108.24C17.5796 107.451 17.4303 106.779 17.1316 106.224C16.8436 105.659 16.4276 105.227 15.8836 104.928C15.3396 104.629 14.6783 104.48 13.8996 104.48C13.121 104.48 12.4436 104.64 11.8676 104.96C11.2916 105.269 10.8436 105.712 10.5236 106.288C10.2143 106.864 10.0596 107.541 10.0596 108.32C10.0596 109.088 10.2143 109.76 10.5236 110.336C10.833 110.912 11.2703 111.36 11.8356 111.68C12.4116 112 13.073 112.16 13.8196 112.16ZM17.8746 104.64L21.6826 112.672L25.5066 104.64H23.6026L21.6826 109.392L19.7626 104.64H17.8746ZM26.5244 101.712C26.5244 102 26.631 102.251 26.8444 102.464C27.0684 102.667 27.3244 102.768 27.6124 102.768C27.9217 102.768 28.1777 102.667 28.3804 102.464C28.5937 102.251 28.7004 102 28.7004 101.712C28.7004 101.413 28.5937 101.163 28.3804 100.96C28.1777 100.757 27.9217 100.656 27.6124 100.656C27.3244 100.656 27.0684 100.757 26.8444 100.96C26.631 101.163 26.5244 101.413 26.5244 101.712ZM26.7644 104.64L26.7644 112H28.4604L28.4604 104.64H26.7644ZM34.0384 112.16C34.8917 112.16 35.6224 111.995 36.2304 111.664C36.8384 111.333 37.3344 110.837 37.7184 110.176L36.2304 109.568C35.9957 109.963 35.7024 110.256 35.3504 110.448C34.9984 110.64 34.5877 110.736 34.1184 110.736C33.6704 110.736 33.2864 110.64 32.9664 110.448C32.657 110.256 32.4224 109.979 32.2624 109.616C32.1024 109.243 32.0224 108.789 32.0224 108.256C32.033 107.723 32.1184 107.275 32.2784 106.912C32.4384 106.549 32.673 106.272 32.9824 106.08C33.2917 105.888 33.665 105.792 34.1024 105.792C34.465 105.792 34.7797 105.872 35.0464 106.032C35.3237 106.192 35.537 106.416 35.6864 106.704C35.8464 106.992 35.9264 107.333 35.9264 107.728C35.9264 107.803 35.905 107.899 35.8624 108.016C35.8304 108.123 35.7984 108.208 35.7664 108.272L36.2944 107.536H31.3024V108.72H37.7664C37.777 108.677 37.7824 108.608 37.7824 108.512C37.793 108.416 37.7984 108.325 37.7984 108.24C37.7984 107.451 37.649 106.779 37.3504 106.224C37.0624 105.659 36.6464 105.227 36.1024 104.928C35.5584 104.629 34.897 104.48 34.1184 104.48C33.3397 104.48 32.6624 104.64 32.0864 104.96C31.5104 105.269 31.0624 105.712 30.7424 106.288C30.433 106.864 30.2784 107.541 30.2784 108.32C30.2784 109.088 30.433 109.76 30.7424 110.336C31.0517 110.912 31.489 111.36 32.0544 111.68C32.6304 112 33.2917 112.16 34.0384 112.16ZM38.1094 104.64L41.5494 112.528L43.7574 107.552L46.0614 112.528L49.5014 104.64H47.6294L45.9014 109.04L43.7414 104.08L41.7094 109.024L39.9814 104.64H38.1094ZM55.5449 100.8V112H57.4329V100.8H55.5449ZM56.6649 102.464H58.9209C59.5715 102.464 60.0942 102.619 60.4889 102.928C60.8835 103.227 61.0809 103.675 61.0809 104.272C61.0809 104.869 60.8835 105.323 60.4889 105.632C60.0942 105.941 59.5715 106.096 58.9209 106.096H56.6649V107.76H58.9209C59.7315 107.76 60.4355 107.621 61.0329 107.344C61.6409 107.056 62.1102 106.651 62.4409 106.128C62.7715 105.605 62.9369 104.987 62.9369 104.272C62.9369 103.557 62.7715 102.944 62.4409 102.432C62.1102 101.909 61.6409 101.509 61.0329 101.232C60.4355 100.944 59.7315 100.8 58.9209 100.8H56.6649V102.464ZM66.0504 104.64H64.3384V112H66.0504V104.64ZM68.2424 106.48L69.0744 105.024C68.9144 104.821 68.717 104.683 68.4824 104.608C68.2477 104.523 67.997 104.48 67.7304 104.48C67.357 104.48 66.9944 104.613 66.6424 104.88C66.301 105.147 66.0184 105.509 65.7944 105.968C65.581 106.416 65.4744 106.933 65.4744 107.52L66.0504 107.856C66.0504 107.504 66.0877 107.2 66.1624 106.944C66.2477 106.677 66.381 106.469 66.5624 106.32C66.7437 106.171 66.9784 106.096 67.2664 106.096C67.4797 106.096 67.6557 106.128 67.7944 106.192C67.933 106.256 68.0824 106.352 68.2424 106.48ZM69.4659 108.32C69.4659 109.067 69.6365 109.733 69.9779 110.32C70.3299 110.896 70.8045 111.349 71.4019 111.68C71.9992 112 72.6765 112.16 73.4339 112.16C74.1912 112.16 74.8632 112 75.4499 111.68C76.0472 111.349 76.5219 110.896 76.8739 110.32C77.2259 109.733 77.4019 109.067 77.4019 108.32C77.4019 107.563 77.2259 106.896 76.8739 106.32C76.5219 105.744 76.0472 105.296 75.4499 104.976C74.8632 104.645 74.1912 104.48 73.4339 104.48C72.6765 104.48 71.9992 104.645 71.4019 104.976C70.8045 105.296 70.3299 105.744 69.9779 106.32C69.6365 106.896 69.4659 107.563 69.4659 108.32ZM71.2419 108.32C71.2419 107.861 71.3379 107.456 71.5299 107.104C71.7219 106.752 71.9832 106.48 72.3139 106.288C72.6445 106.096 73.0179 106 73.4339 106C73.8392 106 74.2072 106.096 74.5379 106.288C74.8792 106.48 75.1459 106.752 75.3379 107.104C75.5299 107.456 75.6259 107.861 75.6259 108.32C75.6259 108.779 75.5299 109.184 75.3379 109.536C75.1459 109.877 74.8792 110.149 74.5379 110.352C74.2072 110.544 73.8392 110.64 73.4339 110.64C73.0179 110.64 72.6445 110.544 72.3139 110.352C71.9832 110.149 71.7219 109.877 71.5299 109.536C71.3379 109.184 71.2419 108.779 71.2419 108.32ZM78.4335 104.64V106.16H82.6575V104.64H78.4335ZM82.4655 101.376L83.2815 100.032C83.1962 99.9253 83.0735 99.8187 82.9135 99.712C82.7642 99.6053 82.5828 99.5147 82.3695 99.44C82.1562 99.3653 81.9055 99.328 81.6175 99.328C81.1055 99.328 80.6735 99.4293 80.3215 99.632C79.9695 99.824 79.6975 100.112 79.5055 100.496C79.3242 100.869 79.2335 101.344 79.2335 101.92V112H80.9295V102.256C80.9295 101.947 80.9615 101.696 81.0255 101.504C81.0895 101.312 81.1748 101.173 81.2815 101.088C81.3988 101.003 81.5375 100.96 81.6975 100.96C81.8362 100.96 81.9695 100.987 82.0975 101.04C82.2362 101.093 82.3588 101.205 82.4655 101.376ZM83.915 101.712C83.915 102 84.0217 102.251 84.235 102.464C84.459 102.667 84.715 102.768 85.003 102.768C85.3123 102.768 85.5683 102.667 85.771 102.464C85.9843 102.251 86.091 102 86.091 101.712C86.091 101.413 85.9843 101.163 85.771 100.96C85.5683 100.757 85.3123 100.656 85.003 100.656C84.715 100.656 84.459 100.757 84.235 100.96C84.0217 101.163 83.915 101.413 83.915 101.712ZM84.155 104.64V112H85.851V104.64H84.155ZM88.229 99.52V112H89.957V99.52H88.229ZM95.3665 112.16C96.2198 112.16 96.9505 111.995 97.5585 111.664C98.1665 111.333 98.6625 110.837 99.0465 110.176L97.5585 109.568C97.3238 109.963 97.0305 110.256 96.6785 110.448C96.3265 110.64 95.9158 110.736 95.4465 110.736C94.9985 110.736 94.6145 110.64 94.2945 110.448C93.9852 110.256 93.7505 109.979 93.5905 109.616C93.4305 109.243 93.3505 108.789 93.3505 108.256C93.3612 107.723 93.4465 107.275 93.6065 106.912C93.7665 106.549 94.0012 106.272 94.3105 106.08C94.6198 105.888 94.9932 105.792 95.4305 105.792C95.7932 105.792 96.1078 105.872 96.3745 106.032C96.6518 106.192 96.8652 106.416 97.0145 106.704C97.1745 106.992 97.2545 107.333 97.2545 107.728C97.2545 107.803 97.2332 107.899 97.1905 108.016C97.1585 108.123 97.1265 108.208 97.0945 108.272L97.6225 107.536H92.6305V108.72H99.0945C99.1052 108.677 99.1105 108.608 99.1105 108.512C99.1212 108.416 99.1265 108.325 99.1265 108.24C99.1265 107.451 98.9772 106.779 98.6785 106.224C98.3905 105.659 97.9745 105.227 97.4305 104.928C96.8865 104.629 96.2252 104.48 95.4465 104.48C94.6678 104.48 93.9905 104.64 93.4145 104.96C92.8385 105.269 92.3905 105.712 92.0705 106.288C91.7612 106.864 91.6065 107.541 91.6065 108.32C91.6065 109.088 91.7612 109.76 92.0705 110.336C92.3798 110.912 92.8172 111.36 93.3825 111.68C93.9585 112 94.6198 112.16 95.3665 112.16Z" fill="#A21D34"/>
<path fill-rule="evenodd" clip-rule="evenodd" d="M8.79986 31.5215C8.15769 31.7541 7.71373 32.0879 7.3507 32.6111C6.8981 33.2634 6.76409 33.899 6.76409 35.3943V36.7175L4.45287 36.7504C2.27683 36.7813 2.11708 36.7969 1.72194 37.0173C1.06366 37.3846 0.632133 37.8375 0.331425 38.4766L0.0540776 39.0662L0.0270388 47.9209L0 56.7755L0.340173 57.1306C0.838304 57.6506 1.48038 57.5805 1.82701 56.9679C1.97781 56.7014 1.99253 55.9179 1.99253 48.151C1.99253 38.895 1.97463 39.198 2.53649 38.9308C2.735 38.8364 6.44867 38.8068 18.1062 38.8068C34.752 38.8068 33.8196 38.7737 34.0818 39.3746C34.2541 39.7694 34.2541 81.4283 34.0818 81.8231C33.8195 82.4241 34.7529 82.3909 18.0966 82.3909C1.44022 82.3909 2.37366 82.4241 2.11132 81.8231C2.02225 81.6192 1.99253 79.418 1.99253 73.0414C1.99253 63.8015 2.01032 64.1032 1.44857 63.836C0.923596 63.5862 0.315917 63.8 0.115611 64.305C0.0300209 64.5204 0.00695847 66.8789 0.0270388 73.3639C0.0537795 82.0295 0.0565627 82.137 0.26343 82.6038C0.569407 83.2942 1.03632 83.7969 1.67621 84.125L2.24105 84.4145H18.0966H33.9521L34.5169 84.125C35.1578 83.7964 35.6252 83.2925 35.928 82.6038C36.1015 82.2091 36.1414 81.881 36.1712 80.6077L36.2067 79.0838L38.5089 79.0511C40.6757 79.0203 40.8359 79.0045 41.2309 78.7842C41.8892 78.417 42.3207 77.9641 42.6214 77.325L42.8988 76.7354V55.2027V33.6701L42.6894 33.1978C42.3834 32.5074 41.9165 32.0046 41.2766 31.6766L40.7118 31.3871L25.0054 31.3639C10.2959 31.3422 9.26728 31.3521 8.79986 31.5215ZM40.4489 33.5585C40.5996 33.6399 40.7762 33.8289 40.8415 33.9785C41.0138 34.3732 41.0138 76.0322 40.8415 76.427C40.6187 76.9377 40.3514 76.9948 38.1829 76.9948H36.1908L36.165 58.0305L36.1391 39.0662L35.9297 38.5939C35.6362 37.9315 35.1492 37.3878 34.5575 37.062L34.0515 36.7832L21.4019 36.7557L8.75225 36.7282L8.75573 35.4586C8.7595 34.0982 8.83873 33.7993 9.26022 33.5555C9.62823 33.3425 40.0542 33.3455 40.4489 33.5585ZM16.4066 43.0135C11.964 43.7466 8.5089 47.2655 7.54584 52.0377C7.3838 52.8407 7.3838 55.2818 7.54584 56.0848C8.29398 59.7919 10.4542 62.6765 13.642 64.2245C17.5748 66.1344 22.275 65.3223 25.4639 62.182C25.8446 61.8071 26.3803 61.1924 26.6543 60.8161C27.3483 59.8629 28.1841 58.0497 28.5003 56.8112C28.7365 55.8864 28.7653 55.5872 28.7653 54.0612C28.7653 52.5438 28.7358 52.2336 28.5057 51.3344C28.0285 49.4685 27.1117 47.7382 25.8758 46.3705C23.46 43.6972 19.9034 42.4363 16.4066 43.0135ZM20.2338 45.2254C23.3857 46.1046 25.7303 48.5342 26.5552 51.7761C27.1612 54.158 26.7321 56.9353 25.4412 58.985L25.006 59.6759L24.7088 59.2813C23.7961 58.0698 22.6341 57.058 21.6016 56.5753L21.2041 56.3896L21.5838 55.7341C22.0712 54.8927 22.207 54.1905 22.152 52.7973C22.1115 51.7706 22.0799 51.6255 21.7409 50.9097C20.0078 47.2488 14.9101 47.9673 14.1101 51.9854C14.0461 52.3069 14.018 52.9859 14.0455 53.542C14.0991 54.6229 14.3239 55.3846 14.7691 55.994C14.9153 56.1941 15.0193 56.3687 15.0001 56.382C14.9809 56.3953 14.6604 56.5641 14.2881 56.7571C13.259 57.2906 11.8288 58.6398 11.3546 59.5242C11.2619 59.6973 11.2404 59.6923 11.0501 59.4542C10.6764 58.9867 9.84444 57.135 9.62952 56.2923C9.32891 55.1138 9.32951 53.0044 9.63081 51.8301C10.0943 50.0233 11.2406 48.1424 12.5547 47.0322C13.7147 46.0521 15.3889 45.2678 16.8356 45.0267C17.6099 44.8976 19.4428 45.0048 20.2338 45.2254ZM19.1674 50.9135C19.401 51.053 19.7141 51.3594 19.8632 51.5945C20.1006 51.9687 20.1387 52.1429 20.169 52.9938C20.2002 53.8719 20.1786 54.0192 19.9441 54.5194C19.591 55.2729 19.0535 55.6452 18.2375 55.7017C17.7697 55.734 17.5448 55.6963 17.2434 55.5345C16.3649 55.0629 16.009 54.3759 16.009 53.151C16.009 52.4815 16.055 52.2414 16.2698 51.7916C16.8218 50.6353 18.0685 50.2575 19.1674 50.9135ZM19.2397 57.9522C20.1867 58.1283 21.4015 58.7285 22.1136 59.3721C22.6212 59.8308 23.4646 60.9464 23.4646 61.159C23.4646 61.339 22.2793 62.1211 21.4948 62.4589C20.2197 63.0077 19.5623 63.1355 18.0469 63.1287C16.834 63.1234 16.5428 63.087 15.7807 62.8456C14.5478 62.4551 12.727 61.4559 12.7295 61.1713C12.73 61.1133 12.9618 60.7443 13.2446 60.3514C13.8202 59.5511 14.6697 58.8419 15.5617 58.4167C16.0792 58.1701 16.3771 58.0826 17.4504 57.862C17.8591 57.7779 18.4682 57.8086 19.2397 57.9522ZM0.512347 59.706C-0.0741582 60.0453 -0.151994 60.7677 0.34236 61.2838C0.838305 61.8015 1.48107 61.7301 1.82701 61.1188C2.34433 60.2045 1.40165 59.1914 0.512347 59.706ZM7.20029 67.5488C7.08488 67.5979 6.89472 67.765 6.77781 67.9202C6.57502 68.1892 6.56528 68.3092 6.56528 70.5283C6.56528 72.9914 6.61886 73.3225 7.05685 73.5672C7.32237 73.7156 28.8708 73.7156 29.1363 73.5672C29.5747 73.3223 29.6279 72.9923 29.6279 70.5158V68.1775L29.3378 67.8386L29.0477 67.4997L18.229 67.4796C12.2786 67.4686 7.31581 67.4997 7.20029 67.5488ZM27.6397 70.561V71.5987H18.0966H8.55343V70.561V69.5232H18.0966H27.6397V70.561ZM11.8704 76.4523C11.3618 76.8823 11.3062 77.4622 11.7263 77.953L12.0164 78.292H18.0966H24.1767L24.478 77.94C24.7397 77.6342 24.7721 77.532 24.7245 77.1619C24.6881 76.8783 24.5827 76.6575 24.4095 76.5021L24.1493 76.2684L18.1159 76.2707C12.5493 76.2729 12.066 76.2869 11.8704 76.4523Z" fill="#A21D34"/>
</svg>
