<svg width="134" height="117" viewBox="0 0 134 117" fill="none" xmlns="http://www.w3.org/2000/svg">
<path d="M31.4948 78.9865C26.1514 78.9865 21.3109 77.5406 16.9733 74.6489C12.6356 71.7571 9.20957 67.7338 6.69501 62.579C4.24331 57.3613 3.01747 51.3578 3.01747 44.5685C3.01747 37.7163 4.24331 31.7442 6.69501 26.6523C9.1467 21.4974 12.5099 17.5056 16.7847 14.6767C21.0594 11.7849 25.8999 10.3391 31.3062 10.3391C36.7754 10.3391 41.6474 11.7849 45.9221 14.6767C50.1968 17.5056 53.5601 21.4974 56.0118 26.6523C58.5263 31.8071 59.7836 37.8106 59.7836 44.6628C59.7836 51.5149 58.5263 57.5184 56.0118 62.6733C53.5601 67.8281 50.1968 71.8514 45.9221 74.7432C41.7102 77.572 36.9011 78.9865 31.4948 78.9865ZM31.4005 65.8793C34.1665 65.8793 36.5554 65.0935 38.567 63.5219C40.5787 61.8875 42.1188 59.4987 43.1875 56.3555C44.3191 53.1494 44.8848 49.2518 44.8848 44.6628C44.8848 40.0108 44.3191 36.1133 43.1875 32.9701C42.1188 29.8269 40.5787 27.4695 38.567 25.8979C36.5554 24.2634 34.1351 23.4462 31.3062 23.4462C28.6031 23.4462 26.2143 24.232 24.1397 25.8036C22.1281 27.3752 20.5879 29.7326 19.5192 32.8758C18.4506 36.019 17.9162 39.9165 17.9162 44.5685C17.9162 49.2204 18.4506 53.118 19.5192 56.2612C20.5879 59.4044 22.1281 61.7932 24.1397 63.4277C26.2143 65.0621 28.6345 65.8793 31.4005 65.8793ZM86.6594 78.9865C82.0703 78.9865 77.8584 78.2007 74.0237 76.6291C70.189 74.9946 66.9516 72.6686 64.3113 69.6512L73.8352 60.1273C75.0296 61.8875 76.7583 63.3334 79.0214 64.4649C81.3474 65.5336 83.7991 66.0679 86.3765 66.0679C88.7025 66.0679 90.7141 65.6593 92.4114 64.8421C94.1088 64.0249 95.4289 62.8619 96.3719 61.3531C97.3777 59.8444 97.8806 58.0528 97.8806 55.9783C97.8806 53.9038 97.3777 52.1436 96.3719 50.6977C95.4289 49.189 94.0145 48.026 92.1286 47.2088C90.3055 46.3915 88.1053 45.9829 85.5278 45.9829C84.3334 45.9829 83.0761 46.0772 81.756 46.2658C80.4987 46.3915 79.43 46.6116 78.5499 46.9259L85.0564 38.7221C86.8166 38.2192 88.4824 37.8106 90.054 37.4963C91.6885 37.1191 93.1972 36.9305 94.5802 36.9305C97.9749 36.9305 101.024 37.7477 103.727 39.3822C106.43 40.9538 108.567 43.2169 110.139 46.1715C111.774 49.0632 112.591 52.5208 112.591 56.5441C112.591 60.9445 111.491 64.8421 109.29 68.2367C107.153 71.6314 104.136 74.2717 100.238 76.1576C96.4033 78.0435 91.8771 78.9865 86.6594 78.9865ZM78.5499 46.9259L78.5499 38.7221L94.7688 19.6744L111.365 19.5801L94.486 38.8164L78.5499 46.9259ZM68.4603 23.9177V11.3763L111.365 11.3763V19.5801L99.7665 23.9177L68.4603 23.9177Z" fill="#A21D34" fill-opacity="0.08"/>
<path d="M4.63472 99.8L4.63472 111H6.52272L6.52272 99.8H4.63472ZM5.75472 101.464H8.01072C8.66139 101.464 9.18405 101.619 9.57872 101.928C9.97339 102.227 10.1707 102.675 10.1707 103.272C10.1707 103.869 9.97339 104.323 9.57872 104.632C9.18405 104.941 8.66139 105.096 8.01072 105.096H5.75472V106.76H8.01072C8.82139 106.76 9.52539 106.621 10.1227 106.344C10.7307 106.056 11.2001 105.651 11.5307 105.128C11.8614 104.605 12.0267 103.987 12.0267 103.272C12.0267 102.557 11.8614 101.944 11.5307 101.432C11.2001 100.909 10.7307 100.509 10.1227 100.232C9.52539 99.944 8.82139 99.8 8.01072 99.8H5.75472L5.75472 101.464ZM15.1402 103.64H13.4282L13.4282 111H15.1402L15.1402 103.64ZM17.3322 105.48L18.1642 104.024C18.0042 103.821 17.8069 103.683 17.5722 103.608C17.3376 103.523 17.0869 103.48 16.8202 103.48C16.4469 103.48 16.0842 103.613 15.7322 103.88C15.3909 104.147 15.1082 104.509 14.8842 104.968C14.6709 105.416 14.5642 105.933 14.5642 106.52L15.1402 106.856C15.1402 106.504 15.1776 106.2 15.2522 105.944C15.3376 105.677 15.4709 105.469 15.6522 105.32C15.8336 105.171 16.0682 105.096 16.3562 105.096C16.5696 105.096 16.7456 105.128 16.8842 105.192C17.0229 105.256 17.1722 105.352 17.3322 105.48ZM19.2861 100.712C19.2861 101 19.3928 101.251 19.6061 101.464C19.8301 101.667 20.0861 101.768 20.3741 101.768C20.6834 101.768 20.9394 101.667 21.1421 101.464C21.3554 101.251 21.4621 101 21.4621 100.712C21.4621 100.413 21.3554 100.163 21.1421 99.96C20.9394 99.7573 20.6834 99.656 20.3741 99.656C20.0861 99.656 19.8301 99.7573 19.6061 99.96C19.3928 100.163 19.2861 100.413 19.2861 100.712ZM19.5261 103.64L19.5261 111H21.2221L21.2221 103.64H19.5261ZM24.7521 107.32C24.7521 106.861 24.8534 106.456 25.0561 106.104C25.2588 105.752 25.5308 105.475 25.8721 105.272C26.2241 105.069 26.6134 104.968 27.0401 104.968C27.3814 104.968 27.7121 105.021 28.0321 105.128C28.3521 105.235 28.6348 105.384 28.8801 105.576C29.1361 105.757 29.3228 105.971 29.4401 106.216L29.4401 104.312C29.1841 104.056 28.8374 103.853 28.4001 103.704C27.9628 103.555 27.4828 103.48 26.9601 103.48C26.2028 103.48 25.5201 103.645 24.9121 103.976C24.3148 104.296 23.8401 104.744 23.4881 105.32C23.1468 105.896 22.9761 106.563 22.9761 107.32C22.9761 108.067 23.1468 108.733 23.4881 109.32C23.8401 109.896 24.3148 110.349 24.9121 110.68C25.5201 111 26.2028 111.16 26.9601 111.16C27.4828 111.16 27.9628 111.085 28.4001 110.936C28.8374 110.787 29.1841 110.584 29.4401 110.328V108.424C29.3228 108.659 29.1414 108.872 28.8961 109.064C28.6508 109.256 28.3681 109.405 28.0481 109.512C27.7281 109.619 27.3921 109.672 27.0401 109.672C26.6134 109.672 26.2241 109.571 25.8721 109.368C25.5308 109.165 25.2588 108.893 25.0561 108.552C24.8534 108.2 24.7521 107.789 24.7521 107.32ZM31.2861 100.712C31.2861 101 31.3928 101.251 31.6061 101.464C31.8301 101.667 32.0861 101.768 32.3741 101.768C32.6834 101.768 32.9394 101.667 33.1421 101.464C33.3554 101.251 33.4621 101 33.4621 100.712C33.4621 100.413 33.3554 100.163 33.1421 99.96C32.9394 99.7573 32.6834 99.656 32.3741 99.656C32.0861 99.656 31.8301 99.7573 31.6061 99.96C31.3928 100.163 31.2861 100.413 31.2861 100.712ZM31.5261 103.64L31.5261 111H33.2221V103.64H31.5261ZM40.3361 106.52V111H42.1121V106.328C42.1121 105.443 41.8934 104.749 41.4561 104.248C41.0188 103.736 40.3841 103.48 39.5521 103.48C39.0401 103.48 38.5974 103.587 38.2241 103.8C37.8614 104.013 37.5628 104.339 37.3281 104.776V103.64H35.6001V111H37.3281V106.52C37.3281 106.189 37.3974 105.901 37.5361 105.656C37.6748 105.4 37.8668 105.208 38.1121 105.08C38.3574 104.941 38.6401 104.872 38.9601 104.872C39.4294 104.872 39.7761 105.011 40.0001 105.288C40.2241 105.565 40.3361 105.976 40.3361 106.52ZM43.9028 111.496C43.9242 112.136 44.0842 112.701 44.3828 113.192C44.6922 113.683 45.1295 114.061 45.6948 114.328C46.2602 114.605 46.9428 114.744 47.7428 114.744C48.4148 114.744 49.0388 114.6 49.6148 114.312C50.1908 114.035 50.6548 113.608 51.0068 113.032C51.3695 112.456 51.5508 111.725 51.5508 110.84V103.64H49.8548V110.84C49.8548 111.395 49.7482 111.848 49.5348 112.2C49.3322 112.552 49.0655 112.813 48.7348 112.984C48.4042 113.155 48.0575 113.24 47.6948 113.24C47.2895 113.24 46.9322 113.165 46.6228 113.016C46.3135 112.867 46.0682 112.659 45.8868 112.392C45.7162 112.125 45.6255 111.827 45.6148 111.496H43.9028ZM43.7588 107.288C43.7588 108.088 43.9242 108.771 44.2548 109.336C44.5855 109.901 45.0228 110.333 45.5668 110.632C46.1215 110.931 46.7135 111.08 47.3428 111.08C47.9615 111.08 48.5002 110.931 48.9588 110.632C49.4282 110.323 49.7962 109.885 50.0628 109.32C50.3402 108.755 50.4788 108.077 50.4788 107.288C50.4788 106.488 50.3402 105.805 50.0628 105.24C49.7962 104.675 49.4282 104.243 48.9588 103.944C48.5002 103.635 47.9615 103.48 47.3428 103.48C46.7135 103.48 46.1215 103.629 45.5668 103.928C45.0228 104.227 44.5855 104.659 44.2548 105.224C43.9242 105.779 43.7588 106.467 43.7588 107.288ZM45.5508 107.288C45.5508 106.787 45.6522 106.365 45.8548 106.024C46.0575 105.683 46.3242 105.427 46.6548 105.256C46.9962 105.075 47.3642 104.984 47.7588 104.984C48.0042 104.984 48.2495 105.032 48.4948 105.128C48.7508 105.224 48.9802 105.373 49.1828 105.576C49.3855 105.768 49.5455 106.008 49.6628 106.296C49.7908 106.573 49.8548 106.904 49.8548 107.288C49.8548 107.779 49.7482 108.2 49.5348 108.552C49.3322 108.893 49.0655 109.149 48.7348 109.32C48.4148 109.491 48.0895 109.576 47.7588 109.576C47.3642 109.576 46.9962 109.491 46.6548 109.32C46.3242 109.139 46.0575 108.877 45.8548 108.536C45.6522 108.195 45.5508 107.779 45.5508 107.288ZM60.9547 104.936L66.3467 111H68.3787L62.4587 104.36C62.0961 103.944 61.7707 103.576 61.4827 103.256C61.2054 102.925 61.0667 102.589 61.0667 102.248C61.0667 101.896 61.1734 101.608 61.3867 101.384C61.6107 101.149 61.9254 101.032 62.3307 101.032C62.5974 101.032 62.8214 101.091 63.0027 101.208C63.1841 101.315 63.3227 101.459 63.4187 101.64C63.5254 101.821 63.5787 102.029 63.5787 102.264C63.5787 102.595 63.4134 102.941 63.0827 103.304C62.7521 103.656 62.2881 103.992 61.6907 104.312C61.4667 104.419 61.1947 104.541 60.8747 104.68C60.5654 104.819 60.2454 104.984 59.9147 105.176C59.5841 105.357 59.2747 105.581 58.9867 105.848C58.7094 106.115 58.4801 106.429 58.2987 106.792C58.1174 107.144 58.0267 107.56 58.0267 108.04C58.0267 108.691 58.1974 109.251 58.5387 109.72C58.8907 110.189 59.3494 110.552 59.9147 110.808C60.4801 111.053 61.0881 111.176 61.7387 111.176C62.4854 111.176 63.1734 111.043 63.8027 110.776C64.4321 110.509 65.0134 110.163 65.5467 109.736C66.0801 109.299 66.5707 108.813 67.0187 108.28C67.4774 107.736 67.9041 107.192 68.2987 106.648L67.0507 105.784C66.6881 106.296 66.3094 106.787 65.9147 107.256C65.5201 107.715 65.1094 108.125 64.6827 108.488C64.2561 108.84 63.8134 109.123 63.3547 109.336C62.8961 109.549 62.4214 109.656 61.9307 109.656C61.5254 109.656 61.1681 109.587 60.8587 109.448C60.5494 109.299 60.3041 109.091 60.1227 108.824C59.9414 108.557 59.8507 108.253 59.8507 107.912C59.8507 107.539 59.9414 107.224 60.1227 106.968C60.3147 106.701 60.5601 106.472 60.8587 106.28C61.1574 106.088 61.4721 105.912 61.8027 105.752C62.1334 105.592 62.4427 105.421 62.7307 105.24C63.1361 104.995 63.4934 104.755 63.8027 104.52C64.1121 104.285 64.3734 104.045 64.5867 103.8C64.8001 103.555 64.9601 103.299 65.0667 103.032C65.1841 102.765 65.2427 102.477 65.2427 102.168C65.2427 101.72 65.1254 101.304 64.8907 100.92C64.6667 100.525 64.3361 100.205 63.8987 99.96C63.4721 99.7147 62.9494 99.592 62.3307 99.592C61.7334 99.592 61.2054 99.704 60.7467 99.928C60.2987 100.152 59.9467 100.461 59.6907 100.856C59.4454 101.251 59.3227 101.693 59.3227 102.184C59.3227 102.579 59.4134 102.941 59.5947 103.272C59.7867 103.603 60.0107 103.907 60.2667 104.184C60.5227 104.451 60.7521 104.701 60.9547 104.936ZM76.1205 105.4C76.1205 104.6 76.2965 103.907 76.6485 103.32C77.0111 102.723 77.4805 102.264 78.0565 101.944C78.6431 101.613 79.2778 101.448 79.9605 101.448C80.4938 101.448 80.9738 101.517 81.4005 101.656C81.8271 101.795 82.2111 101.987 82.5525 102.232C82.9045 102.467 83.2085 102.733 83.4645 103.032V100.792C82.9951 100.408 82.4885 100.115 81.9445 99.912C81.4005 99.7093 80.7178 99.608 79.8965 99.608C79.0751 99.608 78.3071 99.7467 77.5925 100.024C76.8885 100.301 76.2751 100.701 75.7525 101.224C75.2298 101.747 74.8191 102.365 74.5205 103.08C74.2325 103.784 74.0885 104.557 74.0885 105.4C74.0885 106.243 74.2325 107.021 74.5205 107.736C74.8191 108.44 75.2298 109.053 75.7525 109.576C76.2751 110.099 76.8885 110.499 77.5925 110.776C78.3071 111.053 79.0751 111.192 79.8965 111.192C80.7178 111.192 81.4005 111.091 81.9445 110.888C82.4885 110.685 82.9951 110.392 83.4645 110.008V107.768C83.2085 108.067 82.9045 108.339 82.5525 108.584C82.2111 108.819 81.8271 109.005 81.4005 109.144C80.9738 109.283 80.4938 109.352 79.9605 109.352C79.2778 109.352 78.6431 109.192 78.0565 108.872C77.4805 108.541 77.0111 108.077 76.6485 107.48C76.2965 106.883 76.1205 106.189 76.1205 105.4ZM85.087 107.32C85.087 108.067 85.2576 108.733 85.599 109.32C85.951 109.896 86.4256 110.349 87.023 110.68C87.6203 111 88.2976 111.16 89.055 111.16C89.8123 111.16 90.4843 111 91.071 110.68C91.6683 110.349 92.143 109.896 92.495 109.32C92.847 108.733 93.023 108.067 93.023 107.32C93.023 106.563 92.847 105.896 92.495 105.32C92.143 104.744 91.6683 104.296 91.071 103.976C90.4843 103.645 89.8123 103.48 89.055 103.48C88.2976 103.48 87.6203 103.645 87.023 103.976C86.4256 104.296 85.951 104.744 85.599 105.32C85.2576 105.896 85.087 106.563 85.087 107.32ZM86.863 107.32C86.863 106.861 86.959 106.456 87.151 106.104C87.343 105.752 87.6043 105.48 87.935 105.288C88.2656 105.096 88.639 105 89.055 105C89.4603 105 89.8283 105.096 90.159 105.288C90.5003 105.48 90.767 105.752 90.959 106.104C91.151 106.456 91.247 106.861 91.247 107.32C91.247 107.779 91.151 108.184 90.959 108.536C90.767 108.877 90.5003 109.149 90.159 109.352C89.8283 109.544 89.4603 109.64 89.055 109.64C88.639 109.64 88.2656 109.544 87.935 109.352C87.6043 109.149 87.343 108.877 87.151 108.536C86.959 108.184 86.863 107.779 86.863 107.32ZM99.3986 106.52V111H101.175V106.328C101.175 105.443 100.956 104.749 100.519 104.248C100.081 103.736 99.4466 103.48 98.6146 103.48C98.1026 103.48 97.6599 103.587 97.2866 103.8C96.9239 104.013 96.6253 104.339 96.3906 104.776V103.64H94.6626V111H96.3906V106.52C96.3906 106.189 96.4599 105.901 96.5986 105.656C96.7373 105.4 96.9293 105.208 97.1746 105.08C97.4199 104.941 97.7026 104.872 98.0226 104.872C98.4919 104.872 98.8386 105.011 99.0626 105.288C99.2866 105.565 99.3986 105.976 99.3986 106.52ZM102.357 103.64V105.16H106.533V103.64H102.357ZM103.589 101.08V111H105.301V101.08H103.589ZM109.437 103.64H107.725V111H109.437V103.64ZM111.629 105.48L112.461 104.024C112.301 103.821 112.104 103.683 111.869 103.608C111.634 103.523 111.384 103.48 111.117 103.48C110.744 103.48 110.381 103.613 110.029 103.88C109.688 104.147 109.405 104.509 109.181 104.968C108.968 105.416 108.861 105.933 108.861 106.52L109.437 106.856C109.437 106.504 109.474 106.2 109.549 105.944C109.634 105.677 109.768 105.469 109.949 105.32C110.13 105.171 110.365 105.096 110.653 105.096C110.866 105.096 111.042 105.128 111.181 105.192C111.32 105.256 111.469 105.352 111.629 105.48ZM114.735 108.712C114.735 108.477 114.788 108.28 114.895 108.12C115.012 107.96 115.183 107.837 115.407 107.752C115.631 107.656 115.924 107.608 116.287 107.608C116.703 107.608 117.098 107.661 117.471 107.768C117.844 107.875 118.196 108.045 118.527 108.28V107.4C118.431 107.283 118.266 107.155 118.031 107.016C117.796 106.867 117.498 106.739 117.135 106.632C116.783 106.525 116.362 106.472 115.871 106.472C114.954 106.472 114.244 106.685 113.743 107.112C113.242 107.528 112.991 108.093 112.991 108.808C112.991 109.309 113.108 109.736 113.343 110.088C113.578 110.44 113.892 110.707 114.287 110.888C114.682 111.069 115.108 111.16 115.567 111.16C115.994 111.16 116.41 111.085 116.815 110.936C117.231 110.776 117.572 110.541 117.839 110.232C118.116 109.912 118.255 109.517 118.255 109.048L117.999 108.088C117.999 108.451 117.908 108.771 117.727 109.048C117.556 109.315 117.327 109.517 117.039 109.656C116.762 109.795 116.452 109.864 116.111 109.864C115.844 109.864 115.604 109.821 115.391 109.736C115.188 109.651 115.028 109.523 114.911 109.352C114.794 109.171 114.735 108.957 114.735 108.712ZM114.191 105.56C114.298 105.485 114.458 105.395 114.671 105.288C114.895 105.171 115.156 105.075 115.455 105C115.764 104.915 116.09 104.872 116.431 104.872C116.655 104.872 116.863 104.893 117.055 104.936C117.247 104.979 117.412 105.048 117.551 105.144C117.69 105.24 117.796 105.363 117.871 105.512C117.956 105.661 117.999 105.853 117.999 106.088V111H119.695V105.752C119.695 105.261 119.562 104.851 119.295 104.52C119.028 104.179 118.66 103.917 118.191 103.736C117.732 103.555 117.199 103.464 116.591 103.464C115.908 103.464 115.3 103.56 114.767 103.752C114.244 103.944 113.818 104.141 113.487 104.344L114.191 105.56ZM122.861 107.32C122.861 106.861 122.963 106.456 123.165 106.104C123.368 105.752 123.64 105.475 123.981 105.272C124.333 105.069 124.723 104.968 125.149 104.968C125.491 104.968 125.821 105.021 126.141 105.128C126.461 105.235 126.744 105.384 126.989 105.576C127.245 105.757 127.432 105.971 127.549 106.216V104.312C127.293 104.056 126.947 103.853 126.509 103.704C126.072 103.555 125.592 103.48 125.069 103.48C124.312 103.48 123.629 103.645 123.021 103.976C122.424 104.296 121.949 104.744 121.597 105.32C121.256 105.896 121.085 106.563 121.085 107.32C121.085 108.067 121.256 108.733 121.597 109.32C121.949 109.896 122.424 110.349 123.021 110.68C123.629 111 124.312 111.16 125.069 111.16C125.592 111.16 126.072 111.085 126.509 110.936C126.947 110.787 127.293 110.584 127.549 110.328V108.424C127.432 108.659 127.251 108.872 127.005 109.064C126.76 109.256 126.477 109.405 126.157 109.512C125.837 109.619 125.501 109.672 125.149 109.672C124.723 109.672 124.333 109.571 123.981 109.368C123.64 109.165 123.368 108.893 123.165 108.552C122.963 108.2 122.861 107.789 122.861 107.32ZM128.435 103.64V105.16L132.611 105.16V103.64L128.435 103.64ZM129.667 101.08V111H131.379V101.08H129.667Z" fill="#A21D34"/>
<path fill-rule="evenodd" clip-rule="evenodd" d="M20.9136 31.3113C19.2601 31.7137 17.8518 33.0712 17.3599 34.7368L17.227 35.1866H15.3547C13.3119 35.1866 12.7485 35.2863 12.1313 35.7569C11.5914 36.1686 11.2251 36.993 11.2251 37.7966V38.4599L7.63608 38.4903C3.6167 38.5245 3.71898 38.5044 3.49673 39.3041C3.34807 39.8391 3.35103 83.9982 3.4998 84.5335C3.55973 84.7492 3.73412 85.0242 3.88734 85.1446L4.16592 85.3637L22.8634 85.3304C41.5199 85.2971 41.5631 85.2966 42.4611 85.0721C45.0907 84.4149 47.1064 83.3313 48.8994 81.611C51.633 78.9883 53.058 75.6669 53.059 71.9159C53.0595 69.5669 52.6179 67.7224 51.5663 65.6826C49.6041 61.876 45.7482 59.1211 41.5876 58.5529L40.6611 58.4264V56.2217C40.6611 53.823 40.606 53.5461 40.0817 53.3073C39.6396 53.1059 39.3134 53.158 38.9421 53.4895L38.5963 53.7981L38.5642 56.1092L38.5323 58.4203L37.4366 58.5994C32.7577 59.3641 28.6592 62.7556 26.9719 67.2586C26.3906 68.8099 26.2189 69.828 26.2132 71.7571C26.206 74.2365 26.5638 75.82 27.5966 77.8792C28.5405 79.761 29.9633 81.474 31.5972 82.6955L32.3277 83.2417H18.9176H5.50737V61.9133V40.5849H8.36626H11.2251V41.1283C11.2251 42.2305 11.7362 43.1042 12.6353 43.5393C13.0874 43.7581 13.1819 43.7603 22.0324 43.7593L30.9726 43.7582L31.5144 43.5061C32.3906 43.0982 32.9315 42.1587 32.9315 41.0444V40.5849H35.7374H38.5434V42.8708C38.5434 44.8134 38.5698 45.2014 38.7197 45.4549C39.077 46.0598 39.8604 46.1648 40.3516 45.6737L40.6611 45.3643L40.6587 42.2601C40.6566 39.4789 40.6373 39.1324 40.4734 38.9301C40.1126 38.4848 39.963 38.4679 36.3939 38.4679H32.96L32.9087 37.7526C32.8315 36.6745 32.3797 35.9409 31.502 35.4686C31.1213 35.2637 30.8667 35.2352 28.9813 35.1871L26.884 35.1337L26.6517 34.4428C25.8654 32.1047 23.3325 30.7225 20.9136 31.3113ZM23.3903 33.6557C24.2829 34.1415 24.7046 34.8421 24.821 36.0334C24.8781 36.6176 24.9361 36.7653 25.2056 37.0125L25.523 37.3036H28.0413C29.8588 37.3036 30.595 37.3389 30.6867 37.4306C30.8329 37.5767 30.8686 41.2872 30.7261 41.5117C30.6593 41.6169 28.8471 41.639 22.0187 41.6175L13.3958 41.5904L13.3669 39.5931C13.347 38.2094 13.3753 37.5507 13.4593 37.4496C13.5562 37.3329 14.09 37.3036 16.1169 37.3036H18.6534L18.9629 36.9942C19.2111 36.7461 19.2724 36.5926 19.2724 36.2195C19.2724 35.9636 19.3474 35.5016 19.4391 35.1929C19.6451 34.4996 20.3914 33.7096 21.0781 33.4578C21.7682 33.2047 22.7095 33.2854 23.3903 33.6557ZM38.9134 48.779C38.5532 49.1391 38.4794 49.5302 38.689 49.9695C38.8886 50.3878 39.3966 50.6504 39.8416 50.5653C40.2572 50.4859 40.6611 49.9671 40.6611 49.5127C40.6611 48.663 39.5121 48.1805 38.9134 48.779ZM12.1133 50.7433C11.4237 51.0245 11.2286 51.9304 11.7464 52.448L12.0559 52.7574H22.1813C33.385 52.7574 32.7982 52.7939 33.0332 52.0819C33.1834 51.6269 33.0939 51.2597 32.7552 50.9416L32.4909 50.6934L22.414 50.6728C16.8715 50.6615 12.2363 50.6933 12.1133 50.7433ZM12.1133 58.4711C11.4241 58.7495 11.2286 59.6573 11.7464 60.1749L12.0559 60.4843H19.8018H27.5477L27.8572 60.1749C28.3694 59.6628 28.2306 58.8399 27.5801 58.5312C27.278 58.3879 26.3 58.3682 19.7858 58.374C15.6889 58.3777 12.2363 58.4214 12.1133 58.4711ZM40.9258 60.6017C45.9683 61.2194 49.9402 64.9917 50.8282 70.0065C51.0002 70.9777 50.9715 72.9781 50.7707 74.0234C49.9457 78.3173 46.7119 81.7454 42.4082 82.8887C41.4658 83.139 41.1571 83.17 39.6022 83.17C38.0606 83.17 37.7354 83.1379 36.8366 82.8979C31.9655 81.5967 28.5309 77.3848 28.3016 72.4313C28.2043 70.3306 28.5761 68.633 29.5507 66.7294C31.4383 63.0424 35.3105 60.6164 39.4963 60.4984C39.7584 60.491 40.4016 60.5375 40.9258 60.6017ZM39.307 62.9426C38.916 63.0439 38.5444 63.5492 38.5438 63.9802C38.5435 64.2076 38.4417 64.292 37.8665 64.5425C37.4942 64.7047 36.9996 64.9999 36.7674 65.1986C35.6155 66.1842 35.0987 67.9055 35.5246 69.339C35.8223 70.3411 36.5937 71.124 37.9288 71.7788L38.5319 72.0747L38.5377 74.8664L38.5434 77.6582L38.1992 77.5905C38.0099 77.5534 37.4688 77.3305 36.9965 77.0953C36.041 76.6193 35.7765 76.616 35.3178 77.0744C34.9082 77.484 34.9423 78.0882 35.3994 78.5189C35.8891 78.9802 37.013 79.5034 37.8428 79.6563C38.514 79.7799 38.5434 79.798 38.5434 80.0898C38.5434 80.5327 38.816 80.9902 39.1976 81.1875C39.4705 81.3285 39.602 81.3383 39.9254 81.2415C40.4195 81.0934 40.6611 80.7343 40.6611 80.1477C40.6611 79.6942 40.663 79.6918 41.217 79.4959C43.3194 78.7525 44.6532 76.56 44.3503 74.3453C44.1235 72.6879 43.1612 71.6752 40.9522 70.7697L40.6611 70.6503V68.531C40.6611 66.9243 40.6926 66.4118 40.7913 66.4118C40.863 66.4118 41.2008 66.584 41.542 66.7946C42.0574 67.1126 42.2279 67.1669 42.5499 67.1157C43.3224 66.9928 43.6907 66.051 43.2067 65.436C42.9545 65.1154 41.687 64.4346 41.125 64.3178C40.7561 64.2412 40.7099 64.1943 40.652 63.8382C40.5795 63.3929 40.2287 62.962 39.885 62.8964C39.7586 62.8723 39.4985 62.893 39.307 62.9426ZM12.1133 66.1965C11.4233 66.4799 11.2286 67.3842 11.7464 67.9018L12.0559 68.2112H17.3665H22.677L22.9865 67.9018C23.409 67.4794 23.4092 66.9653 22.9871 66.4929L22.6782 66.1472L17.5076 66.1259C14.6637 66.1142 12.2363 66.1459 12.1133 66.1965ZM38.5213 68.9152L38.4904 69.725L38.1425 69.4318C37.2742 68.7003 37.2751 67.6248 38.1446 66.8115L38.4904 66.488L38.5213 67.2967C38.5384 67.7415 38.5384 68.4698 38.5213 68.9152ZM41.2578 73.2419C42.3768 73.8974 42.5992 75.5329 41.7211 76.6488C41.4893 76.9433 40.8868 77.42 40.7464 77.42C40.6995 77.42 40.6611 76.4198 40.6611 75.1972C40.6611 73.9747 40.6926 72.9744 40.7312 72.9744C40.7697 72.9744 41.0067 73.0947 41.2578 73.2419ZM12.2082 73.8935C12.0791 73.9195 11.8528 74.0842 11.7052 74.2596C11.3276 74.7082 11.3432 75.2257 11.7464 75.6288L12.0559 75.9381H17.3665H22.677L22.9865 75.6288C23.409 75.2063 23.4092 74.6922 22.9871 74.2198L22.6783 73.8741L17.5605 73.8601C14.7458 73.8525 12.3372 73.8674 12.2082 73.8935Z" fill="#A21D34"/>
</svg>
