<svg width="140" height="118" viewBox="0 0 140 118" fill="none" xmlns="http://www.w3.org/2000/svg">
<path d="M44.7526 78.0373C39.4092 78.0373 34.5687 76.5914 30.2311 73.6996C25.8935 70.8079 22.4674 66.7846 19.9528 61.6298C17.5011 56.4121 16.2753 50.4086 16.2753 43.6193C16.2753 36.7671 17.5011 30.795 19.9528 25.703C22.4045 20.5482 25.7677 16.5563 30.0425 13.7275C34.3172 10.8357 39.1577 9.38985 44.564 9.38985C50.0332 9.38985 54.9052 10.8357 59.1799 13.7275C63.4547 16.5563 66.8179 20.5482 69.2696 25.703C71.7841 30.8579 73.0414 36.8614 73.0414 43.7136C73.0414 50.5657 71.7841 56.5692 69.2696 61.7241C66.8179 66.8789 63.4547 70.9022 59.1799 73.7939C54.968 76.6228 50.1589 78.0373 44.7526 78.0373ZM44.6583 64.9301C47.4244 64.9301 49.8132 64.1443 51.8248 62.5727C53.8365 60.9383 55.3766 58.5494 56.4453 55.4062C57.5769 52.2002 58.1427 48.3026 58.1427 43.7136C58.1427 39.0616 57.5769 35.1641 56.4453 32.0209C55.3766 28.8777 53.8365 26.5203 51.8248 24.9487C49.8132 23.3142 47.3929 22.497 44.564 22.497C41.8609 22.497 39.4721 23.2828 37.3976 24.8544C35.3859 26.426 33.8457 28.7834 32.7771 31.9266C31.7084 35.0698 31.174 38.9673 31.174 43.6193C31.174 48.2712 31.7084 52.1688 32.7771 55.3119C33.8457 58.4551 35.3859 60.844 37.3976 62.4784C39.4721 64.1129 41.8923 64.9301 44.6583 64.9301ZM78.3234 68.702L103.878 42.2991C105.449 40.7275 106.707 39.2816 107.649 37.9615C108.592 36.6414 109.284 35.4155 109.724 34.284C110.164 33.0895 110.384 31.8951 110.384 30.7007C110.384 28.1233 109.535 26.1117 107.838 24.6658C106.204 23.157 104.035 22.4027 101.332 22.4027C98.6914 22.4027 96.3025 23.1256 94.1652 24.5715C92.0906 25.9545 90.079 28.249 88.1302 31.4551L78.2292 22.8742C80.8694 18.4108 84.2327 15.0476 88.3188 12.7845C92.405 10.5214 97.0883 9.38985 102.369 9.38985C106.958 9.38985 110.918 10.2385 114.25 11.9358C117.645 13.6332 120.254 16.0534 122.077 19.1966C123.963 22.3398 124.906 26.0174 124.906 30.2292C124.906 32.8695 124.56 35.3212 123.868 37.5843C123.177 39.7846 122.045 41.9848 120.474 44.185C118.965 46.3224 116.922 48.6798 114.344 51.2572L96.6168 68.8906L78.3234 68.702ZM78.3234 77V68.702L90.8648 64.3644H126.226V77H78.3234Z" fill="#A21D34" fill-opacity="0.08"/>
<path d="M4.16784 105.184L7.57584 110.96L10.9838 105.184L11.7678 112H13.7198L12.1838 100.24L7.57584 107.84L2.98384 100.24L1.44784 112H3.39984L4.16784 105.184ZM18.6126 112.16C19.4659 112.16 20.1966 111.995 20.8046 111.664C21.4126 111.333 21.9086 110.837 22.2926 110.176L20.8046 109.568C20.5699 109.963 20.2766 110.256 19.9246 110.448C19.5726 110.64 19.1619 110.736 18.6926 110.736C18.2446 110.736 17.8606 110.64 17.5406 110.448C17.2313 110.256 16.9966 109.979 16.8366 109.616C16.6766 109.243 16.5966 108.789 16.5966 108.256C16.6073 107.723 16.6926 107.275 16.8526 106.912C17.0126 106.549 17.2473 106.272 17.5566 106.08C17.8659 105.888 18.2393 105.792 18.6766 105.792C19.0393 105.792 19.3539 105.872 19.6206 106.032C19.8979 106.192 20.1113 106.416 20.2606 106.704C20.4206 106.992 20.5006 107.333 20.5006 107.728C20.5006 107.803 20.4793 107.899 20.4366 108.016C20.4046 108.123 20.3726 108.208 20.3406 108.272L20.8686 107.536H15.8766V108.72H22.3406C22.3513 108.677 22.3566 108.608 22.3566 108.512C22.3673 108.416 22.3726 108.325 22.3726 108.24C22.3726 107.451 22.2233 106.779 21.9246 106.224C21.6366 105.659 21.2206 105.227 20.6766 104.928C20.1326 104.629 19.4713 104.48 18.6926 104.48C17.9139 104.48 17.2366 104.64 16.6606 104.96C16.0846 105.269 15.6366 105.712 15.3166 106.288C15.0073 106.864 14.8526 107.541 14.8526 108.32C14.8526 109.088 15.0073 109.76 15.3166 110.336C15.6259 110.912 16.0633 111.36 16.6286 111.68C17.2046 112 17.8659 112.16 18.6126 112.16ZM27.222 112.16C28.0753 112.16 28.806 111.995 29.414 111.664C30.022 111.333 30.518 110.837 30.902 110.176L29.414 109.568C29.1793 109.963 28.886 110.256 28.534 110.448C28.182 110.64 27.7713 110.736 27.302 110.736C26.854 110.736 26.47 110.64 26.15 110.448C25.8406 110.256 25.606 109.979 25.446 109.616C25.286 109.243 25.206 108.789 25.206 108.256C25.2166 107.723 25.302 107.275 25.462 106.912C25.622 106.549 25.8566 106.272 26.166 106.08C26.4753 105.888 26.8486 105.792 27.286 105.792C27.6486 105.792 27.9633 105.872 28.23 106.032C28.5073 106.192 28.7206 106.416 28.87 106.704C29.03 106.992 29.11 107.333 29.11 107.728C29.11 107.803 29.0886 107.899 29.046 108.016C29.014 108.123 28.982 108.208 28.95 108.272L29.478 107.536H24.486V108.72H30.95C30.9606 108.677 30.966 108.608 30.966 108.512C30.9766 108.416 30.982 108.325 30.982 108.24C30.982 107.451 30.8326 106.779 30.534 106.224C30.246 105.659 29.83 105.227 29.286 104.928C28.742 104.629 28.0806 104.48 27.302 104.48C26.5233 104.48 25.846 104.64 25.27 104.96C24.694 105.269 24.246 105.712 23.926 106.288C23.6166 106.864 23.462 107.541 23.462 108.32C23.462 109.088 23.6166 109.76 23.926 110.336C24.2353 110.912 24.6726 111.36 25.238 111.68C25.814 112 26.4753 112.16 27.222 112.16ZM31.6073 104.64L31.6073 106.16H35.7833V104.64H31.6073ZM32.8393 102.08V112H34.5513V102.08H32.8393ZM40.748 104.64V106.16H44.924V104.64H40.748ZM41.98 102.08V112H43.692V102.08H41.98ZM47.8437 99.52L46.1157 99.52V112H47.8437V99.52ZM50.8517 107.52V112H52.5957V107.28C52.5957 106.651 52.4997 106.128 52.3077 105.712C52.1157 105.285 51.8277 104.965 51.4437 104.752C51.0704 104.539 50.6117 104.432 50.0677 104.432C49.5131 104.432 49.0384 104.571 48.6437 104.848C48.2597 105.125 47.9611 105.493 47.7477 105.952C47.5344 106.411 47.4277 106.933 47.4277 107.52H47.8437C47.8437 107.189 47.9131 106.901 48.0517 106.656C48.1904 106.411 48.3824 106.219 48.6277 106.08C48.8731 105.941 49.1557 105.872 49.4757 105.872C49.9557 105.872 50.3024 106.011 50.5157 106.288C50.7397 106.565 50.8517 106.976 50.8517 107.52ZM57.9876 112.16C58.8409 112.16 59.5716 111.995 60.1796 111.664C60.7876 111.333 61.2836 110.837 61.6676 110.176L60.1796 109.568C59.9449 109.963 59.6516 110.256 59.2996 110.448C58.9476 110.64 58.5369 110.736 58.0676 110.736C57.6196 110.736 57.2356 110.64 56.9156 110.448C56.6063 110.256 56.3716 109.979 56.2116 109.616C56.0516 109.243 55.9716 108.789 55.9716 108.256C55.9823 107.723 56.0676 107.275 56.2276 106.912C56.3876 106.549 56.6223 106.272 56.9316 106.08C57.2409 105.888 57.6143 105.792 58.0516 105.792C58.4143 105.792 58.7289 105.872 58.9956 106.032C59.2729 106.192 59.4863 106.416 59.6356 106.704C59.7956 106.992 59.8756 107.333 59.8756 107.728C59.8756 107.803 59.8543 107.899 59.8116 108.016C59.7796 108.123 59.7476 108.208 59.7156 108.272L60.2436 107.536H55.2516V108.72H61.7156C61.7263 108.677 61.7316 108.608 61.7316 108.512C61.7423 108.416 61.7476 108.325 61.7476 108.24C61.7476 107.451 61.5983 106.779 61.2996 106.224C61.0116 105.659 60.5956 105.227 60.0516 104.928C59.5076 104.629 58.8463 104.48 58.0676 104.48C57.2889 104.48 56.6116 104.64 56.0356 104.96C55.4596 105.269 55.0116 105.712 54.6916 106.288C54.3823 106.864 54.2276 107.541 54.2276 108.32C54.2276 109.088 54.3823 109.76 54.6916 110.336C55.0009 110.912 55.4383 111.36 56.0036 111.68C56.5796 112 57.2409 112.16 57.9876 112.16ZM69.7298 106.4C69.7298 105.6 69.9058 104.907 70.2578 104.32C70.6205 103.723 71.0898 103.264 71.6658 102.944C72.2525 102.613 72.8872 102.448 73.5698 102.448C74.1032 102.448 74.5832 102.517 75.0098 102.656C75.4365 102.795 75.8205 102.987 76.1618 103.232C76.5138 103.467 76.8178 103.733 77.0738 104.032V101.792C76.6045 101.408 76.0978 101.115 75.5538 100.912C75.0098 100.709 74.3272 100.608 73.5058 100.608C72.6845 100.608 71.9165 100.747 71.2018 101.024C70.4978 101.301 69.8845 101.701 69.3618 102.224C68.8392 102.747 68.4285 103.365 68.1298 104.08C67.8418 104.784 67.6978 105.557 67.6978 106.4C67.6978 107.243 67.8418 108.021 68.1298 108.736C68.4285 109.44 68.8392 110.053 69.3618 110.576C69.8845 111.099 70.4978 111.499 71.2018 111.776C71.9165 112.053 72.6845 112.192 73.5058 112.192C74.3272 112.192 75.0098 112.091 75.5538 111.888C76.0978 111.685 76.6045 111.392 77.0738 111.008V108.768C76.8178 109.067 76.5138 109.339 76.1618 109.584C75.8205 109.819 75.4365 110.005 75.0098 110.144C74.5832 110.283 74.1032 110.352 73.5698 110.352C72.8872 110.352 72.2525 110.192 71.6658 109.872C71.0898 109.541 70.6205 109.077 70.2578 108.48C69.9058 107.883 69.7298 107.189 69.7298 106.4ZM80.3443 109.712C80.3443 109.477 80.3977 109.28 80.5043 109.12C80.6217 108.96 80.7923 108.837 81.0163 108.752C81.2403 108.656 81.5337 108.608 81.8963 108.608C82.3123 108.608 82.707 108.661 83.0803 108.768C83.4537 108.875 83.8057 109.045 84.1363 109.28V108.4C84.0403 108.283 83.875 108.155 83.6403 108.016C83.4057 107.867 83.107 107.739 82.7443 107.632C82.3923 107.525 81.971 107.472 81.4803 107.472C80.563 107.472 79.8537 107.685 79.3523 108.112C78.851 108.528 78.6003 109.093 78.6003 109.808C78.6003 110.309 78.7177 110.736 78.9523 111.088C79.187 111.44 79.5017 111.707 79.8963 111.888C80.291 112.069 80.7177 112.16 81.1763 112.16C81.603 112.16 82.019 112.085 82.4243 111.936C82.8403 111.776 83.1817 111.541 83.4483 111.232C83.7257 110.912 83.8643 110.517 83.8643 110.048L83.6083 109.088C83.6083 109.451 83.5177 109.771 83.3363 110.048C83.1657 110.315 82.9363 110.517 82.6483 110.656C82.371 110.795 82.0617 110.864 81.7203 110.864C81.4537 110.864 81.2137 110.821 81.0003 110.736C80.7977 110.651 80.6377 110.523 80.5203 110.352C80.403 110.171 80.3443 109.957 80.3443 109.712ZM79.8003 106.56C79.907 106.485 80.067 106.395 80.2803 106.288C80.5043 106.171 80.7657 106.075 81.0643 106C81.3737 105.915 81.699 105.872 82.0403 105.872C82.2643 105.872 82.4723 105.893 82.6643 105.936C82.8563 105.979 83.0217 106.048 83.1603 106.144C83.299 106.24 83.4057 106.363 83.4803 106.512C83.5657 106.661 83.6083 106.853 83.6083 107.088V112H85.3043V106.752C85.3043 106.261 85.171 105.851 84.9043 105.52C84.6377 105.179 84.2697 104.917 83.8003 104.736C83.3417 104.555 82.8083 104.464 82.2003 104.464C81.5177 104.464 80.9097 104.56 80.3763 104.752C79.8537 104.944 79.427 105.141 79.0963 105.344L79.8003 106.56ZM92.0548 107.52V112H93.8308V107.328C93.8308 106.443 93.6122 105.749 93.1748 105.248C92.7375 104.736 92.1028 104.48 91.2708 104.48C90.7588 104.48 90.3162 104.587 89.9428 104.8C89.5802 105.013 89.2815 105.339 89.0468 105.776V104.64H87.3188V112H89.0468V107.52C89.0468 107.189 89.1162 106.901 89.2548 106.656C89.3935 106.4 89.5855 106.208 89.8308 106.08C90.0762 105.941 90.3588 105.872 90.6788 105.872C91.1482 105.872 91.4948 106.011 91.7188 106.288C91.9428 106.565 92.0548 106.976 92.0548 107.52ZM101.574 99.52V112H103.318V99.52H101.574ZM95.4776 108.32C95.4776 109.12 95.6429 109.808 95.9736 110.384C96.3043 110.96 96.7416 111.403 97.2856 111.712C97.8403 112.011 98.4323 112.16 99.0616 112.16C99.6803 112.16 100.219 112.005 100.678 111.696C101.147 111.387 101.515 110.944 101.782 110.368C102.059 109.792 102.198 109.109 102.198 108.32C102.198 107.52 102.059 106.837 101.782 106.272C101.515 105.696 101.147 105.253 100.678 104.944C100.219 104.635 99.6803 104.48 99.0616 104.48C98.4323 104.48 97.8403 104.635 97.2856 104.944C96.7416 105.243 96.3043 105.68 95.9736 106.256C95.6429 106.821 95.4776 107.509 95.4776 108.32ZM97.2696 108.32C97.2696 107.829 97.3709 107.408 97.5736 107.056C97.7763 106.704 98.0429 106.437 98.3736 106.256C98.7149 106.075 99.0829 105.984 99.4776 105.984C99.8083 105.984 100.134 106.075 100.454 106.256C100.784 106.437 101.051 106.704 101.254 107.056C101.467 107.397 101.574 107.819 101.574 108.32C101.574 108.821 101.467 109.248 101.254 109.6C101.051 109.941 100.784 110.203 100.454 110.384C100.134 110.565 99.8083 110.656 99.4776 110.656C99.0829 110.656 98.7149 110.565 98.3736 110.384C98.0429 110.203 97.7763 109.936 97.5736 109.584C97.3709 109.232 97.2696 108.811 97.2696 108.32ZM105.395 101.712C105.395 102 105.502 102.251 105.715 102.464C105.939 102.667 106.195 102.768 106.483 102.768C106.793 102.768 107.049 102.667 107.251 102.464C107.465 102.251 107.571 102 107.571 101.712C107.571 101.413 107.465 101.163 107.251 100.96C107.049 100.757 106.793 100.656 106.483 100.656C106.195 100.656 105.939 100.757 105.715 100.96C105.502 101.163 105.395 101.413 105.395 101.712ZM105.635 104.64V112H107.331V104.64H105.635ZM115.245 99.52V112H116.989V99.52H115.245ZM109.149 108.32C109.149 109.12 109.315 109.808 109.645 110.384C109.976 110.96 110.413 111.403 110.957 111.712C111.512 112.011 112.104 112.16 112.733 112.16C113.352 112.16 113.891 112.005 114.349 111.696C114.819 111.387 115.187 110.944 115.453 110.368C115.731 109.792 115.869 109.109 115.869 108.32C115.869 107.52 115.731 106.837 115.453 106.272C115.187 105.696 114.819 105.253 114.349 104.944C113.891 104.635 113.352 104.48 112.733 104.48C112.104 104.48 111.512 104.635 110.957 104.944C110.413 105.243 109.976 105.68 109.645 106.256C109.315 106.821 109.149 107.509 109.149 108.32ZM110.941 108.32C110.941 107.829 111.043 107.408 111.245 107.056C111.448 106.704 111.715 106.437 112.045 106.256C112.387 106.075 112.755 105.984 113.149 105.984C113.48 105.984 113.805 106.075 114.125 106.256C114.456 106.437 114.723 106.704 114.925 107.056C115.139 107.397 115.245 107.819 115.245 108.32C115.245 108.821 115.139 109.248 114.925 109.6C114.723 109.941 114.456 110.203 114.125 110.384C113.805 110.565 113.48 110.656 113.149 110.656C112.755 110.656 112.387 110.565 112.045 110.384C111.715 110.203 111.448 109.936 111.245 109.584C111.043 109.232 110.941 108.811 110.941 108.32ZM120.219 109.712C120.219 109.477 120.273 109.28 120.379 109.12C120.497 108.96 120.667 108.837 120.891 108.752C121.115 108.656 121.409 108.608 121.771 108.608C122.187 108.608 122.582 108.661 122.955 108.768C123.329 108.875 123.681 109.045 124.011 109.28V108.4C123.915 108.283 123.75 108.155 123.515 108.016C123.281 107.867 122.982 107.739 122.619 107.632C122.267 107.525 121.846 107.472 121.355 107.472C120.438 107.472 119.729 107.685 119.227 108.112C118.726 108.528 118.475 109.093 118.475 109.808C118.475 110.309 118.593 110.736 118.827 111.088C119.062 111.44 119.377 111.707 119.771 111.888C120.166 112.069 120.593 112.16 121.051 112.16C121.478 112.16 121.894 112.085 122.299 111.936C122.715 111.776 123.057 111.541 123.323 111.232C123.601 110.912 123.739 110.517 123.739 110.048L123.483 109.088C123.483 109.451 123.393 109.771 123.211 110.048C123.041 110.315 122.811 110.517 122.523 110.656C122.246 110.795 121.937 110.864 121.595 110.864C121.329 110.864 121.089 110.821 120.875 110.736C120.673 110.651 120.513 110.523 120.395 110.352C120.278 110.171 120.219 109.957 120.219 109.712ZM119.675 106.56C119.782 106.485 119.942 106.395 120.155 106.288C120.379 106.171 120.641 106.075 120.939 106C121.249 105.915 121.574 105.872 121.915 105.872C122.139 105.872 122.347 105.893 122.539 105.936C122.731 105.979 122.897 106.048 123.035 106.144C123.174 106.24 123.281 106.363 123.355 106.512C123.441 106.661 123.483 106.853 123.483 107.088V112H125.179V106.752C125.179 106.261 125.046 105.851 124.779 105.52C124.513 105.179 124.145 104.917 123.675 104.736C123.217 104.555 122.683 104.464 122.075 104.464C121.393 104.464 120.785 104.56 120.251 104.752C119.729 104.944 119.302 105.141 118.971 105.344L119.675 106.56ZM126.17 104.64V106.16L130.346 106.16V104.64L126.17 104.64ZM127.402 102.08V112H129.114V102.08H127.402ZM134.738 112.16C135.591 112.16 136.322 111.995 136.93 111.664C137.538 111.333 138.034 110.837 138.418 110.176L136.93 109.568C136.695 109.963 136.402 110.256 136.05 110.448C135.698 110.64 135.287 110.736 134.818 110.736C134.37 110.736 133.986 110.64 133.666 110.448C133.356 110.256 133.122 109.979 132.962 109.616C132.802 109.243 132.722 108.789 132.722 108.256C132.732 107.723 132.818 107.275 132.978 106.912C133.138 106.549 133.372 106.272 133.682 106.08C133.991 105.888 134.364 105.792 134.802 105.792C135.164 105.792 135.479 105.872 135.746 106.032C136.023 106.192 136.236 106.416 136.386 106.704C136.546 106.992 136.626 107.333 136.626 107.728C136.626 107.803 136.604 107.899 136.562 108.016C136.53 108.123 136.498 108.208 136.466 108.272L136.994 107.536H132.002V108.72H138.466C138.476 108.677 138.482 108.608 138.482 108.512C138.492 108.416 138.498 108.325 138.498 108.24C138.498 107.451 138.348 106.779 138.05 106.224C137.762 105.659 137.346 105.227 136.802 104.928C136.258 104.629 135.596 104.48 134.818 104.48C134.039 104.48 133.362 104.64 132.786 104.96C132.21 105.269 131.762 105.712 131.442 106.288C131.132 106.864 130.978 107.541 130.978 108.32C130.978 109.088 131.132 109.76 131.442 110.336C131.751 110.912 132.188 111.36 132.754 111.68C133.33 112 133.991 112.16 134.738 112.16Z" fill="#A21D34"/>
<path fill-rule="evenodd" clip-rule="evenodd" d="M8.04987 31.5332C5.80943 32.077 3.9213 34.0242 3.45232 36.2744C3.3569 36.7327 3.31591 41.6898 3.31591 52.7973V68.6656H2.58103C1.69814 68.6656 1.25867 68.8449 1.02288 69.3012C0.802405 69.7279 0.771297 75.0848 0.983379 76.1026C1.46581 78.4177 3.44665 80.4 5.76005 80.8827C6.68664 81.0761 58.2123 81.0761 59.1389 80.8827C61.4523 80.4 63.4331 78.4177 63.9156 76.1026C64.1276 75.0848 64.0965 69.7279 63.8761 69.3012C63.6403 68.8449 63.2008 68.6656 62.3179 68.6656H61.583V52.7973C61.583 41.6898 61.542 36.7327 61.4466 36.2744C60.9642 33.9593 58.9833 31.977 56.6699 31.4943C55.6708 31.2857 8.91499 31.3232 8.04987 31.5332ZM56.6812 34.0765C57.5796 34.4129 58.2888 35.0521 58.7053 35.9009L59.0524 36.608L59.0851 52.6368L59.1177 68.6656H57.6346H56.1513V53.2175C56.1513 36.4274 56.186 37.2648 55.4758 36.941C55.2346 36.831 52.9337 36.7933 46.4488 36.7933C37.0016 36.7933 37.2328 36.7769 36.9176 37.4693C36.7311 37.879 36.7311 38.1784 36.9176 38.5881C37.2312 39.2768 37.066 39.2641 45.7139 39.2641H53.6824V53.9649V68.6656H49.8579H46.0334L45.9758 68.3877C45.9441 68.2347 45.8819 67.7768 45.8374 67.3698C45.7291 66.3774 45.2491 64.7557 44.7323 63.6367C43.4532 60.8659 41.0449 58.4239 38.2842 57.098L37.127 56.5422L37.5718 56.0494C38.2769 55.2685 38.8389 54.3061 39.175 53.3042C39.4502 52.4839 39.4858 52.1733 39.4845 50.6076C39.4835 49.4571 39.4203 48.6024 39.3039 48.1642C38.631 45.6342 36.4671 43.5592 33.9431 43.0238C30.2574 42.2419 26.5655 44.5153 25.5951 48.1642C25.4786 48.6024 25.4154 49.4571 25.4145 50.6076C25.4131 52.1815 25.4479 52.4814 25.7295 53.3207C26.0521 54.2822 26.8637 55.6391 27.4392 56.1791C27.7907 56.5088 27.8449 56.6826 27.5964 56.6826C27.5073 56.6826 26.9585 56.9256 26.377 57.2225C23.6784 58.6004 21.4102 60.9432 20.1666 63.6367C19.6498 64.7557 19.1699 66.3774 19.0615 67.3698C19.017 67.7768 18.9548 68.2347 18.9231 68.3877L18.8656 68.6656H15.0411H11.2165V53.9649V39.2641H19.1731C25.0789 39.2641 27.2131 39.226 27.4533 39.1164C27.8071 38.9551 28.1288 38.4371 28.1288 38.0287C28.1288 37.6203 27.8071 37.1023 27.4533 36.941C27.2121 36.831 24.9112 36.7933 18.4262 36.7933C8.97906 36.7933 9.21027 36.7769 8.89511 37.4693C8.78327 37.7149 8.74759 41.5248 8.74759 53.2294V68.6656H7.26438H5.78128L5.81387 52.6368L5.84658 36.608L6.19359 35.9009C6.60282 35.0668 7.31338 34.4172 8.1827 34.0826C8.79623 33.8464 9.30397 33.8412 32.4139 33.8349C55.7558 33.8286 56.026 33.8312 56.6812 34.0765ZM31.8458 36.9658C30.7756 37.5594 31.2234 39.2641 32.4495 39.2641C33.075 39.2641 33.6839 38.6606 33.6839 38.0407C33.6839 37.1132 32.6597 36.5143 31.8458 36.9658ZM33.8253 45.565C35.2372 46.0106 36.2478 46.9773 36.7767 48.3878C37.0055 48.9985 37.0329 49.2926 36.9967 50.7529C36.959 52.2715 36.9253 52.4818 36.6198 53.1042C36.4353 53.4802 36.0206 54.0518 35.6981 54.3745C33.4525 56.6216 29.6891 55.9773 28.2792 53.1042C27.9736 52.4818 27.9399 52.2715 27.9023 50.7529C27.866 49.2926 27.8934 48.9985 28.1223 48.3878C28.6437 46.997 29.6543 46.0183 31.0298 45.5717C31.9907 45.2598 32.8517 45.2577 33.8253 45.565ZM31.215 60.0894V61.8902L31.5758 62.2513C32.0493 62.725 32.7675 62.7517 33.2758 62.3145L33.6222 62.0167L33.662 60.1526L33.7017 58.2885L34.2175 58.3668C35.7943 58.6059 37.8762 59.52 39.2173 60.5623C41.5112 62.3448 43.0866 65.0723 43.416 67.8318L43.5155 68.6656H32.4495H21.3834L21.4829 67.8318C21.9683 63.7658 25.0099 60.1109 29.0015 58.7973C29.7283 58.558 30.6389 58.3391 31.0607 58.3022C31.1777 58.2918 31.215 58.724 31.215 60.0894ZM61.5618 73.4527C61.5225 75.6978 61.5107 75.7905 61.1769 76.4709C60.7867 77.2661 60.1886 77.8463 59.3673 78.2266L58.8055 78.4868L32.6114 78.5188C6.60579 78.5505 6.41259 78.549 5.7519 78.3016C4.85049 77.9641 4.14153 77.3258 3.72465 76.4761C3.38764 75.7893 3.37653 75.7021 3.33715 73.4527L3.29666 71.1364H32.4495H61.6023L61.5618 73.4527ZM27.0619 73.7275C26.3296 74.0288 26.1649 75.1197 26.7614 75.7167L27.1222 76.0778H32.4495H37.7767L38.1376 75.7167C38.6111 75.2428 38.6376 74.5241 38.2005 74.0155L37.9028 73.6688L32.6145 73.6438C29.7061 73.6301 27.2074 73.6677 27.0619 73.7275Z" fill="#A21D34"/>
</svg>
