<svg width="50" height="50" viewBox="0 0 50 50" fill="none" xmlns="http://www.w3.org/2000/svg">
<path fill-rule="evenodd" clip-rule="evenodd" d="M20.2251 0.144641C19.3125 0.342517 18.7807 0.537854 18.0394 0.947475C15.8803 2.14069 14.4224 4.37329 14.191 6.84108L14.1304 7.48648L12.7508 7.54625C11.3159 7.60847 10.0994 7.81181 8.68401 8.22612C7.61464 8.53915 6.48616 8.99106 6.23308 9.20769C5.9419 9.45694 6.00991 10.0201 6.36294 10.2824C6.66478 10.5068 6.40946 10.5608 8.54545 9.82066C10.5095 9.1401 12.7555 8.8513 14.3878 9.06929C15.7729 9.25428 16.673 9.61467 17.5932 10.3529C17.9847 10.6669 18.2932 10.8309 18.578 10.8764C19.267 10.9864 20.3985 11.5926 20.957 12.1507C21.8844 13.0778 22.2972 14.2032 22.455 16.2354C22.5094 16.9348 22.6178 17.5414 22.7554 17.9159C23.1646 19.0298 22.8269 20.0688 21.7341 21.0572C21.3002 21.4498 21.0848 21.5798 20.9041 21.5585C20.6457 21.528 20.6353 21.5122 20.0723 20.2933C19.8072 19.7195 19.5233 19.3292 18.8537 18.6182C17.9944 17.7058 17.7161 17.291 17.4858 16.579C17.1825 15.6411 16.5381 15.4196 16.0411 16.0822C14.962 17.5211 14.137 17.834 11.078 17.9642C9.63309 18.0257 8.92399 18.0998 8.35746 18.2486C6.87125 18.6388 5.62306 19.4408 4.95999 20.4317C4.29202 21.43 4.21209 21.4976 3.89423 21.3333C3.44984 21.1036 2.83288 20.3224 2.67419 19.7884C2.4817 19.1404 2.48991 18.6909 2.70702 17.9935C2.84353 17.5551 2.87538 17.2165 2.84128 16.5667C2.81666 16.0981 2.8492 15.4408 2.91349 15.1061C3.07794 14.2498 3.68689 13.0449 4.32788 12.3072C4.63265 11.9565 4.87322 11.5853 4.87322 11.4658C4.87322 11.1003 4.51012 10.7373 4.14448 10.7373C3.87244 10.7373 3.7293 10.836 3.24777 11.3555C2.51736 12.1436 2.09319 12.8596 1.72003 13.9348C1.46295 14.6756 1.41771 14.961 1.38312 16.0602C1.36123 16.7585 1.28003 17.5964 1.20284 17.9222C1.02568 18.6695 1.02607 19.3336 1.2043 20.0026L1.34384 20.5266L1.05969 20.7656C0.903445 20.897 0.643431 21.2765 0.48201 21.6089C-0.383724 23.3912 -0.0503287 25.9626 1.21798 27.2857C1.67352 27.7609 2.52108 28.0966 2.97671 27.9822C3.24826 27.9141 3.23594 27.8892 3.41065 28.8548C3.62435 30.0351 4.18239 31.3664 4.90175 32.4122C5.35924 33.0771 6.49495 34.2302 7.15881 34.7037C7.75222 35.1269 8.91784 35.7557 9.34768 35.8845C9.55756 35.9473 9.56987 35.995 9.5431 36.6438L9.51457 37.3362L8.17356 37.7836C7.43603 38.0297 6.73249 38.3186 6.61016 38.4256C6.48782 38.5327 6.11378 38.7371 5.77892 38.8797C4.53621 39.409 3.1312 40.6194 2.28813 41.887C1.07952 43.7043 0.575619 45.5669 0.574446 48.2219C0.57386 49.4708 0.583045 49.5297 0.813744 49.7602L1.05353 50H12.7391H24.4246L24.6774 49.7473L24.9302 49.4947L24.8735 47.7695C24.7756 44.7913 24.3382 43.596 23.4593 43.9049C22.9825 44.0726 22.907 44.418 23.1457 45.3386C23.2728 45.8287 23.3761 46.6089 23.4106 47.3385L23.4671 48.535H19.2349C16.9072 48.535 15.0211 48.5195 15.0434 48.5007C15.0658 48.4818 15.5899 48.1025 16.2079 47.6578C16.8259 47.213 17.4075 46.756 17.5004 46.6422C17.631 46.4821 17.6698 46.2434 17.6714 45.5894L17.6736 44.7438L18.313 44.2414C18.6648 43.9652 18.9946 43.6286 19.0459 43.4936C19.0972 43.3586 19.1393 42.567 19.1393 41.7345V40.2209L19.646 40.4957C19.9247 40.6467 20.5828 41.1768 21.1084 41.6738C21.6341 42.1706 22.1476 42.5772 22.2497 42.5772C22.5976 42.5772 22.9501 42.2029 22.9501 41.8335C22.9501 41.5647 22.8539 41.3905 22.4859 40.9923C21.5341 39.9625 20.6174 39.2789 19.6244 38.8586C19.3307 38.7342 18.995 38.5434 18.8786 38.4344C18.7621 38.3255 18.0586 38.0339 17.3152 37.7863L15.9636 37.3362L15.9353 36.6556L15.9069 35.9749L16.4263 35.7597C18.2888 34.9882 20.2463 33.225 21.0836 31.5651L21.2929 31.15H25.5395H29.7862L29.8497 31.4031C29.951 31.806 29.7146 32.9741 29.4458 33.3998C29.278 33.6655 29.0234 33.8752 28.6239 34.0767C27.6874 34.5493 27.4761 35.103 28.0236 35.6503C28.2752 35.9018 28.3784 35.9357 28.8902 35.9357C30.2245 35.9357 31.8635 35.4849 32.7528 34.8734C33.8056 34.1493 34.3683 33.1625 34.7225 31.4186L34.777 31.15H39.1566C43.2329 31.15 43.5897 31.1363 44.3091 30.9524C47.2858 30.1915 49.4577 27.823 49.92 24.8338C49.9885 24.3907 50.0131 21.1489 49.9934 15.1812L49.9637 6.19569L49.7395 5.46581C48.959 2.92614 47.0777 1.04602 44.5419 0.271903C43.8194 0.0513673 43.7459 0.0486326 37.5581 0.0170857C34.1186 -0.000494648 31.2086 0.00917453 31.0915 0.0384751C30.7626 0.120712 30.5715 0.367813 30.5731 0.708774C30.5768 1.48192 30.3725 1.45857 37.1364 1.46043C43.8197 1.46238 43.9054 1.46922 45.2159 2.11227C46.2513 2.62034 47.3887 3.7572 47.897 4.7921C48.5615 6.14539 48.5474 5.9104 48.5474 15.5719C48.5474 25.2944 48.5649 25.0157 47.8625 26.4402C47.1522 27.8804 45.8008 29.0037 44.2317 29.458C43.4599 29.6814 43.3745 29.685 38.783 29.685C35.7358 29.685 34.0149 29.721 33.82 29.789C33.4603 29.9143 33.3442 30.1838 33.2633 31.0817C33.1384 32.4677 32.5754 33.3628 31.4939 33.895C31.1458 34.0663 30.8393 34.1847 30.8128 34.1584C30.7863 34.1319 30.8501 33.9166 30.9546 33.6801C31.3597 32.7623 31.4406 31.3819 31.1505 30.3364C30.9704 29.6873 30.952 29.685 26.1223 29.685C21.9299 29.685 21.863 29.6819 21.9231 29.4927C21.9566 29.3871 22.0384 29.0064 22.1048 28.6467L22.2255 27.9929L22.7201 27.9755C23.9944 27.9307 24.9728 26.8582 25.3427 25.1012C25.709 23.3604 25.2812 21.4783 24.3437 20.7058L24.0209 20.4399L24.1885 20.0569C24.427 19.5115 24.422 18.0678 24.1795 17.4764C24.0804 17.2347 23.9829 16.8171 23.9629 16.5485C23.7548 13.757 23.2413 12.3746 21.9314 11.079C21.1939 10.3496 20.1975 9.77133 19.2858 9.54377C19.0095 9.47471 18.5876 9.25867 18.3145 9.04624C17.725 8.58759 17.1489 8.29351 16.2812 8.00812L15.6216 7.7913L15.6233 7.33529C15.633 4.71885 17.7549 2.15886 20.3733 1.6043C20.8905 1.49481 21.8709 1.4618 24.6421 1.46043C28.7528 1.45857 28.8098 1.44851 28.8098 0.726256C28.8098 0.00048202 28.764 -0.00733144 24.5443 0.00145872C21.7855 0.00731883 20.6911 0.0435538 20.2251 0.144641ZM34.4973 3.38157C33.6441 3.68317 33.1122 4.55681 33.1122 5.65666C33.1122 5.90464 33.2608 6.71314 33.4425 7.45327C33.6691 8.37663 33.7382 8.81116 33.6624 8.83762C33.1236 9.02632 32.3105 9.10064 30.0831 9.16452C27.2771 9.245 27.0081 9.29471 26.4343 9.83902C25.724 10.5129 25.5475 11.6143 26.0157 12.4516L26.2585 12.886L26.0161 13.3196C25.514 14.2175 25.7458 15.3462 26.5735 16.0333C26.9305 16.3298 26.9665 16.3957 26.8704 16.5753C26.6929 16.9067 26.7371 17.8284 26.9505 18.2465C27.1237 18.5857 27.5639 19.0362 27.9635 19.2833C28.0978 19.3662 28.1052 19.4402 28.0131 19.7742C27.7648 20.6751 28.2243 21.6722 29.101 22.1348L29.5358 22.3642L35.4523 22.3376L41.3689 22.311L41.8275 22.0852C42.4653 21.7712 43.0514 21.1712 43.3573 20.5193L43.6163 19.9669L43.6472 17.0108C43.6735 14.4943 43.6542 13.9726 43.5175 13.5028C43.2117 12.4511 42.4861 11.5641 40.7338 10.0995C39.5729 9.12936 38.9391 8.45662 38.5355 7.76669C38.4071 7.54723 38.0095 6.64252 37.6518 5.75618C36.7795 3.59468 36.7428 3.5227 36.4261 3.35901C36.0704 3.1752 35.0474 3.18721 34.4973 3.38157ZM36.2807 6.24726C37.3328 8.87278 37.8473 9.62678 39.5194 10.9923C40.5952 11.8708 41.7084 13.0047 41.9762 13.4946C42.1328 13.7813 42.1506 14.1178 42.1506 16.7998V19.7858L41.908 20.1397C41.7746 20.3344 41.5047 20.5839 41.3084 20.6943C40.96 20.89 40.8187 20.8948 35.3707 20.8948C29.9202 20.8948 29.7854 20.8902 29.5945 20.6995C29.3729 20.4779 29.3402 20.1237 29.5212 19.9068C29.5885 19.8263 29.8263 19.6441 30.05 19.5018C30.5593 19.1778 30.6905 18.7564 30.4022 18.3705C30.1744 18.0656 29.9296 17.9874 29.1625 17.9745C28.4756 17.9629 28.2265 17.7903 28.2265 17.3256C28.2265 16.736 28.4636 16.5827 29.4872 16.5104C30.4658 16.4412 30.6694 16.3258 30.6694 15.8398C30.6694 15.2016 30.2735 15.0347 28.7603 15.0347C27.4811 15.0347 27.212 14.9157 27.2278 14.3572C27.2445 13.7712 27.4136 13.6921 28.8163 13.6146C29.87 13.5564 30.1022 13.515 30.242 13.3607C30.4759 13.1023 30.4531 12.6265 30.1944 12.3678C30.0012 12.1747 29.8604 12.15 28.7675 12.1192C27.4847 12.0829 27.2937 12.0136 27.2473 11.5675C27.2053 11.1654 27.2564 11.0302 27.5135 10.8616C27.7415 10.7121 28.1122 10.6802 30.2251 10.6283C33.5902 10.5456 34.7433 10.2861 35.1018 9.53097C35.3252 9.0605 35.305 8.8178 34.9182 7.31937C34.5018 5.70696 34.4842 5.25495 34.8238 4.91545C35.002 4.73731 35.1527 4.67812 35.3713 4.70019C35.6636 4.72969 35.6919 4.77794 36.2807 6.24726ZM16.6555 18.273C16.7433 18.4426 17.1888 18.9756 17.6456 19.4574C18.344 20.1939 18.5502 20.4916 18.9398 21.3258C19.4425 22.4017 19.7717 22.7663 20.4139 22.9587L20.8004 23.0745V25.3413C20.8004 26.908 20.7555 27.8653 20.6553 28.4402C20.1236 31.4873 17.83 33.9254 14.6933 34.7777C13.6402 35.0638 11.8819 35.083 10.8337 34.8198C7.64894 34.0201 5.30853 31.4609 4.77892 28.199C4.72411 27.8614 4.67896 26.525 4.67857 25.2292L4.67779 22.8734L5.02213 22.641C5.2114 22.5133 5.59316 22.0822 5.87047 21.6833C6.45392 20.8436 6.79171 20.5159 7.4413 20.1592C8.35746 19.656 9.06724 19.5186 11.2245 19.4272C13.8457 19.3163 14.8916 19.0515 16.007 18.2166C16.1922 18.0781 16.3779 17.9647 16.4198 17.9647C16.4617 17.9647 16.5678 18.1034 16.6555 18.273ZM23.8733 22.7642C24.307 24.2236 23.6796 26.3923 22.7999 26.4748C22.2385 26.5275 22.2661 26.6287 22.2661 24.5139V22.5659L22.7302 22.1218L23.1943 21.6777L23.4581 21.9659C23.6031 22.1244 23.79 22.4837 23.8733 22.7642ZM3.2121 24.576C3.2121 26.301 3.19754 26.4633 3.0411 26.4773C2.67986 26.51 2.47828 26.4492 2.25344 26.2396C1.32126 25.3704 1.1831 22.8967 2.01385 21.9489C2.14948 21.7942 2.19794 21.8149 2.68602 22.2361L3.2121 22.69V24.576ZM8.29316 23.3075C7.69643 23.4101 7.2917 23.5562 7.11543 23.7324C6.85082 23.9968 6.873 24.4254 7.16536 24.7C7.36684 24.8892 7.47296 24.916 7.82492 24.8663C8.05562 24.8337 8.44452 24.7791 8.68929 24.7449C8.97324 24.7052 9.35637 24.7396 9.74761 24.8398C10.5897 25.0555 10.7855 25.04 11.022 24.7395C11.2953 24.3923 11.2769 24.1552 10.9512 23.8296C10.5321 23.4107 9.20668 23.1503 8.29316 23.3075ZM15.3837 23.4203C14.3632 23.6955 14.0194 24.1846 14.4562 24.7395C14.6932 25.0408 14.8553 25.0529 15.7501 24.8359C16.3383 24.6932 16.5138 24.6896 17.2543 24.8047L18.0926 24.935L18.3228 24.6675C18.6022 24.3427 18.6179 23.9874 18.3639 23.7335C17.9276 23.2974 16.4247 23.1395 15.3837 23.4203ZM8.31163 28.4191C7.8385 28.8596 8.12891 29.5587 9.17551 30.4992C10.7228 31.8897 13.1963 32.2195 15.1819 31.2999C16.7802 30.5599 17.8296 29.0365 17.1665 28.4191C16.9286 28.1975 16.5315 28.1635 16.3015 28.3451C16.2186 28.4106 16.0502 28.6289 15.9272 28.8304C15.0394 30.2835 12.6986 30.7655 10.8615 29.8734C10.4207 29.6593 10.0889 29.3924 9.65039 28.8992C8.98692 28.153 8.70561 28.0521 8.31163 28.4191ZM14.4491 37.2543V38.1821H12.7391H11.0291V37.3039V36.4257L12.1772 36.482C13.0719 36.5259 14.1736 36.4551 14.4246 36.3378C14.438 36.3316 14.4491 36.7439 14.4491 37.2543ZM9.7055 39.6566C9.79227 40.0378 10.2362 41.9146 10.692 43.8272C11.1478 45.7398 11.5092 47.3354 11.4948 47.3729C11.4805 47.4105 10.9742 47.0836 10.3696 46.6466L9.27029 45.852V45.0035C9.27029 44.0255 9.17394 43.8517 8.30313 43.2584L7.80499 42.919L7.80479 41.1935L7.8046 39.4681L8.51301 39.2235C9.54965 38.8656 9.52327 38.856 9.7055 39.6566ZM16.916 39.2156L17.6736 39.4678L17.6734 41.1934L17.6732 42.919L17.175 43.2584C16.3042 43.8517 16.2079 44.0255 16.2079 45.0035V45.852L15.1086 46.6466C14.5041 47.0836 13.9976 47.4105 13.9834 47.3729C13.969 47.3354 14.3303 45.7398 14.7862 43.8272C15.242 41.9146 15.6859 40.0378 15.7727 39.6566C15.8594 39.2754 15.9817 38.9635 16.0444 38.9635C16.107 38.9635 16.4993 39.077 16.916 39.2156ZM14.2536 39.6897C14.2536 39.7132 13.9239 41.118 13.5208 42.8117C13.1177 44.5054 12.7879 45.922 12.7879 45.9596C12.7879 46.2286 12.6121 45.5625 11.9635 42.8376C11.5571 41.1297 11.2245 39.7132 11.2245 39.6897C11.2245 39.6663 11.9061 39.6471 12.7391 39.6471C13.5721 39.6471 14.2536 39.6663 14.2536 39.6897ZM6.52994 43.6954C6.60811 43.7894 6.92684 44.0622 7.23835 44.3017L7.8046 44.7373L7.80675 45.5862C7.80841 46.2432 7.8471 46.4819 7.97774 46.6422C8.07067 46.756 8.65225 47.213 9.27029 47.6578C9.88832 48.1025 10.4123 48.4818 10.4347 48.5007C10.4571 48.5195 8.57731 48.535 6.25751 48.535H2.03955L2.0415 47.8269C2.04854 45.2463 2.95737 42.9827 4.6049 41.4422C4.95295 41.1168 5.47444 40.7137 5.76387 40.5466L6.29005 40.2426L6.33891 41.8836C6.37574 43.1195 6.42284 43.5667 6.52994 43.6954Z" fill="white"/>
</svg>
