<svg width="43" height="62" viewBox="0 0 43 62" fill="none" xmlns="http://www.w3.org/2000/svg">
<path d="M39.4829 19.4551L3.50523 19.5805C2.67256 19.5834 1.99912 20.2593 1.99923 21.092C1.99935 21.9286 2.67914 22.606 3.51576 22.603L39.4934 22.4776C40.326 22.4747 40.9994 21.799 40.9994 20.9664C40.9994 20.1297 40.3196 19.4522 39.4829 19.4551Z" fill="#2E3159"/>
<path d="M39.4829 29.4978L3.50523 29.6233C2.67256 29.6262 1.99912 30.3021 1.99923 31.1347C1.99935 31.9713 2.67914 32.6487 3.51576 32.6458L39.4934 32.5203C40.326 32.5174 40.9994 31.8417 40.9994 31.0091C40.9994 30.1724 40.3196 29.4949 39.4829 29.4978Z" fill="#2E3159"/>
<path d="M39.4829 39.4978L3.50523 39.6233C2.67256 39.6262 1.99912 40.3021 1.99923 41.1347C1.99935 41.9713 2.67914 42.6487 3.51576 42.6458L39.4934 42.5203C40.326 42.5174 40.9994 41.8417 40.9994 41.0091C40.9994 40.1724 40.3196 39.4949 39.4829 39.4978Z" fill="#2E3159"/>
</svg>
