<svg width="100" height="74" viewBox="0 0 100 74" fill="none" xmlns="http://www.w3.org/2000/svg">
<path d="M20.04 53.66C16.64 53.66 13.56 52.74 10.8 50.9C8.04 49.06 5.86 46.5 4.26 43.22C2.7 39.9 1.92 36.08 1.92 31.76C1.92 27.4 2.7 23.6 4.26 20.36C5.82 17.08 7.96 14.54 10.68 12.74C13.4 10.9 16.48 9.98 19.92 9.98C23.4 9.98 26.5 10.9 29.22 12.74C31.94 14.54 34.08 17.08 35.64 20.36C37.24 23.64 38.04 27.46 38.04 31.82C38.04 36.18 37.24 40 35.64 43.28C34.08 46.56 31.94 49.12 29.22 50.96C26.54 52.76 23.48 53.66 20.04 53.66ZM19.98 45.32C21.74 45.32 23.26 44.82 24.54 43.82C25.82 42.78 26.8 41.26 27.48 39.26C28.2 37.22 28.56 34.74 28.56 31.82C28.56 28.86 28.2 26.38 27.48 24.38C26.8 22.38 25.82 20.88 24.54 19.88C23.26 18.84 21.72 18.32 19.92 18.32C18.2 18.32 16.68 18.82 15.36 19.82C14.08 20.82 13.1 22.32 12.42 24.32C11.74 26.32 11.4 28.8 11.4 31.76C11.4 34.72 11.74 37.2 12.42 39.2C13.1 41.2 14.08 42.72 15.36 43.76C16.68 44.8 18.22 45.32 19.98 45.32ZM41.4009 47.72L57.6609 30.92C58.6609 29.92 59.4609 29 60.0609 28.16C60.6609 27.32 61.1009 26.54 61.3809 25.82C61.6609 25.06 61.8009 24.3 61.8009 23.54C61.8009 21.9 61.2609 20.62 60.1809 19.7C59.1409 18.74 57.7609 18.26 56.0409 18.26C54.3609 18.26 52.8409 18.72 51.4809 19.64C50.1609 20.52 48.8809 21.98 47.6409 24.02L41.3409 18.56C43.0209 15.72 45.1609 13.58 47.7609 12.14C50.3609 10.7 53.3409 9.98 56.7009 9.98C59.6209 9.98 62.1409 10.52 64.2609 11.6C66.4209 12.68 68.0809 14.22 69.2409 16.22C70.4409 18.22 71.0409 20.56 71.0409 23.24C71.0409 24.92 70.8209 26.48 70.3809 27.92C69.9409 29.32 69.2209 30.72 68.2209 32.12C67.2609 33.48 65.9609 34.98 64.3209 36.62L53.0409 47.84L41.4009 47.72ZM41.4009 53V47.72L49.3809 44.96L71.8809 44.96V53L41.4009 53Z" fill="#A21D34" fill-opacity="0.08"/>
<path fill-rule="evenodd" clip-rule="evenodd" d="M53.0445 32.1503C51.1663 32.6101 49.5833 34.2565 49.1902 36.1591C49.1102 36.5467 49.0758 40.7381 49.0758 50.13V63.5473H48.4597C47.7196 63.5473 47.3511 63.6989 47.1535 64.0847C46.9686 64.4455 46.9425 68.975 47.1203 69.8356C47.5248 71.7931 49.1854 73.4692 51.1249 73.8774C51.9017 74.0409 95.0983 74.0409 95.8751 73.8774C97.8146 73.4692 99.4752 71.7931 99.8797 69.8356C100.057 68.975 100.031 64.4455 99.8465 64.0847C99.6489 63.6989 99.2804 63.5473 98.5403 63.5473H97.9242V50.13C97.9242 40.7381 97.8898 36.5467 97.8098 36.1591C97.4054 34.2017 95.7447 32.5256 93.8053 32.1174C92.9676 31.941 53.7698 31.9727 53.0445 32.1503ZM93.8147 34.3008C94.5679 34.5852 95.1625 35.1257 95.5117 35.8434L95.8026 36.4413L95.83 49.9943L95.8573 63.5473H94.614H93.3705V50.4852C93.3705 36.2886 93.3996 36.9966 92.8042 36.7228C92.602 36.6298 90.673 36.598 85.2363 36.598C77.3163 36.598 77.5101 36.5841 77.2459 37.1695C77.0895 37.5159 77.0895 37.7691 77.2459 38.1155C77.5088 38.6978 77.3703 38.6871 84.6202 38.6871H91.3007V51.1172V63.5473H88.0944H84.8881L84.8399 63.3123C84.8133 63.183 84.7611 62.7958 84.7238 62.4516C84.633 61.6125 84.2306 60.2413 83.7974 59.2952C82.725 56.9524 80.706 54.8875 78.3916 53.7664L77.4214 53.2964L77.7943 52.8798C78.3855 52.2195 78.8566 51.4057 79.1384 50.5586C79.369 49.865 79.399 49.6024 79.3978 48.2785C79.397 47.3057 79.344 46.583 79.2464 46.2125C78.6823 44.0733 76.8682 42.3187 74.7522 41.866C71.6623 41.2049 68.5671 43.1272 67.7536 46.2125C67.656 46.583 67.603 47.3057 67.6022 48.2785C67.601 49.6093 67.6302 49.8629 67.8663 50.5726C68.1367 51.3855 68.8172 52.5329 69.2997 52.9894C69.5943 53.2682 69.6397 53.4152 69.4314 53.4152C69.3567 53.4152 68.8967 53.6207 68.4091 53.8717C66.1468 55.0368 64.2452 57.0176 63.2026 59.2952C62.7694 60.2413 62.367 61.6125 62.2762 62.4516C62.2389 62.7958 62.1867 63.183 62.1601 63.3123L62.1119 63.5473H58.9056H55.6993V51.1172V38.6871H62.3697C67.3209 38.6871 69.1101 38.6549 69.3115 38.5622C69.6081 38.4258 69.8778 37.9878 69.8778 37.6425C69.8778 37.2972 69.6081 36.8592 69.3115 36.7228C69.1092 36.6298 67.1802 36.598 61.7436 36.598C53.8235 36.598 54.0174 36.5841 53.7532 37.1695C53.6594 37.3772 53.6295 40.5986 53.6295 50.4954V63.5473H52.386H51.1427L51.17 49.9943L51.1974 36.4413L51.4883 35.8434C51.8314 35.1381 52.4271 34.5889 53.1559 34.3059C53.6703 34.1062 54.0959 34.1018 73.4702 34.0965C93.0389 34.0911 93.2655 34.0933 93.8147 34.3008ZM72.9939 36.7438C72.0967 37.2457 72.4721 38.6871 73.5 38.6871C74.0244 38.6871 74.5349 38.1768 74.5349 37.6526C74.5349 36.8684 73.6762 36.362 72.9939 36.7438ZM74.6534 44.0148C75.8371 44.3915 76.6844 45.2089 77.1277 46.4016C77.3196 46.9179 77.3426 47.1666 77.3121 48.4014C77.2806 49.6854 77.2523 49.8632 76.9962 50.3895C76.8416 50.7074 76.4938 51.1907 76.2235 51.4636C74.3409 53.3636 71.1858 52.8188 70.0038 50.3895C69.7477 49.8632 69.7194 49.6854 69.6879 48.4014C69.6574 47.1666 69.6804 46.9179 69.8723 46.4016C70.3094 45.2256 71.1566 44.398 72.3098 44.0204C73.1154 43.7567 73.8372 43.7549 74.6534 44.0148ZM72.4651 56.2957V57.8184L72.7676 58.1237C73.1645 58.5243 73.7666 58.5469 74.1928 58.1772L74.4832 57.9254L74.5165 56.3492L74.5498 54.773L74.9822 54.8392C76.3041 55.0414 78.0495 55.8143 79.1739 56.6956C81.097 58.2028 82.4176 60.509 82.6938 62.8423L82.7773 63.5473H73.5H64.2227L64.3062 62.8423C64.7131 59.4043 67.263 56.3139 70.6094 55.2033C71.2187 55.0009 71.9821 54.8158 72.3357 54.7846C72.4338 54.7758 72.4651 55.1412 72.4651 56.2957ZM97.9064 67.595C97.8735 69.4933 97.8635 69.5717 97.5837 70.147C97.2565 70.8194 96.7551 71.31 96.0666 71.6315L95.5956 71.8515L73.6358 71.8785C51.8339 71.9054 51.6719 71.9041 51.118 71.6949C50.3623 71.4095 49.768 70.8698 49.4185 70.1514C49.1359 69.5707 49.1266 69.497 49.0936 67.595L49.0597 65.6364H73.5H97.9403L97.9064 67.595ZM68.9833 67.8274C68.3694 68.0821 68.2313 69.0045 68.7314 69.5093L69.0339 69.8146H73.5H77.9661L78.2686 69.5093C78.6656 69.1086 78.6879 68.5009 78.3214 68.0709L78.0718 67.7778L73.6384 67.7565C71.2001 67.745 69.1053 67.7768 68.9833 67.8274Z" fill="#A21D34"/>
</svg>
