<svg width="97" height="92" viewBox="0 0 97 92" fill="none" xmlns="http://www.w3.org/2000/svg">
<path d="M20.04 53.66C16.64 53.66 13.56 52.74 10.8 50.9C8.04 49.06 5.86 46.5 4.26 43.22C2.7 39.9 1.92 36.08 1.92 31.76C1.92 27.4 2.7 23.6 4.26 20.36C5.82 17.08 7.96 14.54 10.68 12.74C13.4 10.9 16.48 9.98 19.92 9.98C23.4 9.98 26.5 10.9 29.22 12.74C31.94 14.54 34.08 17.08 35.64 20.36C37.24 23.64 38.04 27.46 38.04 31.82C38.04 36.18 37.24 40 35.64 43.28C34.08 46.56 31.94 49.12 29.22 50.96C26.54 52.76 23.48 53.66 20.04 53.66ZM19.98 45.32C21.74 45.32 23.26 44.82 24.54 43.82C25.82 42.78 26.8 41.26 27.48 39.26C28.2 37.22 28.56 34.74 28.56 31.82C28.56 28.86 28.2 26.38 27.48 24.38C26.8 22.38 25.82 20.88 24.54 19.88C23.26 18.84 21.72 18.32 19.92 18.32C18.2 18.32 16.68 18.82 15.36 19.82C14.08 20.82 13.1 22.32 12.42 24.32C11.74 26.32 11.4 28.8 11.4 31.76C11.4 34.72 11.74 37.2 12.42 39.2C13.1 41.2 14.08 42.72 15.36 43.76C16.68 44.8 18.22 45.32 19.98 45.32ZM49.3209 53L49.3209 10.64L58.6809 10.64L58.6809 53H49.3209ZM41.1609 18.62V10.64L58.0809 10.64V18.62L41.1609 18.62Z" fill="#A21D34" fill-opacity="0.08"/>
<path fill-rule="evenodd" clip-rule="evenodd" d="M56.4617 31.1909C55.6982 31.4583 55.1704 31.842 54.7388 32.4435C54.2008 33.1935 54.0415 33.9242 54.0415 35.6432V37.1646L51.2938 37.2024C48.7068 37.2378 48.5169 37.2559 48.0471 37.5093C47.2645 37.9315 46.7515 38.4521 46.394 39.1869L46.0643 39.8648L46.0321 50.0446L46 60.2245L46.4044 60.6327C46.9966 61.2305 47.7599 61.1499 48.172 60.4457C48.3513 60.1393 48.3688 59.2386 48.3688 50.3092C48.3688 39.6679 48.3475 40.0163 49.0155 39.7091C49.2515 39.6005 53.6665 39.5665 67.5255 39.5665C87.3148 39.5665 86.2062 39.5284 86.518 40.2193C86.7228 40.6732 86.7228 88.567 86.518 89.0208C86.2061 89.7118 87.3158 89.6736 67.514 89.6736C47.7122 89.6736 48.8219 89.7118 48.51 89.0208C48.4041 88.7864 48.3688 86.2557 48.3688 78.9248C48.3688 68.302 48.39 68.6489 47.7221 68.3417C47.098 68.0545 46.3756 68.3003 46.1374 68.8808C46.0357 69.1285 46.0083 71.84 46.0321 79.2956C46.0639 89.2581 46.0672 89.3817 46.3132 89.9183C46.6769 90.712 47.232 91.29 47.9928 91.6671L48.6643 92H67.514H86.3638L87.0353 91.6671C87.7972 91.2894 88.3529 90.7101 88.7128 89.9183C88.9191 89.4646 88.9666 89.0873 89.0019 87.6235L89.0442 85.8715L91.7812 85.834C94.3571 85.7985 94.5475 85.7804 95.0172 85.5271C95.7998 85.1049 96.3128 84.5843 96.6703 83.8495L97 83.1716V58.4163V33.661L96.7511 33.1181C96.3874 32.3244 95.8323 31.7463 95.0715 31.3692L94.4 31.0364L75.7275 31.0096C58.2403 30.9847 57.0174 30.9962 56.4617 31.1909ZM94.0874 33.5328C94.2666 33.6263 94.4766 33.8436 94.5543 34.0156C94.7591 34.4694 94.7591 82.3632 94.5543 82.817C94.2893 83.4043 93.9715 83.4699 91.3935 83.4699H89.0253L88.9946 61.6673L88.9637 39.8648L88.7149 39.3218C88.3659 38.5602 87.7869 37.9352 87.0835 37.5606L86.482 37.2401L71.4435 37.2085L56.4051 37.1769L56.4092 35.7172C56.4137 34.1533 56.5079 33.8096 57.009 33.5293C57.4465 33.2844 93.6183 33.2878 94.0874 33.5328ZM65.5049 44.4028C60.2234 45.2457 56.1158 49.2912 54.9708 54.7776C54.7782 55.7008 54.7782 58.5072 54.9708 59.4304C55.8603 63.6924 58.4284 67.0086 62.2182 68.7884C66.8937 70.984 72.4815 70.0505 76.2726 66.4401C76.7252 66.0091 77.3621 65.3025 77.6878 64.8698C78.5129 63.774 79.5065 61.6894 79.8824 60.2655C80.1632 59.2023 80.1975 58.8583 80.1975 57.104C80.1975 55.3594 80.1624 55.0028 79.8889 53.9691C79.3215 51.8239 78.2317 49.8346 76.7623 48.2622C73.8903 45.1889 69.6621 43.7392 65.5049 44.4028ZM70.0549 46.9457C73.802 47.9566 76.5893 50.7498 77.57 54.4768C78.2905 57.2152 77.7803 60.4082 76.2456 62.7647L75.7283 63.559L75.3749 63.1053C74.2899 61.7125 72.9085 60.5492 71.6809 59.9943L71.2084 59.7808L71.6598 59.0273C72.2392 58.0598 72.4007 57.2526 72.3353 55.6509C72.2872 54.4705 72.2496 54.3037 71.8466 53.4808C69.7861 49.272 63.7257 50.0981 62.7747 54.7175C62.6986 55.0871 62.6652 55.8677 62.6979 56.507C62.7616 57.7497 63.029 58.6255 63.5582 59.326C63.732 59.556 63.8556 59.7568 63.8328 59.7721C63.81 59.7873 63.429 59.9814 62.9863 60.2034C61.7629 60.8167 60.0626 62.3677 59.4989 63.3846C59.3886 63.5836 59.3631 63.5778 59.1368 63.304C58.6926 62.7666 57.7035 60.6377 57.448 59.669C57.0906 58.3141 57.0913 55.889 57.4495 54.539C58.0006 52.4617 59.3634 50.2993 60.9256 49.0229C62.3046 47.8962 64.295 46.9945 66.0149 46.7173C66.9354 46.5689 69.1145 46.6921 70.0549 46.9457ZM68.7871 53.4852C69.0648 53.6455 69.437 53.9978 69.6143 54.268C69.8965 54.6983 69.9418 54.8986 69.9778 55.8768C70.0149 56.8863 69.9892 57.0557 69.7104 57.6307C69.2906 58.497 68.6516 58.925 67.6816 58.9899C67.1254 59.0271 66.858 58.9837 66.4998 58.7977C65.4553 58.2556 65.0322 57.4657 65.0322 56.0575C65.0322 55.2878 65.0869 55.0118 65.3422 54.4947C65.9985 53.1653 67.4807 52.731 68.7871 53.4852ZM68.873 61.5772C69.9989 61.7797 71.443 62.4697 72.2897 63.2097C72.8931 63.7371 73.8958 65.0196 73.8958 65.264C73.8958 65.4709 72.4867 66.3701 71.554 66.7584C70.0381 67.3894 69.2566 67.5363 67.4549 67.5285C66.013 67.5224 65.6669 67.4806 64.7608 67.2031C63.2951 66.7541 61.1304 65.6054 61.1335 65.2781C61.134 65.2114 61.4095 64.7873 61.7458 64.3355C62.4301 63.4155 63.44 62.6001 64.5004 62.1114C65.1157 61.8278 65.4699 61.7272 66.7458 61.4736C67.2317 61.3769 67.9558 61.4122 68.873 61.5772ZM46.6091 63.5936C45.9118 63.9837 45.8193 64.8142 46.407 65.4075C46.9966 66.0027 47.7608 65.9206 48.172 65.2178C48.787 64.1667 47.6663 63.0019 46.6091 63.5936ZM54.56 72.6101C54.4228 72.6665 54.1967 72.8587 54.0578 73.0371C53.8167 73.3464 53.8051 73.4844 53.8051 76.0355C53.8051 78.8673 53.8688 79.248 54.3895 79.5293C54.7052 79.6999 80.3229 79.6999 80.6385 79.5293C81.1597 79.2477 81.2229 78.8684 81.2229 76.0212V73.333L80.8781 72.9433L80.5332 72.5537L67.6714 72.5305C60.5974 72.5179 54.6974 72.5537 54.56 72.6101ZM78.8593 76.0731V77.2661H67.514H56.1687V76.0731V74.8801H67.514H78.8593V76.0731ZM60.112 82.8461C59.5074 83.3405 59.4414 84.0072 59.9408 84.5715L60.2856 84.9611H67.514H74.7424L75.1006 84.5565C75.4116 84.205 75.4502 84.0875 75.3936 83.6619C75.3503 83.3359 75.225 83.0821 75.0192 82.9034L74.7098 82.6347L67.5369 82.6374C60.9192 82.6399 60.3446 82.656 60.112 82.8461Z" fill="#A21D34"/>
</svg>
