<svg width="99" height="81" viewBox="0 0 99 81" fill="none" xmlns="http://www.w3.org/2000/svg">
<path d="M20.04 53.66C16.64 53.66 13.56 52.74 10.8 50.9C8.04 49.06 5.86 46.5 4.26 43.22C2.7 39.9 1.92 36.08 1.92 31.76C1.92 27.4 2.7 23.6 4.26 20.36C5.82 17.08 7.96 14.54 10.68 12.74C13.4 10.9 16.48 9.98 19.92 9.98C23.4 9.98 26.5 10.9 29.22 12.74C31.94 14.54 34.08 17.08 35.64 20.36C37.24 23.64 38.04 27.46 38.04 31.82C38.04 36.18 37.24 40 35.64 43.28C34.08 46.56 31.94 49.12 29.22 50.96C26.54 52.76 23.48 53.66 20.04 53.66ZM19.98 45.32C21.74 45.32 23.26 44.82 24.54 43.82C25.82 42.78 26.8 41.26 27.48 39.26C28.2 37.22 28.56 34.74 28.56 31.82C28.56 28.86 28.2 26.38 27.48 24.38C26.8 22.38 25.82 20.88 24.54 19.88C23.26 18.84 21.72 18.32 19.92 18.32C18.2 18.32 16.68 18.82 15.36 19.82C14.08 20.82 13.1 22.32 12.42 24.32C11.74 26.32 11.4 28.8 11.4 31.76C11.4 34.72 11.74 37.2 12.42 39.2C13.1 41.2 14.08 42.72 15.36 43.76C16.68 44.8 18.22 45.32 19.98 45.32ZM55.1409 53.66C52.2209 53.66 49.5409 53.16 47.1009 52.16C44.6609 51.12 42.6009 49.64 40.9209 47.72L46.9809 41.66C47.7409 42.78 48.8409 43.7 50.2809 44.42C51.7609 45.1 53.3209 45.44 54.9609 45.44C56.4409 45.44 57.7209 45.18 58.8009 44.66C59.8809 44.14 60.7209 43.4 61.3209 42.44C61.9609 41.48 62.2809 40.34 62.2809 39.02C62.2809 37.7 61.9609 36.58 61.3209 35.66C60.7209 34.7 59.8209 33.96 58.6209 33.44C57.4609 32.92 56.0609 32.66 54.4209 32.66C53.6609 32.66 52.8609 32.72 52.0209 32.84C51.2209 32.92 50.5409 33.06 49.9809 33.26L54.1209 28.04C55.2409 27.72 56.3009 27.46 57.3009 27.26C58.3409 27.02 59.3009 26.9 60.1809 26.9C62.3409 26.9 64.2809 27.42 66.0009 28.46C67.7209 29.46 69.0809 30.9 70.0809 32.78C71.1209 34.62 71.6409 36.82 71.6409 39.38C71.6409 42.18 70.9409 44.66 69.5409 46.82C68.1809 48.98 66.2609 50.66 63.7809 51.86C61.3409 53.06 58.4609 53.66 55.1409 53.66ZM49.9809 33.26V28.04L60.3009 15.92L70.8609 15.86L60.1209 28.1L49.9809 33.26ZM43.5609 18.62V10.64L70.8609 10.64V15.86L63.4809 18.62L43.5609 18.62Z" fill="#A21D34" fill-opacity="0.08"/>
<path fill-rule="evenodd" clip-rule="evenodd" d="M66.5269 26.1355C64.8734 26.538 63.4651 27.8955 62.9732 29.561L62.8403 30.0108H60.968C58.9252 30.0108 58.3618 30.1105 57.7446 30.5811C57.2047 30.9928 56.8384 31.8172 56.8384 32.6208V33.2841L53.2494 33.3146C49.23 33.3488 49.3323 33.3286 49.11 34.1283C48.9614 34.6633 48.9643 78.8224 49.1131 79.3578C49.173 79.5734 49.3474 79.8484 49.5006 79.9688L49.7792 80.1879L68.4767 80.1546C87.1332 80.1214 87.1764 80.1208 88.0744 79.8963C90.704 79.2391 92.7196 78.1555 94.5127 76.4352C97.2463 73.8125 98.6713 70.4911 98.6723 66.7401C98.6728 64.3912 98.2312 62.5466 97.1796 60.5068C95.2174 56.7002 91.3615 53.9453 87.2008 53.3771L86.2743 53.2506V51.0459C86.2743 48.6472 86.2193 48.3703 85.6949 48.1315C85.2529 47.9301 84.9266 47.9823 84.5554 48.3137L84.2096 48.6223L84.1775 50.9334L84.1455 53.2445L83.0498 53.4236C78.371 54.1883 74.2724 57.5798 72.5852 62.0828C72.0039 63.6341 71.8322 64.6522 71.8265 66.5814C71.8193 69.0608 72.1771 70.6442 73.2099 72.7034C74.1537 74.5852 75.5766 76.2982 77.2105 77.5197L77.941 78.0659H64.5308H51.1207V56.7375V35.4091H53.9795H56.8384V35.9525C56.8384 37.0547 57.3495 37.9284 58.2486 38.3635C58.7007 38.5823 58.7952 38.5845 67.6456 38.5835L76.5859 38.5824L77.1277 38.3303C78.0039 37.9225 78.5448 36.9829 78.5448 35.8686V35.4091H81.3507H84.1567V37.695C84.1567 39.6376 84.1831 40.0257 84.333 40.2792C84.6903 40.884 85.4736 40.989 85.9648 40.4979L86.2743 40.1886L86.272 37.0843C86.2699 34.3031 86.2506 33.9566 86.0867 33.7544C85.7259 33.3091 85.5763 33.2921 82.0072 33.2921H78.5733L78.522 32.5768C78.4448 31.4987 77.993 30.7651 77.1153 30.2928C76.7346 30.0879 76.48 30.0594 74.5945 30.0114L72.4973 29.9579L72.265 29.267C71.4787 26.929 68.9458 25.5467 66.5269 26.1355ZM69.0036 28.48C69.8962 28.9657 70.3179 29.6663 70.4343 30.8576C70.4914 31.4418 70.5494 31.5896 70.8189 31.8367L71.1362 32.1278H73.6546C75.4721 32.1278 76.2083 32.1632 76.3 32.2548C76.4461 32.4009 76.4819 36.1114 76.3394 36.3359C76.2726 36.4411 74.4604 36.4632 67.632 36.4417L59.0091 36.4146L58.9802 34.4173C58.9602 33.0336 58.9886 32.375 59.0726 32.2739C59.1695 32.1571 59.7032 32.1278 61.7302 32.1278H64.2667L64.5762 31.8184C64.8243 31.5703 64.8857 31.4168 64.8857 31.0437C64.8857 30.7879 64.9607 30.3258 65.0524 30.0171C65.2584 29.3238 66.0046 28.5338 66.6914 28.282C67.3815 28.0289 68.3228 28.1096 69.0036 28.48ZM84.5267 43.6032C84.1665 43.9633 84.0927 44.3544 84.3022 44.7937C84.5018 45.212 85.0099 45.4746 85.4549 45.3895C85.8705 45.3101 86.2743 44.7914 86.2743 44.337C86.2743 43.4872 85.1254 43.0048 84.5267 43.6032ZM57.7266 45.5675C57.037 45.8487 56.8419 46.7546 57.3597 47.2722L57.6692 47.5816H67.7946C78.9983 47.5816 78.4115 47.6181 78.6465 46.9061C78.7967 46.4512 78.7072 46.0839 78.3685 45.7658L78.1042 45.5176L68.0273 45.4971C62.4848 45.4857 57.8496 45.5175 57.7266 45.5675ZM57.7266 53.2953C57.0374 53.5737 56.8419 54.4815 57.3597 54.9991L57.6692 55.3085H65.4151H73.161L73.4705 54.9991C73.9827 54.4871 73.8439 53.6641 73.1934 53.3554C72.8913 53.2121 71.9133 53.1924 65.3991 53.1982C61.3022 53.202 57.8496 53.2457 57.7266 53.2953ZM86.5391 55.4259C91.5816 56.0437 95.5534 59.8159 96.4415 64.8307C96.6134 65.8019 96.5848 67.8023 96.384 68.8476C95.5589 73.1415 92.3252 76.5696 88.0214 77.7129C87.0791 77.9632 86.7704 77.9942 85.2155 77.9942C83.6739 77.9942 83.3487 77.9622 82.4499 77.7221C77.5788 76.4209 74.1442 72.209 73.9149 67.2555C73.8176 65.1549 74.1894 63.4573 75.164 61.5536C77.0516 57.8666 80.9238 55.4406 85.1096 55.3226C85.3717 55.3152 86.0149 55.3617 86.5391 55.4259ZM84.9203 57.7669C84.5293 57.8682 84.1577 58.3734 84.1571 58.8044C84.1568 59.0319 84.055 59.1162 83.4797 59.3668C83.1074 59.5289 82.6129 59.8241 82.3806 60.0228C81.2287 61.0085 80.712 62.7298 81.1379 64.1633C81.4356 65.1653 82.207 65.9482 83.5421 66.6031L84.1452 66.8989L84.1509 69.6907L84.1567 72.4824L83.8125 72.4148C83.6232 72.3776 83.082 72.1547 82.6098 71.9195C81.6543 71.4435 81.3898 71.4402 80.9311 71.8986C80.5215 72.3082 80.5556 72.9125 81.0127 73.3432C81.5023 73.8044 82.6263 74.3277 83.4561 74.4805C84.1273 74.6041 84.1567 74.6222 84.1567 74.914C84.1567 75.3569 84.4293 75.8144 84.8109 76.0117C85.0838 76.1527 85.2153 76.1625 85.5387 76.0657C86.0328 75.9176 86.2743 75.5586 86.2743 74.9719C86.2743 74.5184 86.2763 74.5161 86.8302 74.3201C88.9327 73.5768 90.2665 71.3842 89.9636 69.1696C89.7368 67.5121 88.7745 66.4994 86.5655 65.5939L86.2743 65.4745V63.3552C86.2743 61.7486 86.3059 61.236 86.4046 61.236C86.4763 61.236 86.814 61.4082 87.1553 61.6188C87.6706 61.9369 87.8412 61.9912 88.1632 61.9399C88.9356 61.817 89.304 60.8752 88.82 60.2602C88.5678 59.9396 87.3003 59.2588 86.7383 59.142C86.3694 59.0654 86.3232 59.0185 86.2652 58.6624C86.1928 58.2171 85.842 57.7862 85.4983 57.7206C85.3719 57.6965 85.1117 57.7172 84.9203 57.7669ZM57.7266 61.0207C57.0365 61.3041 56.8419 62.2085 57.3597 62.7261L57.6692 63.0355H62.9797H68.2903L68.5998 62.7261C69.0222 62.3036 69.0225 61.7895 68.6004 61.3171L68.2914 60.9714L63.1209 60.9501C60.277 60.9384 57.8496 60.9701 57.7266 61.0207ZM84.1346 63.7394L84.1037 64.5492L83.7558 64.256C82.8875 63.5245 82.8884 62.4491 83.7579 61.6357L84.1037 61.3122L84.1346 62.1209C84.1517 62.5657 84.1517 63.294 84.1346 63.7394ZM86.8711 68.0661C87.9901 68.7216 88.2125 70.3571 87.3344 71.473C87.1026 71.7675 86.5001 72.2442 86.3597 72.2442C86.3128 72.2442 86.2743 71.244 86.2743 70.0214C86.2743 68.7989 86.3059 67.7986 86.3444 67.7986C86.383 67.7986 86.62 67.919 86.8711 68.0661ZM57.8215 68.7177C57.6924 68.7437 57.4661 68.9084 57.3185 69.0838C56.9409 69.5324 56.9565 70.0499 57.3597 70.453L57.6692 70.7624H62.9797H68.2903L68.5998 70.453C69.0222 70.0305 69.0225 69.5164 68.6004 69.044L68.2915 68.6983L63.1738 68.6844C60.3591 68.6767 57.9505 68.6917 57.8215 68.7177Z" fill="#A21D34"/>
</svg>
