<svg width="77" height="70" viewBox="0 0 77 70" fill="none" xmlns="http://www.w3.org/2000/svg">
<path fill-rule="evenodd" clip-rule="evenodd" d="M20.0069 0.226332C18.1371 0.728114 16.4377 2.15203 15.5392 3.96971C13.5839 7.92523 15.8466 12.7985 20.1494 13.899C21.0617 14.1323 21.5462 14.1353 23.9552 13.9229C24.3498 13.888 24.4633 14.0162 25.4308 15.5884C26.0072 16.5251 26.4578 17.3544 26.4322 17.431C26.4066 17.5078 24.4559 18.6773 22.0973 20.03C18.5052 22.0902 17.7661 22.5715 17.5458 22.9949C17.3107 23.4462 17.2825 24.0329 17.2824 28.4954L17.2821 33.4907H15.6504H14.0188L13.83 32.8522C13.37 31.2967 11.8265 29.4305 10.3983 28.7032C6.99495 26.9699 2.62072 28.3073 0.844538 31.6241C-1.67074 36.321 1.73684 42.0541 7.04386 42.0541C9.01283 42.0541 10.4311 41.4871 11.9049 40.1109C12.8886 39.1922 13.5017 38.2441 13.83 37.1339L14.0188 36.4954H15.6504H17.2821V41.4579C17.2821 45.3421 17.3272 46.5285 17.4902 46.9176C17.6717 47.3516 18.2555 47.7349 22.0804 49.9311C24.4905 51.3152 26.4613 52.526 26.4598 52.6217C26.4581 52.7175 25.995 53.5394 25.4304 54.4484C24.4773 55.9829 24.3725 56.0982 23.9659 56.0632C21.492 55.8503 21.0649 55.8531 20.1494 56.0871C15.8463 57.1876 13.5832 62.0624 15.5396 66.0164C17.7097 70.4017 23.4683 71.3625 26.9165 67.9144C29.4384 65.3925 29.684 61.504 27.5033 58.6207L26.8989 57.8217L27.8748 56.2102C28.4114 55.3238 28.9418 54.476 29.0535 54.3262C29.2426 54.0725 29.5546 54.2262 33.6161 56.5731C36.9815 58.5179 38.0957 59.0925 38.5023 59.0934C38.9106 59.0942 40.0075 58.5307 43.3779 56.5883C45.7696 55.2099 47.7726 54.1105 47.8287 54.1452C47.885 54.1797 48.4206 55.0173 49.0191 56.0061L50.1074 57.8043L49.5492 58.5301C46.4178 62.6019 48.2879 68.2885 53.2409 69.7554C54.8341 70.2273 57.0062 69.9785 58.5329 69.1491C59.6586 68.5375 60.8727 67.2234 61.4963 65.9413C61.9943 64.9177 62.05 64.6746 62.1041 63.2875C62.1536 62.0191 62.109 61.5968 61.841 60.7924C61.4214 59.5339 60.8689 58.6896 59.8242 57.7105C58.374 56.3515 56.6547 55.7658 54.6106 55.934C53.9871 55.9854 53.2796 56.044 53.0383 56.0641C52.6296 56.0984 52.5303 55.9862 51.571 54.4036C51.0051 53.47 50.5422 52.6519 50.5422 52.5855C50.5422 52.5189 52.4803 51.3559 54.8493 50.001C57.3494 48.5711 59.2593 47.383 59.4019 47.1689C59.6145 46.8495 59.6533 46.1113 59.6923 41.6478L59.7373 36.4954H61.3616H62.9858L63.177 37.1339C63.4938 38.1923 63.9309 38.9157 64.8103 39.836C66.2375 41.3296 67.9197 42.0541 69.9608 42.0541C74.2381 42.0541 77.5736 38.155 76.9173 33.9222C76.3886 30.5123 73.392 27.932 69.9608 27.932C67.9197 27.932 66.2375 28.6565 64.8103 30.1501C63.9309 31.0704 63.4938 31.7938 63.177 32.8522L62.9858 33.4907H61.3543H59.7226V28.5181C59.7226 24.3523 59.6849 23.4665 59.4908 23.0582C59.2964 22.6489 58.5598 22.167 54.9006 20.0542C52.5035 18.6701 50.5422 17.4795 50.5422 17.4083C50.5422 17.3371 51.0265 16.4928 51.6184 15.532L52.6946 13.7851L53.2362 13.9103C53.5342 13.9791 54.4551 14.0295 55.2829 14.0225C56.4581 14.0123 56.9767 13.9361 57.6495 13.675C59.6183 12.9109 61.2045 11.2125 61.8262 9.20342C62.0949 8.33492 62.1042 8.17897 61.9147 7.72602C61.7025 7.21913 61.0304 6.74859 60.5202 6.74965C59.8934 6.75085 59.3305 7.29785 58.9865 8.23967C58.3523 9.97592 57.1114 10.9457 55.3643 11.0705C54.4971 11.1324 54.2149 11.0869 53.5309 10.7743C52.5914 10.3449 51.87 9.67395 51.4053 8.79734C51.1511 8.31794 51.0758 7.91922 51.0758 7.04951C51.0758 5.80122 51.3475 5.10954 52.2327 4.10297C52.9136 3.32882 52.9124 2.53528 52.2294 1.92623C51.8791 1.61359 51.5857 1.49085 51.1893 1.49085C50.0481 1.49085 48.4745 3.77186 48.1059 5.96032C47.7857 7.86138 48.3052 9.83846 49.5499 11.4569L50.1087 12.1838L49.0086 14.0453C48.4036 15.0692 47.8671 15.9084 47.8164 15.9102C47.7658 15.9118 45.7341 14.7601 43.3014 13.3508C39.5394 11.1712 38.8077 10.7991 38.4041 10.8601C38.1431 10.8996 35.9845 12.0516 33.6071 13.4199C31.2295 14.7884 29.2362 15.8782 29.1772 15.8417C29.1182 15.8053 28.5788 14.9667 27.9783 13.9782L26.8867 12.1808L27.4972 11.3735C31.074 6.64433 27.7656 -0.0451411 21.8723 0.00022957C21.2929 0.00458636 20.4534 0.106445 20.0069 0.226332ZM57.1807 0.949409C56.3398 1.41453 56.1869 2.43688 56.8478 3.17513C57.2086 3.57835 57.3929 3.66249 57.9166 3.66249C59.4207 3.66249 59.9676 1.63538 58.6473 0.953765C58.136 0.689954 57.6522 0.688452 57.1807 0.949409ZM23.2545 3.1924C24.1441 3.51976 25.0219 4.26838 25.4579 5.07138C26.5886 7.15408 25.857 9.54009 23.7535 10.6296C22.8537 11.0958 22.6908 11.1311 21.7218 11.0698C20.5237 10.9939 19.7158 10.643 18.9829 9.87962C16.5257 7.32023 18.3554 2.96735 21.8723 3.00611C22.3689 3.01152 22.9909 3.09535 23.2545 3.1924ZM47.2312 19.0924C51.8252 21.7403 55.8379 24.0698 56.1482 24.269L56.7126 24.6311V35.042V45.4528L47.7203 50.6126C42.7745 53.4505 38.6756 55.8006 38.6114 55.8352C38.5472 55.8697 34.3993 53.5437 29.3939 50.6662L20.293 45.4343L20.2925 34.9866L20.2921 24.5389L24.9199 21.8821C27.4651 20.4209 31.5456 18.0758 33.9874 16.6708C36.5123 15.218 38.5245 14.1511 38.6528 14.197C38.777 14.2415 42.6373 16.4444 47.2312 19.0924ZM37.9756 21.315C37.0101 21.7139 27.0693 27.5676 26.7259 27.9394L26.312 28.3876V35.0105V41.6334L26.8011 42.1114C27.07 42.3743 29.7473 43.9975 32.7503 45.7184C37.0442 48.1791 38.2995 48.8343 38.6275 48.7862C38.8569 48.7527 41.5553 47.2816 44.6238 45.5174C48.5955 43.2338 50.2734 42.1903 50.4478 41.8957C50.6639 41.5305 50.6927 40.7123 50.6927 34.9346V28.3876L50.2788 27.9405C49.767 27.3876 39.0044 21.1679 38.5822 21.181C38.4141 21.1862 38.1411 21.2465 37.9756 21.315ZM43.0982 27.0829L47.6075 29.689V35.0078V40.3264L43.0979 42.9179C40.6176 44.3433 38.552 45.5088 38.5078 45.5082C38.4634 45.5075 36.3954 44.3397 33.9121 42.9131L29.3972 40.3191V34.9961V29.6728L33.9121 27.078C36.3954 25.6507 38.4635 24.4816 38.508 24.4798C38.5526 24.478 40.6182 25.6494 43.0982 27.0829ZM8.92945 31.3505C11.8384 32.8536 11.8449 37.1349 8.94028 38.6286C8.19336 39.0127 6.79794 39.1448 5.96072 38.9106C4.98941 38.6388 4.02517 37.8607 3.51152 36.9342C3.12263 36.2325 3.06002 35.9639 3.06002 34.993C3.06002 34.0228 3.12278 33.7527 3.51152 33.0492C3.97038 32.2187 4.82582 31.4812 5.7413 31.1269C6.4515 30.852 8.20224 30.9747 8.92945 31.3505ZM71.2634 31.1359C72.1614 31.4665 73.031 32.2125 73.4931 33.0492C73.8819 33.7527 73.9446 34.0228 73.9446 34.993C73.9446 35.9639 73.882 36.2325 73.4931 36.9342C72.6859 38.3903 71.2096 39.1637 69.5281 39.0115C67.3832 38.8173 65.8996 37.1743 65.8996 34.993C65.8996 33.1318 67.011 31.6056 68.7515 31.077C69.321 30.9041 70.7228 30.937 71.2634 31.1359ZM23.2545 59.0795C24.1525 59.41 25.0221 60.1561 25.4842 60.9927C25.873 61.6963 25.9357 61.9664 25.9357 62.9366C25.9357 63.9074 25.8731 64.176 25.4842 64.8778C24.1602 67.266 20.8561 67.7178 18.9829 65.7667C16.8941 63.591 17.8579 59.8966 20.7426 59.0206C21.3121 58.8477 22.7139 58.8806 23.2545 59.0795ZM56.9384 59.294C58.3147 60.0052 59.114 61.3435 59.114 62.9366C59.114 65.1811 57.6001 66.7971 55.3461 66.9587C53.7368 67.074 52.3039 66.3 51.543 64.9044C50.6931 63.3457 50.8931 61.6518 52.0872 60.2977C53.0027 59.2595 53.9576 58.8489 55.2829 58.9235C55.955 58.9615 56.5543 59.0956 56.9384 59.294Z" fill="#A21D34"/>
</svg>
