<svg width="19" height="14" viewBox="0 0 19 14" fill="none" xmlns="http://www.w3.org/2000/svg">
<path fill-rule="evenodd" clip-rule="evenodd" d="M2.826 0.0489636C2.101 0.175788 1.36924 0.591728 0.874547 1.1582C0.555174 1.52383 0.152097 2.26501 0.231972 2.33969C0.443527 2.53731 8.26403 8.05744 8.51667 8.18748C8.79617 8.33131 8.9186 8.35167 9.50554 8.35167C10.0511 8.35167 10.2287 8.32619 10.4625 8.21434C10.6889 8.10604 18.5628 2.5446 18.7791 2.34028C18.8583 2.26541 18.4796 1.56876 18.1469 1.17718C17.7804 0.745875 17.198 0.346879 16.6605 0.158974L16.2362 0.0106727L9.69693 0.000821378C6.10032 -0.00456423 3.0084 0.0171097 2.826 0.0489636ZM2.20138e-06 7.48144C0.000193596 9.81065 0.0240543 11.1354 0.0687768 11.3072C0.188079 11.765 0.52538 12.4633 0.617249 12.4428C0.664524 12.4323 1.96684 11.5241 3.5112 10.4247C5.74917 8.83139 6.30262 8.4094 6.23761 8.3457C6.13604 8.246 0.0657143 3.91839 0.0274992 3.91839C0.0121238 3.91839 -0.000189193 5.52173 2.20138e-06 7.48144ZM15.9173 6.08781C14.233 7.28644 12.8188 8.30215 12.7747 8.34504C12.7118 8.40625 13.3024 8.85589 15.5262 10.4398C17.0836 11.549 18.3858 12.4566 18.42 12.4566C18.5086 12.4566 18.8661 11.6312 18.9463 11.2415C18.9903 11.0275 19.0079 9.69315 18.9967 7.41083L18.9796 3.90861L15.9173 6.08781ZM4.62798 11.3315C3.0195 12.4769 1.70112 13.4424 1.69818 13.4771C1.69142 13.5566 2.03191 13.7318 2.48775 13.8834C2.81478 13.9921 3.2925 14 9.50554 14H16.1724L16.6396 13.8424C16.8966 13.7558 17.1665 13.6352 17.2393 13.5745C17.3976 13.4425 17.7909 13.7498 14.1356 11.1502L11.4608 9.24785L11.1663 9.40148C10.1546 9.92927 8.85697 9.92953 7.8459 9.40207L7.55249 9.24897L4.62798 11.3315Z" fill="#1A1C3B"/>
</svg>
