<svg width="50" height="47" viewBox="0 0 50 47" fill="none" xmlns="http://www.w3.org/2000/svg">
<path fill-rule="evenodd" clip-rule="evenodd" d="M23.9681 0.0464458C21.1065 0.505271 18.8639 2.53195 18.1597 5.29588C18.0077 5.89235 17.9633 6.38774 17.9623 7.49608C17.9611 8.88864 17.9534 8.94177 17.6693 9.50403C17.5088 9.82168 17.3775 10.1635 17.3775 10.2638C17.3775 10.364 17.3551 10.4461 17.3276 10.4461C17.3001 10.4461 17.0118 10.2639 16.687 10.0414C16.0261 9.58854 14.8347 9.08207 14.4186 9.07687C14.1236 9.07324 13.666 9.45315 13.666 9.70168C13.666 10.0326 13.9035 10.3367 14.2877 10.4978C15.8154 11.1383 16.7287 11.8034 17.3739 12.7448C18.0343 13.7082 18.3917 15.0623 18.3347 16.3847L18.3054 17.0638L18.1589 16.7384C17.9869 16.3562 16.5662 14.7612 16.1904 14.5284C15.7359 14.2466 15.3561 14.3299 14.0096 15.0067C12.3795 15.826 11.2492 16.1284 9.56376 16.1962C8.18395 16.2517 7.88488 16.3337 7.60114 16.7336C7.24854 17.2306 7.18467 17.0977 7.25353 16.0098C7.32903 14.8166 7.49292 14.1522 7.92444 13.29C8.37021 12.3993 9.4113 11.3766 10.3 10.9561C11.4177 10.4273 11.458 10.4022 11.6031 10.1428C11.7967 9.79648 11.6776 9.40521 11.3223 9.22089C11.0567 9.08295 10.9875 9.08638 10.4886 9.26236C8.74478 9.87766 7.09989 11.3982 6.38542 13.0554C6.00655 13.934 5.84871 14.8085 5.78561 16.3768C5.73053 17.7488 5.69409 18.0017 5.49445 18.4008C4.8085 19.7715 5.61312 21.5089 7.12265 21.9169C7.45639 22.0071 7.50288 22.0587 7.5608 22.4026C7.67684 23.0922 8.26101 24.1541 8.88055 24.8017L9.46609 25.4138V26.0472V26.6808L6.21849 27.9372C4.43227 28.6283 2.7738 29.3069 2.53284 29.4454C1.57653 29.9949 0.674237 31.0816 0.256689 32.1865C0.0468893 32.7417 0.0432754 32.8464 0.0137784 39.206C-0.0158162 45.606 -0.0142535 45.6656 0.190174 46.0896C0.312753 46.3436 0.54238 46.6083 0.755793 46.7415L1.11513 46.9658L12.6589 46.9919C22.3453 47.0138 24.2665 46.9959 24.5993 46.8808C24.9392 46.7633 25.0527 46.7633 25.3926 46.8808C25.7254 46.9959 27.6466 47.0138 37.333 46.9919L48.8768 46.9658L49.2361 46.7415C49.4471 46.6099 49.679 46.3441 49.7977 46.0979C49.9874 45.7046 50 45.5091 50 42.9598V40.2412L49.7602 40.0006C49.4728 39.712 49.128 39.6925 48.8144 39.9472C48.5845 40.1339 48.5836 40.1434 48.5349 42.8148L48.4861 45.4952L47.0454 45.5224L45.6048 45.5495V40.0247V34.5L45.3787 34.2868C45.0997 34.0237 44.7236 34.0136 44.4191 34.261L44.1885 34.4483L44.1618 39.9963L44.135 45.5443H41.5002C40.051 45.5443 38.8654 45.5192 38.8654 45.4885C38.8654 45.4578 39.2157 45.0405 39.6439 44.5611C40.072 44.0818 40.4522 43.5703 40.4887 43.4245C40.53 43.2594 40.2408 41.2936 39.7208 38.2047C38.9683 33.735 38.9005 33.2285 39.0288 33.0322C39.1633 32.826 39.189 32.822 39.5101 32.9566C39.96 33.1453 40.5402 32.9964 40.802 32.6251C40.9057 32.4781 41.3523 31.63 41.7947 30.7403C42.237 29.8506 42.6085 29.1117 42.6202 29.0984C42.6747 29.0363 46.6363 30.6525 46.9656 30.8714C47.4767 31.2109 48.0197 31.8997 48.2684 32.5241C48.4501 32.9806 48.4821 33.3109 48.5296 35.2224C48.5904 37.668 48.6119 37.7403 49.2787 37.7403C49.5373 37.7403 49.6868 37.6755 49.8261 37.5028C50.0069 37.2786 50.0154 37.1384 49.9766 35.0077C49.9402 33.0158 49.9111 32.6837 49.7289 32.1865C49.3286 31.0946 48.4203 29.9978 47.4591 29.4454C47.2181 29.3069 45.5596 28.6283 43.7734 27.9372L40.5258 26.6808V26.0037C40.5258 25.3268 40.526 25.3264 41.0209 24.7828C41.6492 24.0927 42.0313 23.421 42.244 22.6326C42.3856 22.1073 42.4509 22.0015 42.6652 21.95C43.1535 21.8324 43.6308 21.5291 44.0129 21.0933C44.7089 20.2997 44.8261 19.2972 44.3363 18.3276C44.0522 17.7653 44.0444 17.7122 44.0433 16.3196C44.0411 13.8651 43.5066 12.4618 41.9909 10.9313C40.621 9.54815 39.0193 8.88295 37.0497 8.87913C35.5879 8.87638 34.0305 9.37628 32.9806 10.1853C32.5294 10.5331 32.5167 10.5366 32.5167 10.3122C32.5167 10.1853 32.3854 9.82168 32.225 9.50403C31.9432 8.94628 31.9331 8.88011 31.9319 7.57324C31.9304 5.90313 31.7707 5.12147 31.1773 3.88058C30.7969 3.08479 30.6063 2.82528 29.8426 2.06224C29.1201 1.34037 28.7947 1.09527 28.1215 0.765762C27.6648 0.542232 27.0246 0.291545 26.6986 0.208603C25.9638 0.0216418 24.6204 -0.0581624 23.9681 0.0464458ZM26.0215 1.5739C28.1013 2.01224 29.7968 3.63567 30.3173 5.68725C30.4011 6.01745 30.4638 6.67843 30.4615 7.20686L30.4574 8.14216L30.287 7.82157C30.0441 7.36441 28.5523 5.76608 28.1958 5.58107C27.7766 5.36343 27.3966 5.45166 26.497 5.97568C25.0007 6.84716 23.3723 7.28677 21.3788 7.35716C20.2429 7.39726 19.9346 7.49775 19.7217 7.89706C19.5111 8.29197 19.4286 8.08216 19.4286 7.15137C19.4286 5.4496 19.8903 4.29568 21.0373 3.13126C22.404 1.74371 24.1856 1.18704 26.0215 1.5739ZM28.3025 7.69265L28.9028 8.37059V10.3707C28.9028 11.4708 28.855 12.6306 28.7966 12.9481C28.465 14.7485 27.0283 16.0184 25.2143 16.1143C23.9615 16.1807 23.0999 15.881 22.2505 15.0835C21.2013 14.0984 20.9914 13.3809 20.9914 10.779V8.89824L21.8949 8.83089C23.7037 8.69589 25.4956 8.18922 26.9006 7.41539C27.2766 7.20824 27.6108 7.03343 27.6433 7.02677C27.6758 7.0201 27.9724 7.31981 28.3025 7.69265ZM19.5263 10.6456C19.5263 11.5974 19.52 11.6261 19.3319 11.5251C19.0741 11.3865 18.8426 10.9213 18.8426 10.5415C18.8426 10.3333 18.9343 10.1429 19.1281 9.94835C19.2852 9.7907 19.439 9.66178 19.47 9.66178C19.5009 9.66178 19.5263 10.1045 19.5263 10.6456ZM30.7987 9.96344C31.0852 10.3051 31.1234 10.7087 30.9087 11.1253C30.7885 11.3588 30.5809 11.5245 30.4087 11.5245C30.3863 11.5245 30.3679 11.1054 30.3679 10.5932C30.3679 10.0809 30.408 9.66178 30.4569 9.66178C30.5058 9.66178 30.6597 9.79756 30.7987 9.96344ZM38.4298 10.4969C40.3428 10.9859 41.9253 12.5555 42.4319 14.4665C42.5144 14.7779 42.5742 15.4391 42.5736 16.0343L42.5726 17.0638L42.3914 16.6716C42.2918 16.4559 41.7908 15.8436 41.2779 15.3108L40.3454 14.3422L39.8252 14.3905C39.4481 14.4256 39.1148 14.5512 38.6142 14.8471C37.1803 15.6942 35.1263 16.2304 33.3146 16.2304H32.3887L32.0171 16.6226C31.8127 16.8383 31.6217 17.0147 31.5927 17.0147C31.4968 17.0147 31.538 15.2693 31.6464 14.7401C31.705 14.4544 31.9249 13.8589 32.1351 13.4169C32.791 12.0379 34.0683 10.972 35.5934 10.5314C36.3336 10.3175 37.6646 10.3013 38.4298 10.4969ZM19.7238 13.6079C19.9094 14.4079 20.4907 15.4331 21.1135 16.0586C21.6708 16.6183 21.6751 16.627 21.6751 17.2036V17.7846L20.9181 18.0801L20.1612 18.3756L19.9924 18.1609C19.8525 17.9829 19.8231 17.728 19.8208 16.6716C19.8176 15.264 19.7085 14.4079 19.4314 13.6166C19.2546 13.1118 19.2544 13.0932 19.4263 13.0932C19.561 13.0932 19.6337 13.2188 19.7238 13.6079ZM30.3827 13.8039C30.1687 14.4278 30.1343 14.7187 30.1017 16.1814C30.0651 17.823 29.9802 18.2893 29.7176 18.2893C29.6466 18.2893 29.3024 18.1743 28.9527 18.0338L28.3168 17.7782V17.1299C28.3168 16.4849 28.3192 16.4792 28.7994 15.9884C29.4298 15.3442 29.9146 14.5195 30.1277 13.7292C30.2521 13.2682 30.3443 13.0932 30.4628 13.0932C30.6086 13.0932 30.5998 13.1711 30.3827 13.8039ZM16.1968 16.5878L16.7915 17.2392L16.7895 19.1123C16.7872 21.3513 16.7026 22.0248 16.3225 22.8291C15.0469 25.5287 11.1778 25.7746 9.51639 23.2616C8.95234 22.4085 8.88231 22.0196 8.88113 19.7353L8.88006 17.701L9.44167 17.7004C10.9737 17.6989 13.3532 17.0787 14.6929 16.3318C15.0682 16.1225 15.4263 15.948 15.4886 15.9439C15.5511 15.9396 15.8698 16.2294 16.1968 16.5878ZM40.4601 16.5767L41.0292 17.2106L40.9973 19.6372L40.9653 22.0638L40.6535 22.7247C39.2842 25.6261 35.2569 25.805 33.6404 23.0362C33.2354 22.3423 33.1063 21.4925 33.1044 19.5049L33.1027 17.7305L34.1724 17.6653C35.6755 17.5737 37.2401 17.1582 38.604 16.4887C39.2044 16.1939 39.7395 15.9504 39.7933 15.9477C39.847 15.9449 40.147 16.228 40.4601 16.5767ZM25.0048 17.6018C25.4717 17.6025 26.0567 17.5382 26.3234 17.457C26.5871 17.3767 26.8139 17.3105 26.8273 17.3099C26.8407 17.3094 26.8517 17.4853 26.8517 17.7011C26.8517 18.0497 26.7509 18.2186 25.9483 19.2155C25.4514 19.8328 25.0171 20.3291 24.9834 20.3184C24.9495 20.3078 24.521 19.8018 24.031 19.194C23.25 18.225 23.1402 18.0419 23.1402 17.7077V17.3266L23.653 17.4637C23.9349 17.539 24.5433 17.6012 25.0048 17.6018ZM18.8143 19.0569C18.9448 19.3689 18.9469 19.4675 18.8305 19.7987C18.7566 20.0088 18.5973 20.2457 18.4763 20.3253L18.2566 20.4701V19.4743C18.2566 18.4953 18.26 18.4803 18.4602 18.5878C18.5722 18.648 18.7316 18.8591 18.8143 19.0569ZM43.0115 18.9C43.3204 19.3428 43.1427 20.0966 42.6696 20.3507C42.4868 20.449 42.4793 20.414 42.4793 19.4657C42.4793 18.5175 42.4868 18.4825 42.6696 18.5807C42.7743 18.6369 42.9282 18.7806 43.0115 18.9ZM7.41498 19.5148C7.41498 20.027 7.37493 20.4461 7.326 20.4461C7.27706 20.4461 7.12323 20.3103 6.98415 20.1445C6.6421 19.7364 6.63634 19.1599 6.97106 18.8241C7.10292 18.6917 7.25675 18.5834 7.31291 18.5834C7.37669 18.5834 7.41498 18.9322 7.41498 19.5148ZM31.6377 19.5182C31.6377 20.421 31.631 20.4495 31.4433 20.3487C31.2025 20.2193 30.9539 19.7522 30.9539 19.4291C30.9539 19.1878 31.379 18.5834 31.5487 18.5834C31.5976 18.5834 31.6377 19.0041 31.6377 19.5182ZM23.0832 20.3481L23.9177 21.3775L23.6511 21.5978C23.2157 21.9574 22.3564 22.5355 22.3185 22.4942C22.2991 22.4732 21.9698 21.8262 21.5866 21.0565C20.974 19.8257 20.9109 19.6496 21.0628 19.5949C21.1578 19.5606 21.4334 19.4554 21.6751 19.3612C21.9168 19.2669 22.1448 19.2188 22.1816 19.2543C22.2185 19.2897 22.6242 19.7819 23.0832 20.3481ZM28.9281 19.5946C29.0788 19.6488 29.0126 19.8324 28.3918 21.0821C27.9593 21.9528 27.638 22.4903 27.5665 22.4626C27.502 22.4378 27.1375 22.1899 26.7565 21.9117L26.0636 21.4059L26.3901 20.9996C26.5696 20.776 26.9701 20.2753 27.28 19.8868L27.8434 19.1803L28.2998 19.3566C28.5509 19.4535 28.8337 19.5605 28.9281 19.5946ZM20.589 22.3824C20.9593 23.1239 21.3595 23.8185 21.4784 23.926C21.7017 24.1281 22.3862 24.1858 22.7983 24.0375C22.9392 23.9867 23.0281 24.0231 23.1169 24.168C23.2198 24.3356 23.1762 24.7516 22.8533 26.6835C22.6406 27.9566 22.4514 29.0133 22.4329 29.0318C22.4145 29.0504 21.0062 28.5268 19.3035 27.8686L16.2077 26.6716L16.2065 25.9638C16.2055 25.286 16.2183 25.2464 16.5068 25.0324C17.0999 24.5924 17.8608 23.3013 18.0158 22.472C18.0926 22.0614 18.162 21.9974 18.7234 21.8197C18.9534 21.7469 19.305 21.5422 19.5048 21.365C19.7047 21.1876 19.8788 21.0407 19.8919 21.0385C19.905 21.0362 20.2186 21.641 20.589 22.3824ZM30.4594 21.4334C30.6646 21.5989 31.0207 21.7901 31.2506 21.8582C31.6584 21.9791 31.6745 22 31.9018 22.7027C32.1712 23.5358 32.8462 24.6081 33.4014 25.0852C33.7756 25.4066 33.7864 25.4336 33.7854 26.0438L33.7842 26.6716L30.6884 27.8686C28.9857 28.5268 27.5774 29.0504 27.559 29.0318C27.5405 29.0133 27.3513 27.9566 27.1386 26.6835C26.8157 24.7516 26.7721 24.3356 26.875 24.168C26.9638 24.0231 27.0527 23.9867 27.1936 24.0375C27.301 24.0761 27.5944 24.1109 27.8455 24.1147C28.4713 24.1241 28.6307 23.9482 29.3884 22.4127C29.7358 21.7086 30.035 21.1324 30.0532 21.1324C30.0715 21.1324 30.2542 21.2678 30.4594 21.4334ZM25.4128 22.7536C26.0242 23.1706 25.8449 23.4854 24.996 23.4854C24.147 23.4854 23.9677 23.1706 24.5791 22.7536C24.7796 22.6168 24.9671 22.505 24.996 22.505C25.0248 22.505 25.2123 22.6168 25.4128 22.7536ZM25.3865 25.0295C25.3864 25.07 25.5677 26.1779 25.7893 27.4917L26.1923 29.8804L25.8106 30.2369C25.6007 30.4328 25.3316 30.7256 25.2125 30.8873L24.996 31.1815L24.7794 30.8873C24.6604 30.7256 24.3918 30.4334 24.1825 30.238L23.8022 29.8827L24.2037 27.4738C24.4246 26.1488 24.6053 25.0403 24.6053 25.0104C24.6053 24.9805 24.7811 24.9559 24.996 24.9559C25.2108 24.9559 25.3866 24.989 25.3865 25.0295ZM12.1844 26.4307C12.8621 26.5315 13.4134 26.4916 14.4718 26.2651C14.7266 26.2106 14.7404 26.2262 14.7404 26.5695C14.7404 26.8801 14.6141 27.0868 13.8502 28.027C13.3607 28.6296 12.9253 29.1359 12.883 29.1521C12.8406 29.1684 12.3843 28.6611 11.8691 28.0247C11.1 27.0749 10.9322 26.8086 10.9318 26.5376C10.9312 26.2288 10.9484 26.2113 11.1998 26.2659C11.3475 26.2979 11.7906 26.372 12.1844 26.4307ZM36.3988 26.4326C37.0689 26.5295 37.5009 26.499 38.7433 26.2674C39.0483 26.2106 39.0607 26.2207 39.0607 26.5265C39.0607 26.782 38.8761 27.0757 38.1257 28.0141C37.6115 28.6571 37.1532 29.1696 37.1072 29.1529C37.0613 29.1363 36.625 28.6295 36.1376 28.0266C35.3789 27.0882 35.2515 26.8787 35.2515 26.5692C35.2515 26.2413 35.272 26.2133 35.4713 26.269C35.5922 26.3027 36.0096 26.3763 36.3988 26.4326ZM10.8733 29.1311C11.3349 29.7019 11.7125 30.2079 11.7125 30.2557C11.7125 30.3034 11.372 30.5836 10.9556 30.8782L10.1986 31.414L9.48465 29.9882C9.09201 29.2041 8.78444 28.5487 8.80124 28.5318C8.86199 28.4709 9.81068 28.1038 9.92095 28.0986C9.98307 28.0957 10.4117 28.5603 10.8733 29.1311ZM16.3693 28.3039L16.9725 28.5166L16.2463 29.972L15.5201 31.4275L14.8128 30.9202C14.4238 30.6411 14.066 30.3784 14.0177 30.3365C13.9416 30.2703 15.5861 28.0998 15.7171 28.0936C15.744 28.0922 16.0374 28.1869 16.3693 28.3039ZM35.1912 29.1802C35.6683 29.776 36.0199 30.2971 35.9725 30.3381C35.9252 30.3792 35.5681 30.6411 35.1791 30.9202L34.4718 31.4275L33.7479 29.9767L33.024 28.5257L33.5273 28.3193C33.8041 28.2058 34.0965 28.1092 34.1771 28.1049C34.2577 28.1005 34.714 28.5843 35.1912 29.1802ZM40.6636 28.3029C40.9639 28.4182 41.2072 28.5396 41.2044 28.5725C41.2016 28.6055 40.8827 29.2611 40.4957 30.0293L39.7921 31.4263L38.9884 30.8507L38.1846 30.2751L39.0679 29.1842C39.5536 28.5841 39.9886 28.0932 40.0344 28.0932C40.0802 28.0932 40.3634 28.1875 40.6636 28.3029ZM8.24734 30.8446C8.72964 31.8187 9.19505 32.6803 9.28169 32.7593C9.56494 33.0178 10.0383 33.0971 10.4497 32.9547C10.8028 32.8326 10.8363 32.8379 10.9653 33.0354C11.0878 33.2232 11.0097 33.8027 10.261 38.2556C9.2897 44.0337 9.27378 43.3885 10.4184 44.6506C10.8078 45.0801 11.1265 45.4569 11.1265 45.4879C11.1265 45.5189 9.94088 45.5443 8.49171 45.5443H5.85691L5.83015 39.9963L5.80339 34.4483L5.57278 34.261C5.26834 34.0136 4.89221 34.0237 4.61316 34.2868L4.38714 34.5V40.0247V45.5495L2.94648 45.5224L1.50582 45.4952V39.3187C1.50582 33.5776 1.51842 33.1059 1.68524 32.6256C1.90178 32.0022 2.49416 31.2249 3.01788 30.877C3.30963 30.6831 7.04627 29.1235 7.31945 29.0815C7.34749 29.0771 7.76503 29.8706 8.24734 30.8446ZM20.9909 30.099C22.5279 30.701 23.0825 31.0608 23.6005 31.7922C24.221 32.6681 24.2146 32.5888 24.2146 39.3856V45.5443H22.8007H21.3868L21.36 39.9963L21.3332 34.4483L21.1026 34.261C20.7982 34.0136 20.4221 34.0237 20.143 34.2868L19.917 34.5V40.0221V45.5443H17.214H14.511L14.7477 45.2747C14.8778 45.1264 15.2167 44.753 15.5007 44.4449C16.4059 43.4631 16.4083 43.9156 15.4682 38.3304C15.0151 35.6386 14.6454 33.3702 14.6467 33.2893C14.6479 33.2084 14.7055 33.0676 14.7747 32.9762C14.8863 32.8288 14.943 32.8247 15.2768 32.9399C15.7001 33.086 16.1144 33.0098 16.4254 32.7285C16.5317 32.6325 17.0084 31.7726 17.485 30.8176L18.3514 29.0814L18.9633 29.3129C19.2998 29.4403 20.2123 29.794 20.9909 30.099ZM32.5655 30.9148C33.1458 32.0562 33.5375 32.7113 33.718 32.8423C34.0273 33.0668 34.6718 33.0953 34.912 32.8952C35.0366 32.7915 35.0863 32.8019 35.2026 32.9562C35.2798 33.0585 35.344 33.2084 35.3453 33.2893C35.3465 33.3702 34.9759 35.6364 34.5215 38.3252C33.5788 43.9052 33.5814 43.4515 34.4868 44.4424C34.7697 44.7518 35.1096 45.1264 35.2422 45.2747L35.4834 45.5443H32.7791H30.0749V40.0358V34.5275L29.8626 34.3005C29.6033 34.0236 29.2015 34.0073 28.8893 34.261L28.6587 34.4483L28.6319 39.9963L28.6051 45.5443H27.1885H25.7719L25.799 39.1962C25.826 32.8962 25.8278 32.8446 26.0405 32.3824C26.2917 31.8364 27.0849 30.9636 27.5618 30.7084C28.064 30.4397 31.5814 29.0854 31.6377 29.139C31.6645 29.1647 32.0821 29.9638 32.5655 30.9148ZM13.2985 31.6226C13.9176 32.0382 13.7287 32.3089 12.8197 32.3089C12.3138 32.3089 12.1902 32.2759 12.1063 32.1185C12.0194 31.9556 12.0649 31.8854 12.4203 31.6329C12.6488 31.4706 12.8578 31.3468 12.8846 31.3576C12.9115 31.3686 13.0977 31.4878 13.2985 31.6226ZM37.5543 31.6278C37.927 31.8852 37.9734 31.9538 37.8859 32.118C37.8016 32.276 37.6787 32.3089 37.1722 32.3089C36.5884 32.3089 36.3214 32.2018 36.3295 31.9707C36.3325 31.8892 36.9572 31.3676 37.0897 31.336C37.1069 31.3319 37.3159 31.4632 37.5543 31.6278ZM13.9769 38.2403C14.3895 40.6668 14.7302 42.7511 14.7338 42.8722C14.7382 43.0191 14.4246 43.4388 13.7914 44.1334L12.8424 45.1744L12.5461 44.8292C12.3831 44.6394 11.9545 44.1567 11.5937 43.7567L10.9377 43.0294L11.7153 38.4289C12.143 35.8987 12.4932 33.8148 12.4934 33.7981C12.4937 33.7814 12.6588 33.7814 12.8602 33.7981L13.2265 33.8285L13.9769 38.2403ZM37.498 33.8115C37.498 33.8291 37.8477 35.9104 38.2752 38.4366L39.0525 43.0296L38.6971 43.4292C38.5016 43.6488 38.0692 44.1261 37.736 44.4897L37.1303 45.151L36.1689 44.1089L35.2075 43.0667L35.9742 38.4966C36.3958 35.9831 36.76 33.8935 36.7833 33.853C36.8237 33.7832 37.498 33.744 37.498 33.8115Z" fill="white"/>
</svg>
