<svg width="214" height="97" viewBox="0 0 214 97" fill="none" xmlns="http://www.w3.org/2000/svg">
<rect width="213.984" height="96.3487" rx="24.6473" fill="white"/>
<path d="M26.3114 28.6141L32.8989 26.8888V48.9258H38.3494V21.0071L26.3114 23.5558V28.6141ZM49.8074 35.2017C49.8074 33.8162 49.9381 32.5614 50.1996 31.4374C50.461 30.2872 50.84 29.3069 51.3367 28.4965C51.8334 27.66 52.4215 27.0195 53.1012 26.5751C53.7809 26.1307 54.539 25.9085 55.3755 25.9085C56.2382 25.9085 57.0093 26.1307 57.689 26.5751C58.3687 27.0195 58.9568 27.66 59.4535 28.4965C59.9502 29.3069 60.3292 30.2872 60.5906 31.4374C60.8521 32.5614 60.9828 33.8162 60.9828 35.2017C60.9828 36.5872 60.8521 37.855 60.5906 39.0052C60.3292 40.1293 59.9502 41.1096 59.4535 41.9461C58.9568 42.7565 58.3687 43.3839 57.689 43.8283C57.0093 44.2727 56.2382 44.4949 55.3755 44.4949C54.539 44.4949 53.7809 44.2727 53.1012 43.8283C52.4215 43.3839 51.8334 42.7565 51.3367 41.9461C50.84 41.1096 50.461 40.1293 50.1996 39.0052C49.9381 37.855 49.8074 36.5872 49.8074 35.2017ZM44.357 35.2017C44.357 38.1034 44.8145 40.6129 45.7294 42.7303C46.6705 44.8478 47.9645 46.4947 49.6114 47.671C51.2844 48.8212 53.2058 49.3963 55.3755 49.3963C57.6236 49.3963 59.5711 48.8212 61.218 47.671C62.8649 46.4947 64.1458 44.8478 65.0608 42.7303C65.9757 40.6129 66.4332 38.1034 66.4332 35.2017C66.4332 32.3 65.9757 29.7905 65.0608 27.6731C64.1458 25.5556 62.8649 23.9218 61.218 22.7716C59.5711 21.5952 57.6236 21.0071 55.3755 21.0071C53.2058 21.0071 51.2844 21.5952 49.6114 22.7716C47.9645 23.9218 46.6705 25.5556 45.7294 27.6731C44.8145 29.7905 44.357 32.3 44.357 35.2017ZM75.004 35.2017C75.004 33.8162 75.1347 32.5614 75.3961 31.4374C75.6575 30.2872 76.0366 29.3069 76.5333 28.4965C77.0299 27.66 77.6181 27.0195 78.2978 26.5751C78.9775 26.1307 79.7355 25.9085 80.5721 25.9085C81.4347 25.9085 82.2059 26.1307 82.8855 26.5751C83.5652 27.0195 84.1534 27.66 84.6501 28.4965C85.1468 29.3069 85.5258 30.2872 85.7872 31.4374C86.0486 32.5614 86.1793 33.8162 86.1793 35.2017C86.1793 36.5872 86.0486 37.855 85.7872 39.0052C85.5258 40.1293 85.1468 41.1096 84.6501 41.9461C84.1534 42.7565 83.5652 43.3839 82.8855 43.8283C82.2059 44.2727 81.4347 44.4949 80.5721 44.4949C79.7355 44.4949 78.9775 44.2727 78.2978 43.8283C77.6181 43.3839 77.0299 42.7565 76.5333 41.9461C76.0366 41.1096 75.6575 40.1293 75.3961 39.0052C75.1347 37.855 75.004 36.5872 75.004 35.2017ZM69.5536 35.2017C69.5536 38.1034 70.011 40.6129 70.926 42.7303C71.8671 44.8478 73.1611 46.4947 74.8079 47.671C76.481 48.8212 78.4023 49.3963 80.5721 49.3963C82.8202 49.3963 84.7677 48.8212 86.4146 47.671C88.0615 46.4947 89.3424 44.8478 90.2573 42.7303C91.1723 40.6129 91.6298 38.1034 91.6298 35.2017C91.6298 32.3 91.1723 29.7905 90.2573 27.6731C89.3424 25.5556 88.0615 23.9218 86.4146 22.7716C84.7677 21.5952 82.8202 21.0071 80.5721 21.0071C78.4023 21.0071 76.481 21.5952 74.8079 22.7716C73.1611 23.9218 71.8671 25.5556 70.926 27.6731C70.011 29.7905 69.5536 32.3 69.5536 35.2017ZM95.7304 41.005H116.356V36.1036H95.7304V41.005ZM103.416 28.222V48.8866H108.67V28.222H103.416Z" fill="#A21D34"/>
<path d="M26.2341 74.4155H32.5617V72.5513H26.2341V74.4155ZM26.2341 63.732H32.5617V61.8678H26.2341V63.732ZM26.2341 68.6077H32.2032V66.7793H26.2341V68.6077ZM24.9255 61.8678V74.4155H27.0049V61.8678H24.9255ZM39.755 66.1699L37.9445 68.7511L36.1699 66.1699H33.9471L36.9228 70.1672L33.7679 74.4155H35.9906L37.9445 71.5833L39.9342 74.4155H42.1032L38.9662 70.1672L41.9239 66.1699H39.755ZM44.3653 70.2927C44.3653 69.7788 44.4788 69.3247 44.7058 68.9304C44.9329 68.536 45.2376 68.2253 45.62 67.9983C46.0144 67.7712 46.4506 67.6577 46.9286 67.6577C47.311 67.6577 47.6815 67.7174 48.04 67.8369C48.3985 67.9564 48.7151 68.1237 48.99 68.3388C49.2768 68.542 49.4859 68.781 49.6174 69.0559V66.9227C49.3306 66.6359 48.9422 66.4089 48.4522 66.2416C47.9623 66.0743 47.4245 65.9906 46.839 65.9906C45.9905 65.9906 45.2257 66.1758 44.5445 66.5463C43.8753 66.9048 43.3435 67.4067 42.9492 68.052C42.5668 68.6973 42.3756 69.4442 42.3756 70.2927C42.3756 71.1292 42.5668 71.8761 42.9492 72.5334C43.3435 73.1787 43.8753 73.6866 44.5445 74.057C45.2257 74.4155 45.9905 74.5948 46.839 74.5948C47.4245 74.5948 47.9623 74.5111 48.4522 74.3438C48.9422 74.1765 49.3306 73.9495 49.6174 73.6627V71.5295C49.4859 71.7925 49.2828 72.0315 49.0079 72.2466C48.7331 72.4617 48.4164 72.629 48.0579 72.7485C47.6994 72.868 47.3229 72.9277 46.9286 72.9277C46.4506 72.9277 46.0144 72.8142 45.62 72.5871C45.2376 72.3601 44.9329 72.0554 44.7058 71.673C44.4788 71.2786 44.3653 70.8185 44.3653 70.2927ZM53.6932 60.4338H51.7572V74.4155H53.6932V60.4338ZM57.0631 69.3964V74.4155H59.017V69.1276C59.017 68.4225 58.9094 67.8369 58.6943 67.3709C58.4792 66.8929 58.1566 66.5344 57.7264 66.2953C57.3081 66.0563 56.7942 65.9368 56.1848 65.9368C55.5634 65.9368 55.0316 66.0922 54.5894 66.4029C54.1592 66.7136 53.8246 67.1259 53.5856 67.6397C53.3466 68.1536 53.2271 68.7392 53.2271 69.3964H53.6932C53.6932 69.026 53.7708 68.7033 53.9262 68.4285C54.0815 68.1536 54.2967 67.9385 54.5715 67.7832C54.8464 67.6278 55.163 67.5501 55.5215 67.5501C56.0593 67.5501 56.4477 67.7055 56.6867 68.0162C56.9377 68.3269 57.0631 68.787 57.0631 69.3964ZM62.6915 71.8522C62.6915 71.5893 62.7513 71.3682 62.8708 71.189C63.0022 71.0097 63.1935 70.8723 63.4444 70.7767C63.6954 70.6691 64.024 70.6154 64.4303 70.6154C64.8964 70.6154 65.3385 70.6751 65.7568 70.7946C66.175 70.9141 66.5694 71.1053 66.9398 71.3682V70.3823C66.8323 70.2509 66.6471 70.1075 66.3842 69.9521C66.1213 69.7848 65.7867 69.6414 65.3803 69.5219C64.986 69.4024 64.514 69.3427 63.9642 69.3427C62.9365 69.3427 62.1418 69.5817 61.5802 70.0597C61.0185 70.5257 60.7377 71.1591 60.7377 71.9598C60.7377 72.5214 60.8691 72.9994 61.132 73.3938C61.3949 73.7881 61.7475 74.0869 62.1896 74.29C62.6318 74.4932 63.1098 74.5948 63.6237 74.5948C64.1017 74.5948 64.5677 74.5111 65.0218 74.3438C65.4879 74.1646 65.8703 73.9017 66.1691 73.5551C66.4798 73.1966 66.6351 72.7544 66.6351 72.2286L66.3483 71.1531C66.3483 71.5594 66.2467 71.9179 66.0436 72.2286C65.8524 72.5274 65.5954 72.7544 65.2728 72.9098C64.9621 73.0652 64.6155 73.1428 64.2331 73.1428C63.9344 73.1428 63.6655 73.095 63.4265 72.9994C63.1994 72.9038 63.0202 72.7604 62.8887 72.5692C62.7573 72.3661 62.6915 72.1271 62.6915 71.8522ZM62.0821 68.3209C62.2016 68.2373 62.3808 68.1357 62.6198 68.0162C62.8708 67.8847 63.1636 67.7772 63.4982 67.6935C63.8447 67.5979 64.2092 67.5501 64.5916 67.5501C64.8426 67.5501 65.0756 67.574 65.2907 67.6218C65.5058 67.6696 65.691 67.7473 65.8464 67.8549C66.0018 67.9624 66.1213 68.0998 66.2049 68.2671C66.3005 68.4344 66.3483 68.6495 66.3483 68.9124V74.4155H68.2484V68.536C68.2484 67.9863 68.099 67.5262 67.8003 67.1558C67.5015 66.7734 67.0892 66.4806 66.5634 66.2774C66.0496 66.0743 65.452 65.9727 64.7709 65.9727C64.0061 65.9727 63.3249 66.0802 62.7274 66.2953C62.1418 66.5105 61.6638 66.7315 61.2934 66.9586L62.0821 68.3209ZM75.8112 69.3964V74.4155H77.8009V69.1813C77.8009 68.1895 77.5559 67.4127 77.066 66.851C76.576 66.2774 75.865 65.9906 74.9329 65.9906C74.3593 65.9906 73.8633 66.1101 73.4451 66.3491C73.0388 66.5881 72.7042 66.9526 72.4412 67.4426V66.1699H70.5053V74.4155H72.4412V69.3964C72.4412 69.026 72.5189 68.7033 72.6743 68.4285C72.8296 68.1417 73.0447 67.9266 73.3196 67.7832C73.5944 67.6278 73.9111 67.5501 74.2696 67.5501C74.7954 67.5501 75.1838 67.7055 75.4348 68.0162C75.6857 68.3269 75.8112 68.787 75.8112 69.3964ZM79.8072 74.9712C79.8311 75.6882 80.0103 76.3216 80.3449 76.8713C80.6915 77.421 81.1814 77.8452 81.8148 78.144C82.4482 78.4547 83.213 78.6101 84.1092 78.6101C84.8621 78.6101 85.5612 78.4487 86.2065 78.1261C86.8518 77.8154 87.3717 77.3374 87.766 76.692C88.1723 76.0467 88.3755 75.2281 88.3755 74.2363V66.1699H86.4754V74.2363C86.4754 74.8577 86.3559 75.3656 86.1169 75.7599C85.8898 76.1543 85.5911 76.4471 85.2206 76.6383C84.8502 76.8295 84.4618 76.9251 84.0555 76.9251C83.6014 76.9251 83.201 76.8414 82.8545 76.6741C82.5079 76.5068 82.2331 76.2738 82.0299 75.975C81.8387 75.6763 81.7371 75.3417 81.7252 74.9712H79.8072ZM79.6458 70.2568C79.6458 71.1531 79.8311 71.9179 80.2015 72.5513C80.572 73.1847 81.0619 73.6686 81.6714 74.0032C82.2928 74.3379 82.956 74.5052 83.6611 74.5052C84.3542 74.5052 84.9577 74.3379 85.4716 74.0032C85.9974 73.6567 86.4097 73.1667 86.7084 72.5334C87.0191 71.9 87.1745 71.1412 87.1745 70.2568C87.1745 69.3606 87.0191 68.5958 86.7084 67.9624C86.4097 67.329 85.9974 66.8451 85.4716 66.5105C84.9577 66.1639 84.3542 65.9906 83.6611 65.9906C82.956 65.9906 82.2928 66.1579 81.6714 66.4925C81.0619 66.8271 80.572 67.3111 80.2015 67.9445C79.8311 68.5659 79.6458 69.3367 79.6458 70.2568ZM81.6535 70.2568C81.6535 69.6952 81.767 69.2232 81.9941 68.8407C82.2211 68.4583 82.5199 68.1715 82.8903 67.9803C83.2727 67.7772 83.685 67.6756 84.1272 67.6756C84.402 67.6756 84.6769 67.7294 84.9517 67.8369C85.2385 67.9445 85.4955 68.1118 85.7225 68.3388C85.9496 68.5539 86.1288 68.8228 86.2603 69.1455C86.4037 69.4562 86.4754 69.8266 86.4754 70.2568C86.4754 70.8066 86.3559 71.2786 86.1169 71.673C85.8898 72.0554 85.5911 72.3422 85.2206 72.5334C84.8621 72.7246 84.4976 72.8202 84.1272 72.8202C83.685 72.8202 83.2727 72.7246 82.8903 72.5334C82.5199 72.3302 82.2211 72.0374 81.9941 71.655C81.767 71.2726 81.6535 70.8066 81.6535 70.2568ZM94.3614 74.5948C95.3174 74.5948 96.136 74.4096 96.8172 74.0391C97.4983 73.6686 98.054 73.113 98.4842 72.372L96.8172 71.6909C96.5543 72.133 96.2256 72.4617 95.8313 72.6768C95.4369 72.8919 94.9768 72.9994 94.451 72.9994C93.9491 72.9994 93.5189 72.8919 93.1604 72.6768C92.8139 72.4617 92.551 72.151 92.3717 71.7447C92.1924 71.3264 92.1028 70.8185 92.1028 70.221C92.1148 69.6235 92.2104 69.1216 92.3896 68.7153C92.5689 68.309 92.8318 67.9983 93.1783 67.7832C93.5249 67.568 93.9432 67.4605 94.4331 67.4605C94.8394 67.4605 95.192 67.5501 95.4907 67.7294C95.8014 67.9086 96.0404 68.1596 96.2077 68.4822C96.387 68.8049 96.4766 69.1873 96.4766 69.6295C96.4766 69.7131 96.4527 69.8207 96.4049 69.9521C96.3691 70.0716 96.3332 70.1672 96.2973 70.2389L96.8889 69.4144H91.2962V70.7408H98.538C98.55 70.693 98.5559 70.6154 98.5559 70.5078C98.5679 70.4003 98.5739 70.2987 98.5739 70.2031C98.5739 69.3188 98.4066 68.5659 98.072 67.9445C97.7493 67.3111 97.2832 66.8271 96.6738 66.4925C96.0643 66.1579 95.3234 65.9906 94.451 65.9906C93.5787 65.9906 92.8198 66.1699 92.1745 66.5284C91.5292 66.8749 91.0273 67.3709 90.6688 68.0162C90.3222 68.6615 90.149 69.4203 90.149 70.2927C90.149 71.1531 90.3222 71.906 90.6688 72.5513C91.0154 73.1966 91.5053 73.6985 92.1387 74.057C92.784 74.4155 93.5249 74.5948 94.3614 74.5948ZM105.957 61.8678V74.4155H113.056V72.5154H108.072V61.8678H105.957ZM114.354 62.8895C114.354 63.2122 114.474 63.493 114.713 63.732C114.964 63.9591 115.25 64.0726 115.573 64.0726C115.92 64.0726 116.206 63.9591 116.434 63.732C116.673 63.493 116.792 63.2122 116.792 62.8895C116.792 62.5549 116.673 62.2741 116.434 62.047C116.206 61.82 115.92 61.7065 115.573 61.7065C115.25 61.7065 114.964 61.82 114.713 62.047C114.474 62.2741 114.354 62.5549 114.354 62.8895ZM114.623 66.1699V74.4155H116.523V66.1699H114.623ZM125.389 78.3591H127.343V66.1699H125.389V78.3591ZM118.56 70.2927C118.56 71.2009 118.745 71.9837 119.116 72.6409C119.486 73.2862 119.976 73.7822 120.585 74.1287C121.207 74.4633 121.87 74.6306 122.575 74.6306C123.28 74.6306 123.89 74.4574 124.404 74.1108C124.917 73.7523 125.318 73.2504 125.605 72.6051C125.891 71.9478 126.035 71.177 126.035 70.2927C126.035 69.3964 125.891 68.6256 125.605 67.9803C125.318 67.335 124.917 66.8391 124.404 66.4925C123.89 66.134 123.28 65.9548 122.575 65.9548C121.87 65.9548 121.207 66.128 120.585 66.4746C119.976 66.8092 119.486 67.2992 119.116 67.9445C118.745 68.5898 118.56 69.3725 118.56 70.2927ZM120.568 70.2927C120.568 69.743 120.681 69.2769 120.908 68.8945C121.135 68.5002 121.434 68.2074 121.804 68.0162C122.187 67.813 122.599 67.7115 123.041 67.7115C123.412 67.7115 123.776 67.813 124.135 68.0162C124.505 68.2074 124.804 68.4942 125.031 68.8766C125.27 69.259 125.389 69.731 125.389 70.2927C125.389 70.8544 125.27 71.3264 125.031 71.7088C124.804 72.0912 124.505 72.384 124.135 72.5871C123.776 72.7783 123.412 72.8739 123.041 72.8739C122.599 72.8739 122.187 72.7783 121.804 72.5871C121.434 72.384 121.135 72.0912 120.908 71.7088C120.681 71.3144 120.568 70.8424 120.568 70.2927ZM131.733 71.189V66.1699H129.743V71.4041C129.743 72.384 129.988 73.1608 130.478 73.7344C130.98 74.308 131.691 74.5948 132.611 74.5948C133.185 74.5948 133.675 74.4753 134.081 74.2363C134.499 73.9853 134.84 73.6208 135.103 73.1428V74.4155H137.039V66.1699H135.103V71.189C135.103 71.5594 135.025 71.8881 134.87 72.1749C134.714 72.4497 134.499 72.6648 134.224 72.8202C133.949 72.9636 133.627 73.0353 133.256 73.0353C132.742 73.0353 132.36 72.8739 132.109 72.5513C131.858 72.2286 131.733 71.7745 131.733 71.189ZM139.439 62.8895C139.439 63.2122 139.559 63.493 139.798 63.732C140.049 63.9591 140.335 64.0726 140.658 64.0726C141.005 64.0726 141.291 63.9591 141.518 63.732C141.758 63.493 141.877 63.2122 141.877 62.8895C141.877 62.5549 141.758 62.2741 141.518 62.047C141.291 61.82 141.005 61.7065 140.658 61.7065C140.335 61.7065 140.049 61.82 139.798 62.047C139.559 62.2741 139.439 62.5549 139.439 62.8895ZM139.708 66.1699V74.4155H141.608V66.1699H139.708ZM150.474 60.4338V74.4155H152.428V60.4338H150.474ZM143.645 70.2927C143.645 71.189 143.83 71.9598 144.201 72.6051C144.571 73.2504 145.061 73.7463 145.67 74.0929C146.292 74.4275 146.955 74.5948 147.66 74.5948C148.353 74.5948 148.957 74.4215 149.471 74.0749C149.996 73.7284 150.409 73.2325 150.707 72.5871C151.018 71.9418 151.174 71.177 151.174 70.2927C151.174 69.3964 151.018 68.6316 150.707 67.9983C150.409 67.3529 149.996 66.857 149.471 66.5105C148.957 66.1639 148.353 65.9906 147.66 65.9906C146.955 65.9906 146.292 66.1639 145.67 66.5105C145.061 66.8451 144.571 67.335 144.201 67.9803C143.83 68.6137 143.645 69.3845 143.645 70.2927ZM145.653 70.2927C145.653 69.743 145.766 69.271 145.993 68.8766C146.22 68.4822 146.519 68.1835 146.889 67.9803C147.272 67.7772 147.684 67.6756 148.126 67.6756C148.497 67.6756 148.861 67.7772 149.22 67.9803C149.59 68.1835 149.889 68.4822 150.116 68.8766C150.355 69.259 150.474 69.731 150.474 70.2927C150.474 70.8544 150.355 71.3324 150.116 71.7267C149.889 72.1091 149.59 72.4019 149.22 72.6051C148.861 72.8082 148.497 72.9098 148.126 72.9098C147.684 72.9098 147.272 72.8082 146.889 72.6051C146.519 72.4019 146.22 72.1032 145.993 71.7088C145.766 71.3144 145.653 70.8424 145.653 70.2927ZM154.756 62.8895C154.756 63.2122 154.876 63.493 155.115 63.732C155.366 63.9591 155.652 64.0726 155.975 64.0726C156.322 64.0726 156.608 63.9591 156.836 63.732C157.075 63.493 157.194 63.2122 157.194 62.8895C157.194 62.5549 157.075 62.2741 156.836 62.047C156.608 61.82 156.322 61.7065 155.975 61.7065C155.652 61.7065 155.366 61.82 155.115 62.047C154.876 62.2741 154.756 62.5549 154.756 62.8895ZM155.025 66.1699V74.4155H156.925V66.1699H155.025ZM158.442 66.1699V67.8728H163.121V66.1699H158.442ZM159.822 63.3018V74.4155H161.74V63.3018H159.822ZM171.751 66.1699H169.672L167.091 72.6409L168.005 72.6947L165.37 66.1699H163.147L166.463 73.4476L164.312 78.3591H166.374L171.751 66.1699Z" fill="#1A1D3D"/>
</svg>
