<svg width="252" height="151" viewBox="0 0 252 151" fill="none" xmlns="http://www.w3.org/2000/svg">
<rect width="252" height="151" rx="28.7666" fill="white"/>
<path d="M28.26 44.92L38.34 42.28V76H46.68V33.28L28.26 37.18V44.92ZM64.2127 55C64.2127 52.88 64.4127 50.96 64.8127 49.24C65.2127 47.48 65.7927 45.98 66.5527 44.74C67.3127 43.46 68.2127 42.48 69.2527 41.8C70.2927 41.12 71.4527 40.78 72.7327 40.78C74.0527 40.78 75.2327 41.12 76.2727 41.8C77.3127 42.48 78.2127 43.46 78.9727 44.74C79.7327 45.98 80.3127 47.48 80.7127 49.24C81.1127 50.96 81.3127 52.88 81.3127 55C81.3127 57.12 81.1127 59.06 80.7127 60.82C80.3127 62.54 79.7327 64.04 78.9727 65.32C78.2127 66.56 77.3127 67.52 76.2727 68.2C75.2327 68.88 74.0527 69.22 72.7327 69.22C71.4527 69.22 70.2927 68.88 69.2527 68.2C68.2127 67.52 67.3127 66.56 66.5527 65.32C65.7927 64.04 65.2127 62.54 64.8127 60.82C64.4127 59.06 64.2127 57.12 64.2127 55ZM55.8727 55C55.8727 59.44 56.5727 63.28 57.9727 66.52C59.4127 69.76 61.3927 72.28 63.9127 74.08C66.4727 75.84 69.4127 76.72 72.7327 76.72C76.1727 76.72 79.1527 75.84 81.6727 74.08C84.1927 72.28 86.1527 69.76 87.5527 66.52C88.9527 63.28 89.6527 59.44 89.6527 55C89.6527 50.56 88.9527 46.72 87.5527 43.48C86.1527 40.24 84.1927 37.74 81.6727 35.98C79.1527 34.18 76.1727 33.28 72.7327 33.28C69.4127 33.28 66.4727 34.18 63.9127 35.98C61.3927 37.74 59.4127 40.24 57.9727 43.48C56.5727 46.72 55.8727 50.56 55.8727 55ZM102.767 55C102.767 52.88 102.967 50.96 103.367 49.24C103.767 47.48 104.347 45.98 105.107 44.74C105.867 43.46 106.767 42.48 107.807 41.8C108.847 41.12 110.007 40.78 111.287 40.78C112.607 40.78 113.787 41.12 114.827 41.8C115.867 42.48 116.767 43.46 117.527 44.74C118.287 45.98 118.867 47.48 119.267 49.24C119.667 50.96 119.867 52.88 119.867 55C119.867 57.12 119.667 59.06 119.267 60.82C118.867 62.54 118.287 64.04 117.527 65.32C116.767 66.56 115.867 67.52 114.827 68.2C113.787 68.88 112.607 69.22 111.287 69.22C110.007 69.22 108.847 68.88 107.807 68.2C106.767 67.52 105.867 66.56 105.107 65.32C104.347 64.04 103.767 62.54 103.367 60.82C102.967 59.06 102.767 57.12 102.767 55ZM94.4273 55C94.4273 59.44 95.1273 63.28 96.5273 66.52C97.9673 69.76 99.9473 72.28 102.467 74.08C105.027 75.84 107.967 76.72 111.287 76.72C114.727 76.72 117.707 75.84 120.227 74.08C122.747 72.28 124.707 69.76 126.107 66.52C127.507 63.28 128.207 59.44 128.207 55C128.207 50.56 127.507 46.72 126.107 43.48C124.707 40.24 122.747 37.74 120.227 35.98C117.707 34.18 114.727 33.28 111.287 33.28C107.967 33.28 105.027 34.18 102.467 35.98C99.9473 37.74 97.9673 40.24 96.5273 43.48C95.1273 46.72 94.4273 50.56 94.4273 55ZM134.482 63.88H166.042V56.38H134.482V63.88ZM146.242 44.32V75.94H154.282V44.32H146.242Z" fill="#A21D34"/>
<path d="M27.024 110H33.378V107.822H27.024V110ZM27.024 99.578H33.378V97.4H27.024V99.578ZM27.024 104.384H33.018V102.242H27.024V104.384ZM25.368 97.4V110H27.852V97.4H25.368ZM40.7389 101.72L39.0469 104.114L37.3909 101.72H34.7269L37.8229 105.734L34.5469 110H37.2109L39.0469 107.372L40.9189 110H43.4929L40.2529 105.734L43.3129 101.72H40.7389ZM46.1465 105.86C46.1465 105.392 46.2545 104.978 46.4705 104.618C46.6865 104.258 46.9745 103.976 47.3345 103.772C47.7065 103.556 48.1145 103.448 48.5585 103.448C48.8945 103.448 49.2305 103.502 49.5665 103.61C49.9025 103.718 50.2085 103.874 50.4845 104.078C50.7725 104.27 50.9885 104.498 51.1325 104.762V102.368C50.8445 102.116 50.4665 101.918 49.9985 101.774C49.5425 101.618 49.0085 101.54 48.3965 101.54C47.5205 101.54 46.7285 101.72 46.0205 102.08C45.3245 102.44 44.7725 102.944 44.3645 103.592C43.9685 104.24 43.7705 104.996 43.7705 105.86C43.7705 106.712 43.9685 107.468 44.3645 108.128C44.7725 108.776 45.3245 109.28 46.0205 109.64C46.7285 110 47.5205 110.18 48.3965 110.18C49.0085 110.18 49.5425 110.108 49.9985 109.964C50.4665 109.808 50.8445 109.598 51.1325 109.334V106.94C50.9885 107.204 50.7785 107.438 50.5025 107.642C50.2385 107.834 49.9385 107.99 49.6025 108.11C49.2665 108.218 48.9185 108.272 48.5585 108.272C48.1145 108.272 47.7065 108.17 47.3345 107.966C46.9745 107.762 46.6865 107.48 46.4705 107.12C46.2545 106.76 46.1465 106.34 46.1465 105.86ZM55.5291 95.96H53.1891V110H55.5291V95.96ZM58.5351 104.96V110H60.8751V104.618C60.8751 103.934 60.7731 103.358 60.5691 102.89C60.3651 102.41 60.0531 102.05 59.6331 101.81C59.2131 101.57 58.6791 101.45 58.0311 101.45C57.3831 101.45 56.8371 101.606 56.3931 101.918C55.9491 102.23 55.6131 102.65 55.3851 103.178C55.1691 103.706 55.0611 104.3 55.0611 104.96H55.5291C55.5291 104.612 55.5951 104.312 55.7271 104.06C55.8591 103.808 56.0511 103.616 56.3031 103.484C56.5551 103.34 56.8431 103.268 57.1671 103.268C57.6591 103.268 58.0071 103.412 58.2111 103.7C58.4271 103.988 58.5351 104.408 58.5351 104.96ZM64.8295 107.426C64.8295 107.186 64.8835 106.988 64.9915 106.832C65.0995 106.664 65.2675 106.538 65.4955 106.454C65.7235 106.358 66.0175 106.31 66.3775 106.31C66.8215 106.31 67.2415 106.37 67.6375 106.49C68.0455 106.61 68.4115 106.79 68.7355 107.03V105.95C68.6155 105.806 68.4175 105.656 68.1415 105.5C67.8655 105.344 67.5235 105.212 67.1155 105.104C66.7195 104.996 66.2575 104.942 65.7295 104.942C64.6975 104.942 63.8995 105.176 63.3355 105.644C62.7715 106.112 62.4895 106.748 62.4895 107.552C62.4895 108.116 62.6215 108.596 62.8855 108.992C63.1615 109.376 63.5215 109.67 63.9655 109.874C64.4095 110.078 64.8895 110.18 65.4055 110.18C65.9095 110.18 66.3895 110.09 66.8455 109.91C67.3135 109.73 67.6915 109.46 67.9795 109.1C68.2795 108.74 68.4295 108.296 68.4295 107.768L68.1415 106.688C68.1415 107.084 68.0515 107.426 67.8715 107.714C67.6915 107.99 67.4575 108.206 67.1695 108.362C66.8815 108.506 66.5575 108.578 66.1975 108.578C65.9455 108.578 65.7115 108.536 65.4955 108.452C65.2915 108.356 65.1295 108.224 65.0095 108.056C64.8895 107.876 64.8295 107.666 64.8295 107.426ZM63.9295 104.06C64.0495 103.976 64.2355 103.874 64.4875 103.754C64.7395 103.634 65.0395 103.532 65.3875 103.448C65.7355 103.364 66.1015 103.322 66.4855 103.322C66.7375 103.322 66.9655 103.346 67.1695 103.394C67.3735 103.442 67.5475 103.52 67.6915 103.628C67.8475 103.736 67.9615 103.874 68.0335 104.042C68.1055 104.198 68.1415 104.39 68.1415 104.618V110H70.3915V104.132C70.3915 103.568 70.2355 103.094 69.9235 102.71C69.6115 102.314 69.1795 102.014 68.6275 101.81C68.0755 101.606 67.4455 101.504 66.7375 101.504C65.9695 101.504 65.2735 101.612 64.6495 101.828C64.0255 102.032 63.4975 102.248 63.0655 102.476L63.9295 104.06ZM77.9062 104.96V110H80.3182V104.708C80.3182 103.712 80.0782 102.938 79.5982 102.386C79.1182 101.822 78.3862 101.54 77.4022 101.54C76.8142 101.54 76.3102 101.666 75.8902 101.918C75.4822 102.158 75.1522 102.512 74.9002 102.98V101.72H72.5602V110H74.9002V104.96C74.9002 104.612 74.9662 104.312 75.0982 104.06C75.2302 103.808 75.4222 103.616 75.6742 103.484C75.9262 103.34 76.2142 103.268 76.5382 103.268C77.0182 103.268 77.3662 103.412 77.5822 103.7C77.7982 103.988 77.9062 104.408 77.9062 104.96ZM82.2189 110.576C82.2669 111.296 82.4589 111.932 82.7949 112.484C83.1429 113.048 83.6409 113.48 84.2889 113.78C84.9369 114.092 85.7409 114.248 86.7009 114.248C87.4929 114.248 88.2249 114.092 88.8969 113.78C89.5689 113.48 90.1029 113 90.4989 112.34C90.9069 111.68 91.1109 110.84 91.1109 109.82V101.72H88.8609V109.82C88.8609 110.384 88.7529 110.852 88.5369 111.224C88.3329 111.596 88.0569 111.872 87.7089 112.052C87.3729 112.232 87.0129 112.322 86.6289 112.322C86.2089 112.322 85.8429 112.25 85.5309 112.106C85.2189 111.962 84.9729 111.758 84.7929 111.494C84.6129 111.242 84.5169 110.936 84.5049 110.576H82.2189ZM82.0569 105.788C82.0569 106.7 82.2429 107.474 82.6149 108.11C82.9869 108.734 83.4789 109.208 84.0909 109.532C84.7029 109.856 85.3509 110.018 86.0349 110.018C86.7309 110.018 87.3429 109.856 87.8709 109.532C88.4109 109.196 88.8309 108.71 89.1309 108.074C89.4429 107.438 89.5989 106.676 89.5989 105.788C89.5989 104.888 89.4429 104.126 89.1309 103.502C88.8309 102.866 88.4109 102.38 87.8709 102.044C87.3429 101.708 86.7309 101.54 86.0349 101.54C85.3509 101.54 84.7029 101.702 84.0909 102.026C83.4789 102.35 82.9869 102.83 82.6149 103.466C82.2429 104.09 82.0569 104.864 82.0569 105.788ZM84.4689 105.788C84.4689 105.284 84.5709 104.864 84.7749 104.528C84.9789 104.18 85.2549 103.916 85.6029 103.736C85.9509 103.556 86.3229 103.466 86.7189 103.466C86.9829 103.466 87.2409 103.52 87.4929 103.628C87.7449 103.724 87.9729 103.868 88.1769 104.06C88.3929 104.252 88.5609 104.492 88.6809 104.78C88.8009 105.068 88.8609 105.404 88.8609 105.788C88.8609 106.292 88.7529 106.718 88.5369 107.066C88.3329 107.402 88.0629 107.66 87.7269 107.84C87.4029 108.008 87.0669 108.092 86.7189 108.092C86.3229 108.092 85.9509 108.002 85.6029 107.822C85.2549 107.642 84.9789 107.384 84.7749 107.048C84.5709 106.7 84.4689 106.28 84.4689 105.788ZM97.2787 110.18C98.2747 110.18 99.1267 109.988 99.8347 109.604C100.555 109.208 101.131 108.62 101.563 107.84L99.5287 107.21C99.2887 107.606 98.9827 107.906 98.6107 108.11C98.2507 108.302 97.8127 108.398 97.2967 108.398C96.8407 108.398 96.4507 108.296 96.1267 108.092C95.8027 107.888 95.5567 107.594 95.3887 107.21C95.2327 106.826 95.1547 106.358 95.1547 105.806C95.1667 105.23 95.2507 104.75 95.4067 104.366C95.5747 103.97 95.8087 103.676 96.1087 103.484C96.4207 103.28 96.8047 103.178 97.2607 103.178C97.6327 103.178 97.9567 103.262 98.2327 103.43C98.5087 103.598 98.7187 103.826 98.8627 104.114C99.0187 104.402 99.0967 104.75 99.0967 105.158C99.0967 105.242 99.0727 105.35 99.0247 105.482C98.9887 105.602 98.9467 105.698 98.8987 105.77L99.5287 104.942H94.1467V106.382H101.563C101.575 106.31 101.581 106.214 101.581 106.094C101.593 105.974 101.599 105.86 101.599 105.752C101.599 104.864 101.431 104.108 101.095 103.484C100.759 102.848 100.267 102.368 99.6187 102.044C98.9827 101.708 98.2087 101.54 97.2967 101.54C96.3847 101.54 95.5927 101.72 94.9207 102.08C94.2487 102.428 93.7267 102.926 93.3547 103.574C92.9947 104.21 92.8147 104.972 92.8147 105.86C92.8147 106.736 92.9947 107.498 93.3547 108.146C93.7267 108.782 94.2487 109.28 94.9207 109.64C95.5927 110 96.3787 110.18 97.2787 110.18ZM108.97 97.4V110H116.566V107.75H111.544V97.4H108.97ZM117.716 98.516C117.716 98.888 117.854 99.2 118.13 99.452C118.406 99.704 118.736 99.83 119.12 99.83C119.504 99.83 119.828 99.704 120.092 99.452C120.368 99.2 120.506 98.888 120.506 98.516C120.506 98.132 120.368 97.82 120.092 97.58C119.828 97.328 119.504 97.202 119.12 97.202C118.736 97.202 118.406 97.328 118.13 97.58C117.854 97.82 117.716 98.132 117.716 98.516ZM117.968 101.72V110H120.236V101.72H117.968ZM128.957 113.96H131.297V101.72H128.957V113.96ZM122.153 105.86C122.153 106.796 122.339 107.594 122.711 108.254C123.083 108.914 123.575 109.412 124.187 109.748C124.799 110.084 125.447 110.252 126.131 110.252C126.863 110.252 127.487 110.072 128.003 109.712C128.519 109.352 128.915 108.842 129.191 108.182C129.467 107.522 129.605 106.748 129.605 105.86C129.605 104.96 129.467 104.186 129.191 103.538C128.915 102.878 128.519 102.368 128.003 102.008C127.487 101.648 126.863 101.468 126.131 101.468C125.447 101.468 124.799 101.636 124.187 101.972C123.575 102.308 123.083 102.806 122.711 103.466C122.339 104.114 122.153 104.912 122.153 105.86ZM124.565 105.86C124.565 105.368 124.667 104.948 124.871 104.6C125.075 104.252 125.351 103.988 125.699 103.808C126.047 103.628 126.419 103.538 126.815 103.538C127.163 103.538 127.499 103.628 127.823 103.808C128.159 103.976 128.429 104.234 128.633 104.582C128.849 104.93 128.957 105.356 128.957 105.86C128.957 106.364 128.849 106.79 128.633 107.138C128.429 107.486 128.159 107.75 127.823 107.93C127.499 108.098 127.163 108.182 126.815 108.182C126.419 108.182 126.047 108.092 125.699 107.912C125.351 107.732 125.075 107.468 124.871 107.12C124.667 106.772 124.565 106.352 124.565 105.86ZM135.951 106.76V101.72H133.539V107.012C133.539 107.996 133.779 108.77 134.259 109.334C134.751 109.898 135.489 110.18 136.473 110.18C137.061 110.18 137.559 110.06 137.967 109.82C138.375 109.568 138.711 109.208 138.975 108.74V110H141.297V101.72H138.975V106.76C138.975 107.108 138.903 107.408 138.759 107.66C138.627 107.912 138.435 108.11 138.183 108.254C137.943 108.386 137.655 108.452 137.319 108.452C136.839 108.452 136.491 108.308 136.275 108.02C136.059 107.72 135.951 107.3 135.951 106.76ZM143.485 98.516C143.485 98.888 143.623 99.2 143.899 99.452C144.175 99.704 144.505 99.83 144.889 99.83C145.273 99.83 145.597 99.704 145.861 99.452C146.137 99.2 146.275 98.888 146.275 98.516C146.275 98.132 146.137 97.82 145.861 97.58C145.597 97.328 145.273 97.202 144.889 97.202C144.505 97.202 144.175 97.328 143.899 97.58C143.623 97.82 143.485 98.132 143.485 98.516ZM143.737 101.72V110H146.005V101.72H143.737ZM154.726 95.96V110H157.066V95.96H154.726ZM147.922 105.86C147.922 106.772 148.108 107.552 148.48 108.2C148.852 108.848 149.344 109.34 149.956 109.676C150.568 110.012 151.216 110.18 151.9 110.18C152.596 110.18 153.208 110.006 153.736 109.658C154.276 109.31 154.696 108.812 154.996 108.164C155.308 107.516 155.464 106.748 155.464 105.86C155.464 104.96 155.308 104.192 154.996 103.556C154.696 102.908 154.276 102.41 153.736 102.062C153.208 101.714 152.596 101.54 151.9 101.54C151.216 101.54 150.568 101.708 149.956 102.044C149.344 102.38 148.852 102.872 148.48 103.52C148.108 104.156 147.922 104.936 147.922 105.86ZM150.334 105.86C150.334 105.368 150.436 104.942 150.64 104.582C150.844 104.222 151.12 103.946 151.468 103.754C151.816 103.562 152.188 103.466 152.584 103.466C152.932 103.466 153.268 103.562 153.592 103.754C153.928 103.934 154.198 104.204 154.402 104.564C154.618 104.924 154.726 105.356 154.726 105.86C154.726 106.364 154.618 106.796 154.402 107.156C154.198 107.516 153.928 107.792 153.592 107.984C153.268 108.164 152.932 108.254 152.584 108.254C152.188 108.254 151.816 108.158 151.468 107.966C151.12 107.774 150.844 107.498 150.64 107.138C150.436 106.778 150.334 106.352 150.334 105.86ZM159.2 98.516C159.2 98.888 159.338 99.2 159.614 99.452C159.89 99.704 160.22 99.83 160.604 99.83C160.988 99.83 161.312 99.704 161.576 99.452C161.852 99.2 161.99 98.888 161.99 98.516C161.99 98.132 161.852 97.82 161.576 97.58C161.312 97.328 160.988 97.202 160.604 97.202C160.22 97.202 159.89 97.328 159.614 97.58C159.338 97.82 159.2 98.132 159.2 98.516ZM159.452 101.72V110H161.72V101.72H159.452ZM163.133 101.72V103.682H168.245V101.72H163.133ZM164.555 98.84V110H166.805V98.84H164.555ZM177.37 101.72H174.94L172.33 108.272L173.482 108.308L170.818 101.72H168.226L171.664 109.172L169.576 113.96H171.97L177.37 101.72ZM184.028 97.4V110H186.602V97.4H184.028ZM185.594 99.578H188.096C188.78 99.578 189.32 99.734 189.716 100.046C190.112 100.346 190.31 100.802 190.31 101.414C190.31 102.014 190.112 102.47 189.716 102.782C189.32 103.094 188.78 103.25 188.096 103.25H185.594V105.428H188.096C189.092 105.428 189.938 105.266 190.634 104.942C191.342 104.618 191.882 104.156 192.254 103.556C192.626 102.944 192.812 102.23 192.812 101.414C192.812 100.586 192.626 99.872 192.254 99.272C191.882 98.672 191.342 98.21 190.634 97.886C189.938 97.562 189.092 97.4 188.096 97.4H185.594V99.578ZM193.485 105.86C193.485 106.712 193.683 107.468 194.079 108.128C194.487 108.776 195.033 109.28 195.717 109.64C196.413 110 197.199 110.18 198.075 110.18C198.951 110.18 199.731 110 200.415 109.64C201.111 109.28 201.657 108.776 202.053 108.128C202.461 107.468 202.665 106.712 202.665 105.86C202.665 104.996 202.461 104.24 202.053 103.592C201.657 102.944 201.111 102.44 200.415 102.08C199.731 101.72 198.951 101.54 198.075 101.54C197.199 101.54 196.413 101.72 195.717 102.08C195.033 102.44 194.487 102.944 194.079 103.592C193.683 104.24 193.485 104.996 193.485 105.86ZM195.861 105.86C195.861 105.392 195.957 104.978 196.149 104.618C196.353 104.258 196.623 103.982 196.959 103.79C197.295 103.598 197.667 103.502 198.075 103.502C198.483 103.502 198.855 103.598 199.191 103.79C199.527 103.982 199.791 104.258 199.983 104.618C200.187 104.978 200.289 105.392 200.289 105.86C200.289 106.328 200.187 106.742 199.983 107.102C199.791 107.45 199.527 107.726 199.191 107.93C198.855 108.122 198.483 108.218 198.075 108.218C197.667 108.218 197.295 108.122 196.959 107.93C196.623 107.726 196.353 107.45 196.149 107.102C195.957 106.742 195.861 106.328 195.861 105.86ZM203.856 105.86C203.856 106.712 204.054 107.468 204.45 108.128C204.858 108.776 205.404 109.28 206.088 109.64C206.784 110 207.57 110.18 208.446 110.18C209.322 110.18 210.102 110 210.786 109.64C211.482 109.28 212.028 108.776 212.424 108.128C212.832 107.468 213.036 106.712 213.036 105.86C213.036 104.996 212.832 104.24 212.424 103.592C212.028 102.944 211.482 102.44 210.786 102.08C210.102 101.72 209.322 101.54 208.446 101.54C207.57 101.54 206.784 101.72 206.088 102.08C205.404 102.44 204.858 102.944 204.45 103.592C204.054 104.24 203.856 104.996 203.856 105.86ZM206.232 105.86C206.232 105.392 206.328 104.978 206.52 104.618C206.724 104.258 206.994 103.982 207.33 103.79C207.666 103.598 208.038 103.502 208.446 103.502C208.854 103.502 209.226 103.598 209.562 103.79C209.898 103.982 210.162 104.258 210.354 104.618C210.558 104.978 210.66 105.392 210.66 105.86C210.66 106.328 210.558 106.742 210.354 107.102C210.162 107.45 209.898 107.726 209.562 107.93C209.226 108.122 208.854 108.218 208.446 108.218C208.038 108.218 207.666 108.122 207.33 107.93C206.994 107.726 206.724 107.45 206.52 107.102C206.328 106.742 206.232 106.328 206.232 105.86ZM214.785 95.96V110H217.125V95.96H214.785Z" fill="#1A1D3D"/>
</svg>
