<svg width="14" height="15" viewBox="0 0 14 15" fill="none" xmlns="http://www.w3.org/2000/svg">
<path d="M2.55632 0C1.14023 0 0 1.22167 0 2.7389V12.2611C0 13.7783 1.14023 15 2.55632 15H7.3732V9.13593H5.92595V7.02468H7.3732V5.22093C7.3732 3.80381 8.2283 2.50265 10.1981 2.50265C10.9957 2.50265 11.5854 2.58469 11.5854 2.58469L11.5391 4.55626C11.5391 4.55626 10.9376 4.55017 10.2812 4.55017C9.5709 4.55017 9.457 4.90084 9.457 5.48298V7.0247H11.5955L11.5023 9.13594H9.457V15H11.4437C12.8598 15 14 13.7783 14 12.2611V2.73892C14 1.22169 12.8598 1.5e-05 11.4437 1.5e-05H2.5563L2.55632 0Z" fill="#1A1C3B"/>
</svg>
