<svg width="213" height="122" viewBox="0 0 213 122" fill="none" xmlns="http://www.w3.org/2000/svg">
<rect width="212.056" height="121.45" rx="35.3097" fill="white"/>
<path d="M37.0939 43.8691C39.6321 43.8691 41.8973 43.5317 43.8893 42.857C45.8813 42.1823 47.4557 41.2023 48.6124 39.9171C49.769 38.5998 50.3474 37.0254 50.3474 35.1941C50.3474 33.4912 49.9136 31.949 49.0461 30.5674C48.1786 29.1858 46.9095 28.0773 45.2387 27.242C43.6001 26.4066 41.6081 25.9889 39.2626 25.9889C37.0457 25.9889 35.1018 26.4227 33.4311 27.2902C31.7603 28.1577 30.443 29.3465 29.4791 30.8565C28.5474 32.3345 28.0815 34.0374 28.0815 35.9652H34.4914C34.4914 34.7121 34.9412 33.684 35.8408 32.8807C36.7726 32.0453 37.9132 31.6277 39.2626 31.6277C40.2265 31.6277 41.0137 31.7883 41.6242 32.1096C42.2346 32.4309 42.7005 32.8968 43.0218 33.5072C43.3431 34.1177 43.5037 34.8246 43.5037 35.6278C43.5037 36.2704 43.3431 36.8969 43.0218 37.5074C42.7326 38.0857 42.3149 38.6159 41.7687 39.0978C41.2225 39.5476 40.5478 39.9011 39.7446 40.1581C38.9735 40.4151 38.0899 40.5436 37.0939 40.5436V43.8691ZM38.9735 60.9781C41.4796 60.9781 43.6483 60.5765 45.4797 59.7733C47.3432 58.9379 48.773 57.7812 49.769 56.3033C50.7972 54.8253 51.3113 53.1224 51.3113 51.1946C51.3113 49.4918 50.9578 48.0459 50.251 46.8571C49.5441 45.6362 48.5481 44.6402 47.2629 43.8691C45.9777 43.0658 44.4676 42.4875 42.7326 42.1341C41.0298 41.7806 39.1502 41.6039 37.0939 41.6039V45.2667C38.2827 45.2667 39.3269 45.3952 40.2265 45.6523C41.1583 45.8772 41.9294 46.2145 42.5398 46.6644C43.1824 47.1142 43.6644 47.6764 43.9857 48.3512C44.307 48.9938 44.4676 49.7006 44.4676 50.4717C44.4676 51.532 44.2427 52.4156 43.7929 53.1224C43.3431 53.8293 42.7166 54.3755 41.9133 54.761C41.1422 55.1145 40.2265 55.2912 39.1662 55.2912C38.1381 55.2912 37.1903 55.0984 36.3228 54.7128C35.4553 54.2952 34.7645 53.7008 34.2504 52.9296C33.7363 52.1585 33.4793 51.2268 33.4793 50.1344H26.6357C26.6357 51.5802 26.9248 52.9618 27.5032 54.2791C28.0815 55.5643 28.9008 56.7209 29.9611 57.7491C31.0214 58.7451 32.3065 59.5323 33.8166 60.1106C35.3267 60.689 37.0457 60.9781 38.9735 60.9781ZM80.8873 49.4114C80.8873 47.0981 80.4053 45.1221 79.4414 43.4835C78.5097 41.8128 77.2727 40.5276 75.7304 39.628C74.1882 38.7283 72.5014 38.2785 70.67 38.2785C69.674 38.2785 68.694 38.3749 67.7301 38.5677C66.7984 38.7283 65.9148 39.0336 65.0795 39.4834L67.1036 32.5434H80.3571V26.5672H61.995L57.3683 45.5559C58.525 44.9133 59.6174 44.4313 60.6456 44.11C61.7058 43.7566 62.734 43.5156 63.73 43.3871C64.726 43.2265 65.6739 43.1462 66.5735 43.1462C67.7944 43.1462 68.9189 43.3711 69.9471 43.8209C71.0074 44.2386 71.8427 44.8651 72.4532 45.7005C73.0958 46.5358 73.4171 47.564 73.4171 48.7849C73.4171 50.038 73.144 51.0983 72.5978 51.9658C72.0516 52.8011 71.2644 53.4437 70.2363 53.8935C69.2402 54.3433 68.0193 54.5683 66.5735 54.5683C65.6417 54.5683 64.6618 54.3915 63.6336 54.0381C62.6055 53.6526 61.6094 53.1385 60.6456 52.4959C59.7138 51.8533 58.8463 51.1304 58.043 50.3271L54.814 55.6767C55.7458 56.6085 56.8221 57.476 58.043 58.2792C59.264 59.0503 60.6777 59.6769 62.2842 60.1588C63.9228 60.6408 65.7702 60.8817 67.8265 60.8817C69.4652 60.8817 71.0556 60.6568 72.5978 60.207C74.14 59.7572 75.5377 59.0664 76.7907 58.1347C78.0438 57.2029 79.0398 56.0141 79.7788 54.5683C80.5178 53.1224 80.8873 51.4035 80.8873 49.4114ZM91.4475 43.4353C91.4475 41.7324 91.6082 40.1902 91.9295 38.8086C92.2507 37.3949 92.7166 36.1901 93.3271 35.1941C93.9376 34.1659 94.6605 33.3787 95.4958 32.8325C96.3312 32.2863 97.263 32.0132 98.2911 32.0132C99.3514 32.0132 100.299 32.2863 101.135 32.8325C101.97 33.3787 102.693 34.1659 103.303 35.1941C103.914 36.1901 104.38 37.3949 104.701 38.8086C105.022 40.1902 105.183 41.7324 105.183 43.4353C105.183 45.1382 105.022 46.6965 104.701 48.1102C104.38 49.4918 103.914 50.6966 103.303 51.7248C102.693 52.7208 101.97 53.4919 101.135 54.0381C100.299 54.5843 99.3514 54.8574 98.2911 54.8574C97.263 54.8574 96.3312 54.5843 95.4958 54.0381C94.6605 53.4919 93.9376 52.7208 93.3271 51.7248C92.7166 50.6966 92.2507 49.4918 91.9295 48.1102C91.6082 46.6965 91.4475 45.1382 91.4475 43.4353ZM84.7485 43.4353C84.7485 47.0017 85.3107 50.0862 86.4353 52.6887C87.5919 55.2912 89.1824 57.3153 91.2065 58.7612C93.2628 60.1749 95.6244 60.8817 98.2911 60.8817C101.054 60.8817 103.448 60.1749 105.472 58.7612C107.496 57.3153 109.071 55.2912 110.195 52.6887C111.32 50.0862 111.882 47.0017 111.882 43.4353C111.882 39.8689 111.32 36.7845 110.195 34.182C109.071 31.5795 107.496 29.5714 105.472 28.1577C103.448 26.7118 101.054 25.9889 98.2911 25.9889C95.6244 25.9889 93.2628 26.7118 91.2065 28.1577C89.1824 29.5714 87.5919 31.5795 86.4353 34.182C85.3107 36.7845 84.7485 39.8689 84.7485 43.4353ZM116.922 50.5681H142.272V44.5438H116.922V50.5681ZM126.368 34.8567V60.2552H132.826V34.8567H126.368Z" fill="#A21D34"/>
<path d="M26.6252 82.9582H31.6983V81.2401H26.6252V82.9582ZM26.6252 87.4641H31.5362V85.7946H26.6252V87.4641ZM25.442 81.2401V92.5858H27.3221V81.2401H25.442ZM36.4993 92.7479C37.3638 92.7479 38.1039 92.5804 38.7198 92.2454C39.3357 91.9105 39.8382 91.408 40.2272 90.7381L38.7198 90.1222C38.4821 90.522 38.185 90.8191 37.8284 91.0136C37.4718 91.2081 37.0558 91.3054 36.5804 91.3054C36.1265 91.3054 35.7375 91.2081 35.4134 91.0136C35.1 90.8191 34.8623 90.5382 34.7002 90.1708C34.5381 89.7926 34.4571 89.3334 34.4571 88.7931C34.4679 88.2528 34.5543 87.799 34.7164 87.4316C34.8785 87.0643 35.1162 86.7833 35.4296 86.5888C35.7429 86.3943 36.1211 86.2971 36.5642 86.2971C36.9315 86.2971 37.2503 86.3781 37.5204 86.5402C37.8014 86.7023 38.0175 86.9292 38.1688 87.2209C38.3308 87.5127 38.4119 87.8584 38.4119 88.2582C38.4119 88.3339 38.3903 88.4311 38.347 88.55C38.3146 88.658 38.2822 88.7445 38.2498 88.8093L38.7847 88.0638H33.7277V89.2632H40.2758C40.2866 89.2199 40.292 89.1497 40.292 89.0524C40.3028 88.9552 40.3082 88.8634 40.3082 88.7769C40.3082 87.9773 40.157 87.2966 39.8544 86.7347C39.5627 86.162 39.1412 85.7244 38.5902 85.4218C38.0391 85.1193 37.3692 84.968 36.5804 84.968C35.7916 84.968 35.1054 85.1301 34.5219 85.4542C33.9384 85.7676 33.4846 86.216 33.1604 86.7995C32.8471 87.383 32.6904 88.0692 32.6904 88.8579C32.6904 89.6359 32.8471 90.3167 33.1604 90.9002C33.4738 91.4837 33.9168 91.9375 34.4895 92.2617C35.073 92.5858 35.7429 92.7479 36.4993 92.7479ZM43.0812 90.2681C43.0812 90.0303 43.1352 89.8304 43.2433 89.6684C43.3621 89.5063 43.535 89.382 43.7619 89.2956C43.9889 89.1983 44.286 89.1497 44.6534 89.1497C45.0748 89.1497 45.4746 89.2037 45.8528 89.3118C46.231 89.4198 46.5876 89.5927 46.9225 89.8304V88.939C46.8253 88.8201 46.6578 88.6905 46.4201 88.55C46.1824 88.3987 45.8798 88.2691 45.5124 88.161C45.1558 88.0529 44.729 87.9989 44.232 87.9989C43.3027 87.9989 42.5842 88.215 42.0763 88.6472C41.5684 89.0687 41.3145 89.6413 41.3145 90.3653C41.3145 90.8732 41.4334 91.3054 41.6711 91.662C41.9088 92.0185 42.2276 92.2887 42.6274 92.4724C43.0272 92.6561 43.4594 92.7479 43.924 92.7479C44.3562 92.7479 44.7777 92.6723 45.1883 92.521C45.6097 92.3589 45.9554 92.1212 46.2256 91.8078C46.5065 91.4837 46.647 91.0839 46.647 90.6084L46.3877 89.6359C46.3877 90.0033 46.2958 90.3275 46.1121 90.6084C45.9392 90.8786 45.7069 91.0839 45.4152 91.2243C45.1342 91.3648 44.8209 91.435 44.4751 91.435C44.205 91.435 43.9618 91.3918 43.7457 91.3054C43.5404 91.2189 43.3784 91.0893 43.2595 90.9164C43.1406 90.7327 43.0812 90.5166 43.0812 90.2681ZM42.5301 87.0751C42.6382 86.9994 42.8003 86.9076 43.0164 86.7995C43.2433 86.6807 43.508 86.5834 43.8106 86.5078C44.1239 86.4213 44.4535 86.3781 44.7993 86.3781C45.0262 86.3781 45.2369 86.3997 45.4314 86.4429C45.6259 86.4862 45.7934 86.5564 45.9338 86.6536C46.0743 86.7509 46.1824 86.8752 46.258 87.0264C46.3444 87.1777 46.3877 87.3722 46.3877 87.6099V92.5858H48.1057V87.2696C48.1057 86.7725 47.9707 86.3565 47.7005 86.0215C47.4304 85.6758 47.0576 85.411 46.5822 85.2273C46.1175 85.0436 45.5773 84.9518 44.9613 84.9518C44.2698 84.9518 43.6539 85.049 43.1136 85.2435C42.5842 85.438 42.1519 85.6379 41.817 85.8432L42.5301 87.0751ZM49.1091 85.1301V86.6699H53.3394V85.1301H49.1091ZM50.3571 82.5368V92.5858H52.0914V82.5368H50.3571ZM56.3458 89.6684V85.1301H54.5467V89.8629C54.5467 90.7489 54.7682 91.4512 55.2112 91.9699C55.665 92.4886 56.308 92.7479 57.14 92.7479C57.6586 92.7479 58.1017 92.6398 58.469 92.4237C58.8472 92.1968 59.1552 91.8673 59.3929 91.435V92.5858H61.1434V85.1301H59.3929V89.6684C59.3929 90.0033 59.3227 90.3005 59.1822 90.5598C59.0417 90.8083 58.8472 91.0028 58.5987 91.1433C58.3502 91.273 58.0584 91.3378 57.7235 91.3378C57.2588 91.3378 56.9131 91.1919 56.6861 90.9002C56.4592 90.6084 56.3458 90.1978 56.3458 89.6684ZM65.1131 85.1301H63.3788V92.5858H65.1131V85.1301ZM67.3336 86.994L68.1764 85.5191C68.0144 85.3138 67.8145 85.1733 67.5767 85.0977C67.339 85.0112 67.0851 84.968 66.815 84.968C66.4368 84.968 66.0694 85.1031 65.7128 85.3732C65.367 85.6433 65.0807 86.0107 64.8538 86.4754C64.6377 86.9292 64.5296 87.4532 64.5296 88.0475L65.1131 88.3879C65.1131 88.0313 65.1509 87.7234 65.2266 87.4641C65.313 87.1939 65.4481 86.9832 65.6318 86.8319C65.8155 86.6807 66.0532 86.605 66.3449 86.605C66.561 86.605 66.7393 86.6374 66.8798 86.7023C67.0203 86.7671 67.1715 86.8644 67.3336 86.994ZM72.3819 92.7479C73.2464 92.7479 73.9865 92.5804 74.6024 92.2454C75.2184 91.9105 75.7208 91.408 76.1098 90.7381L74.6024 90.1222C74.3647 90.522 74.0676 90.8191 73.711 91.0136C73.3544 91.2081 72.9384 91.3054 72.463 91.3054C72.0091 91.3054 71.6202 91.2081 71.296 91.0136C70.9826 90.8191 70.7449 90.5382 70.5828 90.1708C70.4208 89.7926 70.3397 89.3334 70.3397 88.7931C70.3505 88.2528 70.437 87.799 70.599 87.4316C70.7611 87.0643 70.9988 86.7833 71.3122 86.5888C71.6256 86.3943 72.0037 86.2971 72.4468 86.2971C72.8141 86.2971 73.1329 86.3781 73.403 86.5402C73.684 86.7023 73.9001 86.9292 74.0514 87.2209C74.2134 87.5127 74.2945 87.8584 74.2945 88.2582C74.2945 88.3339 74.2729 88.4311 74.2297 88.55C74.1972 88.658 74.1648 88.7445 74.1324 88.8093L74.6673 88.0638H69.6103V89.2632H76.1584C76.1692 89.2199 76.1746 89.1497 76.1746 89.0524C76.1854 88.9552 76.1908 88.8634 76.1908 88.7769C76.1908 87.9773 76.0396 87.2966 75.737 86.7347C75.4453 86.162 75.0239 85.7244 74.4728 85.4218C73.9217 85.1193 73.2518 84.968 72.463 84.968C71.6742 84.968 70.988 85.1301 70.4045 85.4542C69.8211 85.7676 69.3672 86.216 69.0431 86.7995C68.7297 87.383 68.573 88.0692 68.573 88.8579C68.573 89.6359 68.7297 90.3167 69.0431 90.9002C69.3564 91.4837 69.7994 91.9375 70.3721 92.2617C70.9556 92.5858 71.6256 92.7479 72.3819 92.7479ZM84.4552 85.1301H82.7209V92.5858H84.4552V85.1301ZM86.6757 86.994L87.5185 85.5191C87.3565 85.3138 87.1566 85.1733 86.9188 85.0977C86.6811 85.0112 86.4272 84.968 86.1571 84.968C85.7789 84.968 85.4115 85.1031 85.0549 85.3732C84.7091 85.6433 84.4228 86.0107 84.1959 86.4754C83.9798 86.9292 83.8717 87.4532 83.8717 88.0475L84.4552 88.3879C84.4552 88.0313 84.493 87.7234 84.5687 87.4641C84.6551 87.1939 84.7902 86.9832 84.9739 86.8319C85.1576 86.6807 85.3953 86.605 85.687 86.605C85.9031 86.605 86.0814 86.6374 86.2219 86.7023C86.3624 86.7671 86.5136 86.8644 86.6757 86.994ZM88.655 82.164C88.655 82.4557 88.7631 82.7097 88.9792 82.9258C89.2061 83.1311 89.4654 83.2337 89.7572 83.2337C90.0705 83.2337 90.3298 83.1311 90.5351 82.9258C90.7513 82.7097 90.8593 82.4557 90.8593 82.164C90.8593 81.8614 90.7513 81.6075 90.5351 81.4022C90.3298 81.1969 90.0705 81.0943 89.7572 81.0943C89.4654 81.0943 89.2061 81.1969 88.9792 81.4022C88.7631 81.6075 88.655 81.8614 88.655 82.164ZM88.8981 85.1301V92.5858H90.6162V85.1301H88.8981ZM94.1921 88.8579C94.1921 88.3933 94.2948 87.9827 94.5001 87.6261C94.7054 87.2696 94.9809 86.9886 95.3267 86.7833C95.6833 86.578 96.0776 86.4754 96.5099 86.4754C96.8556 86.4754 97.1906 86.5294 97.5148 86.6374C97.8389 86.7455 98.1253 86.8968 98.3738 87.0913C98.6331 87.275 98.8222 87.4911 98.9411 87.7396V85.8108C98.6818 85.5515 98.3306 85.3462 97.8876 85.1949C97.4445 85.0436 96.9583 84.968 96.4288 84.968C95.6616 84.968 94.9701 85.1355 94.3542 85.4705C93.7491 85.7946 93.2682 86.2484 92.9117 86.8319C92.5659 87.4154 92.393 88.0908 92.393 88.8579C92.393 89.6143 92.5659 90.2897 92.9117 90.884C93.2682 91.4675 93.7491 91.9267 94.3542 92.2617C94.9701 92.5858 95.6616 92.7479 96.4288 92.7479C96.9583 92.7479 97.4445 92.6723 97.8876 92.521C98.3306 92.3697 98.6818 92.1644 98.9411 91.9051V89.9763C98.8222 90.214 98.6385 90.4301 98.39 90.6246C98.1415 90.8191 97.8551 90.9704 97.531 91.0785C97.2068 91.1865 96.8664 91.2405 96.5099 91.2405C96.0776 91.2405 95.6833 91.1379 95.3267 90.9326C94.9809 90.7273 94.7054 90.4517 94.5001 90.106C94.2948 89.7494 94.1921 89.3334 94.1921 88.8579ZM102.626 79.9435H100.876V92.5858H102.626V79.9435ZM105.674 88.0475V92.5858H107.44V87.8044C107.44 87.1669 107.343 86.6374 107.148 86.216C106.954 85.7838 106.662 85.4596 106.273 85.2435C105.895 85.0274 105.43 84.9194 104.879 84.9194C104.317 84.9194 103.837 85.0598 103.437 85.3408C103.048 85.6217 102.745 85.9945 102.529 86.4591C102.313 86.9238 102.205 87.4532 102.205 88.0475H102.626C102.626 87.7126 102.697 87.4208 102.837 87.1723C102.978 86.9238 103.172 86.7293 103.421 86.5888C103.669 86.4483 103.955 86.3781 104.28 86.3781C104.766 86.3781 105.117 86.5186 105.333 86.7995C105.56 87.0805 105.674 87.4965 105.674 88.0475ZM116.222 79.9435H114.455V92.5858H116.222V79.9435ZM122.397 88.8579C122.397 88.0367 122.23 87.3398 121.895 86.7671C121.56 86.1836 121.117 85.7406 120.565 85.438C120.014 85.1247 119.415 84.968 118.766 84.968C118.15 84.968 117.599 85.1247 117.113 85.438C116.638 85.7514 116.265 86.1998 115.995 86.7833C115.725 87.356 115.59 88.0475 115.59 88.8579C115.59 89.6575 115.725 90.3491 115.995 90.9326C116.265 91.5161 116.638 91.9645 117.113 92.2779C117.599 92.5912 118.15 92.7479 118.766 92.7479C119.415 92.7479 120.014 92.5966 120.565 92.2941C121.117 91.9807 121.56 91.5323 121.895 90.9488C122.23 90.3653 122.397 89.6684 122.397 88.8579ZM120.582 88.8579C120.582 89.355 120.479 89.7818 120.274 90.1384C120.068 90.495 119.793 90.7651 119.447 90.9488C119.112 91.1325 118.739 91.2243 118.329 91.2243C117.994 91.2243 117.664 91.1325 117.34 90.9488C117.016 90.7651 116.746 90.5004 116.53 90.1546C116.324 89.798 116.222 89.3658 116.222 88.8579C116.222 88.3501 116.324 87.9233 116.53 87.5775C116.746 87.2209 117.016 86.9508 117.34 86.7671C117.664 86.5834 117.994 86.4916 118.329 86.4916C118.739 86.4916 119.112 86.5834 119.447 86.7671C119.793 86.9508 120.068 87.2209 120.274 87.5775C120.479 87.9341 120.582 88.3609 120.582 88.8579ZM125.166 90.2681C125.166 90.0303 125.22 89.8304 125.329 89.6684C125.447 89.5063 125.62 89.382 125.847 89.2956C126.074 89.1983 126.371 89.1497 126.739 89.1497C127.16 89.1497 127.56 89.2037 127.938 89.3118C128.316 89.4198 128.673 89.5927 129.008 89.8304V88.939C128.911 88.8201 128.743 88.6905 128.505 88.55C128.268 88.3987 127.965 88.2691 127.598 88.161C127.241 88.0529 126.814 87.9989 126.317 87.9989C125.388 87.9989 124.669 88.215 124.162 88.6472C123.654 89.0687 123.4 89.6413 123.4 90.3653C123.4 90.8732 123.519 91.3054 123.756 91.662C123.994 92.0185 124.313 92.2887 124.713 92.4724C125.112 92.6561 125.545 92.7479 126.009 92.7479C126.441 92.7479 126.863 92.6723 127.273 92.521C127.695 92.3589 128.041 92.1212 128.311 91.8078C128.592 91.4837 128.732 91.0839 128.732 90.6084L128.473 89.6359C128.473 90.0033 128.381 90.3275 128.197 90.6084C128.024 90.8786 127.792 91.0839 127.5 91.2243C127.219 91.3648 126.906 91.435 126.56 91.435C126.29 91.435 126.047 91.3918 125.831 91.3054C125.626 91.2189 125.464 91.0893 125.345 90.9164C125.226 90.7327 125.166 90.5166 125.166 90.2681ZM124.615 87.0751C124.723 86.9994 124.886 86.9076 125.102 86.7995C125.329 86.6807 125.593 86.5834 125.896 86.5078C126.209 86.4213 126.539 86.3781 126.885 86.3781C127.111 86.3781 127.322 86.3997 127.517 86.4429C127.711 86.4862 127.879 86.5564 128.019 86.6536C128.16 86.7509 128.268 86.8752 128.343 87.0264C128.43 87.1777 128.473 87.3722 128.473 87.6099V92.5858H130.191V87.2696C130.191 86.7725 130.056 86.3565 129.786 86.0215C129.516 85.6758 129.143 85.411 128.667 85.2273C128.203 85.0436 127.662 84.9518 127.047 84.9518C126.355 84.9518 125.739 85.049 125.199 85.2435C124.669 85.438 124.237 85.6379 123.902 85.8432L124.615 87.0751ZM133.399 88.8579C133.399 88.3933 133.501 87.9827 133.707 87.6261C133.912 87.2696 134.187 86.9886 134.533 86.7833C134.89 86.578 135.284 86.4754 135.716 86.4754C136.062 86.4754 136.397 86.5294 136.721 86.6374C137.045 86.7455 137.332 86.8968 137.58 87.0913C137.84 87.275 138.029 87.4911 138.148 87.7396V85.8108C137.888 85.5515 137.537 85.3462 137.094 85.1949C136.651 85.0436 136.165 84.968 135.635 84.968C134.868 84.968 134.177 85.1355 133.561 85.4705C132.956 85.7946 132.475 86.2484 132.118 86.8319C131.772 87.4154 131.6 88.0908 131.6 88.8579C131.6 89.6143 131.772 90.2897 132.118 90.884C132.475 91.4675 132.956 91.9267 133.561 92.2617C134.177 92.5858 134.868 92.7479 135.635 92.7479C136.165 92.7479 136.651 92.6723 137.094 92.521C137.537 92.3697 137.888 92.1644 138.148 91.9051V89.9763C138.029 90.214 137.845 90.4301 137.597 90.6246C137.348 90.8191 137.062 90.9704 136.738 91.0785C136.413 91.1865 136.073 91.2405 135.716 91.2405C135.284 91.2405 134.89 91.1379 134.533 90.9326C134.187 90.7273 133.912 90.4517 133.707 90.106C133.501 89.7494 133.399 89.3334 133.399 88.8579ZM140.018 79.9435V92.5858H141.736V79.9435H140.018ZM144.475 85.1301L141.249 88.2096L144.815 92.5858H146.939L143.405 88.2096L146.614 85.1301H144.475ZM147.303 88.8579C147.303 89.6143 147.476 90.2897 147.821 90.884C148.178 91.4675 148.659 91.9267 149.264 92.2617C149.869 92.5858 150.555 92.7479 151.322 92.7479C152.089 92.7479 152.77 92.5858 153.365 92.2617C153.97 91.9267 154.45 91.4675 154.807 90.884C155.164 90.2897 155.342 89.6143 155.342 88.8579C155.342 88.0908 155.164 87.4154 154.807 86.8319C154.45 86.2484 153.97 85.7946 153.365 85.4705C152.77 85.1355 152.089 84.968 151.322 84.968C150.555 84.968 149.869 85.1355 149.264 85.4705C148.659 85.7946 148.178 86.2484 147.821 86.8319C147.476 87.4154 147.303 88.0908 147.303 88.8579ZM149.102 88.8579C149.102 88.3933 149.199 87.9827 149.394 87.6261C149.588 87.2696 149.853 86.994 150.188 86.7995C150.523 86.605 150.901 86.5078 151.322 86.5078C151.733 86.5078 152.106 86.605 152.441 86.7995C152.786 86.994 153.057 87.2696 153.251 87.6261C153.446 87.9827 153.543 88.3933 153.543 88.8579C153.543 89.3226 153.446 89.7332 153.251 90.0898C153.057 90.4355 152.786 90.7111 152.441 90.9164C152.106 91.1109 151.733 91.2081 151.322 91.2081C150.901 91.2081 150.523 91.1109 150.188 90.9164C149.853 90.7111 149.588 90.4355 149.394 90.0898C149.199 89.7332 149.102 89.3226 149.102 88.8579ZM156.387 85.1301V86.6699H160.666V85.1301H156.387ZM160.471 81.8236L161.298 80.4621C161.212 80.3541 161.087 80.246 160.925 80.138C160.774 80.0299 160.59 79.9381 160.374 79.8624C160.158 79.7868 159.904 79.749 159.612 79.749C159.094 79.749 158.656 79.8516 158.3 80.0569C157.943 80.2514 157.667 80.5432 157.473 80.9322C157.289 81.3104 157.197 81.7912 157.197 82.3747V92.5858H158.915V82.7151C158.915 82.4017 158.948 82.1478 159.013 81.9533C159.077 81.7588 159.164 81.6183 159.272 81.5319C159.391 81.4454 159.531 81.4022 159.693 81.4022C159.834 81.4022 159.969 81.4292 160.099 81.4833C160.239 81.5373 160.363 81.6507 160.471 81.8236ZM161.389 85.1301V86.6699H165.668V85.1301H161.389ZM165.473 81.8236L166.3 80.4621C166.213 80.3541 166.089 80.246 165.927 80.138C165.776 80.0299 165.592 79.9381 165.376 79.8624C165.16 79.7868 164.906 79.749 164.614 79.749C164.095 79.749 163.658 79.8516 163.301 80.0569C162.945 80.2514 162.669 80.5432 162.475 80.9322C162.291 81.3104 162.199 81.7912 162.199 82.3747V92.5858H163.917V82.7151C163.917 82.4017 163.95 82.1478 164.014 81.9533C164.079 81.7588 164.166 81.6183 164.274 81.5319C164.393 81.4454 164.533 81.4022 164.695 81.4022C164.836 81.4022 164.971 81.4292 165.1 81.4833C165.241 81.5373 165.365 81.6507 165.473 81.8236ZM166.941 82.164C166.941 82.4557 167.05 82.7097 167.266 82.9258C167.493 83.1311 167.752 83.2337 168.044 83.2337C168.357 83.2337 168.616 83.1311 168.822 82.9258C169.038 82.7097 169.146 82.4557 169.146 82.164C169.146 81.8614 169.038 81.6075 168.822 81.4022C168.616 81.1969 168.357 81.0943 168.044 81.0943C167.752 81.0943 167.493 81.1969 167.266 81.4022C167.05 81.6075 166.941 81.8614 166.941 82.164ZM167.185 85.1301V92.5858H168.903V85.1301H167.185ZM172.479 88.8579C172.479 88.3933 172.581 87.9827 172.787 87.6261C172.992 87.2696 173.267 86.9886 173.613 86.7833C173.97 86.578 174.364 86.4754 174.796 86.4754C175.142 86.4754 175.477 86.5294 175.801 86.6374C176.125 86.7455 176.412 86.8968 176.66 87.0913C176.92 87.275 177.109 87.4911 177.228 87.7396V85.8108C176.968 85.5515 176.617 85.3462 176.174 85.1949C175.731 85.0436 175.245 84.968 174.715 84.968C173.948 84.968 173.257 85.1355 172.641 85.4705C172.036 85.7946 171.555 86.2484 171.198 86.8319C170.852 87.4154 170.679 88.0908 170.679 88.8579C170.679 89.6143 170.852 90.2897 171.198 90.884C171.555 91.4675 172.036 91.9267 172.641 92.2617C173.257 92.5858 173.948 92.7479 174.715 92.7479C175.245 92.7479 175.731 92.6723 176.174 92.521C176.617 92.3697 176.968 92.1644 177.228 91.9051V89.9763C177.109 90.214 176.925 90.4301 176.676 90.6246C176.428 90.8191 176.142 90.9704 175.817 91.0785C175.493 91.1865 175.153 91.2405 174.796 91.2405C174.364 91.2405 173.97 91.1379 173.613 90.9326C173.267 90.7273 172.992 90.4517 172.787 90.106C172.581 89.7494 172.479 89.3334 172.479 88.8579ZM182.404 92.7479C183.268 92.7479 184.009 92.5804 184.625 92.2454C185.24 91.9105 185.743 91.408 186.132 90.7381L184.625 90.1222C184.387 90.522 184.09 90.8191 183.733 91.0136C183.376 91.2081 182.96 91.3054 182.485 91.3054C182.031 91.3054 181.642 91.2081 181.318 91.0136C181.005 90.8191 180.767 90.5382 180.605 90.1708C180.443 89.7926 180.362 89.3334 180.362 88.7931C180.373 88.2528 180.459 87.799 180.621 87.4316C180.783 87.0643 181.021 86.7833 181.334 86.5888C181.648 86.3943 182.026 86.2971 182.469 86.2971C182.836 86.2971 183.155 86.3781 183.425 86.5402C183.706 86.7023 183.922 86.9292 184.073 87.2209C184.236 87.5127 184.317 87.8584 184.317 88.2582C184.317 88.3339 184.295 88.4311 184.252 88.55C184.219 88.658 184.187 88.7445 184.154 88.8093L184.689 88.0638H179.632V89.2632H186.18C186.191 89.2199 186.197 89.1497 186.197 89.0524C186.208 88.9552 186.213 88.8634 186.213 88.7769C186.213 87.9773 186.062 87.2966 185.759 86.7347C185.467 86.162 185.046 85.7244 184.495 85.4218C183.944 85.1193 183.274 84.968 182.485 84.968C181.696 84.968 181.01 85.1301 180.427 85.4542C179.843 85.7676 179.389 86.216 179.065 86.7995C178.752 87.383 178.595 88.0692 178.595 88.8579C178.595 89.6359 178.752 90.3167 179.065 90.9002C179.378 91.4837 179.822 91.9375 180.394 92.2617C180.978 92.5858 181.648 92.7479 182.404 92.7479Z" fill="#1B1C3B"/>
</svg>
