<svg width="67" height="73" viewBox="0 0 67 73" fill="none" xmlns="http://www.w3.org/2000/svg">
<path fill-rule="evenodd" clip-rule="evenodd" d="M21.4415 6.77271L10.0452 13.5396L9.23228 12.9249C8.08483 12.0572 7.23221 11.7847 5.70645 11.7977C4.76228 11.8057 4.26599 11.8853 3.68899 12.1212C2.13221 12.758 0.950536 13.9709 0.325681 15.5744C-0.10856 16.6883 -0.10856 18.7481 0.325681 19.862C0.943162 21.4463 2.15559 22.7023 3.61943 23.2742L4.3151 23.5461L4.38467 37.3181C4.43587 47.4428 4.49723 51.166 4.61661 51.3761C4.70593 51.5333 6.42773 52.6361 8.44282 53.8267C21.2469 61.392 27.8281 65.3292 27.8223 65.4205C27.8186 65.4781 27.7641 65.898 27.7011 66.3536C27.467 68.0467 28.1844 70.0746 29.4631 71.3339C32.3551 74.1821 37.0576 73.255 38.7915 69.4948C39.2114 68.5843 39.2383 68.4294 39.2432 66.8963L39.2483 65.266L50.6523 58.5054C56.9245 54.7872 62.1658 51.6066 62.2997 51.4375C62.5279 51.1494 62.5432 50.2614 62.5432 37.3495C62.5432 24.3494 62.5569 23.5646 62.7866 23.4928C67.1907 22.1153 68.4613 16.4012 65.0644 13.2487C62.9478 11.2846 59.5985 11.2394 57.4839 13.1466L57.0084 13.5755L54.3147 11.9768C33.7667 -0.219131 34.1405 -0.00432177 33.4735 0.000823386C32.8917 0.00539686 31.8733 0.57851 21.4415 6.77271ZM44.4907 9.44791C50.4785 12.9958 55.4189 15.9381 55.4694 15.9865C55.5198 16.035 55.5031 16.446 55.4321 16.9C55.042 19.3974 56.4776 22.0268 58.8548 23.1696L59.7605 23.6049L59.7595 36.7044L59.7585 49.804L48.7479 56.3297L37.7374 62.8556L37.0618 62.3071C36.0169 61.4586 35.0171 61.1182 33.5335 61.1054C32.0105 61.0924 31.1551 61.365 30.0164 62.2259L29.2121 62.8342L18.2941 56.356C12.2892 52.793 7.32905 49.8774 7.27172 49.8767C7.2144 49.876 7.16737 43.9565 7.16737 36.7222C7.16737 24.322 7.18129 23.5642 7.41086 23.4866C10.2083 22.5402 11.9901 19.6896 11.5383 16.8832L11.4021 16.0376L22.3982 9.51779C28.4461 5.93205 33.4414 2.99802 33.499 2.99774C33.5564 2.99745 38.5027 5.90003 44.4907 9.44791ZM23.5391 16.6158C17.0115 20.4924 14.042 22.3307 13.909 22.5778C13.6202 23.1137 13.6138 45.1327 13.9022 45.7021C14.1798 46.2498 32.8119 57.3073 33.4575 57.3073C33.9887 57.3073 33.7537 57.4299 37.7075 55.0883C39.4676 54.046 43.5373 51.6382 46.7513 49.7379C49.9653 47.8376 52.7358 46.1229 52.9081 45.9274L53.2211 45.5718V34.1541V22.7364L52.9081 22.3797C52.7358 22.1835 48.4047 19.543 43.2831 16.5119C35.6977 12.0228 33.879 11.0017 33.4741 11.0059C33.0775 11.0099 31.0683 12.1444 23.5391 16.6158ZM41.9115 19.0045C45.8252 21.3234 48.9847 23.2632 48.9328 23.3152C48.8809 23.3673 45.4007 25.4472 41.1991 27.9373C34.7723 31.7463 33.5137 32.443 33.2684 32.3281C32.7346 32.0779 18.3707 23.5473 18.1892 23.3727C18.0477 23.2365 19.6177 22.2491 25.7592 18.6116L33.5077 14.0221L34.1518 14.4053C34.5059 14.6159 37.9978 16.6856 41.9115 19.0045ZM6.95867 14.8413C8.17471 15.4119 8.92813 16.6937 8.80722 17.9863C8.67393 19.4106 7.54763 20.6368 6.20219 20.8221C3.88142 21.142 2.01868 18.648 2.97648 16.5033C3.69192 14.9012 5.48829 14.1514 6.95867 14.8413ZM62.5521 14.9669C63.5808 15.5028 64.1054 16.2898 64.1847 17.4165C64.2623 18.5191 64.0283 19.2017 63.3252 19.9227C61.4043 21.893 58.1859 20.5124 58.1859 17.7182C58.1859 15.3534 60.4976 13.8968 62.5521 14.9669ZM25.0462 30.7999C29.4081 33.385 33.1403 35.5248 33.3398 35.555C33.8156 35.6269 33.6228 35.7339 42.4312 30.5079C46.6226 28.0211 50.1388 25.9521 50.2451 25.9103C50.4088 25.8458 50.4384 27.2417 50.4384 35.0353V44.2366L42.6816 48.8368L34.9248 53.437L34.8907 50.0483C34.8542 46.411 34.8073 46.1462 34.1366 45.79C33.5564 45.4817 33.0966 45.5458 32.5965 46.0045L32.1421 46.4213L32.0726 49.9083L32.003 53.3951L24.2509 48.8125L16.4989 44.23L16.4942 34.9595L16.4894 25.6889L16.8025 25.8943C16.9747 26.0072 20.6844 28.2147 25.0462 30.7999ZM32.5997 39.5705C32.2263 39.9132 32.1484 40.0882 32.1484 40.5855C32.1484 41.617 33.1961 42.3113 34.0644 41.8551C35.3957 41.1558 34.9076 39.1563 33.4058 39.1563C33.2105 39.1563 32.8478 39.3427 32.5997 39.5705ZM35.0926 64.3938C35.9292 64.9184 36.5249 66.0168 36.5249 67.0352C36.5249 69.0458 34.5643 70.5625 32.6498 70.033C31.4779 69.7089 30.4029 68.2702 30.4029 67.0259C30.4029 65.8716 31.3538 64.4962 32.4364 64.0843C33.2505 63.7746 34.3001 63.897 35.0926 64.3938Z" fill="#A21D34"/>
</svg>
