<svg width="75" height="72" viewBox="0 0 75 72" fill="none" xmlns="http://www.w3.org/2000/svg">
<path fill-rule="evenodd" clip-rule="evenodd" d="M36.7716 0.17758C35.5014 0.863542 36.0328 2.83349 37.4882 2.83349C38.2306 2.83349 38.9535 2.1361 38.9535 1.41974C38.9535 0.347893 37.7377 -0.344208 36.7716 0.17758ZM18.9167 4.18785C18.3261 4.43797 17.9168 5.20116 18.0626 5.78063C18.1751 6.22861 28.1622 16.1112 28.8722 16.4772C29.4539 16.7771 29.9363 16.7275 30.4384 16.3157C31.0424 15.8205 31.1692 15.1311 30.7705 14.5094C30.3033 13.7808 20.4692 4.29635 20.0049 4.12646C19.4979 3.94102 19.4999 3.94088 18.9167 4.18785ZM54.852 4.19699C54.3582 4.44382 45.0209 13.4453 44.3602 14.3114C43.7843 15.0665 43.8044 15.5827 44.4337 16.1958C44.9817 16.7297 45.4585 16.8101 46.1042 16.4772C46.8141 16.1112 56.8012 6.22861 56.9137 5.78063C57.0642 5.18218 56.6503 4.4354 56.0275 4.18186C55.4023 3.92731 55.3914 3.92746 54.852 4.19699ZM36.9589 5.82317C36.7888 5.89312 36.5085 6.1251 36.3361 6.33853C36.0315 6.71585 36.0229 6.84761 36.0229 11.14C36.0229 15.9287 36.059 16.1707 36.8247 16.5106C37.3106 16.7263 37.6658 16.7263 38.1517 16.5106C38.9177 16.1706 38.9535 15.9301 38.9535 11.1228V6.69258L38.5505 6.26158C38.118 5.79918 37.459 5.61759 36.9589 5.82317ZM14.6918 14.2677C14.1795 14.5215 0.21327 31.4776 0.0611711 32.0306C-0.0283591 32.356 -0.0195673 32.6369 0.0872535 32.8653C0.175905 33.0548 1.93793 34.625 4.00299 36.3547L7.75769 39.4997L10.9737 43.7217C12.7425 46.0437 14.1898 47.9866 14.1898 48.0392C14.1898 48.0917 13.9943 48.4316 13.7553 48.7945C12.4615 50.7589 12.6967 53.2627 14.3382 54.9977C15.0154 55.7134 16.4943 56.5112 17.1439 56.5112C17.5581 56.5112 17.56 56.5154 17.56 57.4338C17.56 58.0228 17.6731 58.6552 17.873 59.1826C18.488 60.8066 20.5897 62.3644 22.1656 62.3644C22.6988 62.3644 22.8351 62.5404 22.8351 63.2298C22.8351 63.4572 22.9453 63.9178 23.08 64.2531C23.8884 66.2655 25.6554 67.4901 27.8721 67.5744L28.7636 67.6084L28.8744 68.1276C29.1777 69.5501 30.3046 70.9123 31.75 71.604C32.4806 71.9535 32.7451 72.0006 33.9714 72C35.2152 71.9994 35.4474 71.9563 36.1522 71.5954C36.586 71.3733 37.2523 70.9079 37.6326 70.5611C38.0132 70.2144 38.3665 69.9307 38.4179 69.9307C38.4693 69.9307 38.8064 70.1501 39.167 70.4182C41.2524 71.9692 44.1178 71.8241 45.9686 70.0742C46.7114 69.3719 47.2808 68.2935 47.4745 67.2224L47.6234 66.3987L48.3714 66.3123C50.525 66.0638 52.3483 64.3025 52.7496 62.083L52.8985 61.2593L53.6465 61.1729C55.82 60.9221 57.621 59.176 58.0279 56.9253C58.1702 56.1389 58.2069 56.083 58.581 56.083C59.8783 56.083 61.6345 55.0895 62.4479 53.8956C63.4871 52.3704 63.6546 50.5914 62.9105 48.9852L62.5654 48.2402L64.9401 43.4016L67.3149 38.563L71.0233 35.4514C73.063 33.74 74.7921 32.1851 74.8659 31.9961C74.9396 31.8071 75 31.5001 75 31.3141C75 30.9125 62.332 14.7589 61.7003 14.3548C61.4431 14.1903 61.1334 14.1224 60.8363 14.1652C60.5722 14.2035 58.5845 15.3407 56.2088 16.813L52.0442 19.3936H46.6591H41.2739L37.204 20.5357C34.9656 21.1639 33.0093 21.6757 32.8568 21.673C32.7042 21.6702 30.7331 21.1719 28.4765 20.5654L24.3737 19.4629L20.1561 16.8488C15.9448 14.2387 15.3335 13.9499 14.6918 14.2677ZM18.4717 19.1935C19.9448 20.1042 21.2379 20.9309 21.3452 21.0305C21.5059 21.1797 20.4118 22.5514 15.1784 28.7613C11.6794 32.9134 8.74032 36.3107 8.64728 36.3107C8.34601 36.3107 3.51094 32.1848 3.61468 32.0162C3.87229 31.5975 15.5953 17.5396 15.6876 17.5388C15.746 17.5382 16.9988 18.2828 18.4717 19.1935ZM66.0616 24.336C69.0032 28.0676 71.41 31.1708 71.41 31.2319C71.41 31.3464 66.4913 35.515 66.3481 35.5217C66.3041 35.5238 63.6745 32.308 60.5043 28.3757C55.6692 22.3778 54.7731 21.1957 54.9427 21.0395C55.1945 20.808 60.5226 17.5352 60.633 17.5445C60.6771 17.5482 63.12 20.6044 66.0616 24.336ZM58.092 30.0388C61.5485 34.3232 64.3648 37.8726 64.3504 37.9263C64.306 38.0925 60.4763 45.8686 60.4044 45.9387C60.367 45.975 56.5638 42.3369 51.9528 37.8538C43.7463 29.8751 43.5553 29.7012 42.9098 29.622C42.5471 29.5776 40.536 29.431 38.4406 29.2963C35.0339 29.0775 34.5866 29.0743 34.2122 29.2669C33.8952 29.43 33.2603 30.3992 31.6007 33.2534C30.3946 35.3275 29.2974 37.1436 29.1623 37.2889C27.8492 38.7032 25.3283 37.7507 25.3267 35.8396C25.326 35.0987 25.1856 35.3722 28.4383 29.7786L31.0747 25.2452L31.827 25.0332C32.2408 24.9167 34.5905 24.2475 37.0486 23.5461L41.5178 22.271L46.6626 22.26L51.8074 22.2488L58.092 30.0388ZM25.9855 22.8743C26.7108 23.0673 27.5845 23.2971 27.927 23.3849C28.2696 23.4729 28.5498 23.5965 28.5498 23.6597C28.5498 23.7231 27.356 25.8246 25.8969 28.3297C22.6218 33.9525 22.5794 34.034 22.4217 35.0133C22.0721 37.1857 23.1767 39.2944 25.2112 40.3388C25.9158 40.7004 26.1241 40.7363 27.5241 40.7363C28.924 40.7363 29.1324 40.7004 29.8369 40.3388C31.1104 39.6851 31.6133 39.0484 33.7411 35.3958L35.7566 31.9358L36.2926 32.0132C36.5876 32.0557 38.0601 32.1672 39.5649 32.2609L42.3013 32.4312L51.2398 41.152C59.1855 48.9043 60.1965 49.9403 60.3415 50.4796C60.8268 52.2834 58.9225 53.8239 57.2258 53.0001C56.9679 52.8747 54.4821 50.5272 51.7016 47.7832L46.6463 42.7942L46.017 42.8002C45.0209 42.8099 44.3436 43.6661 44.5864 44.6088C44.6462 44.8408 46.629 46.8948 49.7888 49.998C55.3224 55.4326 55.3637 55.4848 55.0784 56.7035C54.7703 58.0192 53.2003 58.7414 51.9507 58.1423C51.6928 58.0187 49.9323 56.3785 48.0384 54.4973L44.5949 51.0774L43.9188 51.0818C42.9773 51.0881 42.4702 51.5787 42.4702 52.4831V53.1273L46.046 56.6395C49.0129 59.5538 49.6482 60.2488 49.7768 60.7227C50.223 62.3658 48.822 63.7619 47.0515 63.4383C46.5994 63.3556 46.1217 62.9681 44.304 61.2096C42.2466 59.219 42.0678 59.0809 41.5493 59.0809C40.4843 59.0809 39.7798 59.9743 40.1301 60.8806C40.218 61.1078 41.2023 62.1931 42.3175 63.2924C44.5737 65.5163 44.7936 65.8929 44.4997 67.03C44.0965 68.5895 42.1528 69.1359 40.8191 68.065L40.2747 67.6277L40.5298 67.1731C40.7243 66.8268 40.7851 66.3788 40.7851 65.291C40.7851 64.006 40.7438 63.785 40.372 63.0782C39.6807 61.7644 38.5665 60.847 37.1761 60.447L36.5813 60.276L36.5514 59.0718C36.5164 57.6675 36.113 56.6397 35.218 55.6747C34.5492 54.9533 33.1312 54.2519 32.1018 54.1332C31.3893 54.0509 31.3339 54.0169 31.3339 53.662C31.3339 53.0954 30.9164 51.8286 30.5363 51.2421C30.0715 50.5248 29.0769 49.682 28.2746 49.326C27.7543 49.095 27.2996 49.0243 26.3117 49.0209L25.0259 49.0163L24.871 48.4453C24.4874 47.0317 23.1683 45.6264 21.7287 45.0977C21.0052 44.8319 20.6452 44.7877 19.6114 44.8373C18.3973 44.8956 17.6498 45.1481 16.6458 45.8395C16.4341 45.9853 16.3552 45.967 16.1798 45.7312C16.0636 45.5751 14.8108 43.9377 13.3957 42.0925C11.9807 40.2473 10.8386 38.6534 10.8578 38.5506C10.9204 38.216 24.3265 22.4106 24.4992 22.4678C24.5913 22.4984 25.2602 22.6813 25.9855 22.8743ZM21.0917 47.9842C21.9968 48.5732 22.3351 49.708 21.9011 50.6983C21.5776 51.4366 19.3442 53.457 18.6505 53.6391C17.5199 53.9357 16.4407 53.3891 16.0154 52.3044C15.6018 51.2491 15.7851 50.7871 17.1694 49.3964C17.8276 48.7351 18.5637 48.0743 18.8055 47.9277C19.4286 47.5501 20.4639 47.5756 21.0917 47.9842ZM27.1752 52.0319C28.0876 52.4537 28.5388 53.4032 28.3345 54.4719C28.249 54.9193 27.8741 55.3643 26.1559 57.0582C25.0145 58.1834 23.9026 59.1953 23.685 59.3066C23.116 59.5979 22.1155 59.5593 21.5516 59.2244C20.5945 58.6559 20.1943 57.3271 20.7003 56.397C20.9937 55.8578 24.8802 52.1284 25.3261 51.9581C25.8837 51.7452 26.6185 51.7746 27.1752 52.0319ZM32.2613 57.1343C33.2977 57.5561 33.8759 58.7357 33.5547 59.7727C33.3192 60.5331 29.2778 64.4273 28.5203 64.6237C27.2621 64.9502 25.9461 64.1101 25.805 62.8903C25.7635 62.5319 25.776 62.0582 25.8327 61.8376C25.9577 61.3511 29.8851 57.4243 30.528 57.1431C31.0966 56.8943 31.6644 56.8913 32.2613 57.1343ZM36.8135 63.4017C37.8287 63.9687 38.2133 65.2325 37.6949 66.297C37.5669 66.56 36.9132 67.2883 36.2425 67.9158C35.3416 68.7583 34.8855 69.0816 34.4972 69.1526C33.6817 69.3015 32.946 69.103 32.4217 68.5922C31.972 68.154 31.5853 67.2442 31.6967 66.8863C31.7256 66.7941 31.7918 66.5303 31.844 66.3002C31.9005 66.0508 32.3937 65.4233 33.0651 64.7468C34.7026 63.0966 35.6552 62.7549 36.8135 63.4017Z" fill="#A21D34"/>
</svg>
