<svg width="72" height="70" viewBox="0 0 72 70" fill="none" xmlns="http://www.w3.org/2000/svg">
<path fill-rule="evenodd" clip-rule="evenodd" d="M33.5204 0.03433C33.2496 0.0652597 32.4267 0.153943 31.6917 0.231678C25.0676 0.931566 18.3062 3.77888 12.9812 8.11096L11.5579 9.26878L10.5744 8.44312C9.5417 7.57626 9.14643 7.45323 8.42437 7.77334C7.66997 8.10768 7.63733 8.36689 7.63733 14.0158C7.63733 17.3664 7.69092 19.3593 7.78855 19.6315C7.87168 19.8636 8.10899 20.1652 8.31606 20.3019C8.66407 20.5319 9.11449 20.5505 14.3251 20.5505C19.5151 20.5505 19.9885 20.531 20.3451 20.3039C20.8475 19.9836 21.0611 19.4438 20.9086 18.8796C20.8366 18.6133 20.2702 17.896 19.4697 17.0573C18.7436 16.2967 18.2055 15.6292 18.274 15.5741C19.6316 14.4813 20.1456 14.1033 21.2119 13.4142C29.1042 8.31269 38.8607 7.60774 47.4905 11.5154C52.0262 13.5692 56.22 17.2591 58.8928 21.5475C60.2951 23.7976 61.2451 26.0346 61.9272 28.6935C62.5163 30.9901 62.6947 32.4528 62.6947 34.9889C62.6947 37.525 62.5163 38.9878 61.9272 41.2844C59.9408 49.0272 54.365 55.5162 46.9543 58.7096C40.0006 61.7059 32.1043 61.7059 25.1506 58.7096C19.2967 56.187 14.264 51.2907 11.6711 45.5954C10.3551 42.7043 9.697 40.0788 9.41932 36.6101C9.25277 34.5303 9.229 34.4225 8.86016 34.0635L8.47501 33.6888H4.66852H0.862159L0.43115 34.1582L0 34.6275L0.0893247 36.4163C0.540168 45.4448 4.05239 53.2751 10.4891 59.6016C13.4118 62.4743 16.3534 64.5465 20.0266 66.3205C26.5512 69.4715 33.6006 70.6152 40.7817 69.6879C46.1827 68.9903 51.5273 67.042 55.9552 64.1564C57.9156 62.8789 57.973 62.8279 58.0805 62.2709C58.2058 61.6207 57.923 61.0539 57.3388 60.7842C56.6894 60.4843 56.4031 60.5723 55.0146 61.4987C49.3906 65.2507 43.0413 67.1724 36.2634 67.1745C33.4437 67.1753 31.9975 67.0486 29.5817 66.5893C17.0651 64.2096 7.01825 54.9719 3.89892 42.975C3.47142 41.3312 3.1559 39.4592 2.9276 37.2129L2.84067 36.3575H4.66992H6.49918L6.57022 36.8023C6.60932 37.047 6.68177 37.6782 6.73142 38.2051C7.60498 47.4808 13.9805 56.3697 22.8433 60.6684C27.0464 62.707 31.1467 63.6247 36.0524 63.6247C40.9581 63.6247 45.0585 62.707 49.2615 60.6684C52.1441 59.2703 54.1848 57.8471 56.6375 55.5242C61.3738 51.0389 64.1994 45.6513 65.2544 39.0946C65.569 37.1403 65.569 32.8375 65.2544 30.8832C64.1994 24.3265 61.3738 18.939 56.6375 14.4536C54.1803 12.1265 52.2146 10.7572 49.2753 9.32489C45.0569 7.26943 40.9802 6.35317 36.0524 6.35317C33.1345 6.35317 31.5301 6.52889 28.9487 7.13134C24.0589 8.27259 18.7014 11.1536 15.6203 14.2987C14.9123 15.0213 14.8114 15.1924 14.8114 15.6708C14.8114 16.1371 14.9169 16.3297 15.5288 16.9811L16.2464 17.7449H13.3485H10.4507V14.9358V12.1268L10.8657 12.3355C11.6993 12.7548 12.0697 12.6145 13.4453 11.3585C17.4481 7.70327 22.436 5.05083 27.8032 3.72332C30.8288 2.97498 32.6209 2.76737 36.0524 2.76737C39.4839 2.76737 41.276 2.97498 44.3017 3.72332C56.5541 6.75375 66.0121 16.4465 68.5334 28.5566C69.2466 31.9818 69.375 36.5194 68.8501 39.738C68.0058 44.9139 66.2689 49.1857 63.251 53.5093C62.6821 54.3241 62.2168 55.1361 62.2168 55.3137C62.2168 55.8769 62.4721 56.3185 62.9313 56.5496C63.573 56.8724 64.204 56.716 64.7655 56.0949C66.2592 54.4426 68.8548 49.7888 69.9401 46.817C70.7042 44.7247 71.399 41.9671 71.7308 39.7105C72.1153 37.0952 72.0833 32.3124 71.6644 29.7957C71.0225 25.9394 69.9955 22.8053 68.2566 19.3973C66.4332 15.8237 64.3032 12.9617 61.3506 10.1183C55.6261 4.60536 48.5465 1.23731 40.5538 0.224288C39.3202 0.0679969 34.3925 -0.0651653 33.5204 0.03433ZM19.5388 27.935C18.5697 28.2063 17.4504 29.0006 16.8652 29.8324C16.2935 30.6448 15.8698 32.0673 15.9994 32.739C16.1024 33.2726 16.7899 33.8941 17.2774 33.8941C18.0696 33.8941 18.7502 33.2532 18.7502 32.507C18.7502 32.339 18.8806 31.9392 19.0399 31.6189C19.6675 30.3578 21.6472 30.092 22.6072 31.1401C23.0169 31.5875 23.0707 32.7443 22.7177 33.5204C22.0753 34.9332 20.3318 36.8075 17.8357 38.7688C16.0959 40.1357 16.0135 40.2322 16.0135 40.9051C16.0135 41.3459 16.1001 41.5244 16.4698 41.8457L16.926 42.2424H21.3617C26.0762 42.2424 26.4152 42.1999 26.7641 41.5656C26.95 41.2276 26.95 40.52 26.7641 40.182C26.4545 39.6191 25.922 39.5052 23.5986 39.5052H21.3997L22.7494 38.0682C24.8749 35.8051 25.6118 34.5188 25.7451 32.8389C25.9132 30.721 24.9425 29.0252 23.1026 28.2219C22.0622 27.7676 20.5669 27.6473 19.5388 27.935ZM31.4807 27.894C31.0639 28.1366 31.0407 28.1725 28.6006 32.3251C26.2119 36.3905 26.0939 36.6928 26.6339 37.3608C27.05 37.8752 27.7057 37.9981 30.0388 37.999L32.1137 37.9998V39.5805C32.1137 41.3626 32.2663 41.8269 32.9418 42.0991C33.4852 42.318 34.1026 42.1801 34.5225 41.7457C34.8306 41.427 34.8604 41.2682 34.903 39.7143L34.9494 38.0287L35.7016 37.9372C37.7755 37.685 37.777 35.4407 35.7033 35.1886C34.9812 35.1009 34.9494 35.0792 34.8604 34.6178C34.6152 33.3461 32.9223 33.0436 32.3261 34.165C32.2094 34.3848 32.1137 34.691 32.1137 34.8452C32.1137 35.0992 32.0273 35.1258 31.1994 35.1258C30.6965 35.1258 30.285 35.087 30.285 35.0396C30.285 34.9922 30.985 33.7621 31.8405 32.3062C32.6961 30.8504 33.4309 29.4503 33.4735 29.1951C33.6238 28.2943 32.2893 27.423 31.4807 27.894ZM43.5617 27.9521C43.3206 28.0679 43.0521 28.3145 42.9652 28.5004C42.4415 29.6186 38.1625 40.6272 38.1625 40.8563C38.1625 41.5989 38.8439 42.2424 39.6303 42.2424C40.4745 42.2424 40.691 41.8333 43.1794 35.5364C44.7206 31.6363 45.5336 29.4012 45.5366 29.0559C45.5403 28.6309 45.4526 28.4517 45.0849 28.1321C44.5734 27.6873 44.2043 27.6438 43.5617 27.9521ZM48.1654 27.9265C47.4998 28.2854 47.2779 29.0739 47.647 29.7685C47.9676 30.3716 48.3936 30.4726 50.6183 30.4726C51.7364 30.4726 52.6513 30.5125 52.6513 30.5612C52.6513 30.6099 51.7968 32.8852 50.7523 35.6172C49.7078 38.3495 48.8533 40.7086 48.8533 40.8597C48.8533 41.599 49.5364 42.2424 50.3212 42.2424C51.1766 42.2424 51.3794 41.8512 53.7992 35.5364C55.2486 31.7533 56.0823 29.3909 56.0858 29.0559C56.0903 28.6304 56.0033 28.4521 55.6351 28.1321L55.1789 27.7355L51.8402 27.7403C49.3397 27.744 48.4172 27.7906 48.1654 27.9265ZM59.8409 57.6246C59.055 58.0483 58.9121 58.9796 59.5298 59.6521C59.8671 60.0194 60.0393 60.0961 60.5288 60.0961C61.0183 60.0961 61.1905 60.0194 61.5278 59.6521C61.9902 59.1488 62.0431 58.6795 61.7013 58.1164C61.3082 57.469 60.5171 57.2598 59.8409 57.6246Z" fill="#A21D34"/>
</svg>
