<svg width="16" height="15" viewBox="0 0 16 15" fill="none" xmlns="http://www.w3.org/2000/svg">
<path d="M3.1354 0C1.41118 0 0 1.32295 0 2.93944V12.061C0 13.6775 1.41114 15 3.1354 15H12.8651C14.5894 15 16 13.6775 16 12.061V2.93944C16 1.32298 14.5894 0 12.8651 0H3.1354ZM3.924 2.4753C4.75073 2.4753 5.25996 2.98411 5.27568 3.65294C5.27568 4.307 4.7507 4.83012 3.90801 4.83012H3.8925C3.08151 4.83012 2.55733 4.30703 2.55733 3.65294C2.55733 2.98413 3.09737 2.4753 3.92399 2.4753H3.924ZM11.0484 5.60132C12.6384 5.60132 13.8303 6.57557 13.8303 8.6692V12.5776H11.4139V8.93124C11.4139 8.01494 11.0642 7.3898 10.1898 7.3898C9.52224 7.3898 9.12434 7.81115 8.94964 8.21819C8.88582 8.36382 8.87013 8.5672 8.87013 8.77091V12.5776H6.45383C6.45383 12.5776 6.48554 6.40075 6.45383 5.76117H8.87063V6.72645C9.19173 6.262 9.76609 5.6013 11.0484 5.6013V5.60132ZM2.69985 5.76166H5.11616V12.5777H2.69985V5.76166Z" fill="#1A1C3B"/>
</svg>
