<svg width="133" height="128" viewBox="0 0 133 128" fill="none" xmlns="http://www.w3.org/2000/svg">
<path fill-rule="evenodd" clip-rule="evenodd" d="M96.0666 62.327C90.2858 63.1707 84.8104 64.8288 79.8242 67.2459C73.0656 70.5222 71.1878 72.3657 70.2964 76.5993C69.9688 78.1551 69.9711 78.6412 70.3167 80.9746C72.1828 93.5767 78.6595 106.601 89.3332 119.216C93.2699 123.869 94.9066 125.419 96.8367 126.325C98.4482 127.08 98.7431 127.135 101.189 127.135C103.635 127.135 103.93 127.08 105.542 126.325C107.472 125.419 109.108 123.869 113.045 119.216C123.719 106.601 130.196 93.5767 132.062 80.9746C132.407 78.6412 132.41 78.1551 132.082 76.5993C131.626 74.4329 131.035 73.263 129.601 71.6876C126.892 68.7102 117.656 64.5521 110.318 63.0059C107.749 62.4644 106.548 62.3609 102.064 62.2949C99.1776 62.2523 96.4789 62.2666 96.0666 62.327ZM105.223 64.909C111.035 65.4962 116.096 67.0031 122.011 69.9072C126.376 72.0506 127.847 73.1771 128.857 75.1503C129.748 76.8925 129.84 78.7592 129.207 82.2469C126.895 94.964 119.801 107.98 108.225 120.743C105.765 123.456 104.364 124.362 102.156 124.67C100.569 124.892 98.4625 124.411 97.1006 123.518C95.2292 122.29 89.6146 115.786 85.8506 110.486C79.0891 100.964 74.8628 91.5513 73.1718 82.2469C72.5381 78.7592 72.6301 76.8925 73.5214 75.1503C74.52 73.1987 75.954 72.1009 80.3372 69.9325C88.9177 65.6878 96.9289 64.0708 105.223 64.909ZM97.8158 69.2559C91.9283 69.8805 85.1747 72.1217 79.7832 75.2404C77.3241 76.6626 77.0093 77.3429 77.4343 80.3166C79.1021 91.9864 86.5388 105.863 97.4262 117.621C100.626 121.077 101.697 121.118 104.706 117.899C110.364 111.845 115.942 103.96 119.395 97.1334C122.05 91.8842 124.239 85.2488 124.944 80.3166C125.369 77.3429 125.054 76.6626 122.595 75.2404C118.251 72.7277 113.037 70.7615 108.303 69.8508C105.642 69.3388 100.033 69.0208 97.8158 69.2559ZM108.686 72.5265C112.218 73.3566 114.621 74.2393 118.653 76.1887L122.497 78.048L122.34 79.7254C121.814 85.3347 118.498 94.0201 114.157 101.159C111.05 106.269 105.032 114.087 102.069 116.865L101.144 117.731L99.38 115.875C91.8483 107.951 85.1687 97.3084 82.1279 88.3861C81.0844 85.3248 79.9492 80.4606 79.9492 79.0515V78.0477L83.1352 76.4552C87.6648 74.1911 91.2054 72.9557 95.3169 72.2048C98.2421 71.6705 105.819 71.8529 108.686 72.5265ZM98.986 84.4213C96.3609 85.3191 94.6947 87.734 94.7002 90.6324C94.7057 93.6064 96.28 95.7421 99.2526 96.8082C99.9125 97.0448 99.9398 97.1227 99.9398 98.7754C99.9398 100.599 100.278 101.274 101.189 101.274C102.101 101.274 102.439 100.599 102.439 98.7754C102.439 97.1227 102.466 97.0448 103.126 96.8082C104.381 96.3578 105.027 95.9613 105.89 95.112C107.132 93.8892 107.675 92.5298 107.678 90.6324C107.684 87.6677 105.863 85.1313 103.158 84.3356C101.48 83.8422 100.627 83.8597 98.986 84.4213ZM103.719 87.5548C105.208 88.9414 105.56 90.671 104.695 92.3497C103.287 95.0843 99.2911 95.1563 97.7575 92.4746C96.8467 90.8821 97.0756 89.2097 98.394 87.8226C99.3228 86.8453 99.8438 86.6659 101.502 86.7527C102.689 86.8151 103.074 86.9542 103.719 87.5548Z" fill="#A199FF"/>
<path fill-rule="evenodd" clip-rule="evenodd" d="M6.35915 0.590905C2.93355 2.00372 0.819243 4.59094 0.249672 8.06694C-0.0854294 10.111 -0.0821092 118.028 0.252993 120.073C0.765351 123.2 2.86561 125.932 5.82023 127.316L7.28068 128H41.6337H75.9868L77.3915 127.28C80.0039 125.942 81.0539 124.422 80.0553 123.424C79.4624 122.831 79.0219 122.925 77.7205 123.918C75.4277 125.667 77.4375 125.575 41.506 125.575C5.06242 125.575 7.33253 125.691 5.19166 123.719C4.56104 123.138 3.79608 122.198 3.49189 121.63C2.95041 120.62 2.93713 120.343 2.86536 108.665L2.7918 96.7318H32.2506C54.8222 96.7318 61.781 96.6601 62.0157 96.4255C62.4108 96.0306 62.4108 94.8805 62.0157 94.4856C61.781 94.251 54.8243 94.1793 32.2601 94.1793H2.81095V79.7576V65.336H8.2842C12.9192 65.336 13.8187 65.2745 14.1587 64.935C14.6251 64.4686 14.6665 63.9696 14.2956 63.2771C14.0466 62.8121 13.7061 62.7835 8.4211 62.7835H2.81095V48.3618V33.9402H41.506H80.2011V46.1353C80.2011 59.4083 80.2072 59.4652 81.6145 59.4652C83.0857 59.4652 83.029 60.5883 82.9529 32.8911L82.8829 7.52172L82.2865 6.0451C81.5032 4.10545 79.4034 1.84801 77.4753 0.872446L75.9868 0.119457L41.8891 0.0597286L7.79151 0L6.35915 0.590905ZM75.24 2.91879C77.1673 3.49081 78.521 4.62616 79.4208 6.42568L80.2011 7.98603V19.687V31.3877H41.4966H2.7918L2.86536 19.4547C2.93713 7.7734 2.95041 7.50028 3.49163 6.50072C4.33092 4.9511 5.91908 3.55998 7.45258 3.03059C8.74548 2.58441 10.4343 2.56067 41.3957 2.55276C69.3044 2.54561 74.1596 2.59794 75.24 2.91879ZM10.2889 17.4127C9.8034 18.0396 9.75129 18.5746 10.1239 19.1063C10.5004 19.6433 10.5666 19.6461 22.9521 19.6461C32.2946 19.6461 35.478 19.5698 35.7081 19.3398C36.1033 18.945 36.1033 17.7948 35.7081 17.3999C35.255 16.9471 10.6399 16.9594 10.2889 17.4127ZM51.6459 17.3999C51.4773 17.5684 51.3394 18.0049 51.3394 18.3699C51.3394 19.3286 51.7925 19.6461 53.1603 19.6461C54.9494 19.6461 55.6018 18.8434 54.7729 17.661C54.4572 17.2103 54.1262 17.0936 53.1638 17.0936C52.4975 17.0936 51.8145 17.2315 51.6459 17.3999ZM60.6801 17.4946C60.2138 17.961 60.1724 18.46 60.5432 19.1525C60.7532 19.5445 61.0842 19.6461 62.1523 19.6461C62.892 19.6461 63.635 19.5083 63.8036 19.3398C64.2334 18.9102 64.1852 17.9707 63.7088 17.4946C63.1763 16.9627 61.2127 16.9627 60.6801 17.4946ZM69.8002 17.4127C69.3146 18.0396 69.2625 18.5746 69.6352 19.1063C69.9332 19.5315 70.2803 19.6461 71.2703 19.6461C72.3288 19.6461 72.5929 19.5456 72.9453 19.008C73.3328 18.4168 73.3328 18.3229 72.9453 17.7317C72.5941 17.1962 72.3277 17.0936 71.2869 17.0936C70.5971 17.0936 69.9376 17.235 69.8002 17.4127ZM10.3625 47.2969C10.1025 47.4868 9.89866 47.955 9.89866 48.3618C9.89866 49.7792 9.77351 49.7657 22.9886 49.7657C36.2037 49.7657 36.0785 49.7792 36.0785 48.3618C36.0785 46.9444 36.2037 46.9579 22.9886 46.9579C13.2811 46.9579 10.7328 47.0264 10.3625 47.2969ZM51.7864 47.2336C51.2255 47.5601 51.1984 48.8225 51.7407 49.3647C52.3243 49.9479 54.0307 49.8839 54.6598 49.2552C54.9408 48.9744 55.1706 48.5724 55.1706 48.3618C55.1706 48.1512 54.9408 47.7492 54.6598 47.4684C54.1012 46.9102 52.5585 46.7841 51.7864 47.2336ZM60.8467 47.3554C59.6398 48.2 60.5154 49.7657 62.1945 49.7657C63.8199 49.7657 64.6922 48.3294 63.6429 47.3804C63.0542 46.8479 61.5902 46.8347 60.8467 47.3554ZM69.8737 47.2969C69.6137 47.4868 69.4099 47.955 69.4099 48.3618C69.4099 49.2823 70.0643 49.7657 71.3104 49.7657C72.3318 49.7657 73.3049 49.0809 73.3049 48.3618C73.3049 48.1512 73.0751 47.7492 72.7941 47.4684C72.1967 46.8714 70.5856 46.7767 69.8737 47.2969ZM17.676 63.0898C17.2809 63.4847 17.2809 64.6348 17.676 65.0297C17.878 65.2316 18.963 65.336 20.8628 65.336C23.6532 65.336 23.7561 65.3161 24.1614 64.6979C24.5489 64.1067 24.5489 64.0128 24.1614 63.4216C23.7561 62.8034 23.6532 62.7835 20.8628 62.7835C18.963 62.7835 17.878 62.8879 17.676 63.0898ZM33.8618 63.1845C33.6411 63.4053 33.4605 63.7991 33.4605 64.0597C33.4605 64.3204 33.6411 64.7142 33.8618 64.935C34.2183 65.2911 36.0877 65.336 50.5854 65.336H66.9079L67.3262 64.6979C67.7137 64.1067 67.7137 64.0128 67.3262 63.4216L66.9079 62.7835H50.5854C36.0877 62.7835 34.2183 62.8284 33.8618 63.1845ZM10.3625 78.6927C10.1025 78.8826 9.89866 79.3508 9.89866 79.7576C9.89866 81.175 9.77351 81.1615 22.9886 81.1615C36.2037 81.1615 36.0785 81.175 36.0785 79.7576C36.0785 78.3402 36.2037 78.3538 22.9886 78.3538C13.2811 78.3538 10.7328 78.4222 10.3625 78.6927ZM51.7407 78.7548C51.1714 79.324 51.2253 80.5719 51.8334 80.8973C53.1041 81.5768 55.1706 80.8713 55.1706 79.7576C55.1706 79.5471 54.9408 79.145 54.6598 78.8643C54.0307 78.2356 52.3243 78.1715 51.7407 78.7548ZM10.3625 110.089C10.1025 110.278 9.89866 110.747 9.89866 111.153C9.89866 112.571 9.77351 112.557 22.9886 112.557C36.2037 112.557 36.0785 112.571 36.0785 111.153C36.0785 109.736 36.2037 109.75 22.9886 109.75C13.2811 109.75 10.7328 109.818 10.3625 110.089ZM51.9072 110.147C51.1785 110.657 51.1351 111.92 51.8334 112.293C53.1041 112.973 55.1706 112.267 55.1706 111.153C55.1706 109.971 53.0793 109.326 51.9072 110.147ZM60.8467 110.147C60.1154 110.659 60.1154 111.648 60.8467 112.16C61.6303 112.709 63.1615 112.671 63.6874 112.09C64.6298 111.05 63.8008 109.75 62.1945 109.75C61.7654 109.75 61.1588 109.929 60.8467 110.147Z" fill="white"/>
</svg>
