<svg width="35" height="33" viewBox="0 0 35 33" fill="none" xmlns="http://www.w3.org/2000/svg">
<path d="M6.85869 0C3.08695 0 0 2.91049 0 6.46677V26.5343C0 30.0905 3.08688 33 6.85869 33H28.1424C31.9142 33 35 30.0905 35 26.5343V6.46677C35 2.91055 31.9142 0 28.1424 0H6.85869Z" fill="white"/>
<path d="M29 11.9298V22.3462C29 23.3152 28.6378 24.2446 27.9932 24.9298C27.3485 25.615 26.4742 26 25.5625 26H10.4375C9.52582 26 8.65148 25.615 8.00682 24.9298C7.36216 24.2446 7 23.3152 7 22.3462V11.9298L17.6508 18.5915C17.7566 18.6578 17.8772 18.6928 18 18.6928C18.1228 18.6928 18.2434 18.6578 18.3492 18.5915L29 11.9298ZM25.5625 7C26.4083 6.99986 27.2245 7.33119 27.8549 7.93062C28.4853 8.53005 28.8857 9.35548 28.9794 10.249L18 17.1138L7.02063 10.249C7.11434 9.35548 7.5147 8.53005 8.14509 7.93062C8.77549 7.33119 9.59167 6.99986 10.4375 7H25.5625Z" fill="#1A1C3B"/>
</svg>
