<svg width="469" height="117" viewBox="0 0 469 117" fill="none" xmlns="http://www.w3.org/2000/svg">
<path fill-rule="evenodd" clip-rule="evenodd" d="M440.927 36.8146C425.599 57.0623 412.918 73.6373 412.747 73.6479C412.576 73.658 406.889 66.3 400.107 57.2963L387.778 40.9259H383.097C380.523 40.9259 378.417 41.0405 378.417 41.1806C378.417 41.3207 384.878 49.9999 392.776 60.4678C400.674 70.9362 407.24 79.7752 407.368 80.1108C407.496 80.4464 401.617 88.6128 394.303 98.2583C386.989 107.904 380.84 116.067 380.638 116.398C380.353 116.867 381.546 117 386.031 117H391.791L401.985 101.595L412.179 86.19L423.772 101.595L435.365 117H440.098C442.701 117 444.831 116.922 444.831 116.826C444.831 116.731 438.503 108.257 430.769 97.9964L416.707 79.3404L442.954 39.6702C457.39 17.8514 469.111 0 468.999 0C468.888 0 456.256 16.5663 440.927 36.8146ZM6.10352e-05 79.9168V115.074H7.40594H14.8118L14.8051 112.546C14.8013 111.156 14.4821 98.983 14.0956 85.4957C13.7095 72.008 13.4687 60.8963 13.5609 60.8034C13.6933 60.6705 24.2311 91.7319 30.7478 111.463L31.8611 114.833L39.7013 114.957L47.541 115.08L53.4987 96.4196C56.7755 86.1563 60.7034 73.9676 62.2276 69.3333L64.9989 60.9074L64.7461 75.5926C64.6066 83.6694 64.3557 95.8572 64.1885 102.676L63.8842 115.074H71.1214H78.3591V79.9259V44.7778H67.6354H56.9121L48.1932 71.5C43.398 86.1972 39.3544 98.2169 39.2078 98.2102C39.0606 98.2035 35.0576 86.2324 30.3111 71.6083L21.6821 45.0185L10.8408 44.889L6.10352e-05 44.7595V79.9168ZM149.551 79.9259V115.074H164.578C173.703 115.074 180.6 114.865 182.137 114.542C194.005 112.048 200.84 101.523 200.07 86.9271C199.664 79.249 196.967 73.1351 192.002 68.6357C187.735 64.7699 182.733 63.5647 170.933 63.5594L163.407 63.5556V54.1667V44.7778H156.479H149.551V79.9259ZM208.426 51.1574L208.559 57.537H215.487H222.415L222.549 51.1574L222.682 44.7778H215.487H208.293L208.426 51.1574ZM256.881 45.5481C246.434 47.45 240.175 52.4492 237.285 61.2006C235.514 66.5624 235.077 73.2829 235.077 95.1764V115.074H242.244H249.411V100.63V86.1852H270.195H290.98V80.1667V74.1481H270.166H249.352L249.664 71.8611C250.649 64.6418 252.686 61.1708 257.31 58.8375C260.592 57.1812 264.327 56.8148 277.928 56.8148H290.98V50.7963V44.7778L275.809 44.8211C264.949 44.8519 259.572 45.0585 256.881 45.5481ZM299.58 51.037V57.2963H306.508H313.436V51.037V44.7778H306.508H299.58V51.037ZM107.567 63.3346C98.1858 65.3857 90.9653 72.2367 88.6504 81.2827C87.6413 85.2266 87.6336 93.6159 88.6356 97.461C90.9405 106.305 97.9178 113.235 106.594 115.296C110.186 116.149 118.324 116.262 121.935 115.509C128.91 114.054 135.476 109.04 138.493 102.864C142.437 94.7912 142.355 83.6107 138.292 75.5319C136.5 71.9666 131.841 67.4324 128.05 65.5624C122.325 62.739 114.289 61.8646 107.567 63.3346ZM208.32 89.3148V115.074H215.487H222.654V89.3148V63.5556H215.487H208.32V89.3148ZM299.58 89.3148V115.074H306.508H313.436V89.3148V63.5556H306.508H299.58V89.3148ZM325.221 73.2728C325.047 78.6534 324.905 90.26 324.905 99.0648L324.903 115.074H331.587H338.271L338.396 94.9722L338.521 74.8704L342.745 74.7307C349.3 74.5136 354.838 75.2671 356.205 76.5613C358.066 78.3231 358.349 81.2514 358.349 98.7273V115.074H365.077H371.804L371.613 95.9352C371.451 79.7136 371.3 76.4227 370.623 74.3465C369.073 69.5876 366.283 66.7146 361.439 64.8888C358.728 63.8666 357.778 63.8064 342.061 63.6519L325.535 63.4896L325.221 73.2728ZM118.246 74.204C121.667 75.1612 124.02 77.2171 125.752 80.7613C127.238 83.8023 127.333 84.3021 127.333 89.0635C127.333 95.5644 126.394 98.4967 123.323 101.578C120.858 104.051 118.527 104.963 114.672 104.963C109.362 104.963 105.698 102.66 103.353 97.8486C102.117 95.3121 102.01 94.6511 102.01 89.5469C102.01 84.2434 102.079 83.8606 103.592 80.7623C104.52 78.8609 105.846 77.0057 106.803 76.2705C109.836 73.9392 114.371 73.1202 118.246 74.204ZM179.786 76.0413C184.437 78.3125 186.111 81.964 186.09 89.7963C186.071 97.2761 184.687 100.423 180.428 102.678C178.708 103.59 177.504 103.746 170.933 103.911L163.407 104.101V89.3129V74.5247L170.455 74.7254C176.6 74.9002 177.795 75.0687 179.786 76.0413Z" fill="white"/>
</svg>
