<svg width="252" height="159" viewBox="0 0 252 159" fill="none" xmlns="http://www.w3.org/2000/svg">
<rect y="8.42188" width="251.797" height="149.899" rx="24.472" fill="white"/>
<rect x="27.79" y="63.1602" width="24.4218" height="52.212" rx="8.42129" fill="#F4F4F4"/>
<rect x="63.1592" y="35.3691" width="26.106" height="80.0023" rx="8.42129" fill="#F4F4F4"/>
<rect x="134.74" y="44.6328" width="26.106" height="70.7389" rx="8.42129" fill="#F4F4F4"/>
<rect x="170.109" y="21.0527" width="26.106" height="94.3185" rx="8.42129" fill="#F4F4F4"/>
<rect x="100.213" y="66.5293" width="26.106" height="48.8435" rx="8.42129" fill="#F4F4F4"/>
<path d="M26.7578 101.941C33.7736 91.7566 52.5042 74.4436 71.3001 86.6645C75.3791 89.5288 85.4949 95.1618 93.3265 94.7799C95.1213 95.2572 100.081 94.9708 105.563 90.0061C112.416 83.8001 120.737 86.187 124.653 90.9608C128.569 95.7346 134.932 100.031 143.253 93.8251C151.574 87.6192 163.811 69.4787 175.558 68.0466C184.956 66.9008 192.527 70.7517 195.137 72.8204C198.074 75.0482 205.221 77.6898 210.311 70.4336" stroke="url(#paint0_linear_485_866)" stroke-width="2.52639" stroke-linecap="round"/>
<path d="M175.031 59.4497C169.126 51.8041 155.992 33.2737 155.992 22.8653C155.992 10.237 165.716 0 177.712 0C189.704 0 199.432 10.237 199.432 22.8653C199.432 33.2737 186.197 51.8041 180.393 59.4497C179.002 61.2718 176.423 61.2718 175.031 59.4497V59.4497ZM177.712 30.487C181.706 30.487 184.952 27.0692 184.952 22.8653C184.952 18.6614 181.706 15.2435 177.712 15.2435C173.719 15.2435 170.472 18.6614 170.472 22.8653C170.472 27.0692 173.719 30.487 177.712 30.487Z" fill="url(#paint1_linear_485_866)"/>
<circle cx="178.216" cy="67.8372" r="3.00907" fill="url(#paint2_linear_485_866)"/>
<path d="M161.241 130H167.187V129.037H163.347L166.031 126.305C166.36 125.968 166.629 125.587 166.838 125.161C167.046 124.736 167.151 124.307 167.151 123.874C167.151 123.617 167.098 123.348 166.994 123.067C166.89 122.786 166.729 122.525 166.513 122.285C166.296 122.036 166.019 121.835 165.682 121.683C165.345 121.522 164.944 121.442 164.478 121.442C163.901 121.442 163.403 121.571 162.986 121.827C162.577 122.076 162.264 122.429 162.047 122.887C161.831 123.336 161.722 123.861 161.722 124.463H162.745C162.745 124.038 162.813 123.673 162.95 123.368C163.086 123.055 163.283 122.818 163.54 122.658C163.804 122.489 164.117 122.405 164.478 122.405C164.735 122.405 164.964 122.449 165.165 122.538C165.365 122.626 165.534 122.742 165.67 122.887C165.815 123.031 165.923 123.191 165.995 123.368C166.067 123.545 166.103 123.725 166.103 123.91C166.103 124.134 166.067 124.351 165.995 124.56C165.931 124.76 165.831 124.961 165.694 125.161C165.566 125.354 165.409 125.551 165.225 125.751L161.241 130ZM169.357 125.787C169.357 125.298 169.405 124.848 169.502 124.439C169.598 124.022 169.738 123.665 169.923 123.368C170.107 123.063 170.328 122.83 170.585 122.67C170.85 122.501 171.143 122.417 171.464 122.417C171.793 122.417 172.085 122.501 172.342 122.67C172.599 122.83 172.82 123.063 173.004 123.368C173.189 123.665 173.329 124.022 173.425 124.439C173.522 124.848 173.57 125.298 173.57 125.787C173.57 126.277 173.522 126.73 173.425 127.147C173.329 127.557 173.189 127.914 173.004 128.219C172.82 128.516 172.599 128.748 172.342 128.917C172.085 129.077 171.793 129.157 171.464 129.157C171.143 129.157 170.85 129.077 170.585 128.917C170.328 128.748 170.107 128.516 169.923 128.219C169.738 127.914 169.598 127.557 169.502 127.147C169.405 126.73 169.357 126.277 169.357 125.787ZM168.334 125.787C168.334 126.63 168.467 127.376 168.731 128.026C168.996 128.676 169.361 129.19 169.827 129.567C170.3 129.936 170.846 130.12 171.464 130.12C172.081 130.12 172.623 129.936 173.088 129.567C173.562 129.19 173.931 128.676 174.196 128.026C174.461 127.376 174.593 126.63 174.593 125.787C174.593 124.945 174.461 124.199 174.196 123.549C173.931 122.899 173.562 122.389 173.088 122.02C172.623 121.643 172.081 121.454 171.464 121.454C170.846 121.454 170.3 121.643 169.827 122.02C169.361 122.389 168.996 122.899 168.731 123.549C168.467 124.199 168.334 124.945 168.334 125.787ZM176.574 125.787C176.574 125.298 176.622 124.848 176.719 124.439C176.815 124.022 176.955 123.665 177.14 123.368C177.325 123.063 177.545 122.83 177.802 122.67C178.067 122.501 178.36 122.417 178.681 122.417C179.01 122.417 179.303 122.501 179.559 122.67C179.816 122.83 180.037 123.063 180.221 123.368C180.406 123.665 180.546 124.022 180.643 124.439C180.739 124.848 180.787 125.298 180.787 125.787C180.787 126.277 180.739 126.73 180.643 127.147C180.546 127.557 180.406 127.914 180.221 128.219C180.037 128.516 179.816 128.748 179.559 128.917C179.303 129.077 179.01 129.157 178.681 129.157C178.36 129.157 178.067 129.077 177.802 128.917C177.545 128.748 177.325 128.516 177.14 128.219C176.955 127.914 176.815 127.557 176.719 127.147C176.622 126.73 176.574 126.277 176.574 125.787ZM175.551 125.787C175.551 126.63 175.684 127.376 175.948 128.026C176.213 128.676 176.578 129.19 177.044 129.567C177.517 129.936 178.063 130.12 178.681 130.12C179.299 130.12 179.84 129.936 180.306 129.567C180.779 129.19 181.148 128.676 181.413 128.026C181.678 127.376 181.81 126.63 181.81 125.787C181.81 124.945 181.678 124.199 181.413 123.549C181.148 122.899 180.779 122.389 180.306 122.02C179.84 121.643 179.299 121.454 178.681 121.454C178.063 121.454 177.517 121.643 177.044 122.02C176.578 122.389 176.213 122.899 175.948 123.549C175.684 124.199 175.551 124.945 175.551 125.787ZM182.407 122.538H184.574V130H185.597V122.538H187.763V121.575H182.407V122.538ZM188.723 132.648V124.463H187.761V132.648H188.723ZM193.357 127.232C193.357 126.63 193.233 126.116 192.984 125.691C192.736 125.258 192.403 124.925 191.985 124.692C191.576 124.459 191.119 124.343 190.613 124.343C190.156 124.343 189.751 124.459 189.397 124.692C189.052 124.925 188.78 125.258 188.579 125.691C188.386 126.116 188.29 126.63 188.29 127.232C188.29 127.825 188.386 128.339 188.579 128.772C188.78 129.206 189.052 129.539 189.397 129.771C189.751 130.004 190.156 130.12 190.613 130.12C191.119 130.12 191.576 130.004 191.985 129.771C192.403 129.539 192.736 129.206 192.984 128.772C193.233 128.339 193.357 127.825 193.357 127.232ZM192.382 127.232C192.382 127.657 192.294 128.018 192.118 128.315C191.949 128.612 191.72 128.836 191.432 128.989C191.151 129.141 190.838 129.218 190.493 129.218C190.212 129.218 189.935 129.141 189.662 128.989C189.389 128.836 189.165 128.612 188.988 128.315C188.812 128.018 188.723 127.657 188.723 127.232C188.723 126.806 188.812 126.445 188.988 126.148C189.165 125.851 189.389 125.627 189.662 125.474C189.935 125.322 190.212 125.246 190.493 125.246C190.838 125.246 191.151 125.322 191.432 125.474C191.72 125.627 191.949 125.851 192.118 126.148C192.294 126.445 192.382 126.806 192.382 127.232ZM194.914 128.303L194.156 128.772C194.26 128.989 194.412 129.202 194.613 129.41C194.822 129.619 195.074 129.791 195.371 129.928C195.668 130.056 196.001 130.12 196.37 130.12C196.94 130.12 197.397 129.96 197.742 129.639C198.095 129.318 198.272 128.917 198.272 128.435C198.272 128.106 198.192 127.837 198.031 127.629C197.879 127.42 197.67 127.244 197.405 127.099C197.141 126.947 196.848 126.806 196.527 126.678C196.334 126.598 196.15 126.513 195.973 126.425C195.797 126.337 195.652 126.237 195.54 126.124C195.427 126.012 195.371 125.884 195.371 125.739C195.371 125.555 195.443 125.418 195.588 125.33C195.732 125.242 195.905 125.198 196.105 125.198C196.394 125.198 196.651 125.266 196.876 125.402C197.108 125.539 197.301 125.711 197.454 125.92L198.224 125.426C198.111 125.218 197.955 125.033 197.754 124.873C197.554 124.712 197.321 124.584 197.056 124.487C196.8 124.391 196.523 124.343 196.226 124.343C195.929 124.343 195.64 124.395 195.359 124.499C195.086 124.604 194.862 124.764 194.685 124.981C194.517 125.198 194.432 125.47 194.432 125.799C194.432 126.12 194.513 126.389 194.673 126.606C194.842 126.814 195.046 126.987 195.287 127.123C195.536 127.252 195.78 127.364 196.021 127.46C196.238 127.541 196.442 127.629 196.635 127.725C196.828 127.813 196.984 127.926 197.104 128.062C197.233 128.191 197.297 128.351 197.297 128.544C197.297 128.76 197.217 128.933 197.056 129.061C196.904 129.182 196.691 129.242 196.418 129.242C196.194 129.242 195.985 129.202 195.792 129.121C195.608 129.033 195.443 128.917 195.299 128.772C195.155 128.628 195.026 128.471 194.914 128.303Z" fill="#C9C9C9"/>
<path d="M24.541 123.134L26.4067 122.58V129.898H27.4297V121.353L24.541 122.075V123.134ZM30.5013 125.686C30.5013 125.196 30.5495 124.747 30.6458 124.338C30.7421 123.92 30.8825 123.563 31.067 123.266C31.2516 122.962 31.4723 122.729 31.729 122.568C31.9938 122.4 32.2867 122.316 32.6077 122.316C32.9367 122.316 33.2296 122.4 33.4863 122.568C33.7431 122.729 33.9638 122.962 34.1483 123.266C34.3329 123.563 34.4733 123.92 34.5696 124.338C34.6659 124.747 34.714 125.196 34.714 125.686C34.714 126.175 34.6659 126.629 34.5696 127.046C34.4733 127.455 34.3329 127.812 34.1483 128.117C33.9638 128.414 33.7431 128.647 33.4863 128.815C33.2296 128.976 32.9367 129.056 32.6077 129.056C32.2867 129.056 31.9938 128.976 31.729 128.815C31.4723 128.647 31.2516 128.414 31.067 128.117C30.8825 127.812 30.7421 127.455 30.6458 127.046C30.5495 126.629 30.5013 126.175 30.5013 125.686ZM29.4783 125.686C29.4783 126.528 29.6107 127.275 29.8755 127.924C30.1403 128.574 30.5054 129.088 30.9708 129.465C31.4442 129.834 31.9898 130.019 32.6077 130.019C33.2256 130.019 33.7672 129.834 34.2326 129.465C34.706 129.088 35.0751 128.574 35.3399 127.924C35.6047 127.275 35.7371 126.528 35.7371 125.686C35.7371 124.843 35.6047 124.097 35.3399 123.447C35.0751 122.797 34.706 122.287 34.2326 121.918C33.7672 121.541 33.2256 121.353 32.6077 121.353C31.9898 121.353 31.4442 121.541 30.9708 121.918C30.5054 122.287 30.1403 122.797 29.8755 123.447C29.6107 124.097 29.4783 124.843 29.4783 125.686ZM36.3342 122.436H38.5008V129.898H39.5239V122.436H41.6904V121.473H36.3342V122.436ZM42.6505 132.546V124.362H41.6876V132.546H42.6505ZM47.2844 127.13C47.2844 126.528 47.1601 126.015 46.9113 125.589C46.6626 125.156 46.3296 124.823 45.9123 124.59C45.5031 124.358 45.0457 124.241 44.5402 124.241C44.0828 124.241 43.6776 124.358 43.3245 124.59C42.9795 124.823 42.7066 125.156 42.506 125.589C42.3135 126.015 42.2172 126.528 42.2172 127.13C42.2172 127.724 42.3135 128.237 42.506 128.671C42.7066 129.104 42.9795 129.437 43.3245 129.67C43.6776 129.902 44.0828 130.019 44.5402 130.019C45.0457 130.019 45.5031 129.902 45.9123 129.67C46.3296 129.437 46.6626 129.104 46.9113 128.671C47.1601 128.237 47.2844 127.724 47.2844 127.13ZM46.3095 127.13C46.3095 127.555 46.2212 127.916 46.0447 128.213C45.8762 128.51 45.6475 128.735 45.3586 128.887C45.0778 129.04 44.7648 129.116 44.4198 129.116C44.139 129.116 43.8621 129.04 43.5893 128.887C43.3165 128.735 43.0918 128.51 42.9153 128.213C42.7387 127.916 42.6505 127.555 42.6505 127.13C42.6505 126.705 42.7387 126.344 42.9153 126.047C43.0918 125.75 43.3165 125.525 43.5893 125.373C43.8621 125.22 44.139 125.144 44.4198 125.144C44.7648 125.144 45.0778 125.22 45.3586 125.373C45.6475 125.525 45.8762 125.75 46.0447 126.047C46.2212 126.344 46.3095 126.705 46.3095 127.13ZM48.8409 128.201L48.0826 128.671C48.1869 128.887 48.3394 129.1 48.54 129.309C48.7486 129.517 49.0014 129.69 49.2983 129.826C49.5952 129.955 49.9282 130.019 50.2973 130.019C50.867 130.019 51.3244 129.858 51.6694 129.537C52.0225 129.216 52.199 128.815 52.199 128.334C52.199 128.005 52.1188 127.736 51.9583 127.527C51.8058 127.319 51.5972 127.142 51.3324 126.998C51.0676 126.845 50.7747 126.705 50.4537 126.576C50.2612 126.496 50.0766 126.412 49.9001 126.324C49.7235 126.235 49.5791 126.135 49.4668 126.023C49.3544 125.91 49.2983 125.782 49.2983 125.638C49.2983 125.453 49.3705 125.317 49.5149 125.228C49.6594 125.14 49.8319 125.096 50.0325 125.096C50.3213 125.096 50.5781 125.164 50.8028 125.301C51.0355 125.437 51.2281 125.61 51.3805 125.818L52.1509 125.325C52.0385 125.116 51.8821 124.931 51.6815 124.771C51.4808 124.61 51.2481 124.482 50.9833 124.386C50.7266 124.29 50.4497 124.241 50.1528 124.241C49.8559 124.241 49.5671 124.294 49.2862 124.398C49.0134 124.502 48.7887 124.663 48.6122 124.879C48.4437 125.096 48.3594 125.369 48.3594 125.698C48.3594 126.019 48.4397 126.288 48.6002 126.504C48.7687 126.713 48.9733 126.885 49.214 127.022C49.4628 127.15 49.7075 127.262 49.9482 127.359C50.1649 127.439 50.3695 127.527 50.5621 127.624C50.7547 127.712 50.9111 127.824 51.0315 127.961C51.1599 128.089 51.2241 128.249 51.2241 128.442C51.2241 128.659 51.1438 128.831 50.9833 128.96C50.8309 129.08 50.6182 129.14 50.3454 129.14C50.1207 129.14 49.9121 129.1 49.7195 129.02C49.535 128.932 49.3705 128.815 49.226 128.671C49.0816 128.526 48.9532 128.37 48.8409 128.201Z" fill="#C9C9C9"/>
<defs>
<linearGradient id="paint0_linear_485_866" x1="116.027" y1="36.2426" x2="133.58" y2="105.451" gradientUnits="userSpaceOnUse">
<stop stop-color="#1A1C3B"/>
<stop offset="1" stop-color="#A21D34"/>
</linearGradient>
<linearGradient id="paint1_linear_485_866" x1="135.513" y1="-53.3694" x2="193.227" y2="81.2952" gradientUnits="userSpaceOnUse">
<stop stop-color="#1A1C3B"/>
<stop offset="1" stop-color="#A21D34"/>
</linearGradient>
<linearGradient id="paint2_linear_485_866" x1="175.207" y1="61.8191" x2="180.222" y2="73.8553" gradientUnits="userSpaceOnUse">
<stop stop-color="#1A1C3B"/>
<stop offset="1" stop-color="#A21D34"/>
</linearGradient>
</defs>
</svg>
