<svg width="252" height="159" viewBox="0 0 252 159" fill="none" xmlns="http://www.w3.org/2000/svg">
<rect y="8.42188" width="251.797" height="149.899" rx="24.472" fill="white"/>
<rect x="27.7898" y="63.1604" width="24.4218" height="52.212" rx="8.42129" fill="#F4F4F4"/>
<rect x="63.1592" y="35.37" width="26.106" height="80.0023" rx="8.42129" fill="#F4F4F4"/>
<rect x="134.74" y="44.6332" width="26.106" height="70.7389" rx="8.42129" fill="#F4F4F4"/>
<rect x="170.11" y="21.0537" width="26.106" height="94.3185" rx="8.42129" fill="#F4F4F4"/>
<rect x="100.213" y="66.5289" width="26.106" height="48.8435" rx="8.42129" fill="#F4F4F4"/>
<path d="M26.7583 101.941C33.7741 91.7568 52.5047 74.4438 71.3006 86.6648C75.3796 89.529 85.4954 95.162 93.327 94.7801C95.1217 95.2575 100.082 94.9711 105.564 90.0063C112.417 83.8004 120.738 86.1873 124.653 90.9611C128.569 95.7349 134.932 100.031 143.254 93.8253C151.575 87.6194 163.812 69.4789 175.559 68.0468C184.957 66.9011 192.527 70.752 195.138 72.8206C198.075 75.0484 205.221 77.6901 210.312 70.4339" stroke="url(#paint0_linear_325_1676)" stroke-width="2.52639" stroke-linecap="round"/>
<circle cx="178.216" cy="67.8384" r="3.00907" fill="url(#paint1_linear_325_1676)"/>
<path d="M161.241 130H167.187V129.037H163.347L166.031 126.305C166.36 125.968 166.629 125.587 166.838 125.162C167.046 124.736 167.151 124.307 167.151 123.874C167.151 123.617 167.098 123.348 166.994 123.067C166.89 122.787 166.729 122.526 166.513 122.285C166.296 122.036 166.019 121.836 165.682 121.683C165.345 121.523 164.944 121.443 164.478 121.443C163.901 121.443 163.403 121.571 162.986 121.828C162.577 122.076 162.264 122.43 162.047 122.887C161.831 123.336 161.722 123.862 161.722 124.464H162.745C162.745 124.038 162.813 123.673 162.95 123.368C163.086 123.055 163.283 122.819 163.54 122.658C163.804 122.49 164.117 122.405 164.478 122.405C164.735 122.405 164.964 122.45 165.165 122.538C165.365 122.626 165.534 122.742 165.67 122.887C165.815 123.031 165.923 123.192 165.995 123.368C166.067 123.545 166.103 123.725 166.103 123.91C166.103 124.135 166.067 124.351 165.995 124.56C165.931 124.761 165.831 124.961 165.694 125.162C165.566 125.354 165.409 125.551 165.225 125.752L161.241 130ZM169.357 125.788C169.357 125.298 169.405 124.849 169.502 124.44C169.598 124.022 169.738 123.665 169.923 123.368C170.107 123.063 170.328 122.831 170.585 122.67C170.85 122.502 171.143 122.418 171.464 122.418C171.793 122.418 172.085 122.502 172.342 122.67C172.599 122.831 172.82 123.063 173.004 123.368C173.189 123.665 173.329 124.022 173.425 124.44C173.522 124.849 173.57 125.298 173.57 125.788C173.57 126.277 173.522 126.731 173.425 127.148C173.329 127.557 173.189 127.914 173.004 128.219C172.82 128.516 172.599 128.749 172.342 128.917C172.085 129.078 171.793 129.158 171.464 129.158C171.143 129.158 170.85 129.078 170.585 128.917C170.328 128.749 170.107 128.516 169.923 128.219C169.738 127.914 169.598 127.557 169.502 127.148C169.405 126.731 169.357 126.277 169.357 125.788ZM168.334 125.788C168.334 126.63 168.467 127.376 168.731 128.026C168.996 128.676 169.361 129.19 169.827 129.567C170.3 129.936 170.846 130.121 171.464 130.121C172.081 130.121 172.623 129.936 173.088 129.567C173.562 129.19 173.931 128.676 174.196 128.026C174.461 127.376 174.593 126.63 174.593 125.788C174.593 124.945 174.461 124.199 174.196 123.549C173.931 122.899 173.562 122.389 173.088 122.02C172.623 121.643 172.081 121.455 171.464 121.455C170.846 121.455 170.3 121.643 169.827 122.02C169.361 122.389 168.996 122.899 168.731 123.549C168.467 124.199 168.334 124.945 168.334 125.788ZM176.574 125.788C176.574 125.298 176.622 124.849 176.719 124.44C176.815 124.022 176.955 123.665 177.14 123.368C177.325 123.063 177.545 122.831 177.802 122.67C178.067 122.502 178.36 122.418 178.681 122.418C179.01 122.418 179.303 122.502 179.559 122.67C179.816 122.831 180.037 123.063 180.221 123.368C180.406 123.665 180.546 124.022 180.643 124.44C180.739 124.849 180.787 125.298 180.787 125.788C180.787 126.277 180.739 126.731 180.643 127.148C180.546 127.557 180.406 127.914 180.221 128.219C180.037 128.516 179.816 128.749 179.559 128.917C179.303 129.078 179.01 129.158 178.681 129.158C178.36 129.158 178.067 129.078 177.802 128.917C177.545 128.749 177.325 128.516 177.14 128.219C176.955 127.914 176.815 127.557 176.719 127.148C176.622 126.731 176.574 126.277 176.574 125.788ZM175.551 125.788C175.551 126.63 175.684 127.376 175.948 128.026C176.213 128.676 176.578 129.19 177.044 129.567C177.517 129.936 178.063 130.121 178.681 130.121C179.299 130.121 179.84 129.936 180.306 129.567C180.779 129.19 181.148 128.676 181.413 128.026C181.678 127.376 181.81 126.63 181.81 125.788C181.81 124.945 181.678 124.199 181.413 123.549C181.148 122.899 180.779 122.389 180.306 122.02C179.84 121.643 179.299 121.455 178.681 121.455C178.063 121.455 177.517 121.643 177.044 122.02C176.578 122.389 176.213 122.899 175.948 123.549C175.684 124.199 175.551 124.945 175.551 125.788ZM182.407 122.538H184.574V130H185.597V122.538H187.763V121.575H182.407V122.538ZM188.723 132.648V124.464H187.761V132.648H188.723ZM193.357 127.232C193.357 126.63 193.233 126.117 192.984 125.691C192.736 125.258 192.403 124.925 191.985 124.692C191.576 124.46 191.119 124.343 190.613 124.343C190.156 124.343 189.751 124.46 189.397 124.692C189.052 124.925 188.78 125.258 188.579 125.691C188.386 126.117 188.29 126.63 188.29 127.232C188.29 127.826 188.386 128.339 188.579 128.773C188.78 129.206 189.052 129.539 189.397 129.772C189.751 130.004 190.156 130.121 190.613 130.121C191.119 130.121 191.576 130.004 191.985 129.772C192.403 129.539 192.736 129.206 192.984 128.773C193.233 128.339 193.357 127.826 193.357 127.232ZM192.382 127.232C192.382 127.657 192.294 128.018 192.118 128.315C191.949 128.612 191.72 128.837 191.432 128.989C191.151 129.142 190.838 129.218 190.493 129.218C190.212 129.218 189.935 129.142 189.662 128.989C189.389 128.837 189.165 128.612 188.988 128.315C188.812 128.018 188.723 127.657 188.723 127.232C188.723 126.807 188.812 126.446 188.988 126.149C189.165 125.852 189.389 125.627 189.662 125.475C189.935 125.322 190.212 125.246 190.493 125.246C190.838 125.246 191.151 125.322 191.432 125.475C191.72 125.627 191.949 125.852 192.118 126.149C192.294 126.446 192.382 126.807 192.382 127.232ZM194.914 128.303L194.156 128.773C194.26 128.989 194.412 129.202 194.613 129.411C194.822 129.619 195.074 129.792 195.371 129.928C195.668 130.057 196.001 130.121 196.37 130.121C196.94 130.121 197.397 129.96 197.742 129.639C198.095 129.318 198.272 128.917 198.272 128.436C198.272 128.107 198.192 127.838 198.031 127.629C197.879 127.421 197.67 127.244 197.405 127.1C197.141 126.947 196.848 126.807 196.527 126.678C196.334 126.598 196.15 126.514 195.973 126.426C195.797 126.337 195.652 126.237 195.54 126.125C195.427 126.012 195.371 125.884 195.371 125.74C195.371 125.555 195.443 125.419 195.588 125.33C195.732 125.242 195.905 125.198 196.105 125.198C196.394 125.198 196.651 125.266 196.876 125.403C197.108 125.539 197.301 125.711 197.454 125.92L198.224 125.427C198.111 125.218 197.955 125.033 197.754 124.873C197.554 124.712 197.321 124.584 197.056 124.488C196.8 124.391 196.523 124.343 196.226 124.343C195.929 124.343 195.64 124.395 195.359 124.5C195.086 124.604 194.862 124.765 194.685 124.981C194.517 125.198 194.432 125.471 194.432 125.8C194.432 126.121 194.513 126.389 194.673 126.606C194.842 126.815 195.046 126.987 195.287 127.124C195.536 127.252 195.78 127.364 196.021 127.461C196.238 127.541 196.442 127.629 196.635 127.726C196.828 127.814 196.984 127.926 197.104 128.063C197.233 128.191 197.297 128.351 197.297 128.544C197.297 128.761 197.217 128.933 197.056 129.062C196.904 129.182 196.691 129.242 196.418 129.242C196.194 129.242 195.985 129.202 195.792 129.122C195.608 129.033 195.443 128.917 195.299 128.773C195.155 128.628 195.026 128.472 194.914 128.303Z" fill="#C9C9C9"/>
<path d="M24.5413 123.134L26.4069 122.581V129.899H27.43V121.353L24.5413 122.075V123.134ZM30.5016 125.686C30.5016 125.197 30.5497 124.747 30.646 124.338C30.7423 123.921 30.8827 123.564 31.0673 123.267C31.2518 122.962 31.4725 122.729 31.7293 122.569C31.9941 122.4 32.287 122.316 32.6079 122.316C32.9369 122.316 33.2298 122.4 33.4866 122.569C33.7434 122.729 33.964 122.962 34.1486 123.267C34.3331 123.564 34.4736 123.921 34.5699 124.338C34.6661 124.747 34.7143 125.197 34.7143 125.686C34.7143 126.176 34.6661 126.629 34.5699 127.046C34.4736 127.455 34.3331 127.813 34.1486 128.117C33.964 128.414 33.7434 128.647 33.4866 128.816C33.2298 128.976 32.9369 129.056 32.6079 129.056C32.287 129.056 31.9941 128.976 31.7293 128.816C31.4725 128.647 31.2518 128.414 31.0673 128.117C30.8827 127.813 30.7423 127.455 30.646 127.046C30.5497 126.629 30.5016 126.176 30.5016 125.686ZM29.4785 125.686C29.4785 126.529 29.6109 127.275 29.8757 127.925C30.1405 128.575 30.5056 129.088 30.971 129.465C31.4444 129.835 31.9901 130.019 32.6079 130.019C33.2258 130.019 33.7674 129.835 34.2328 129.465C34.7063 129.088 35.0754 128.575 35.3402 127.925C35.605 127.275 35.7374 126.529 35.7374 125.686C35.7374 124.844 35.605 124.097 35.3402 123.447C35.0754 122.797 34.7063 122.288 34.2328 121.919C33.7674 121.542 33.2258 121.353 32.6079 121.353C31.9901 121.353 31.4444 121.542 30.971 121.919C30.5056 122.288 30.1405 122.797 29.8757 123.447C29.6109 124.097 29.4785 124.844 29.4785 125.686ZM36.3345 122.436H38.501V129.899H39.5241V122.436H41.6906V121.473H36.3345V122.436ZM42.6507 132.547V124.362H41.6878V132.547H42.6507ZM47.2847 127.13C47.2847 126.529 47.1603 126.015 46.9116 125.59C46.6628 125.157 46.3298 124.824 45.9126 124.591C45.5033 124.358 45.0459 124.242 44.5404 124.242C44.083 124.242 43.6778 124.358 43.3247 124.591C42.9797 124.824 42.7069 125.157 42.5063 125.59C42.3137 126.015 42.2174 126.529 42.2174 127.13C42.2174 127.724 42.3137 128.238 42.5063 128.671C42.7069 129.104 42.9797 129.437 43.3247 129.67C43.6778 129.903 44.083 130.019 44.5404 130.019C45.0459 130.019 45.5033 129.903 45.9126 129.67C46.3298 129.437 46.6628 129.104 46.9116 128.671C47.1603 128.238 47.2847 127.724 47.2847 127.13ZM46.3097 127.13C46.3097 127.556 46.2215 127.917 46.0449 128.214C45.8764 128.511 45.6478 128.735 45.3589 128.888C45.078 129.04 44.7651 129.116 44.4201 129.116C44.1392 129.116 43.8624 129.04 43.5895 128.888C43.3167 128.735 43.092 128.511 42.9155 128.214C42.739 127.917 42.6507 127.556 42.6507 127.13C42.6507 126.705 42.739 126.344 42.9155 126.047C43.092 125.75 43.3167 125.526 43.5895 125.373C43.8624 125.221 44.1392 125.144 44.4201 125.144C44.7651 125.144 45.078 125.221 45.3589 125.373C45.6478 125.526 45.8764 125.75 46.0449 126.047C46.2215 126.344 46.3097 126.705 46.3097 127.13ZM48.8411 128.202L48.0828 128.671C48.1872 128.888 48.3396 129.1 48.5402 129.309C48.7489 129.518 49.0016 129.69 49.2985 129.827C49.5954 129.955 49.9284 130.019 50.2975 130.019C50.8672 130.019 51.3246 129.859 51.6697 129.538C52.0227 129.217 52.1993 128.816 52.1993 128.334C52.1993 128.005 52.119 127.736 51.9585 127.528C51.8061 127.319 51.5974 127.142 51.3326 126.998C51.0678 126.846 50.775 126.705 50.454 126.577C50.2614 126.497 50.0769 126.412 49.9003 126.324C49.7238 126.236 49.5794 126.135 49.467 126.023C49.3547 125.911 49.2985 125.782 49.2985 125.638C49.2985 125.453 49.3707 125.317 49.5152 125.229C49.6596 125.14 49.8321 125.096 50.0327 125.096C50.3216 125.096 50.5784 125.165 50.803 125.301C51.0357 125.437 51.2283 125.61 51.3808 125.819L52.1511 125.325C52.0388 125.116 51.8823 124.932 51.6817 124.771C51.4811 124.611 51.2484 124.482 50.9836 124.386C50.7268 124.29 50.45 124.242 50.1531 124.242C49.8562 124.242 49.5673 124.294 49.2865 124.398C49.0137 124.503 48.789 124.663 48.6124 124.88C48.4439 125.096 48.3597 125.369 48.3597 125.698C48.3597 126.019 48.4399 126.288 48.6004 126.505C48.7689 126.713 48.9735 126.886 49.2143 127.022C49.463 127.151 49.7077 127.263 49.9485 127.359C50.1651 127.439 50.3697 127.528 50.5623 127.624C50.7549 127.712 50.9114 127.825 51.0317 127.961C51.1601 128.089 51.2243 128.25 51.2243 128.442C51.2243 128.659 51.1441 128.832 50.9836 128.96C50.8311 129.08 50.6185 129.141 50.3457 129.141C50.121 129.141 49.9124 129.1 49.7198 129.02C49.5352 128.932 49.3707 128.816 49.2263 128.671C49.0819 128.527 48.9535 128.37 48.8411 128.202Z" fill="#C9C9C9"/>
<path d="M175.039 59.4497C169.134 51.8041 156 33.2737 156 22.8653C156 10.237 165.724 0 177.72 0C189.711 0 199.44 10.237 199.44 22.8653C199.44 33.2737 186.205 51.8041 180.401 59.4497C179.01 61.2718 176.43 61.2718 175.039 59.4497Z" fill="url(#paint2_linear_325_1676)"/>
<path fill-rule="evenodd" clip-rule="evenodd" d="M181.967 14.5962C180.134 17.1371 178.634 19.2324 178.634 19.2525C178.634 19.2726 179.382 19.289 180.296 19.289H181.959L181.978 28.7482L181.997 38.2073L185.342 33.5706L188.686 28.9341V24.1129V19.2919L190.343 19.2717L192 19.2515L188.674 14.6376C186.844 12.1 185.337 10.013 185.324 10.0001C185.311 9.98708 183.8 12.0553 181.967 14.5962ZM169.658 15.5107L166.314 20.1472V24.9684V29.7894L164.657 29.8096L163 29.8298L166.339 34.458C168.901 38.0095 169.698 39.0654 169.766 38.9969C169.886 38.8751 176.366 29.8739 176.366 29.8284C176.366 29.8085 175.618 29.7923 174.704 29.7923H173.041L173.022 20.3331L173.003 10.874L169.658 15.5107Z" fill="white"/>
<defs>
<linearGradient id="paint0_linear_325_1676" x1="116.027" y1="36.2429" x2="133.58" y2="105.452" gradientUnits="userSpaceOnUse">
<stop stop-color="#1A1C3B"/>
<stop offset="1" stop-color="#A21D34"/>
</linearGradient>
<linearGradient id="paint1_linear_325_1676" x1="175.207" y1="61.8203" x2="180.222" y2="73.8566" gradientUnits="userSpaceOnUse">
<stop stop-color="#1A1C3B"/>
<stop offset="1" stop-color="#A21D34"/>
</linearGradient>
<linearGradient id="paint2_linear_325_1676" x1="135.521" y1="-53.3694" x2="193.234" y2="81.2952" gradientUnits="userSpaceOnUse">
<stop stop-color="#1A1C3B"/>
<stop offset="1" stop-color="#A21D34"/>
</linearGradient>
</defs>
</svg>
