<svg width="54" height="51" viewBox="0 0 54 51" fill="none" xmlns="http://www.w3.org/2000/svg">
<path d="M51.5899 21.6476V18.6979C51.8521 13.4542 47.8392 12.5075 45.8 12.6895H8.76654C2.47412 12.6895 0.973847 16.6951 1.01026 18.6979V44.5887C0.864605 46.5186 2.21194 50.3786 8.76654 50.3786H45.8C47.73 50.415 51.5899 49.7887 51.5899 46.992V41.4206M51.5899 24.5972H43.2874C40.6656 24.5972 37.6067 27.656 37.6067 32.0257C37.6796 34.1013 38.9177 38.2526 43.2874 38.2526H51.5899C52.1725 38.2526 53.3378 37.9248 53.3378 36.6139V26.0173C53.4106 25.5439 53.163 24.5972 51.5899 24.5972Z" stroke="black" stroke-width="0.8"/>
<path d="M7.56396 12.7989L39.1353 1.00065C40.3734 0.964237 42.8714 1.52502 42.9588 4.05946V12.7989" stroke="black" stroke-width="0.8"/>
<circle cx="44.7065" cy="31.4809" r="2.8773" stroke="black" stroke-width="0.8"/>
<path d="M6.91016 16.4041V19.4629M6.91016 46.5552V44.3703M6.91016 33.1183H17.2883L22.9689 30.1687M6.91016 33.1183V44.3703M6.91016 33.1183V19.4629M6.91016 44.3703H25.5908L29.5235 40.2191M6.91016 19.4629H27.9941L31.1622 21.9755M34.9857 17.3872H45.91V21.1015M45.91 41.6393V45.6813H34.9857" stroke="#BF9A78" stroke-width="0.8"/>
<circle cx="33.3481" cy="24.0517" r="2.8773" stroke="#BF9A78" stroke-width="0.8"/>
<circle cx="25.9199" cy="29.2949" r="2.8773" stroke="#BF9A78" stroke-width="0.8"/>
<circle cx="31.3798" cy="37.8161" r="2.8773" stroke="#BF9A78" stroke-width="0.8"/>
</svg>
