<svg width="54" height="40" viewBox="0 0 54 40" fill="none" xmlns="http://www.w3.org/2000/svg">
<path d="M14.9443 11.8601H33.7982M14.9443 15.1617H26.3262M14.9443 18.4633H26.3262M14.9443 22.0256H26.3262M14.9443 25.2403H30.7573M28.5852 35.4058H34.2326" stroke="black" stroke-width="0.8"/>
<path d="M36.9258 27.3154V36.1886C36.9258 38.8299 35.3618 39.4323 34.5799 39.4034H13.7277C11.7119 39.4034 11.208 37.2602 11.208 36.1886V3.86767C11.208 1.92146 12.8878 1.1453 13.7277 1.00049H34.5799C36.6651 1.00049 37.0126 2.91194 36.9258 3.86767V14.9889M32.5815 17.5085L38.7503 13.9462L44.9191 17.5085M32.5815 17.5085V24.8068L38.7503 28.369M32.5815 17.5085L38.7503 21.0708M44.9191 17.5085V24.633L38.7503 28.369M44.9191 17.5085L38.7503 21.0708M38.7503 28.369V21.0708" stroke="black" stroke-width="0.8"/>
<path d="M5.03879 11.8963C3.24434 11.8963 1.78965 10.4416 1.78965 8.64719C1.78965 6.85274 3.24434 5.39805 5.03879 5.39805C6.83324 5.39805 8.28793 6.85274 8.28793 8.64719C8.28793 9.63875 7.84425 10.5263 7.14318 11.1229C6.57604 11.6055 5.8419 11.8963 5.03879 11.8963Z" stroke="#4BA6A6" stroke-width="0.8"/>
<path d="M7.29932 11.3401L8.42881 13.1647H11.1222" stroke="#4BA6A6" stroke-width="0.8"/>
<circle cx="3.64914" cy="19.073" r="3.24914" stroke="#4BA6A6" stroke-width="0.8"/>
<path d="M7.29932 19.1592H11.1222" stroke="#4BA6A6" stroke-width="0.8"/>
<path d="M7.42025 30.1939C7.42025 31.9883 5.96556 33.443 4.17111 33.443C2.37666 33.443 0.921973 31.9883 0.921973 30.1939C0.921973 28.3994 2.37666 26.9447 4.17111 26.9447C4.79577 26.9447 5.37812 27.1206 5.87275 27.4254C6.80214 27.998 7.42025 29.0239 7.42025 30.1939Z" stroke="#4BA6A6" stroke-width="0.8"/>
<path d="M5.99463 27.1534L7.90608 24.46H11.2077" stroke="#4BA6A6" stroke-width="0.8"/>
<path d="M44.2251 4.99752L47.8742 2.73853L51.6103 4.99752M44.2251 4.99752V9.08108L47.8742 11.2532M44.2251 4.99752L47.8742 6.99586M51.6103 4.99752V9.08108L47.8742 11.2532M51.6103 4.99752L47.8742 6.99586M47.8742 11.2532V6.99586M53.0004 32.8874L49.3513 30.8022L45.7021 32.8874M53.0004 32.8874V37.0578L49.3513 39.143M53.0004 32.8874L49.3513 34.9726M49.3513 39.143L45.7021 37.0578V32.8874M49.3513 39.143V34.9726M45.7021 32.8874L49.3513 34.9726" stroke="#4BA6A6" stroke-width="0.8"/>
<path d="M43.7112 12.5474C43.5688 12.4051 43.3758 12.3252 43.1746 12.3252C42.9733 12.3252 42.7803 12.4051 42.638 12.5474L42.1012 13.084C41.9589 13.2263 41.8789 13.4194 41.8789 13.6207C41.8789 13.822 41.9589 14.015 42.1012 14.1574C42.2435 14.2997 42.4366 14.3797 42.6379 14.3797C42.8392 14.3797 43.0322 14.2997 43.1746 14.1574L43.4429 13.8891" stroke="#4BA6A6" stroke-width="0.8" stroke-linecap="round" stroke-linejoin="round"/>
<path d="M43.1748 13.0842C43.3171 13.2265 43.5102 13.3064 43.7114 13.3064C43.9127 13.3064 44.1057 13.2265 44.248 13.0842L44.7848 12.5476C44.9271 12.4053 45.0071 12.2122 45.0071 12.0109C45.0071 11.8096 44.9271 11.6166 44.7848 11.4743C44.6424 11.3319 44.4494 11.252 44.2481 11.252C44.0468 11.252 43.8537 11.3319 43.7114 11.4743L43.4431 11.7426" stroke="#4BA6A6" stroke-width="0.8" stroke-linecap="round" stroke-linejoin="round"/>
<path d="M44.9248 29.4187C45.067 29.2764 45.147 29.0833 45.147 28.8821C45.147 28.6808 45.067 28.4878 44.9248 28.3455L44.3882 27.8087C44.2458 27.6664 44.0528 27.5864 43.8515 27.5864C43.6502 27.5864 43.4571 27.6664 43.3148 27.8087C43.1725 27.9511 43.0925 28.1441 43.0925 28.3454C43.0925 28.5467 43.1725 28.7398 43.3148 28.8821L43.5831 29.1504" stroke="#4BA6A6" stroke-width="0.8" stroke-linecap="round" stroke-linejoin="round"/>
<path d="M44.3879 28.8823C44.2457 29.0247 44.1657 29.2177 44.1657 29.4189C44.1657 29.6202 44.2457 29.8132 44.3879 29.9555L44.9245 30.4923C45.0669 30.6346 45.2599 30.7146 45.4612 30.7146C45.6625 30.7146 45.8556 30.6346 45.9979 30.4923C46.1403 30.35 46.2202 30.1569 46.2202 29.9556C46.2202 29.7543 46.1403 29.5613 45.9979 29.4189L45.7296 29.1506" stroke="#4BA6A6" stroke-width="0.8" stroke-linecap="round" stroke-linejoin="round"/>
</svg>
