<svg width="50" height="53" viewBox="0 0 50 53" fill="none" xmlns="http://www.w3.org/2000/svg">
<path d="M7.75756 3.6586L8.28664 2.06285L2.82166 0.999023L1 11.46L4.73007 12.7898L5.17096 11.46M7.75756 3.6586C10.305 3.8359 16.2846 3.87136 19.8238 2.59477C20.5467 2.24016 22.1833 1.81463 22.9467 2.94938L28.7675 10.0416M7.75756 3.6586L5.17096 11.46M5.17096 11.46L13.4046 15.0948C13.9251 15.213 15.3477 15.4494 16.8745 15.4494C17.4528 15.3903 18.939 15.3607 20.2576 15.7153L23.2069 16.4246M18.8696 9.33236C19.1743 9.97916 19.5734 10.4958 19.9973 10.9022M19.9973 10.9022C20.8284 11.6988 21.7548 12.0714 22.2527 12.1692L24.9418 13.0558M19.9973 10.9022L23.6406 10.2189L25.7529 11.8465M24.9418 13.0558L27.9779 14.2082C28.9495 14.7047 28.9032 15.8926 28.7586 16.4246C28.4117 17.7721 27.284 17.6952 26.7635 17.4884L23.2069 16.4246M24.9418 13.0558C25.4045 11.6225 28.7586 8.71179 33.3562 10.0416C35.0911 10.6621 39.1681 12.5238 38.9946 18.1976C38.8889 21.6551 37.1833 25.999 31.361 25.999C27.9779 25.999 24.4213 24.4919 23.3804 19.4387C23.2748 18.9263 23.2069 17.5073 23.2069 16.4246" stroke="#9E9BF2" stroke-width="0.8"/>
<path d="M17.0263 15.126C16.543 15.636 15.6088 16.8173 15.7377 17.4616C15.7109 17.8911 15.931 18.6857 17.0263 18.428L21.5362 16.0924" stroke="#9E9BF2" stroke-width="0.8"/>
<path d="M21.7782 30.75H37.9662M15.4963 35.8166V37.83M15.4963 38.7232V45.8105M11.8721 33.3272H48.9999V28.0923H11.8721V33.3272ZM19.2815 36.146H41.7515V49.6763H19.2815V36.146Z" stroke="black" stroke-width="0.8"/>
<path d="M13.2417 33.4089V51.9326H47.3091V33.4089" stroke="black" stroke-width="0.8"/>
</svg>
