<svg width="56" height="53" viewBox="0 0 56 53" fill="none" xmlns="http://www.w3.org/2000/svg">
<path d="M11.7546 27.4417L11.0506 27.9297C11.1732 28.1857 11.3386 28.423 11.5466 28.6417C11.7546 28.8604 11.9972 29.0364 12.2746 29.1697C12.5572 29.2977 12.8639 29.3617 13.1946 29.3617C13.4346 29.3617 13.6639 29.3217 13.8826 29.2417C14.1066 29.167 14.3066 29.0604 14.4826 28.9217C14.6586 28.7777 14.7972 28.6017 14.8986 28.3937C14.9999 28.1857 15.0506 27.951 15.0506 27.6897C15.0506 27.4444 15.0079 27.231 14.9226 27.0497C14.8426 26.8684 14.7332 26.711 14.5946 26.5777C14.4559 26.439 14.3012 26.3244 14.1306 26.2337C13.9652 26.143 13.7999 26.0684 13.6346 26.0097C13.3359 25.903 13.0932 25.799 12.9066 25.6977C12.7199 25.5964 12.5812 25.4897 12.4906 25.3777C12.4052 25.2604 12.3626 25.1297 12.3626 24.9857C12.3626 24.8257 12.4239 24.687 12.5466 24.5697C12.6692 24.447 12.8612 24.3857 13.1226 24.3857C13.3092 24.3857 13.4719 24.423 13.6106 24.4977C13.7546 24.567 13.8799 24.663 13.9866 24.7857C14.0932 24.903 14.1812 25.031 14.2506 25.1697L15.0186 24.7377C14.9226 24.5404 14.7892 24.351 14.6186 24.1697C14.4532 23.9884 14.2479 23.839 14.0026 23.7217C13.7572 23.6044 13.4692 23.5457 13.1386 23.5457C12.8026 23.5457 12.5012 23.6097 12.2346 23.7377C11.9732 23.8604 11.7652 24.0364 11.6106 24.2657C11.4559 24.4897 11.3786 24.751 11.3786 25.0497C11.3786 25.311 11.4292 25.535 11.5306 25.7217C11.6319 25.903 11.7599 26.0577 11.9146 26.1857C12.0692 26.3084 12.2319 26.4124 12.4026 26.4977C12.5732 26.5777 12.7279 26.6417 12.8666 26.6897C13.1012 26.775 13.3066 26.863 13.4826 26.9537C13.6639 27.039 13.8052 27.1457 13.9066 27.2737C14.0079 27.3964 14.0586 27.5617 14.0586 27.7697C14.0586 27.9884 13.9786 28.167 13.8186 28.3057C13.6586 28.4444 13.4506 28.5137 13.1946 28.5137C12.9812 28.5137 12.7892 28.471 12.6186 28.3857C12.4479 28.295 12.2906 28.1697 12.1466 28.0097C12.0079 27.8444 11.8772 27.655 11.7546 27.4417ZM16.8354 27.8017V25.5617H15.9474V27.8977C15.9474 28.335 16.0567 28.6817 16.2754 28.9377C16.4994 29.1937 16.8167 29.3217 17.2274 29.3217C17.4834 29.3217 17.7021 29.2684 17.8834 29.1617C18.0701 29.0497 18.2221 28.887 18.3394 28.6737V29.2417H19.2034V25.5617H18.3394V27.8017C18.3394 27.967 18.3047 28.1137 18.2354 28.2417C18.1661 28.3644 18.0701 28.4604 17.9474 28.5297C17.8247 28.5937 17.6807 28.6257 17.5154 28.6257C17.2861 28.6257 17.1154 28.5537 17.0034 28.4097C16.8914 28.2657 16.8354 28.063 16.8354 27.8017ZM21.1468 31.0017V25.5617H20.2748V31.0017H21.1468ZM24.1948 27.4017C24.1948 26.991 24.1121 26.6417 23.9468 26.3537C23.7814 26.0657 23.5628 25.847 23.2908 25.6977C23.0188 25.543 22.7228 25.4657 22.4028 25.4657C22.0881 25.4657 21.8134 25.5457 21.5788 25.7057C21.3494 25.8604 21.1708 26.0817 21.0428 26.3697C20.9201 26.6577 20.8588 27.0017 20.8588 27.4017C20.8588 27.7964 20.9201 28.1404 21.0428 28.4337C21.1708 28.7217 21.3494 28.9457 21.5788 29.1057C21.8134 29.2604 22.0881 29.3377 22.4028 29.3377C22.7228 29.3377 23.0188 29.263 23.2908 29.1137C23.5628 28.959 23.7814 28.7377 23.9468 28.4497C24.1121 28.1564 24.1948 27.807 24.1948 27.4017ZM23.2988 27.4017C23.2988 27.647 23.2481 27.8577 23.1468 28.0337C23.0454 28.2044 22.9094 28.335 22.7388 28.4257C22.5734 28.511 22.3894 28.5537 22.1868 28.5537C22.0214 28.5537 21.8588 28.511 21.6988 28.4257C21.5388 28.335 21.4054 28.2044 21.2988 28.0337C21.1974 27.863 21.1468 27.6524 21.1468 27.4017C21.1468 27.151 21.1974 26.9404 21.2988 26.7697C21.4054 26.599 21.5388 26.471 21.6988 26.3857C21.8588 26.295 22.0214 26.2497 22.1868 26.2497C22.3894 26.2497 22.5734 26.295 22.7388 26.3857C22.9094 26.471 23.0454 26.6017 23.1468 26.7777C23.2481 26.9484 23.2988 27.1564 23.2988 27.4017ZM26.6177 29.3217C27.0444 29.3217 27.4097 29.239 27.7137 29.0737C28.0177 28.9084 28.2657 28.6604 28.4577 28.3297L27.7137 28.0257C27.5964 28.223 27.4497 28.3697 27.2737 28.4657C27.0977 28.5617 26.8924 28.6097 26.6577 28.6097C26.4337 28.6097 26.2417 28.5617 26.0817 28.4657C25.927 28.3697 25.8097 28.231 25.7297 28.0497C25.6497 27.863 25.6097 27.6364 25.6097 27.3697C25.615 27.103 25.6577 26.879 25.7377 26.6977C25.8177 26.5164 25.935 26.3777 26.0897 26.2817C26.2444 26.1857 26.431 26.1377 26.6497 26.1377C26.831 26.1377 26.9884 26.1777 27.1217 26.2577C27.2604 26.3377 27.367 26.4497 27.4417 26.5937C27.5217 26.7377 27.5617 26.9084 27.5617 27.1057C27.5617 27.143 27.551 27.191 27.5297 27.2497C27.5137 27.303 27.4977 27.3457 27.4817 27.3777L27.7457 27.0097H25.2497V27.6017H28.4817C28.487 27.5804 28.4897 27.5457 28.4897 27.4977C28.495 27.4497 28.4977 27.4044 28.4977 27.3617C28.4977 26.967 28.423 26.631 28.2737 26.3537C28.1297 26.071 27.9217 25.855 27.6497 25.7057C27.3777 25.5564 27.047 25.4817 26.6577 25.4817C26.2684 25.4817 25.9297 25.5617 25.6417 25.7217C25.3537 25.8764 25.1297 26.0977 24.9697 26.3857C24.815 26.6737 24.7377 27.0124 24.7377 27.4017C24.7377 27.7857 24.815 28.1217 24.9697 28.4097C25.1244 28.6977 25.343 28.9217 25.6257 29.0817C25.9137 29.2417 26.2444 29.3217 26.6177 29.3217ZM30.1784 25.5617H29.3224V29.2417H30.1784V25.5617ZM31.2744 26.4817L31.6904 25.7537C31.6104 25.6524 31.5117 25.583 31.3944 25.5457C31.2771 25.503 31.1517 25.4817 31.0184 25.4817C30.8317 25.4817 30.6504 25.5484 30.4744 25.6817C30.3037 25.815 30.1624 25.9964 30.0504 26.2257C29.9437 26.4497 29.8904 26.7084 29.8904 27.0017L30.1784 27.1697C30.1784 26.9937 30.1971 26.8417 30.2344 26.7137C30.2771 26.5804 30.3437 26.4764 30.4344 26.4017C30.5251 26.327 30.6424 26.2897 30.7864 26.2897C30.8931 26.2897 30.9811 26.3057 31.0504 26.3377C31.1197 26.3697 31.1944 26.4177 31.2744 26.4817Z" fill="black"/>
<path d="M17.9042 16.5925L19.6082 19.4805L21.3122 16.5925L21.7042 20.0005H22.6802L21.9122 14.1205L19.6082 17.9205L17.3122 14.1205L16.5442 20.0005H17.5202L17.9042 16.5925ZM25.6465 16.3205L24.8385 17.4725L24.0465 16.3205H23.0545L24.3825 18.1045L22.9745 20.0005H23.9665L24.8385 18.7365L25.7265 20.0005H26.6945L25.2945 18.1045L26.6145 16.3205H25.6465Z" fill="black"/>
<path d="M40.9549 17.517C41.6268 16.024 41.4837 11.1717 41.3282 8.93215L21.2658 1.00049L1.48325 8.93215C-0.165288 18.7612 1.48325 40.4722 21.2658 48.6838C23.9096 47.4396 29.9065 44.0741 32.7433 40.5655M40.9549 17.517H51.4994V29.1812M40.9549 17.517H39.4619H37.4091V33.4663M51.4994 29.1812C52.7125 29.3678 55.1386 30.021 55.1386 31.1408V31.794M51.4994 29.1812C44.109 28.7333 42.2613 30.301 42.2613 31.1408V31.794M39.182 47.3774C34.7029 47.676 33.0233 46.1954 32.7433 45.4178V42.4318M39.182 47.3774V49.5236C39.182 51.1099 43.35 51.4521 45.434 51.5765C49.9131 51.5765 52.0593 50.7367 52.0593 49.7102V47.3774C52.0669 47.2481 52.0624 47.1237 52.0468 47.0041M39.182 47.3774C39.182 47.2571 39.1844 47.132 39.1933 47.0041M42.2613 33.6131C44.6858 34.0765 45.4103 35.1206 45.434 35.7132V36.0864M42.2613 33.6131C41.5042 33.4684 40.5812 33.3803 39.4619 33.3803C38.8892 33.3723 38.1666 33.3948 37.4091 33.4663M42.2613 33.6131V31.794M32.7433 40.5655V39.4457M32.7433 40.5655V42.4318M37.4091 33.4663C35.2461 33.6708 32.7433 34.1268 32.7433 35.7132V36.0864M32.7433 36.0864C35.1696 37.2062 40.1152 37.7661 45.434 36.0864M32.7433 36.0864V39.4457M45.434 36.0864V39.4457M45.434 36.0864C47.1136 36.5865 51.406 37.1747 55.1386 35.5266M32.7433 39.4457C34.4852 40.5033 39.8353 42.1518 45.434 39.4457M45.434 39.4457V39.819M32.7433 42.4318C34.7029 43.6448 39.9844 45.3432 45.434 42.4318M45.434 42.4318V43.6448C50.0065 44.578 54.4855 43.4582 55.1386 42.5251V39.2591M45.434 42.4318V39.819M39.1933 47.0041C39.2818 45.7431 40.0119 44.3914 45.434 44.3914C47.589 44.3914 51.7555 44.7763 52.0468 47.0041M39.1933 47.0041C41.4829 47.9995 46.7405 48.7771 52.0468 47.0041M45.434 39.819C47.1758 40.2544 51.5553 40.7521 55.1386 39.2591M55.1386 39.2591V35.5266M55.1386 35.5266V31.794M42.2613 31.794C44.1898 32.8205 49.4651 34.2575 55.1386 31.794" stroke="black" stroke-width="0.8"/>
<path d="M39.8359 21.9971H48.0475M39.8359 24.05H45.5281M39.8359 26.5694H45.5281M39.8359 28.809H45.5281" stroke="black" stroke-width="0.8"/>
<path d="M39.1301 47.4309C34.651 47.7295 32.9713 46.2489 32.6914 45.4713V42.4852M39.1301 47.4309V49.5771C39.1301 51.1634 43.2981 51.5055 45.3821 51.63C49.8611 51.63 52.0073 50.7901 52.0073 49.7637V47.4309C52.0149 47.3016 52.0105 47.1772 51.9948 47.0576M39.1301 47.4309C39.1301 47.3106 39.1324 47.1855 39.1414 47.0576M42.2094 33.6666C44.6339 34.13 45.3584 35.1741 45.3821 35.7666V36.1399M42.2094 33.6666C41.4522 33.5219 40.5292 33.4338 39.41 33.4338C38.8372 33.4257 38.1146 33.4482 37.3572 33.5198C35.1941 33.7242 32.6914 34.1803 32.6914 35.7666V36.1399M42.2094 33.6666V31.8475M32.6914 36.1399C35.1176 37.2597 40.0633 37.8195 45.3821 36.1399M32.6914 36.1399V39.4992M45.3821 36.1399V39.4992M45.3821 36.1399C47.0617 36.64 51.3541 37.2282 55.0867 35.58M32.6914 39.4992V40.6189V42.4852M32.6914 39.4992C34.4332 40.5567 39.7833 42.2053 45.3821 39.4992M45.3821 39.4992V39.8724M32.6914 42.4852C34.651 43.6983 39.9325 45.3966 45.3821 42.4852M45.3821 42.4852V43.6983C49.9545 44.6314 54.4336 43.5117 55.0867 42.5785V39.3126M45.3821 42.4852V39.8724M39.1414 47.0576C39.2299 45.7966 39.9599 44.4448 45.3821 44.4448C47.537 44.4448 51.7035 44.8297 51.9948 47.0576M39.1414 47.0576C41.431 48.0529 46.6885 48.8306 51.9948 47.0576M45.3821 39.8724C47.1239 40.3079 51.5034 40.8056 55.0867 39.3126M55.0867 39.3126V35.58M55.0867 35.58V31.8475M42.2094 31.8475V31.1943C42.2094 30.3544 44.057 28.7868 51.4475 29.2347C52.6605 29.4213 55.0867 30.0745 55.0867 31.1943V31.8475M42.2094 31.8475C44.1379 32.8739 49.4132 34.3109 55.0867 31.8475" stroke="#00ACD7" stroke-width="0.8"/>
</svg>
