<svg width="50" height="45" viewBox="0 0 50 45" fill="none" xmlns="http://www.w3.org/2000/svg">
<path d="M18.6046 19.1895C18.6046 19.1591 18.6293 19.1344 18.6598 19.1344C18.6902 19.1344 18.7149 19.1591 18.7149 19.1895V20.155H18.6046V19.1895Z" stroke="#F2AB27" stroke-width="0.455169"/>
<path d="M18.6046 25.325H18.7149V28.6574C18.7149 28.6879 18.6902 28.7126 18.6598 28.7126C18.6293 28.7126 18.6046 28.6879 18.6046 28.6574V25.325Z" stroke="#F2AB27" stroke-width="0.455169"/>
<rect x="16.9684" y="20.7726" width="3.38755" height="3.93375" rx="1.69378" stroke="#F2AB27" stroke-width="0.8"/>
<path d="M24.4308 21.5562C24.4308 21.5258 24.4555 21.5011 24.4859 21.5011C24.5164 21.5011 24.5411 21.5258 24.5411 21.5562V22.5217H24.4308V21.5562Z" stroke="#F2AB27" stroke-width="0.455169"/>
<path d="M24.5434 28.6557C24.5434 28.6861 24.5187 28.7108 24.4882 28.7108C24.4577 28.7108 24.433 28.6861 24.433 28.6557L24.433 27.6902L24.5434 27.6902L24.5434 28.6557Z" stroke="#F2AB27" stroke-width="0.455169"/>
<rect x="22.7945" y="23.1393" width="3.38755" height="3.93375" rx="1.69378" stroke="#F2AB27" stroke-width="0.8"/>
<path d="M30.2555 16.2787C30.2555 16.2482 30.2802 16.2235 30.3106 16.2235C30.3411 16.2235 30.3658 16.2482 30.3658 16.2787V17.2442H30.2555V16.2787Z" stroke="#F2AB27" stroke-width="0.455169"/>
<path d="M30.2555 22.4142H30.3658V25.7465C30.3658 25.777 30.3411 25.8017 30.3106 25.8017C30.2802 25.8017 30.2555 25.777 30.2555 25.7465V22.4142Z" stroke="#F2AB27" stroke-width="0.455169"/>
<rect x="28.6192" y="17.8617" width="3.38755" height="3.93375" rx="1.69378" stroke="#F2AB27" stroke-width="0.8"/>
<path d="M40.7027 29.2554C43.2462 23.4642 41.4523 16.8792 40.2375 14.3105C40.0052 13.8197 39.7574 13.353 39.4962 12.9094M40.7027 29.2554L49 35.7159L38.6866 43.811V39.7635H22.9451C20.1886 39.6664 13.9987 37.9119 10.0118 31.824M40.7027 29.2554L38.6866 27.7765V31.824H10.0118M9.21971 15.4781C5.99386 20.3974 7.87561 27.5429 9.21971 30.5008C9.47202 30.9631 9.73667 31.4039 10.0118 31.824M9.21971 15.4781L1 8.86186L11.4685 1.00024V4.96997H26.4346C29.3567 4.96997 35.7808 6.60071 39.4962 12.9094M9.21971 15.4781L11.4685 17.0348V12.9094H39.4962" stroke="black" stroke-width="0.8"/>
</svg>
