<svg width="54" height="52" viewBox="0 0 54 52" fill="none" xmlns="http://www.w3.org/2000/svg">
<path d="M23.7305 36.2181V41.9265L17.9234 35.8346V43.8877H18.8548V38.1793L24.6618 44.2712V36.2181H23.7305ZM30.2539 36.2181L28.6214 39.0558L27.0217 36.2181H25.9261L28.1502 39.8666L25.6521 43.8877H26.7478L28.6104 40.6774L30.4183 43.8877H31.5139L29.0816 39.8666L31.3496 36.2181H30.2539ZM32.0613 37.0946H34.0335V43.8877H34.9648V37.0946H36.937V36.2181H32.0613V37.0946Z" fill="black"/>
<path d="M46.9925 22.5337H6.77631C1.98088 22.5337 1 24.9593 1 27.8254V45.9053C1 50.8442 4.85087 51.5644 6.77631 51.3072H46.9925C52.1367 51.3072 53.1321 47.7059 52.9868 45.9053V27.8254C52.9868 22.5339 48.9906 22.4235 46.9925 22.5337Z" stroke="black" stroke-width="0.8"/>
<path d="M7.11986 22.8697V6.10692C7.08334 4.6556 7.86471 1.75295 11.2823 1.75295H43.0483C44.4723 1.78923 47.3203 2.71082 47.3203 6.10692V22.8697M11.2823 1.09985H43.0483M16.8688 22.4327L19.0596 19.4938C19.3517 19.131 20.0673 18.623 20.5931 19.4938C21.1618 20.2568 22.3595 21.6139 23.4411 22.177L28.8084 15.3575C29.2101 14.777 30.2324 13.9643 31.1087 15.3575L36.3665 22.4327" stroke="#D95276" stroke-width="0.8"/>
<path d="M17.8916 31.0386C17.8916 30.4218 18.1983 29.1446 19.4251 28.9705H34.3223C34.87 29.0067 35.9653 29.4712 35.9653 31.0386" stroke="black" stroke-width="0.8"/>
</svg>
