<svg width="50" height="52" viewBox="0 0 50 52" fill="none" xmlns="http://www.w3.org/2000/svg">
<circle cx="25.1041" cy="26.4752" r="7.73635" stroke="#F27E63" stroke-width="0.8"/>
<path d="M21.573 11.2965H19.6289V7.98438H27.4052V7.04834L30.2134 9.13643L27.4052 11.2965V10.1445H21.573V11.2965Z" stroke="black" stroke-width="0.8"/>
<path d="M28.2688 42.9754L30.2129 42.9754L30.2129 46.2876L22.4366 46.2876L22.4366 47.2236L19.6284 45.1355L22.4366 42.9754L22.4366 44.1275L28.2688 44.1275L28.2688 42.9754Z" stroke="black" stroke-width="0.8"/>
<path d="M40.4754 23.3474L40.4754 21.4033L43.7876 21.4033L43.7876 29.1797L44.7236 29.1797L42.6355 31.9878L40.4754 29.1797L41.6275 29.1797L41.6275 23.3474L40.4754 23.3474Z" stroke="black" stroke-width="0.8"/>
<path d="M9.23988 30.1033L9.23988 32.0474L5.92774 32.0474L5.92774 24.271L4.9917 24.271L7.07979 21.4629L9.23988 24.271L8.08783 24.271L8.08783 30.1033L9.23988 30.1033Z" stroke="black" stroke-width="0.8"/>
<mask id="path-6-inside-1_155_27" fill="white">
<path d="M21.6445 24.6614C21.6445 24.5224 21.7572 24.4097 21.8963 24.4097C22.0353 24.4097 22.148 24.5224 22.148 24.6614V25.4166H21.6445V24.6614Z"/>
</mask>
<path d="M22.148 25.4166V26.2166H22.948V25.4166H22.148ZM21.6445 25.4166H20.8445V26.2166H21.6445V25.4166ZM21.348 24.6614V25.4166H22.948V24.6614H21.348ZM22.148 24.6166H21.6445V26.2166H22.148V24.6166ZM22.4445 25.4166V24.6614H20.8445V25.4166H22.4445ZM21.8963 25.2097C21.5935 25.2097 21.348 24.9642 21.348 24.6614H22.948C22.948 24.0805 22.4771 23.6097 21.8963 23.6097V25.2097ZM21.8963 23.6097C21.3154 23.6097 20.8445 24.0806 20.8445 24.6614H22.4445C22.4445 24.9642 22.1991 25.2097 21.8963 25.2097V23.6097Z" fill="#F27E63" mask="url(#path-6-inside-1_155_27)"/>
<mask id="path-8-inside-2_155_27" fill="white">
<path d="M21.6445 27.833H22.148V29.8973C22.148 30.0364 22.0353 30.1491 21.8963 30.1491C21.7572 30.1491 21.6445 30.0364 21.6445 29.8973V27.833Z"/>
</mask>
<path d="M21.6445 27.833V27.033H20.8445V27.833H21.6445ZM22.148 27.833H22.948V27.033H22.148V27.833ZM21.6445 28.633H22.148V27.033H21.6445V28.633ZM21.348 27.833V29.8973H22.948V27.833H21.348ZM22.4445 29.8973V27.833H20.8445V29.8973H22.4445ZM21.8963 29.3491C22.1991 29.3491 22.4445 29.5945 22.4445 29.8973H20.8445C20.8445 30.4782 21.3154 30.9491 21.8963 30.9491V29.3491ZM21.348 29.8973C21.348 29.5945 21.5935 29.3491 21.8963 29.3491V30.9491C22.4771 30.9491 22.948 30.4782 22.948 29.8973H21.348Z" fill="#F27E63" mask="url(#path-8-inside-2_155_27)"/>
<rect x="21.1383" y="25.7159" width="1.51605" height="1.81815" rx="0.758027" stroke="#F27E63" stroke-width="0.8"/>
<mask id="path-11-inside-3_155_27" fill="white">
<path d="M24.8652 25.972C24.8652 25.8329 24.9779 25.7202 25.117 25.7202C25.256 25.7202 25.3687 25.8329 25.3687 25.972V26.7272H24.8652V25.972Z"/>
</mask>
<path d="M25.3687 26.7272V27.5272H26.1687V26.7272H25.3687ZM24.8652 26.7272H24.0652V27.5272H24.8652V26.7272ZM24.5687 25.972V26.7272H26.1687V25.972H24.5687ZM25.3687 25.9272H24.8652V27.5272H25.3687V25.9272ZM25.6652 26.7272V25.972H24.0652V26.7272H25.6652ZM25.117 26.5202C24.8142 26.5202 24.5687 26.2748 24.5687 25.972H26.1687C26.1687 25.3911 25.6978 24.9202 25.117 24.9202V26.5202ZM25.117 24.9202C24.5361 24.9202 24.0652 25.3911 24.0652 25.972H25.6652C25.6652 26.2748 25.4198 26.5202 25.117 26.5202V24.9202Z" fill="#F27E63" mask="url(#path-11-inside-3_155_27)"/>
<mask id="path-13-inside-4_155_27" fill="white">
<path d="M25.3696 29.8996C25.3696 30.0387 25.2569 30.1514 25.1179 30.1514C24.9788 30.1514 24.8661 30.0387 24.8661 29.8996L24.8661 29.1444L25.3696 29.1444L25.3696 29.8996Z"/>
</mask>
<path d="M24.8661 29.1444L24.8661 28.3444L24.0661 28.3444L24.0661 29.1444L24.8661 29.1444ZM25.3696 29.1444L26.1696 29.1444L26.1696 28.3444L25.3696 28.3444L25.3696 29.1444ZM25.6661 29.8996L25.6661 29.1444L24.0661 29.1444L24.0661 29.8996L25.6661 29.8996ZM24.8661 29.9444L25.3696 29.9444L25.3696 28.3444L24.8661 28.3444L24.8661 29.9444ZM24.5696 29.1444L24.5696 29.8996L26.1696 29.8996L26.1696 29.1444L24.5696 29.1444ZM25.1179 29.3514C25.4207 29.3514 25.6661 29.5968 25.6661 29.8996L24.0661 29.8996C24.0661 30.4805 24.537 30.9514 25.1179 30.9514L25.1179 29.3514ZM25.1179 30.9514C25.6987 30.9514 26.1696 30.4805 26.1696 29.8996L24.5696 29.8996C24.5696 29.5968 24.8151 29.3514 25.1179 29.3514L25.1179 30.9514Z" fill="#F27E63" mask="url(#path-13-inside-4_155_27)"/>
<rect x="24.359" y="27.0265" width="1.51605" height="1.81815" rx="0.758027" stroke="#F27E63" stroke-width="0.8"/>
<mask id="path-16-inside-5_155_27" fill="white">
<path d="M28.0889 23.0506C28.0889 22.9115 28.2016 22.7988 28.3406 22.7988C28.4796 22.7988 28.5924 22.9115 28.5924 23.0506V23.8058H28.0889V23.0506Z"/>
</mask>
<path d="M28.5924 23.8058V24.6058H29.3924V23.8058H28.5924ZM28.0889 23.8058H27.2889V24.6058H28.0889V23.8058ZM27.7924 23.0506V23.8058H29.3924V23.0506H27.7924ZM28.5924 23.0058H28.0889V24.6058H28.5924V23.0058ZM28.8889 23.8058V23.0506H27.2889V23.8058H28.8889ZM28.3406 23.5988C28.0378 23.5988 27.7924 23.3534 27.7924 23.0506H29.3924C29.3924 22.4697 28.9215 21.9988 28.3406 21.9988V23.5988ZM28.3406 21.9988C27.7597 21.9988 27.2889 22.4697 27.2889 23.0506H28.8889C28.8889 23.3534 28.6434 23.5988 28.3406 23.5988V21.9988Z" fill="#F27E63" mask="url(#path-16-inside-5_155_27)"/>
<mask id="path-18-inside-6_155_27" fill="white">
<path d="M28.0889 26.2222H28.5924V28.2865C28.5924 28.4255 28.4796 28.5382 28.3406 28.5382C28.2016 28.5382 28.0889 28.4255 28.0889 28.2865V26.2222Z"/>
</mask>
<path d="M28.0889 26.2222V25.4222H27.2889V26.2222H28.0889ZM28.5924 26.2222H29.3924V25.4222H28.5924V26.2222ZM28.0889 27.0222H28.5924V25.4222H28.0889V27.0222ZM27.7924 26.2222V28.2865H29.3924V26.2222H27.7924ZM28.8889 28.2865V26.2222H27.2889V28.2865H28.8889ZM28.3406 27.7382C28.6434 27.7382 28.8889 27.9837 28.8889 28.2865H27.2889C27.2889 28.8673 27.7597 29.3382 28.3406 29.3382V27.7382ZM27.7924 28.2865C27.7924 27.9837 28.0378 27.7382 28.3406 27.7382V29.3382C28.9215 29.3382 29.3924 28.8673 29.3924 28.2865H27.7924Z" fill="#F27E63" mask="url(#path-18-inside-6_155_27)"/>
<rect x="27.5826" y="24.1051" width="1.51605" height="1.81815" rx="0.758027" stroke="#F27E63" stroke-width="0.8"/>
<path d="M2.7145 11.7837C0.883349 10.0006 -0.602449 4.77024 4.44961 1.67957C6.00983 0.86228 8.98163 0.342232 11.5076 2.79398C12.7459 4.15605 14.6429 7.66772 12.3249 10.8178L11.9534 11.3379M11.9534 11.3379L12.1763 13.1953C12.2506 13.8639 12.0277 15.2012 10.5418 15.2012H3.85525C3.43424 15.1517 2.59223 14.7703 2.59223 13.641C2.56747 12.9724 2.62195 11.4716 3.038 10.8178C3.31042 10.3968 4.0187 9.55482 4.67249 9.55482C5.56403 10.273 7.88203 11.2785 10.0217 9.55482C10.5875 9.43099 11.7658 9.61425 11.9534 11.3379Z" stroke="black" stroke-width="0.8"/>
<circle cx="7.34845" cy="5.76642" r="2.27462" stroke="black" stroke-width="0.8"/>
<path d="M38.1959 11.7837C36.3648 10.0006 34.879 4.77024 39.9311 1.67957C41.4913 0.86228 44.4631 0.342232 46.9891 2.79398C48.2273 4.15605 50.1243 7.66772 47.8063 10.8178L47.4348 11.3379M47.4348 11.3379L47.6577 13.1953C47.732 13.8639 47.5091 15.2012 46.0232 15.2012H39.3367C38.9157 15.1517 38.0737 14.7703 38.0737 13.641C38.0489 12.9724 38.1034 11.4716 38.5194 10.8178C38.7919 10.3968 39.5001 9.55482 40.1539 9.55482C41.0455 10.273 43.3635 11.2785 45.5032 9.55482C46.0689 9.43099 47.2472 9.61425 47.4348 11.3379Z" stroke="black" stroke-width="0.8"/>
<circle cx="42.8299" cy="5.76642" r="2.27462" stroke="black" stroke-width="0.8"/>
<path d="M2.7145 48.1543C0.883349 46.3712 -0.602449 41.1408 4.44961 38.0502C6.00983 37.2329 8.98163 36.7128 11.5076 39.1646C12.7459 40.5267 14.6429 44.0383 12.3249 47.1884L11.9534 47.7085M11.9534 47.7085L12.1763 49.5659C12.2506 50.2345 12.0277 51.5718 10.5418 51.5718H3.85525C3.43424 51.5223 2.59223 51.1409 2.59223 50.0116C2.56747 49.343 2.62195 47.8422 3.038 47.1884C3.31042 46.7674 4.0187 45.9254 4.67249 45.9254C5.56403 46.6436 7.88203 47.6491 10.0217 45.9254C10.5875 45.8016 11.7658 45.9849 11.9534 47.7085Z" stroke="black" stroke-width="0.8"/>
<circle cx="7.34845" cy="42.1365" r="2.27462" stroke="black" stroke-width="0.8"/>
<path d="M38.1959 48.1543C36.3648 46.3712 34.879 41.1408 39.9311 38.0502C41.4913 37.2329 44.4631 36.7128 46.9891 39.1646C48.2273 40.5267 50.1243 44.0383 47.8063 47.1884L47.4348 47.7085M47.4348 47.7085L47.6577 49.5659C47.732 50.2345 47.5091 51.5718 46.0232 51.5718H39.3367C38.9157 51.5223 38.0737 51.1409 38.0737 50.0116C38.0489 49.343 38.1034 47.8422 38.5194 47.1884C38.7919 46.7674 39.5001 45.9254 40.1539 45.9254C41.0455 46.6436 43.3635 47.6491 45.5032 45.9254C46.0689 45.8016 47.2472 45.9849 47.4348 47.7085Z" stroke="black" stroke-width="0.8"/>
<circle cx="42.8299" cy="42.1365" r="2.27462" stroke="black" stroke-width="0.8"/>
</svg>
