<svg width="123" height="129" viewBox="0 0 123 129" fill="none" xmlns="http://www.w3.org/2000/svg">
<circle cx="61.8833" cy="64.958" r="19.689" stroke="#F27E63" stroke-width="1.5"/>
<path d="M53.014 26.8277H48.1304V18.5074H67.665V16.156L74.7191 21.4014L67.665 26.8277V23.9337H53.014V26.8277Z" stroke="white" stroke-width="1.5"/>
<path d="M69.8361 106.407L74.7197 106.407L74.7197 114.727L55.1851 114.727L55.1851 117.079L48.131 111.833L55.1851 106.407L55.1851 109.301L69.8361 109.301L69.8361 106.407Z" stroke="white" stroke-width="1.5"/>
<path d="M100.5 57.099L100.5 52.2153L108.82 52.2153L108.82 71.7499L111.171 71.7499L105.926 78.8041L100.5 71.7499L103.394 71.7499L103.394 57.099L100.5 57.099Z" stroke="white" stroke-width="1.5"/>
<path d="M22.0333 74.0726L22.0333 78.9563L13.713 78.9563L13.713 59.4217L11.3616 59.4217L16.607 52.3675L22.0333 59.4217L19.1392 59.4217L19.1392 74.0726L22.0333 74.0726Z" stroke="white" stroke-width="1.5"/>
<mask id="path-6-inside-1_259_559" fill="white">
<path d="M53.177 60.4024C53.177 60.0532 53.4601 59.77 53.8094 59.77C54.1587 59.77 54.4418 60.0532 54.4418 60.4024V62.2996H53.177V60.4024Z"/>
</mask>
<path d="M54.4418 62.2996V63.7996H55.9418V62.2996H54.4418ZM53.177 62.2996H51.677V63.7996H53.177V62.2996ZM52.9418 60.4024V62.2996H55.9418V60.4024H52.9418ZM54.4418 60.7996H53.177V63.7996H54.4418V60.7996ZM54.677 62.2996V60.4024H51.677V62.2996H54.677ZM53.8094 61.27C53.3302 61.27 52.9418 60.8816 52.9418 60.4024H55.9418C55.9418 59.2247 54.9871 58.27 53.8094 58.27V61.27ZM53.8094 58.27C52.6317 58.27 51.677 59.2247 51.677 60.4024H54.677C54.677 60.8816 54.2886 61.27 53.8094 61.27V58.27Z" fill="#F27E63" mask="url(#path-6-inside-1_259_559)"/>
<mask id="path-8-inside-2_259_559" fill="white">
<path d="M53.177 68.3704H54.4418V73.556C54.4418 73.9053 54.1587 74.1884 53.8094 74.1884C53.4601 74.1884 53.177 73.9053 53.177 73.556V68.3704Z"/>
</mask>
<path d="M53.177 68.3704V66.8704H51.677V68.3704H53.177ZM54.4418 68.3704H55.9418V66.8704H54.4418V68.3704ZM53.177 69.8704H54.4418V66.8704H53.177V69.8704ZM52.9418 68.3704V73.556H55.9418V68.3704H52.9418ZM54.677 73.556V68.3704H51.677V73.556H54.677ZM53.8094 72.6884C54.2886 72.6884 54.677 73.0769 54.677 73.556H51.677C51.677 74.7337 52.6317 75.6884 53.8094 75.6884V72.6884ZM52.9418 73.556C52.9418 73.0769 53.3302 72.6884 53.8094 72.6884V75.6884C54.9871 75.6884 55.9418 74.7337 55.9418 73.556H52.9418Z" fill="#F27E63" mask="url(#path-8-inside-2_259_559)"/>
<rect x="51.6514" y="62.7966" width="4.31806" height="5.07694" rx="2.15903" stroke="#F27E63" stroke-width="1.5"/>
<mask id="path-11-inside-3_259_559" fill="white">
<path d="M61.2739 63.6922C61.2739 63.3429 61.5571 63.0598 61.9063 63.0598C62.2556 63.0598 62.5387 63.3429 62.5387 63.6922V65.5894H61.2739V63.6922Z"/>
</mask>
<path d="M62.5387 65.5894V67.0894H64.0387V65.5894H62.5387ZM61.2739 65.5894H59.7739V67.0894H61.2739V65.5894ZM61.0387 63.6922V65.5894H64.0387V63.6922H61.0387ZM62.5387 64.0894H61.2739V67.0894H62.5387V64.0894ZM62.7739 65.5894V63.6922H59.7739V65.5894H62.7739ZM61.9063 64.5598C61.4272 64.5598 61.0387 64.1714 61.0387 63.6922H64.0387C64.0387 62.5145 63.084 61.5598 61.9063 61.5598V64.5598ZM61.9063 61.5598C60.7286 61.5598 59.7739 62.5145 59.7739 63.6922H62.7739C62.7739 64.1714 62.3855 64.5598 61.9063 64.5598V61.5598Z" fill="#F27E63" mask="url(#path-11-inside-3_259_559)"/>
<mask id="path-13-inside-4_259_559" fill="white">
<path d="M62.54 73.558C62.54 73.9073 62.2569 74.1904 61.9076 74.1904C61.5584 74.1904 61.2752 73.9073 61.2752 73.558L61.2752 71.6608L62.54 71.6608L62.54 73.558Z"/>
</mask>
<path d="M61.2752 71.6608L61.2752 70.1608L59.7752 70.1608L59.7752 71.6608L61.2752 71.6608ZM62.54 71.6608L64.04 71.6608L64.04 70.1608L62.54 70.1608L62.54 71.6608ZM62.7752 73.558L62.7752 71.6608L59.7752 71.6608L59.7752 73.558L62.7752 73.558ZM61.2752 73.1608L62.54 73.1608L62.54 70.1608L61.2752 70.1608L61.2752 73.1608ZM61.04 71.6608L61.04 73.558L64.04 73.558L64.04 71.6608L61.04 71.6608ZM61.9076 72.6904C62.3868 72.6904 62.7752 73.0789 62.7752 73.558L59.7752 73.558C59.7752 74.7357 60.7299 75.6904 61.9076 75.6904L61.9076 72.6904ZM61.9076 75.6904C63.0853 75.6904 64.04 74.7357 64.04 73.558L61.04 73.558C61.04 73.0789 61.4285 72.6904 61.9076 72.6904L61.9076 75.6904Z" fill="#F27E63" mask="url(#path-13-inside-4_259_559)"/>
<rect x="59.7483" y="66.0864" width="4.31806" height="5.07694" rx="2.15903" stroke="#F27E63" stroke-width="1.5"/>
<mask id="path-16-inside-5_259_559" fill="white">
<path d="M69.3677 56.3575C69.3677 56.0082 69.6508 55.7251 70.0001 55.7251C70.3493 55.7251 70.6325 56.0082 70.6325 56.3575V58.2547H69.3677V56.3575Z"/>
</mask>
<path d="M70.6325 58.2547V59.7547H72.1325V58.2547H70.6325ZM69.3677 58.2547H67.8677V59.7547H69.3677V58.2547ZM69.1325 56.3575V58.2547H72.1325V56.3575H69.1325ZM70.6325 56.7547H69.3677V59.7547H70.6325V56.7547ZM70.8677 58.2547V56.3575H67.8677V58.2547H70.8677ZM70.0001 57.2251C69.5209 57.2251 69.1325 56.8367 69.1325 56.3575H72.1325C72.1325 55.1798 71.1778 54.2251 70.0001 54.2251V57.2251ZM70.0001 54.2251C68.8224 54.2251 67.8677 55.1798 67.8677 56.3575H70.8677C70.8677 56.8367 70.4792 57.2251 70.0001 57.2251V54.2251Z" fill="#F27E63" mask="url(#path-16-inside-5_259_559)"/>
<mask id="path-18-inside-6_259_559" fill="white">
<path d="M69.3677 64.3254H70.6325V69.5111C70.6325 69.8604 70.3493 70.1435 70.0001 70.1435C69.6508 70.1435 69.3677 69.8604 69.3677 69.5111V64.3254Z"/>
</mask>
<path d="M69.3677 64.3254V62.8254H67.8677V64.3254H69.3677ZM70.6325 64.3254H72.1325V62.8254H70.6325V64.3254ZM69.3677 65.8254H70.6325V62.8254H69.3677V65.8254ZM69.1325 64.3254V69.5111H72.1325V64.3254H69.1325ZM70.8677 69.5111V64.3254H67.8677V69.5111H70.8677ZM70.0001 68.6435C70.4792 68.6435 70.8677 69.0319 70.8677 69.5111H67.8677C67.8677 70.6888 68.8224 71.6435 70.0001 71.6435V68.6435ZM69.1325 69.5111C69.1325 69.0319 69.5209 68.6435 70.0001 68.6435V71.6435C71.1778 71.6435 72.1325 70.6888 72.1325 69.5111H69.1325Z" fill="#F27E63" mask="url(#path-18-inside-6_259_559)"/>
<rect x="67.842" y="58.7517" width="4.31806" height="5.07694" rx="2.15903" stroke="#F27E63" stroke-width="1.5"/>
<path d="M5.64189 28.0509C1.04193 23.5717 -2.69049 10.4327 10.0006 2.66878C13.9199 0.615704 21.3853 -0.690688 27.7307 5.46824C30.8413 8.88985 35.6067 17.7114 29.7837 25.6246L28.8505 26.9311M28.8505 26.9311L29.4104 31.5969C29.5971 33.2766 29.0372 36.636 25.3045 36.636H8.50751C7.44992 36.5116 5.33474 35.5535 5.33474 32.7167C5.27253 31.037 5.4094 27.267 6.45454 25.6246C7.13886 24.567 8.9181 22.4519 10.5605 22.4519C12.8001 24.256 18.623 26.7818 23.9981 22.4519C25.4192 22.1408 28.3793 22.6012 28.8505 26.9311Z" stroke="white" stroke-width="1.5"/>
<circle cx="17.2833" cy="12.9334" r="5.9688" stroke="white" stroke-width="1.5"/>
<path d="M94.7747 28.0509C90.1747 23.5717 86.4423 10.4327 99.1334 2.66878C103.053 0.615704 110.518 -0.690688 116.864 5.46824C119.974 8.88985 124.739 17.7114 118.917 25.6246L117.983 26.9311M117.983 26.9311L118.543 31.5969C118.73 33.2766 118.17 36.636 114.437 36.636H97.6403C96.5827 36.5116 94.4676 35.5535 94.4676 32.7167C94.4053 31.037 94.5422 27.267 95.5874 25.6246C96.2717 24.567 98.0509 22.4519 99.6933 22.4519C101.933 24.256 107.756 26.7818 113.131 22.4519C114.552 22.1408 117.512 22.6012 117.983 26.9311Z" stroke="white" stroke-width="1.5"/>
<circle cx="106.416" cy="12.9334" r="5.9688" stroke="white" stroke-width="1.5"/>
<path d="M5.64189 119.415C1.04193 114.936 -2.69049 101.797 10.0006 94.0333C13.9199 91.9802 21.3853 90.6738 27.7307 96.8327C30.8413 100.254 35.6067 109.076 29.7837 116.989L28.8505 118.296M28.8505 118.296L29.4104 122.961C29.5971 124.641 29.0372 128 25.3045 128H8.50751C7.44992 127.876 5.33474 126.918 5.33474 124.081C5.27253 122.401 5.4094 118.631 6.45454 116.989C7.13886 115.932 8.9181 113.816 10.5605 113.816C12.8001 115.62 18.623 118.146 23.9981 113.816C25.4192 113.505 28.3793 113.966 28.8505 118.296Z" stroke="white" stroke-width="1.5"/>
<circle cx="17.2833" cy="104.298" r="5.9688" stroke="white" stroke-width="1.5"/>
<path d="M94.7747 119.414C90.1747 114.935 86.4423 101.796 99.1334 94.0321C103.053 91.979 110.518 90.6726 116.864 96.8315C119.974 100.253 124.739 109.075 118.917 116.988L117.983 118.294M117.983 118.294L118.543 122.96C118.73 124.64 118.17 127.999 114.437 127.999H97.6403C96.5827 127.875 94.4676 126.917 94.4676 124.08C94.4053 122.4 94.5422 118.63 95.5874 116.988C96.2717 115.93 98.0509 113.815 99.6933 113.815C101.933 115.619 107.756 118.145 113.131 113.815C114.552 113.504 117.512 113.964 117.983 118.294Z" stroke="white" stroke-width="1.5"/>
<circle cx="106.416" cy="104.297" r="5.9688" stroke="white" stroke-width="1.5"/>
</svg>
