<svg width="127" height="126" viewBox="0 0 127 126" fill="none" xmlns="http://www.w3.org/2000/svg">
<circle cx="63.4697" cy="10.4951" r="9.64513" stroke="white" stroke-width="1.7"/>
<rect x="61.9704" y="19.9907" width="1.99907" height="12.994" fill="white"/>
<circle cx="63.4697" cy="115.446" r="9.64513" transform="rotate(-180 63.4697 115.446)" stroke="white" stroke-width="1.7"/>
<rect x="64.969" y="105.95" width="1.99907" height="12.994" transform="rotate(-180 64.969 105.95)" fill="white"/>
<circle cx="101.282" cy="25.8367" r="9.64513" transform="rotate(44.9577 101.282 25.8367)" stroke="white" stroke-width="1.7"/>
<rect x="93.5101" y="31.4968" width="1.99907" height="12.994" transform="rotate(44.9577 93.5101 31.4968)" fill="white"/>
<circle cx="115.507" cy="63.5569" r="9.64513" transform="rotate(90 115.507 63.5569)" stroke="white" stroke-width="1.7"/>
<rect x="106.011" y="62.0576" width="1.99907" height="12.994" transform="rotate(90 106.011 62.0576)" fill="white"/>
<circle cx="100.253" cy="100.962" r="9.64513" transform="rotate(135 100.253 100.962)" stroke="white" stroke-width="1.7"/>
<rect x="94.6016" y="93.188" width="1.99907" height="12.994" transform="rotate(135 94.6016 93.188)" fill="white"/>
<circle r="9.64513" transform="matrix(-0.707628 0.706585 0.706585 0.707628 24.7166 25.8367)" stroke="white" stroke-width="1.7"/>
<rect width="1.99907" height="12.994" transform="matrix(-0.707628 0.706585 0.706585 0.707628 32.4889 31.4968)" fill="white"/>
<circle r="9.64513" transform="matrix(0 1 1 0 10.4951 63.5569)" stroke="white" stroke-width="1.7"/>
<rect width="1.99907" height="12.994" transform="matrix(0 1 1 0 19.9907 62.0576)" fill="white"/>
<circle r="9.64513" transform="matrix(0.707107 0.707107 0.707107 -0.707107 25.7056 101.287)" stroke="white" stroke-width="1.7"/>
<rect width="1.99907" height="12.994" transform="matrix(0.707107 0.707107 0.707107 -0.707107 31.3588 93.5128)" fill="white"/>
<circle cx="62.97" cy="62.9702" r="30.1356" stroke="white" stroke-width="1.7"/>
<circle cx="62.9698" cy="62.9703" r="21.9893" stroke="#E27625" stroke-width="2"/>
<path fill-rule="evenodd" clip-rule="evenodd" d="M60.3562 51.0839C59.8027 51.3528 59.6315 51.7527 59.6315 52.7769V53.5274L58.1875 53.5522C56.6076 53.5795 56.5427 53.598 56.1654 54.1283C55.9449 54.4383 55.9449 55.1977 56.1654 55.5077C56.5065 55.9872 56.6763 56.0567 57.5772 56.0859L58.411 56.1131V62.5034V68.8937L57.5772 68.9209C56.6763 68.9501 56.5065 69.0197 56.1654 69.4991C55.9449 69.8091 55.9449 70.5685 56.1654 70.8785C56.5425 71.4086 56.6084 71.4274 58.1808 71.4545L59.6182 71.4792L59.6439 72.3495C59.6717 73.2898 59.7385 73.4689 60.1948 73.8264C60.4902 74.0579 61.2138 74.0579 61.5092 73.8264C61.966 73.4685 62.0323 73.2903 62.0602 72.3447L62.086 71.4697H63.293H64.5001L64.5259 72.3447C64.5538 73.2903 64.62 73.4685 65.0769 73.8264C65.3723 74.0579 66.0959 74.0579 66.3912 73.8264C66.8668 73.4538 66.9143 73.3101 66.9411 72.1635L66.9657 71.1072L67.4715 70.8281C67.7836 70.6559 68.1976 70.3192 68.5529 69.9485C70.3793 68.0433 70.4895 65.0884 68.8117 63.0126L68.3978 62.5006L68.7251 62.1024C69.5206 61.1347 69.9133 60.1458 69.9807 58.9409C70.0336 57.9947 69.8769 57.2194 69.4549 56.3392C69.0469 55.4884 68.2275 54.5959 67.4715 54.1787L66.9657 53.8996L66.9411 52.8433C66.9143 51.6968 66.8668 51.553 66.3912 51.1804C66.0959 50.949 65.3723 50.949 65.0769 51.1804C64.62 51.5383 64.5538 51.7166 64.5259 52.6621L64.5001 53.5371H63.293H62.086L62.0602 52.6621C62.0325 51.7214 61.9651 51.5376 61.5205 51.1892C61.2677 50.9912 60.6602 50.9362 60.3562 51.0839ZM66.2529 56.4125C66.7885 56.7173 67.0197 56.9687 67.3181 57.5714C67.4901 57.9188 67.5207 58.0825 67.5222 58.6607C67.5237 59.2839 67.502 59.3837 67.2647 59.8456C66.9769 60.4056 66.7396 60.6468 66.1618 60.9667L65.7722 61.1825L63.3121 61.2075L60.852 61.2325V58.6607V56.0889L63.3121 56.1139L65.7722 56.1389L66.2529 56.4125ZM66.2529 64.0979C66.7885 64.4027 67.0197 64.6541 67.3181 65.2568C67.4901 65.6042 67.5207 65.7679 67.5222 66.3461C67.5237 66.9693 67.502 67.0691 67.2647 67.531C66.9769 68.091 66.7396 68.3322 66.1618 68.6521L65.7722 68.8679L63.3121 68.8929L60.852 68.9179V66.3461V63.7743L63.3121 63.7993L65.7722 63.8243L66.2529 64.0979Z" fill="#E27625"/>
</svg>
