<svg width="128" height="107" viewBox="0 0 128 107" fill="none" xmlns="http://www.w3.org/2000/svg">
<path d="M29.4583 20.4167V16.3833H75.8417V6.85H29.4583V3L18 11.9833L29.4583 20.4167Z" stroke="#00ACD7" stroke-width="2"/>
<path d="M99.2174 24.0001L99.2174 28.0334L52.8341 28.0334L52.8341 37.5667L99.2174 37.5667L99.2174 41.4167L110.676 32.4334L99.2174 24.0001Z" stroke="#00ACD7" stroke-width="2"/>
<path d="M21.4917 94.5664H21.582L29.8463 65.5754C28.7616 69.0654 27.5778 72.5098 26.424 75.8489L26.4237 75.8497C26.2795 76.2789 26.1346 76.7092 25.9894 77.1406C24.242 82.3303 22.4436 87.6715 21.0881 93.1424C17.6912 92.5277 14.2466 91.874 10.8777 90.9582C9.52006 90.5058 8.14934 90.1879 6.82059 89.8797C6.72969 89.8586 6.63898 89.8375 6.5485 89.8165L6.54616 89.816C4.94287 89.4835 3.3603 89.0579 1.8065 88.5414C1.63554 88.4823 1.44808 88.4934 1.28527 88.5723C1.12222 88.6513 0.997228 88.7918 0.937797 88.963C0.878366 89.1341 0.889364 89.3219 0.968367 89.4849L1.05836 89.4413L0.968368 89.4849C1.04737 89.648 1.18791 89.773 1.35907 89.8324L1.36039 89.8328C2.96247 90.3643 4.59332 90.8046 6.24514 91.1518L6.2452 91.1518C7.67534 91.4515 9.08937 91.8235 10.4818 92.2663L10.4818 92.2664L10.4867 92.2677C14.156 93.2329 17.8782 93.9145 21.4739 94.5648L21.4827 94.5664H21.4917Z" fill="white" stroke="white" stroke-width="0.2"/>
<path d="M14.2 92.7072C14.3488 92.7076 14.4936 92.6599 14.613 92.5712C14.7324 92.4824 14.8198 92.3575 14.8623 92.215L14.8624 92.215L14.8635 92.2107C18.1727 78.9846 22.4756 66.0272 27.7356 53.4489C27.8068 53.2826 27.809 53.0948 27.7418 52.9268C27.6746 52.7587 27.5433 52.6242 27.3769 52.5529C27.2105 52.4815 27.0225 52.4792 26.8544 52.5465C26.6863 52.6137 26.5518 52.745 26.4804 52.9114L26.4801 52.9123C21.1923 65.5573 16.8657 78.5832 13.5371 91.879L13.537 91.8794C13.5156 91.9666 13.5116 92.0571 13.5253 92.1458C13.539 92.2345 13.5701 92.3196 13.6167 92.3962C13.6634 92.4729 13.7247 92.5396 13.7972 92.5925C13.8697 92.6453 13.9519 92.6834 14.0392 92.7044L14.0507 92.7072H14.0626H14.2ZM14.2 92.7072L14.2003 92.6072V92.7072H14.2Z" fill="white" stroke="white" stroke-width="0.2"/>
<path d="M117.195 49.965C117.162 50.0361 117.114 50.0999 117.056 50.1527C116.998 50.2056 116.93 50.2464 116.856 50.2729C110.703 52.4013 104.729 55.0161 98.9907 58.0925M117.195 49.965L117.285 50.0076C117.246 50.0906 117.191 50.165 117.124 50.2267C117.056 50.2884 116.976 50.3361 116.89 50.3671L116.889 50.3675C110.767 52.4852 104.822 55.0848 99.1101 58.1419M117.195 49.965C117.228 49.894 117.247 49.817 117.251 49.7385C117.255 49.6601 117.243 49.5817 117.216 49.5078M117.195 49.965L117.285 50.0076C117.324 49.9246 117.347 49.8347 117.351 49.7431C117.355 49.652 117.341 49.561 117.31 49.4752M99.1101 58.1419C99.1022 58.1158 99.0943 58.0896 99.0863 58.0635L98.9907 58.0925M99.1101 58.1419C99.0861 58.1548 99.062 58.1677 99.0379 58.1806L98.9907 58.0925M99.1101 58.1419C100.255 61.9157 101.399 65.6444 102.52 69.2948C102.702 69.8888 102.884 70.4806 103.065 71.0702M98.9907 58.0925C100.143 61.8933 101.296 65.6487 102.425 69.3246C102.607 69.9184 102.788 70.5101 102.969 71.0996M102.969 71.0996L103.065 71.0702M102.969 71.0996C103.086 71.4792 103.202 71.8578 103.318 72.2355C105.705 80.0014 107.974 87.3856 110.126 94.7682C110.157 94.757 110.189 94.7457 110.22 94.7345M102.969 71.0996L103.065 71.0703C103.065 71.0703 103.065 71.0703 103.065 71.0702M103.065 71.0702C103.182 71.4499 103.298 71.8285 103.414 72.2063C105.8 79.9701 108.069 87.3531 110.22 94.7345M110.22 94.7345C110.229 94.7665 110.239 94.7986 110.248 94.8307L126.125 88.1938C120.95 90.6106 115.608 92.8083 110.22 94.7345ZM117.216 49.5078L126.126 88.1937C126.207 88.1555 126.294 88.1337 126.384 88.1294C126.474 88.1251 126.563 88.1386 126.648 88.169C126.732 88.1994 126.81 88.2461 126.876 88.3065C126.943 88.3668 126.997 88.4397 127.035 88.5209C127.073 88.6021 127.095 88.6901 127.099 88.7798C127.104 88.8694 127.09 88.9591 127.06 89.0435C127.029 89.128 126.983 89.2057 126.922 89.2721C126.862 89.3385 126.789 89.3924 126.708 89.4306L126.707 89.4311C121.249 91.9342 115.638 94.2307 109.973 96.2287L109.972 96.229C109.9 96.2538 109.825 96.2661 109.749 96.2651M117.216 49.5078C117.191 49.4326 117.151 49.3633 117.099 49.304C117.046 49.2447 116.982 49.1968 116.911 49.1631C116.839 49.1295 116.761 49.1108 116.682 49.1082C116.603 49.1056 116.524 49.1193 116.451 49.1482M117.216 49.5078L117.31 49.4737C117.31 49.4742 117.31 49.4747 117.31 49.4752M117.216 49.5078L117.311 49.4766C117.311 49.4761 117.311 49.4756 117.31 49.4752M117.216 49.5078L116.451 49.1482M117.31 49.4752C117.281 49.3876 117.235 49.3068 117.174 49.2377C117.112 49.1683 117.037 49.1121 116.953 49.0726C116.869 49.0332 116.778 49.0113 116.686 49.0083C116.594 49.0053 116.502 49.021 116.416 49.0544M116.416 49.0544C110.048 51.2551 103.872 53.9746 97.9491 57.1855M116.416 49.0544C116.416 49.0546 116.415 49.0549 116.414 49.0551L116.451 49.1482M116.416 49.0544C116.417 49.0541 116.417 49.0539 116.418 49.0537L116.451 49.1482M97.9491 57.1855C97.809 57.2585 97.6989 57.3785 97.6382 57.5244C97.5775 57.6705 97.5701 57.8333 97.6173 57.9842C98.6279 61.3175 99.6426 64.6224 100.638 67.8628C101.006 69.063 101.372 70.2543 101.734 71.435L101.734 71.4351C102.015 72.3489 102.295 73.2572 102.573 74.1606C104.861 81.5853 107.047 88.6782 109.093 95.771C109.132 95.9148 109.217 96.0415 109.336 96.131C109.455 96.2205 109.6 96.2676 109.749 96.2651M97.9491 57.1855C97.9489 57.1856 97.9486 57.1858 97.9483 57.1859L97.996 57.2738L97.9499 57.1851C97.9497 57.1852 97.9494 57.1854 97.9491 57.1855ZM109.749 96.2651C109.748 96.2651 109.747 96.265 109.747 96.265L109.748 96.1651L109.75 96.265C109.75 96.265 109.749 96.2651 109.749 96.2651Z" fill="white" stroke="white" stroke-width="0.2"/>
<path d="M116.756 93.2197L116.756 93.22L116.763 93.2196C116.823 93.2167 116.883 93.2049 116.941 93.1847C117.026 93.1616 117.105 93.1222 117.175 93.0688C117.247 93.0145 117.306 92.9467 117.351 92.8692C117.396 92.7917 117.426 92.7062 117.437 92.6174C117.449 92.5287 117.444 92.4384 117.421 92.3519C114.015 79.5416 110.128 66.6624 105.865 54.0893L105.865 54.0892C105.807 53.918 105.683 53.7769 105.521 53.697C105.359 53.6172 105.171 53.605 105 53.6633C104.829 53.7215 104.688 53.8454 104.608 54.0077C104.528 54.1699 104.516 54.3572 104.574 54.5284C108.82 67.0743 112.698 79.9186 116.103 92.7093L116.103 92.7096C116.141 92.854 116.226 92.9818 116.344 93.0739C116.462 93.1659 116.606 93.2171 116.756 93.2197Z" fill="white" stroke="white" stroke-width="0.2"/>
<path d="M48.5505 73.8769L48.5503 73.877L48.5537 73.8826C48.9348 74.5164 49.4796 75.0359 50.131 75.3864C50.7816 75.7366 51.5145 75.9051 52.2528 75.8745H52.5415V75.8752L52.5535 75.8737C53.9433 75.7061 55.2851 75.2599 56.4986 74.5619L58.8983 73.362L58.8985 73.362L58.9111 73.3557C63.8403 70.9025 68.5178 68.5747 72.9818 65.4277C73.1302 65.3243 73.2315 65.1662 73.2635 64.9881C73.2954 64.8099 73.2553 64.6263 73.1518 64.4777C73.0484 64.3291 72.8902 64.2276 72.712 64.1957C72.5338 64.1638 72.3502 64.2039 72.2016 64.3073L72.2011 64.3077C67.8283 67.3876 63.2277 69.6808 58.3539 72.11L58.2891 72.1423L58.2889 72.1424L55.8789 73.3359L55.8788 73.3357L55.8723 73.3395C54.8252 73.9613 53.6612 74.3605 52.4529 74.5122C51.9338 74.573 51.408 74.4869 50.9354 74.2637C50.4643 74.0412 50.065 73.6913 49.7824 73.2538C49.5128 72.7036 49.5003 72.0535 49.7751 71.2833C50.0514 70.5087 50.6165 69.6185 51.4925 68.6017L51.5198 68.5701C54.6651 64.9286 57.9093 61.1724 61.88 58.3808L61.88 58.3808C66.2637 55.2931 71.0204 53.896 75.2664 54.4423C77.4713 54.8087 79.6273 55.4251 81.6927 56.2797L81.6927 56.2798L81.6969 56.2813C81.8161 56.3245 81.9362 56.3682 82.0572 56.4122C82.6418 56.6248 83.244 56.8438 83.841 57.047C88.442 58.6239 93.2629 59.4649 98.126 59.5391L98.126 59.5399L98.1389 59.5384C98.307 59.5192 98.4622 59.4387 98.5748 59.3125L98.5002 59.2459L98.5748 59.3125C98.6874 59.1862 98.7497 59.023 98.7497 58.8538C98.7497 58.6846 98.6874 58.5213 98.5748 58.395L98.5002 58.4616L98.5748 58.395C98.4622 58.2687 98.307 58.1883 98.1389 58.1691L98.139 58.1686L98.129 58.1684C93.4093 58.102 88.73 57.2877 84.2654 55.756L84.2648 55.7559C83.5632 55.5195 82.8459 55.2524 82.1579 54.9925C79.9934 54.1026 77.7358 53.4591 75.4275 53.0741L75.4275 53.074L75.4235 53.0735C70.8333 52.4959 65.7361 53.9829 61.084 57.2532C56.9558 60.1536 53.6351 63.9966 50.4459 67.6983C50.0558 68.1495 49.2634 69.067 48.7272 70.1801C48.1912 71.2925 47.9022 72.6199 48.5505 73.8769Z" fill="white" stroke="white" stroke-width="0.2"/>
<path d="M95.349 97.1068L95.349 97.1069L95.3552 97.1066C95.4452 97.1013 95.5332 97.0774 95.6134 97.0363C99.7978 95.2998 104.051 93.5021 108.213 91.6813L108.213 91.6814L108.218 91.6791C108.374 91.6007 108.494 91.4654 108.553 91.3011C108.612 91.1368 108.606 90.9561 108.536 90.7962C108.466 90.6363 108.337 90.5094 108.176 90.4417C108.015 90.3741 107.834 90.3708 107.671 90.4326L107.671 90.4325L107.666 90.4347C103.504 92.2706 99.2816 94.0683 95.0895 95.7895L95.0895 95.7895L95.0882 95.7901C94.9218 95.8612 94.79 95.9949 94.7213 96.1624C94.6527 96.3298 94.6526 96.5176 94.7212 96.6851L94.7214 96.6853C94.7727 96.8097 94.8597 96.916 94.9714 96.9911C95.0831 97.0661 95.2145 97.1063 95.349 97.1068Z" fill="white" stroke="white" stroke-width="0.2"/>
<path d="M72.0363 64.6725C72.0062 64.7433 71.9905 64.8193 71.99 64.8962C71.9895 64.9731 72.0043 65.0494 72.0335 65.1206C72.0626 65.1917 72.1056 65.2564 72.16 65.3108C72.2143 65.3652 72.2789 65.4083 72.35 65.4376L72.3112 65.5298C72.3113 65.5298 72.3114 65.5299 72.3115 65.5299M72.0363 64.6725L72.3115 65.5299M72.0363 64.6725C72.0971 64.5302 72.2114 64.4176 72.3546 64.3589M72.0363 64.6725L72.3546 64.3589M72.3115 65.5299C72.2284 65.4956 72.1528 65.4451 72.0892 65.3815C72.0255 65.3177 71.9751 65.2419 71.9409 65.1585C71.9067 65.0751 71.8894 64.9857 71.89 64.8956C71.8906 64.8055 71.909 64.7163 71.9443 64.6334L71.9444 64.6332C72.0155 64.4668 72.1492 64.335 72.3167 64.2663C72.4841 64.1977 72.6719 64.1976 72.8394 64.2663L72.8402 64.2666L72.8402 64.2666C79.3777 67.0179 84.9867 71.5902 88.9993 77.4389C93.0108 83.2862 95.2576 90.163 95.4724 97.2507C95.5243 97.6262 95.478 98.0089 95.3382 98.3613C95.1976 98.7155 94.9674 99.027 94.67 99.2653L94.6616 99.272L94.652 99.2768C94.3654 99.4192 94.0448 99.4786 93.7264 99.4483C93.6122 99.4564 93.4976 99.4562 93.3834 99.4476L93.3745 99.447L93.3745 99.4466C92.2881 99.266 91.2532 98.8541 90.3397 98.2389C89.4265 97.6239 88.656 96.8199 88.0803 95.8813C87.2437 94.565 86.5413 93.168 85.9837 91.7114C85.9278 91.5816 85.8726 91.4522 85.8177 91.3232C85.6842 91.0099 85.5518 90.6991 85.4115 90.3915L85.4112 90.3908C83.8391 86.8676 81.6987 83.6267 79.0755 80.7976C79.0018 80.7361 78.9419 80.6596 78.8999 80.5732C78.8567 80.4847 78.8333 80.3879 78.8312 80.2894C78.829 80.191 78.8483 80.0933 78.8875 80.003C78.9268 79.9126 78.9852 79.8319 79.0586 79.7664C79.1321 79.7008 79.2188 79.6519 79.313 79.6231C79.4072 79.5942 79.5064 79.5862 79.604 79.5994C79.7016 79.6126 79.7951 79.6468 79.8782 79.6997C79.9588 79.7509 80.0276 79.8184 80.0803 79.8979C82.8029 82.8384 85.0247 86.2056 86.6573 89.8654C86.8106 90.2073 86.9594 90.554 87.1068 90.8974C87.1511 91.0006 87.1952 91.1034 87.2393 91.2057L87.241 91.2096L87.2409 91.2096C87.7657 92.5847 88.4265 93.9039 89.2137 95.1475L89.2149 95.1494L89.2149 95.1494C89.681 95.924 90.3072 96.5902 91.0516 97.1033C91.7958 97.6163 92.6411 97.9646 93.5308 98.1247C93.6762 98.1499 93.8257 98.1371 93.9646 98.0876C94.0008 98.0602 94.0428 97.9941 94.0727 97.8583C94.1037 97.7177 94.1172 97.5223 94.1096 97.27C93.8917 90.4488 91.7223 83.8332 87.8587 78.2075C83.9952 72.5819 78.5996 68.1822 72.3115 65.5299ZM72.3546 64.3589C72.4978 64.3002 72.6583 64.3001 72.8014 64.3588L72.3546 64.3589Z" fill="white" stroke="white" stroke-width="0.2"/>
<path d="M62.3783 103.751L62.3782 103.751C62.232 103.644 62.0493 103.6 61.8703 103.627C61.6913 103.655 61.5306 103.753 61.4236 103.899C61.3166 104.045 61.2721 104.228 61.2999 104.407C61.3276 104.586 61.4251 104.746 61.5709 104.853C62.4491 105.515 63.5247 105.862 64.6241 105.837C64.6242 105.837 64.6243 105.837 64.6245 105.837L65.1731 105.829H65.1737H65.2573V105.829L65.262 105.829C66.0519 105.791 66.8262 105.596 67.5398 105.256C68.2533 104.915 68.8916 104.435 69.4175 103.845C69.7385 103.49 69.9816 103.072 70.1309 102.617C70.2797 102.164 70.3321 101.685 70.2846 101.21C70.283 100.697 70.2588 100.185 70.2121 99.6749C70.7444 100.186 71.3302 100.638 71.9596 101.024C72.6194 101.46 73.3685 101.743 74.1519 101.853C74.9359 101.962 75.7345 101.894 76.4889 101.655L76.489 101.655L76.4929 101.653C77.413 101.318 78.3505 100.42 78.9954 99.357C79.6401 98.2948 80.0077 97.0427 79.7541 95.9888L79.7541 95.9886C79.7113 95.8127 79.6003 95.6609 79.4457 95.5668C79.291 95.4726 79.1053 95.4438 78.9293 95.4866C78.7534 95.5294 78.6017 95.6403 78.5075 95.795C78.4134 95.9496 78.3845 96.1353 78.4273 96.3113C78.5004 96.6125 78.4747 96.9861 78.3678 97.3904C78.2613 97.7936 78.0759 98.2203 77.8377 98.6241C77.3597 99.4347 76.6819 100.132 76.0297 100.37C75.4661 100.534 74.8735 100.574 74.2931 100.486C73.7117 100.398 73.1563 100.185 72.6655 99.8617C71.5781 99.1318 70.6056 98.2438 69.7803 97.227L69.7804 97.2268L69.7762 97.2223C69.6772 97.1146 69.5461 97.0416 69.4024 97.0142C69.2591 96.9868 69.1107 97.0061 68.9792 97.0694C68.8455 97.1305 68.7355 97.2337 68.6659 97.3631C68.5961 97.493 68.5708 97.6421 68.5939 97.7877L68.5939 97.7877L68.5942 97.7892C68.7931 98.9311 68.9 100.087 68.914 101.246V101.246V101.247V101.247V101.247V101.247V101.247V101.247V101.248V101.248V101.248V101.248V101.248V101.249V101.249V101.249V101.249V101.249V101.25V101.25V101.25V101.25V101.25V101.25V101.251V101.251V101.251V101.251V101.251V101.252V101.252V101.252V101.252V101.252V101.253V101.253V101.253V101.253V101.253V101.253V101.254V101.254V101.254V101.254V101.254V101.255V101.255V101.255V101.255V101.255V101.256V101.256V101.256V101.256V101.256V101.257V101.257V101.257V101.257V101.257V101.258V101.258V101.258V101.258V101.258V101.259V101.259V101.259V101.259V101.259V101.26V101.26V101.26V101.26V101.26V101.261V101.261V101.261V101.261V101.261V101.262V101.262V101.262V101.262V101.262V101.263V101.263V101.263V101.263V101.263V101.264V101.264V101.264V101.264V101.264V101.265V101.265V101.265V101.265V101.265V101.266V101.266V101.266V101.266V101.266V101.267V101.267V101.267V101.267V101.267V101.268V101.268V101.268V101.268V101.268V101.269V101.269V101.269V101.269V101.269V101.27V101.27V101.27V101.27V101.27V101.271V101.271V101.271V101.271V101.271V101.272V101.272V101.272V101.272V101.272V101.273V101.273V101.273V101.273V101.273V101.274V101.274V101.274V101.274V101.274V101.275V101.275V101.275V101.275V101.275V101.276V101.276V101.276V101.276V101.276V101.277V101.277V101.277V101.277V101.277V101.278V101.278V101.278V101.278V101.278V101.279V101.279V101.279V101.279V101.279V101.28V101.28V101.28V101.28V101.28V101.281V101.281V101.281V101.281V101.281V101.282V101.282V101.282V101.282V101.282V101.283V101.283V101.283V101.283V101.283V101.284V101.284V101.284V101.284V101.284V101.285V101.285V101.285V101.285V101.285V101.285V101.286V101.286V101.286V101.286V101.286V101.287V101.287V101.287V101.287V101.287V101.288V101.288V101.288V101.288V101.288V101.289V101.289V101.289V101.289V101.289V101.29V101.29V101.29V101.29V101.29V101.29V101.291V101.291V101.291V101.291V101.291V101.292V101.292V101.292V101.292V101.292V101.293V101.293V101.293V101.293V101.293V101.293V101.294V101.294V101.294V101.294V101.294V101.295V101.295V101.295V101.295V101.295V101.295V101.296V101.296V101.296V101.296V101.296V101.296V101.297V101.297V101.297V101.297V101.297V101.298V101.298V101.298V101.298V101.298V101.298V101.299V101.299V101.299V101.299V101.299V101.299V101.3V101.3V101.3V101.3V101.3V101.3V101.301V101.301V101.301V101.301V101.301V101.301V101.302V101.302V101.302V101.302V101.302V101.302V101.303V101.303V101.303V101.303V101.303V101.303V101.304V101.304V101.304V101.304V101.304V101.304V101.305V101.305V101.305V101.305V101.305V101.305V101.305V101.306V101.306V101.306V101.306V101.306V101.306V101.307V101.307V101.307V101.307V101.307V101.307V101.307V101.308V101.308V101.308V101.308V101.308V101.308V101.308V101.309V101.309V101.309V101.309V101.309V101.309V101.309V101.31V101.31V101.31V101.31V101.31V101.31V101.31V101.31V101.311V101.311V101.311V101.311V101.311V101.311V101.311V101.312V101.312V101.312V101.312V101.312V101.312V101.312V101.312V101.313V101.313V101.313V101.313V101.313V101.313V101.313V101.313V101.314V101.314V101.314V101.314V101.314V101.314V101.314V101.314V101.314V101.315V101.315V101.315V101.315V101.315V101.315V101.315V101.315V101.315V101.316V101.316V101.316V101.316V101.316V101.316V101.316V101.316V101.316V101.316V101.317V101.317V101.317V101.317V101.317V101.317V101.317V101.317V101.317V101.317V101.317V101.318V101.318V101.318V101.318V101.318V101.318V101.318V101.318V101.318V101.318V101.318V101.319V101.319V101.319V101.319V101.319V101.319V101.319V101.319V101.319V101.319V101.319V101.319V101.319V101.32V101.32V101.32V101.32V101.32V101.32V101.32V101.32V101.32V101.32V101.32V101.32V101.32V101.32V101.32V101.32V101.321V101.321V101.321V101.321V101.321V101.321V101.321V101.321V101.321V101.321V101.321V101.321V101.321V101.321V101.321V101.321V101.321V101.321V101.321V101.321V101.321V101.322V101.322V101.322V101.322V101.322V101.322V101.322V101.322V101.322V101.322V101.322V101.322V101.322V101.322V101.322V101.322V101.322V101.322V101.322V101.322V101.322V101.322V101.322V101.322V101.322V101.322V101.322V101.322V101.322V101.322V101.322V101.322V101.322V101.322V101.322V101.322L68.9136 101.322L68.9144 101.331C68.9411 101.626 68.9061 101.923 68.8118 102.204C68.7174 102.484 68.5657 102.742 68.3663 102.961L68.3662 102.961C67.5504 103.859 66.4126 104.397 65.2012 104.459H65.1195V104.458L65.1071 104.459C64.1404 104.581 63.1639 104.327 62.3783 103.751Z" fill="white" stroke="white" stroke-width="0.2"/>
<path d="M83.7929 101.062L83.7929 101.062C83.3049 101.049 82.8238 100.945 82.3734 100.757C81.2474 100.319 80.3901 99.4872 79.6753 98.4811C78.9609 97.4755 78.3835 96.2875 77.8219 95.1299L77.8216 95.1292C77.0544 93.5181 76.2284 91.8703 75.1446 90.9069L75.14 90.9028L75.1401 90.9026C75.0184 90.7802 74.9477 90.6161 74.9423 90.4435C74.9369 90.2709 74.9973 90.1027 75.1111 89.9729C75.225 89.843 75.3839 89.7613 75.5557 89.7441C75.7276 89.727 75.8995 89.7757 76.0368 89.8804L76.0429 89.8851L76.0427 89.8853C77.3158 91.0212 78.1809 92.7676 78.9996 94.4205C79.0138 94.4491 79.0279 94.4777 79.0421 94.5063L79.0424 94.5069L79.044 94.5102C79.5837 95.6202 80.1041 96.6905 80.7095 97.5697C81.3151 98.4492 81.999 99.1271 82.8598 99.4612C83.2459 99.6079 83.6441 99.758 84.0986 99.6304C84.5523 99.5031 85.0872 99.0902 85.7124 98.0377C86.018 97.4216 86.1812 96.7447 86.19 96.057C86.2027 94.2014 85.9228 92.3554 85.3607 90.587L85.3594 90.5828L85.3595 90.5828C85.2827 90.2989 85.2137 90.0227 85.1449 89.7476L85.1448 89.747C85.1008 89.5711 85.1285 89.3849 85.2218 89.2295C85.3151 89.074 85.4663 88.9619 85.6422 88.918C85.8181 88.874 86.0042 88.9017 86.1597 88.995C86.3151 89.0882 86.4271 89.2393 86.4711 89.4152L83.7929 101.062ZM83.7929 101.062H83.7957C84.7924 101.062 85.8377 100.518 86.8889 98.7252L86.889 98.7253L86.8912 98.7212C87.3107 97.9231 87.5374 97.0377 87.553 96.1362L87.553 96.1359C87.5821 94.1331 87.2863 92.1389 86.677 90.2308L86.4712 89.4154L83.7929 101.062Z" fill="white" stroke="white" stroke-width="0.2"/>
<path d="M45.8994 100.711V100.711H45.7473C44.7272 100.73 43.7267 100.429 42.8863 99.8509C42.0457 99.2722 41.4075 98.4447 41.0615 97.4845L41.0587 97.4768L41.0591 97.4767C40.8937 96.8646 40.8471 96.2271 40.921 95.5986C39.7188 96.277 38.3155 96.5163 36.9527 96.2713L36.9525 96.2713C35.8725 96.0753 34.8756 95.5611 34.0897 94.7947C33.3045 94.0289 32.7657 93.0462 32.5424 91.9724C32.4665 91.684 32.4629 91.3812 32.5319 91.0911C32.6012 90.8 32.7413 90.5306 32.9399 90.3069L32.9444 90.3018L32.9445 90.302C33.0735 90.1751 33.247 90.1041 33.4278 90.1041C33.6087 90.1041 33.7822 90.1751 33.9111 90.302L33.9114 90.3022C33.9754 90.3656 34.0262 90.441 34.0608 90.5241C34.0955 90.6072 34.1133 90.6964 34.1133 90.7864C34.1133 90.8765 34.0955 90.9656 34.0608 91.0487L45.8994 100.711ZM45.8994 100.711L45.9051 100.71C47.7471 100.605 49.5296 100.02 51.0762 99.0138C51.894 98.5868 52.6338 98.0244 53.264 97.3506L53.2641 97.3507L53.2665 97.3478C53.9227 96.5915 54.3408 95.6581 54.4682 94.6649C54.5819 93.9817 54.468 93.28 54.144 92.6678L54.144 92.6678L54.1429 92.6658C53.4944 91.5048 52.1031 91.0146 50.0844 91.1764C47.5832 91.3679 45.1242 91.9295 42.7878 92.843C42.6167 92.9071 42.4495 92.9812 42.2872 93.0652C42.1604 93.0268 42.0249 93.0252 41.8967 93.0612C41.7539 93.1013 41.6276 93.186 41.5362 93.3028C41.0318 93.9336 40.3666 94.4167 39.6107 94.7012C38.8546 94.9857 38.0357 95.061 37.2404 94.9191L37.2402 94.9191C36.4346 94.7774 35.6897 94.398 35.1014 93.8297C34.5131 93.2613 34.1083 92.53 33.9388 91.7298L33.9391 91.7297L33.9372 91.723C33.8934 91.5699 33.8823 91.4569 33.8864 91.3799C33.8884 91.3414 33.8941 91.3135 33.9004 91.2947C33.9064 91.2765 33.9119 91.2702 33.9118 91.2702C33.9118 91.2702 33.9118 91.2702 33.9118 91.2702L45.8994 100.711ZM33.4278 90.2041C33.5824 90.2041 33.7308 90.2648 33.841 90.3732L32.6292 91.1142C32.6946 90.8392 32.8271 90.5847 33.0147 90.3732C33.1249 90.2648 33.2733 90.2041 33.4278 90.2041ZM42.3697 97.0972C42.1904 96.2524 42.2411 95.3751 42.5161 94.5568C42.7166 94.3708 42.95 94.2239 43.2045 94.1236C45.4172 93.2584 47.7462 92.7269 50.1151 92.5465L50.1156 92.5464C50.6313 92.5047 51.2149 92.5054 51.7261 92.619C52.237 92.7325 52.6587 92.9548 52.8801 93.3419C53.0467 93.7024 53.1019 94.1045 53.0387 94.4967L53.0387 94.4967L53.0383 94.4997C52.944 95.2243 52.6387 95.9053 52.1604 96.4578C51.6304 97.0183 51.0088 97.4844 50.3221 97.836L50.3219 97.8356L50.3133 97.8411C48.9554 98.7217 47.3903 99.2306 45.7743 99.317C44.387 99.316 42.7827 98.513 42.3697 97.0972Z" fill="white" stroke="white" stroke-width="0.2"/>
<path d="M49.0769 103.994L49.077 103.994C48.3595 103.562 47.7766 102.938 47.3937 102.193C47.0109 101.448 46.8432 100.611 46.9095 99.7761L46.9096 99.7749L46.9096 99.7749C46.9178 99.6854 46.9436 99.5985 46.9854 99.519L47.0739 99.5656M49.0769 103.994L48.1722 99.8911M49.0769 103.994L49.0789 103.995C49.8507 104.436 50.7267 104.663 51.6157 104.651C52.3693 104.653 53.1177 104.527 53.8289 104.278L53.8289 104.278L53.8336 104.276C55.2345 103.704 56.5347 102.911 57.6847 101.927C59.4802 100.529 61.213 98.8837 61.3859 96.634C61.4249 96.3124 61.3832 95.9861 61.2647 95.6846L61.2649 95.6846L61.2621 95.6786C61.0901 95.3135 60.8078 95.0115 60.4551 94.8152L60.4545 94.8149C59.1915 94.1227 57.7109 93.9414 56.3182 94.3085L56.3179 94.3086C55.1692 94.615 54.0638 95.0654 53.0281 95.6491L52.8604 95.7405C52.7067 95.8243 52.5907 95.9635 52.5358 96.1297C52.481 96.2959 52.4914 96.4767 52.5651 96.6355L52.5649 96.6356L52.5679 96.6413C52.6518 96.7953 52.7918 96.9111 52.9588 96.9645C53.1258 97.0179 53.307 97.005 53.4647 96.9282L53.4647 96.9282L53.4656 96.9278L53.6339 96.8436L53.634 96.8438L53.639 96.8409C54.5707 96.3059 55.5683 95.8951 56.6066 95.6189L56.6073 95.6187C57.6573 95.3304 58.7776 95.4534 59.74 95.9626L59.7399 95.9627L59.7419 95.9636C59.8517 96.0187 59.9453 96.1013 60.0136 96.2032C60.0308 96.2978 60.0297 96.3948 60.0102 96.489L60.0095 96.4889L60.0085 96.5002C59.9305 97.354 59.5349 98.1239 58.9563 98.8384C58.3773 99.5534 57.6194 100.208 56.8252 100.83L56.8252 100.83L56.8217 100.833C55.783 101.726 54.6094 102.448 53.3445 102.974C52.7697 103.211 52.1502 103.319 51.5292 103.292C50.9094 103.265 50.3029 103.104 49.7518 102.819M49.0769 103.994L49.7024 102.906M47.0739 99.5656L46.9854 99.519C47.0273 99.4395 47.0843 99.3691 47.1534 99.3116C47.2225 99.2542 47.3022 99.211 47.388 99.1844L47.4176 99.2799L47.388 99.1844C47.4738 99.1578 47.5639 99.1483 47.6534 99.1565C47.7428 99.1648 47.8298 99.1905 47.9092 99.2324C47.9887 99.2742 48.0592 99.3313 48.1166 99.4004C48.174 99.4694 48.2173 99.5492 48.2439 99.6349C48.2704 99.7205 48.2799 99.8104 48.2718 99.8995M47.0739 99.5656C47.0382 99.6334 47.0162 99.7077 47.0092 99.784L47.0739 99.5656ZM48.2718 99.8995C48.2718 99.8993 48.2718 99.8991 48.2719 99.8988L48.1722 99.8911M48.2718 99.8995C48.2718 99.8998 48.2718 99.9001 48.2717 99.9003L48.1722 99.8911M48.2718 99.8995C48.2275 100.476 48.3424 101.053 48.6039 101.568C48.8649 102.082 49.2619 102.515 49.7518 102.819M48.1722 99.8911C48.1263 100.486 48.2448 101.081 48.5147 101.613C48.7846 102.145 49.1955 102.592 49.7024 102.906M49.7518 102.819C49.7507 102.818 49.7495 102.818 49.7484 102.817L49.7024 102.906M49.7518 102.819C49.7529 102.819 49.754 102.82 49.755 102.821L49.7024 102.906" fill="white" stroke="white" stroke-width="0.2"/>
<path d="M58.4162 106.311C58.7287 106.312 59.0408 106.289 59.3497 106.241L59.3497 106.241L59.3578 106.24C60.9388 105.859 62.3872 105.058 63.5491 103.921C64.0025 103.528 64.532 103.019 64.9244 102.411C65.3181 101.802 65.5776 101.088 65.4781 100.292L65.4783 100.292L65.477 100.285C65.3362 99.5644 64.955 98.9126 64.3958 98.4365C63.8365 97.9604 63.1322 97.6881 62.3982 97.6642L62.3982 97.6642L62.3947 97.6642C61.0951 97.6664 59.8417 98.1457 58.8722 99.0112C58.7311 99.1229 58.6397 99.2858 58.618 99.4645C58.5961 99.6444 58.6466 99.8256 58.7583 99.9682C58.8701 100.111 59.0339 100.203 59.2137 100.225C59.3936 100.247 59.5748 100.196 59.7174 100.085L59.7177 100.085L59.7239 100.079C60.4339 99.418 61.3635 99.0433 62.3335 99.0272C62.7509 99.036 63.1535 99.1833 63.478 99.446C63.8011 99.7077 64.0285 100.069 64.1246 100.473C64.1851 101.177 63.7381 101.941 62.6277 102.907L62.6275 102.907L62.6231 102.911C61.6455 103.876 60.4258 104.559 59.0925 104.889C58.2335 105.027 57.3526 104.897 56.5707 104.515C56.3273 104.393 56.0743 104.215 55.8835 104.002C55.6929 103.79 55.5716 103.551 55.5705 103.307C55.5761 103.218 55.5643 103.13 55.536 103.046C55.5073 102.961 55.462 102.882 55.4029 102.815C55.3437 102.748 55.2718 102.692 55.1913 102.653C55.1107 102.613 55.0232 102.59 54.9336 102.584L54.9328 102.584C54.7529 102.574 54.5762 102.635 54.4407 102.754C54.3052 102.873 54.2216 103.04 54.2078 103.22L54.2072 103.219L54.2076 103.231C54.2279 103.774 54.405 104.3 54.7175 104.745C55.0292 105.188 55.4624 105.533 55.965 105.736C56.726 106.116 57.5654 106.313 58.4162 106.311ZM58.4162 106.311C58.4161 106.311 58.416 106.311 58.4159 106.311L58.4163 106.211L58.4165 106.311C58.4164 106.311 58.4163 106.311 58.4162 106.311Z" fill="white" stroke="white" stroke-width="0.2"/>
<path d="M42.1059 94.0617L42.0963 94.0616C41.9351 94.0597 41.7796 94.0014 41.657 93.8967C41.5343 93.7921 41.4523 93.6477 41.4251 93.4888M42.1059 94.0617L41.5236 93.4719M42.1059 94.0617L42.1153 94.06L42.1985 94.0448C42.1987 94.0448 42.1989 94.0448 42.199 94.0448M42.1059 94.0617L42.199 94.0448M41.4251 93.4888L41.5236 93.4719M41.4251 93.4888C41.4251 93.4889 41.4251 93.489 41.4251 93.4891L41.5236 93.4719M41.4251 93.4888C41.3274 92.929 40.9648 92.4722 40.5223 92.112C40.0802 91.7522 39.5676 91.4964 39.1895 91.3376L39.1893 91.3375C36.9833 90.4051 35.0838 90.4418 33.5278 91.4218L33.5258 91.4231L33.5258 91.4231C33.3807 91.5097 33.2086 91.5393 33.0429 91.5061C32.8772 91.473 32.7297 91.3795 32.6291 91.2438L32.6274 91.2416L32.6275 91.2416C30.5557 88.2828 27.7158 85.9455 24.4137 84.4816M41.5236 93.4719C41.317 92.286 39.9934 91.5668 39.2282 91.2454C37.0017 90.3043 35.066 90.3349 33.4745 91.3372C33.3507 91.4111 33.2039 91.4364 33.0625 91.4081C32.9211 91.3798 32.7953 91.3 32.7094 91.1842C30.6271 88.2104 27.7726 85.8612 24.4537 84.3899M24.4137 84.4816C24.4139 84.4816 24.4141 84.4817 24.4143 84.4818L24.4537 84.3899M24.4137 84.4816C24.4135 84.4815 24.4134 84.4814 24.4132 84.4813L24.4537 84.3899M24.4137 84.4816C24.2476 84.4102 24.1165 84.2758 24.0494 84.1079C23.9821 83.9397 23.9844 83.7518 24.0557 83.5854C24.1271 83.419 24.2616 83.2877 24.4297 83.2204C24.5978 83.1532 24.7857 83.1555 24.9522 83.2268L24.9533 83.2273L24.9533 83.2273C28.2904 84.7051 31.1866 87.0234 33.3592 89.9548M24.4537 84.3899C24.3117 84.329 24.1996 84.2142 24.1422 84.0707C24.0848 83.9272 24.0868 83.7668 24.1477 83.6248C24.2085 83.4827 24.3233 83.3707 24.4668 83.3133C24.6103 83.2559 24.7707 83.2578 24.9128 83.3187C28.2599 84.801 31.1613 87.1327 33.3291 90.0824M33.3592 89.9548C33.3338 89.9676 33.3084 89.9805 33.2831 89.9937L33.3291 90.0824M33.3592 89.9548C33.3761 89.9776 33.3929 90.0004 33.4097 90.0232L33.3291 90.0824M33.3592 89.9548C35.2038 89.0289 37.3444 89.0777 39.7186 90.0821M33.3291 90.0824C35.1578 89.1337 37.2925 89.1643 39.6797 90.1742M39.6797 90.1742L39.7183 90.082C39.7184 90.082 39.7185 90.0821 39.7186 90.0821M39.6797 90.1742L39.7186 90.0821M39.6797 90.1742L42.7545 93.256M39.7186 90.0821C41.4345 90.801 42.5247 91.9243 42.7545 93.256M42.7545 93.256C42.77 93.3442 42.7678 93.4347 42.7482 93.5221C42.7286 93.6096 42.692 93.6924 42.6403 93.7657C42.5887 93.839 42.5231 93.9014 42.4473 93.9493C42.3716 93.9971 42.2872 94.0296 42.199 94.0448M42.7545 93.256L42.199 94.0448" fill="white" stroke="white" stroke-width="0.2"/>
<path d="M33.6707 58.5674L33.6894 58.5677L33.7069 58.5611C33.7651 58.5394 33.8188 58.5074 33.8656 58.4669C39.7838 57.0455 45.608 55.2577 51.3043 53.1136C51.3045 53.1135 51.3047 53.1134 51.3049 53.1134L51.7475 52.9531L51.7476 52.9532L51.7512 52.9517C53.5423 52.2231 55.4143 51.7116 57.327 51.428C61.6932 50.9427 65.8672 52.8863 69.5751 54.6177L69.5751 54.6177L69.5775 54.6188C69.7406 54.6897 69.9248 54.6949 70.0916 54.6332C70.2584 54.5714 70.3949 54.4476 70.4725 54.2876L70.4737 54.285C70.5471 54.1219 70.5535 53.9365 70.4914 53.7687L70.3976 53.8034L70.4914 53.7687C70.4294 53.601 70.3038 53.4643 70.1419 53.3883L70.1414 53.3881C70.0851 53.362 70.0286 53.336 69.9721 53.3098C66.1771 51.5553 61.8566 49.5579 57.1732 50.0741L57.1732 50.074L57.1691 50.0746C55.1451 50.3822 53.1652 50.9312 51.2719 51.7099L50.8302 51.8699L50.8288 51.8704C45.1742 54.0081 39.3932 55.7955 33.5187 57.2225C33.3431 57.2632 33.1907 57.3718 33.095 57.5246C32.9992 57.6776 32.9679 57.8624 33.0082 58.0383L33.0082 58.0383L33.0084 58.0394C33.0443 58.1886 33.1289 58.3215 33.2489 58.4172C33.3689 58.5128 33.5173 58.5657 33.6707 58.5674Z" fill="white" stroke="white" stroke-width="0.2"/>
<path d="M21.4917 94.5664H21.582L29.8463 65.5754C28.7616 69.0654 27.5778 72.5098 26.424 75.8489L26.4237 75.8497C26.2795 76.2789 26.1346 76.7092 25.9894 77.1406C24.242 82.3303 22.4436 87.6715 21.0881 93.1424C17.6912 92.5277 14.2466 91.874 10.8777 90.9582C9.52006 90.5058 8.14934 90.1879 6.82059 89.8797C6.72969 89.8586 6.63898 89.8375 6.5485 89.8165L6.54616 89.816C4.94287 89.4835 3.3603 89.0579 1.8065 88.5414C1.63554 88.4823 1.44808 88.4934 1.28527 88.5723C1.12222 88.6513 0.997228 88.7918 0.937797 88.963C0.878366 89.1341 0.889364 89.3219 0.968367 89.4849L1.05836 89.4413L0.968368 89.4849C1.04737 89.648 1.18791 89.773 1.35907 89.8324L1.36039 89.8328C2.96247 90.3643 4.59332 90.8046 6.24514 91.1518L6.2452 91.1518C7.67534 91.4515 9.08937 91.8235 10.4818 92.2663L10.4818 92.2664L10.4867 92.2677C14.156 93.2329 17.8782 93.9145 21.4739 94.5648L21.4827 94.5664H21.4917Z" fill="white" stroke="white" stroke-width="0.2"/>
<path d="M14.2 92.7072C14.3488 92.7076 14.4936 92.6599 14.613 92.5712C14.7324 92.4824 14.8198 92.3575 14.8623 92.215L14.8624 92.215L14.8635 92.2107C18.1727 78.9846 22.4756 66.0272 27.7356 53.4489C27.8068 53.2826 27.809 53.0948 27.7418 52.9268C27.6746 52.7587 27.5433 52.6242 27.3769 52.5529C27.2105 52.4815 27.0225 52.4792 26.8544 52.5465C26.6863 52.6137 26.5518 52.745 26.4804 52.9114L26.4801 52.9123C21.1923 65.5573 16.8657 78.5832 13.5371 91.879L13.537 91.8794C13.5156 91.9666 13.5116 92.0571 13.5253 92.1458C13.539 92.2345 13.5701 92.3196 13.6167 92.3962C13.6634 92.4729 13.7247 92.5396 13.7972 92.5925C13.8697 92.6453 13.9519 92.6834 14.0392 92.7044L14.0507 92.7072H14.0626H14.2ZM14.2 92.7072L14.2003 92.6072V92.7072H14.2Z" fill="white" stroke="white" stroke-width="0.2"/>
<path d="M117.195 49.965C117.162 50.0361 117.114 50.0999 117.056 50.1527C116.998 50.2056 116.93 50.2464 116.856 50.2729C110.703 52.4013 104.729 55.0161 98.9907 58.0925M117.195 49.965L117.285 50.0076C117.246 50.0906 117.191 50.165 117.124 50.2267C117.056 50.2884 116.976 50.3361 116.89 50.3671L116.889 50.3675C110.767 52.4852 104.822 55.0848 99.1101 58.1419M117.195 49.965C117.228 49.894 117.247 49.817 117.251 49.7385C117.255 49.6601 117.243 49.5817 117.216 49.5078M117.195 49.965L117.285 50.0076C117.324 49.9246 117.347 49.8347 117.351 49.7431C117.355 49.652 117.341 49.561 117.31 49.4752M99.1101 58.1419C99.1022 58.1158 99.0943 58.0896 99.0863 58.0635L98.9907 58.0925M99.1101 58.1419C99.0861 58.1548 99.062 58.1677 99.0379 58.1806L98.9907 58.0925M99.1101 58.1419C100.255 61.9157 101.399 65.6444 102.52 69.2948C102.702 69.8888 102.884 70.4806 103.065 71.0702M98.9907 58.0925C100.143 61.8933 101.296 65.6487 102.425 69.3246C102.607 69.9184 102.788 70.5101 102.969 71.0996M102.969 71.0996L103.065 71.0702M102.969 71.0996C103.086 71.4792 103.202 71.8578 103.318 72.2355C105.705 80.0014 107.974 87.3856 110.126 94.7682C110.157 94.757 110.189 94.7457 110.22 94.7345M102.969 71.0996L103.065 71.0703C103.065 71.0703 103.065 71.0703 103.065 71.0702M103.065 71.0702C103.182 71.4499 103.298 71.8285 103.414 72.2063C105.8 79.9701 108.069 87.3531 110.22 94.7345M110.22 94.7345C110.229 94.7665 110.239 94.7986 110.248 94.8307L126.125 88.1938C120.95 90.6106 115.608 92.8083 110.22 94.7345ZM117.216 49.5078L126.126 88.1937C126.207 88.1555 126.294 88.1337 126.384 88.1294C126.474 88.1251 126.563 88.1386 126.648 88.169C126.732 88.1994 126.81 88.2461 126.876 88.3065C126.943 88.3668 126.997 88.4397 127.035 88.5209C127.073 88.6021 127.095 88.6901 127.099 88.7798C127.104 88.8694 127.09 88.9591 127.06 89.0435C127.029 89.128 126.983 89.2057 126.922 89.2721C126.862 89.3385 126.789 89.3924 126.708 89.4306L126.707 89.4311C121.249 91.9342 115.638 94.2307 109.973 96.2287L109.972 96.229C109.9 96.2538 109.825 96.2661 109.749 96.2651M117.216 49.5078C117.191 49.4326 117.151 49.3633 117.099 49.304C117.046 49.2447 116.982 49.1968 116.911 49.1631C116.839 49.1295 116.761 49.1108 116.682 49.1082C116.603 49.1056 116.524 49.1193 116.451 49.1482M117.216 49.5078L117.31 49.4737C117.31 49.4742 117.31 49.4747 117.31 49.4752M117.216 49.5078L117.311 49.4766C117.311 49.4761 117.311 49.4756 117.31 49.4752M117.216 49.5078L116.451 49.1482M117.31 49.4752C117.281 49.3876 117.235 49.3068 117.174 49.2377C117.112 49.1683 117.037 49.1121 116.953 49.0726C116.869 49.0332 116.778 49.0113 116.686 49.0083C116.594 49.0053 116.502 49.021 116.416 49.0544M116.416 49.0544C110.048 51.2551 103.872 53.9746 97.9491 57.1855M116.416 49.0544C116.416 49.0546 116.415 49.0549 116.414 49.0551L116.451 49.1482M116.416 49.0544C116.417 49.0541 116.417 49.0539 116.418 49.0537L116.451 49.1482M97.9491 57.1855C97.809 57.2585 97.6989 57.3785 97.6382 57.5244C97.5775 57.6705 97.5701 57.8333 97.6173 57.9842C98.6279 61.3175 99.6426 64.6224 100.638 67.8628C101.006 69.063 101.372 70.2543 101.734 71.435L101.734 71.4351C102.015 72.3489 102.295 73.2572 102.573 74.1606C104.861 81.5853 107.047 88.6782 109.093 95.771C109.132 95.9148 109.217 96.0415 109.336 96.131C109.455 96.2205 109.6 96.2676 109.749 96.2651M97.9491 57.1855C97.9489 57.1856 97.9486 57.1858 97.9483 57.1859L97.996 57.2738L97.9499 57.1851C97.9497 57.1852 97.9494 57.1854 97.9491 57.1855ZM109.749 96.2651C109.748 96.2651 109.747 96.265 109.747 96.265L109.748 96.1651L109.75 96.265C109.75 96.265 109.749 96.2651 109.749 96.2651Z" fill="white" stroke="white" stroke-width="0.2"/>
<path d="M116.756 93.2197L116.756 93.22L116.763 93.2196C116.823 93.2167 116.883 93.2049 116.941 93.1847C117.026 93.1616 117.105 93.1222 117.175 93.0688C117.247 93.0145 117.306 92.9467 117.351 92.8692C117.396 92.7917 117.426 92.7062 117.437 92.6174C117.449 92.5287 117.444 92.4384 117.421 92.3519C114.015 79.5416 110.128 66.6624 105.865 54.0893L105.865 54.0892C105.807 53.918 105.683 53.7769 105.521 53.697C105.359 53.6172 105.171 53.605 105 53.6633C104.829 53.7215 104.688 53.8454 104.608 54.0077C104.528 54.1699 104.516 54.3572 104.574 54.5284C108.82 67.0743 112.698 79.9186 116.103 92.7093L116.103 92.7096C116.141 92.854 116.226 92.9818 116.344 93.0739C116.462 93.1659 116.606 93.2171 116.756 93.2197Z" fill="white" stroke="white" stroke-width="0.2"/>
<path d="M48.5505 73.8769L48.5503 73.877L48.5537 73.8826C48.9348 74.5164 49.4796 75.0359 50.131 75.3864C50.7816 75.7366 51.5145 75.9051 52.2528 75.8745H52.5415V75.8752L52.5535 75.8737C53.9433 75.7061 55.2851 75.2599 56.4986 74.5619L58.8983 73.362L58.8985 73.362L58.9111 73.3557C63.8403 70.9025 68.5178 68.5747 72.9818 65.4277C73.1302 65.3243 73.2315 65.1662 73.2635 64.9881C73.2954 64.8099 73.2553 64.6263 73.1518 64.4777C73.0484 64.3291 72.8902 64.2276 72.712 64.1957C72.5338 64.1638 72.3502 64.2039 72.2016 64.3073L72.2011 64.3077C67.8283 67.3876 63.2277 69.6808 58.3539 72.11L58.2891 72.1423L58.2889 72.1424L55.8789 73.3359L55.8788 73.3357L55.8723 73.3395C54.8252 73.9613 53.6612 74.3605 52.4529 74.5122C51.9338 74.573 51.408 74.4869 50.9354 74.2637C50.4643 74.0412 50.065 73.6913 49.7824 73.2538C49.5128 72.7036 49.5003 72.0535 49.7751 71.2833C50.0514 70.5087 50.6165 69.6185 51.4925 68.6017L51.5198 68.5701C54.6651 64.9286 57.9093 61.1724 61.88 58.3808L61.88 58.3808C66.2637 55.2931 71.0204 53.896 75.2664 54.4423C77.4713 54.8087 79.6273 55.4251 81.6927 56.2797L81.6927 56.2798L81.6969 56.2813C81.8161 56.3245 81.9362 56.3682 82.0572 56.4122C82.6418 56.6248 83.244 56.8438 83.841 57.047C88.442 58.6239 93.2629 59.4649 98.126 59.5391L98.126 59.5399L98.1389 59.5384C98.307 59.5192 98.4622 59.4387 98.5748 59.3125L98.5002 59.2459L98.5748 59.3125C98.6874 59.1862 98.7497 59.023 98.7497 58.8538C98.7497 58.6846 98.6874 58.5213 98.5748 58.395L98.5002 58.4616L98.5748 58.395C98.4622 58.2687 98.307 58.1883 98.1389 58.1691L98.139 58.1686L98.129 58.1684C93.4093 58.102 88.73 57.2877 84.2654 55.756L84.2648 55.7559C83.5632 55.5195 82.8459 55.2524 82.1579 54.9925C79.9934 54.1026 77.7358 53.4591 75.4275 53.0741L75.4275 53.074L75.4235 53.0735C70.8333 52.4959 65.7361 53.9829 61.084 57.2532C56.9558 60.1536 53.6351 63.9966 50.4459 67.6983C50.0558 68.1495 49.2634 69.067 48.7272 70.1801C48.1912 71.2925 47.9022 72.6199 48.5505 73.8769Z" fill="white" stroke="white" stroke-width="0.2"/>
<path d="M95.349 97.1068L95.349 97.1069L95.3552 97.1066C95.4452 97.1013 95.5332 97.0774 95.6134 97.0363C99.7978 95.2998 104.051 93.5021 108.213 91.6813L108.213 91.6814L108.218 91.6791C108.374 91.6007 108.494 91.4654 108.553 91.3011C108.612 91.1368 108.606 90.9561 108.536 90.7962C108.466 90.6363 108.337 90.5094 108.176 90.4417C108.015 90.3741 107.834 90.3708 107.671 90.4326L107.671 90.4325L107.666 90.4347C103.504 92.2706 99.2816 94.0683 95.0895 95.7895L95.0895 95.7895L95.0882 95.7901C94.9218 95.8612 94.79 95.9949 94.7213 96.1624C94.6527 96.3298 94.6526 96.5176 94.7212 96.6851L94.7214 96.6853C94.7727 96.8097 94.8597 96.916 94.9714 96.9911C95.0831 97.0661 95.2145 97.1063 95.349 97.1068Z" fill="white" stroke="white" stroke-width="0.2"/>
<path d="M72.0363 64.6725C72.0062 64.7433 71.9905 64.8193 71.99 64.8962C71.9895 64.9731 72.0043 65.0494 72.0335 65.1206C72.0626 65.1917 72.1056 65.2564 72.16 65.3108C72.2143 65.3652 72.2789 65.4083 72.35 65.4376L72.3112 65.5298C72.3113 65.5298 72.3114 65.5299 72.3115 65.5299M72.0363 64.6725L72.3115 65.5299M72.0363 64.6725C72.0971 64.5302 72.2114 64.4176 72.3546 64.3589M72.0363 64.6725L72.3546 64.3589M72.3115 65.5299C72.2284 65.4956 72.1528 65.4451 72.0892 65.3815C72.0255 65.3177 71.9751 65.2419 71.9409 65.1585C71.9067 65.0751 71.8894 64.9857 71.89 64.8956C71.8906 64.8055 71.909 64.7163 71.9443 64.6334L71.9444 64.6332C72.0155 64.4668 72.1492 64.335 72.3167 64.2663C72.4841 64.1977 72.6719 64.1976 72.8394 64.2663L72.8402 64.2666L72.8402 64.2666C79.3777 67.0179 84.9867 71.5902 88.9993 77.4389C93.0108 83.2862 95.2576 90.163 95.4724 97.2507C95.5243 97.6262 95.478 98.0089 95.3382 98.3613C95.1976 98.7155 94.9674 99.027 94.67 99.2653L94.6616 99.272L94.652 99.2768C94.3654 99.4192 94.0448 99.4786 93.7264 99.4483C93.6122 99.4564 93.4976 99.4562 93.3834 99.4476L93.3745 99.447L93.3745 99.4466C92.2881 99.266 91.2532 98.8541 90.3397 98.2389C89.4265 97.6239 88.656 96.8199 88.0803 95.8813C87.2437 94.565 86.5413 93.168 85.9837 91.7114C85.9278 91.5816 85.8726 91.4522 85.8177 91.3232C85.6842 91.0099 85.5518 90.6991 85.4115 90.3915L85.4112 90.3908C83.8391 86.8676 81.6987 83.6267 79.0755 80.7976C79.0018 80.7361 78.9419 80.6596 78.8999 80.5732C78.8567 80.4847 78.8333 80.3879 78.8312 80.2894C78.829 80.191 78.8483 80.0933 78.8875 80.003C78.9268 79.9126 78.9852 79.8319 79.0586 79.7664C79.1321 79.7008 79.2188 79.6519 79.313 79.6231C79.4072 79.5942 79.5064 79.5862 79.604 79.5994C79.7016 79.6126 79.7951 79.6468 79.8782 79.6997C79.9588 79.7509 80.0276 79.8184 80.0803 79.8979C82.8029 82.8384 85.0247 86.2056 86.6573 89.8654C86.8106 90.2073 86.9594 90.554 87.1068 90.8974C87.1511 91.0006 87.1952 91.1034 87.2393 91.2057L87.241 91.2096L87.2409 91.2096C87.7657 92.5847 88.4265 93.9039 89.2137 95.1475L89.2149 95.1494L89.2149 95.1494C89.681 95.924 90.3072 96.5902 91.0516 97.1033C91.7958 97.6163 92.6411 97.9646 93.5308 98.1247C93.6762 98.1499 93.8257 98.1371 93.9646 98.0876C94.0008 98.0602 94.0428 97.9941 94.0727 97.8583C94.1037 97.7177 94.1172 97.5223 94.1096 97.27C93.8917 90.4488 91.7223 83.8332 87.8587 78.2075C83.9952 72.5819 78.5996 68.1822 72.3115 65.5299ZM72.3546 64.3589C72.4978 64.3002 72.6583 64.3001 72.8014 64.3588L72.3546 64.3589Z" fill="white" stroke="white" stroke-width="0.2"/>
<path d="M83.7929 101.062L83.7929 101.062C83.3049 101.049 82.8238 100.945 82.3734 100.757C81.2474 100.319 80.3901 99.4872 79.6753 98.4811C78.9609 97.4755 78.3835 96.2875 77.8219 95.1299L77.8216 95.1292C77.0544 93.5181 76.2284 91.8703 75.1446 90.9069L75.14 90.9028L75.1401 90.9026C75.0184 90.7802 74.9477 90.6161 74.9423 90.4435C74.9369 90.2709 74.9973 90.1027 75.1111 89.9729C75.225 89.843 75.3839 89.7613 75.5557 89.7441C75.7276 89.727 75.8995 89.7757 76.0368 89.8804L76.0429 89.8851L76.0427 89.8853C77.3158 91.0212 78.1809 92.7676 78.9996 94.4205C79.0138 94.4491 79.0279 94.4777 79.0421 94.5063L79.0424 94.5069L79.044 94.5102C79.5837 95.6202 80.1041 96.6905 80.7095 97.5697C81.3151 98.4492 81.999 99.1271 82.8598 99.4612C83.2459 99.6079 83.6441 99.758 84.0986 99.6304C84.5523 99.5031 85.0872 99.0902 85.7124 98.0377C86.018 97.4216 86.1812 96.7447 86.19 96.057C86.2027 94.2014 85.9228 92.3554 85.3607 90.587L85.3594 90.5828L85.3595 90.5828C85.2827 90.2989 85.2137 90.0227 85.1449 89.7476L85.1448 89.747C85.1008 89.5711 85.1285 89.3849 85.2218 89.2295C85.3151 89.074 85.4663 88.9619 85.6422 88.918C85.8181 88.874 86.0042 88.9017 86.1597 88.995C86.3151 89.0882 86.4271 89.2393 86.4711 89.4152L83.7929 101.062ZM83.7929 101.062H83.7957C84.7924 101.062 85.8377 100.518 86.8889 98.7252L86.889 98.7253L86.8912 98.7212C87.3107 97.9231 87.5374 97.0377 87.553 96.1362L87.553 96.1359C87.5821 94.1331 87.2863 92.1389 86.677 90.2308L86.4712 89.4154L83.7929 101.062Z" fill="white" stroke="white" stroke-width="0.2"/>
<path d="M45.8994 100.711V100.711H45.7473C44.7272 100.73 43.7267 100.429 42.8863 99.8509C42.0457 99.2722 41.4075 98.4447 41.0615 97.4845L41.0587 97.4768L41.0591 97.4767C40.8937 96.8646 40.8471 96.2271 40.921 95.5986C39.7188 96.277 38.3155 96.5163 36.9527 96.2713L36.9525 96.2713C35.8725 96.0753 34.8756 95.5611 34.0897 94.7947C33.3045 94.0289 32.7657 93.0462 32.5424 91.9724C32.4665 91.684 32.4629 91.3812 32.5319 91.0911C32.6012 90.8 32.7413 90.5306 32.9399 90.3069L32.9444 90.3018L32.9445 90.302C33.0735 90.1751 33.247 90.1041 33.4278 90.1041C33.6087 90.1041 33.7822 90.1751 33.9111 90.302L33.9114 90.3022C33.9754 90.3656 34.0262 90.441 34.0608 90.5241C34.0955 90.6072 34.1133 90.6964 34.1133 90.7864C34.1133 90.8765 34.0955 90.9656 34.0608 91.0487L45.8994 100.711ZM45.8994 100.711L45.9051 100.71C47.7471 100.605 49.5296 100.02 51.0762 99.0138C51.894 98.5868 52.6338 98.0244 53.264 97.3506L53.2641 97.3507L53.2665 97.3478C53.9227 96.5915 54.3408 95.6581 54.4682 94.6649C54.5819 93.9817 54.468 93.28 54.144 92.6678L54.144 92.6678L54.1429 92.6658C53.4944 91.5048 52.1031 91.0146 50.0844 91.1764C47.5832 91.3679 45.1242 91.9295 42.7878 92.843C42.6167 92.9071 42.4495 92.9812 42.2872 93.0652C42.1604 93.0268 42.0249 93.0252 41.8967 93.0612C41.7539 93.1013 41.6276 93.186 41.5362 93.3028C41.0318 93.9336 40.3666 94.4167 39.6107 94.7012C38.8546 94.9857 38.0357 95.061 37.2404 94.9191L37.2402 94.9191C36.4346 94.7774 35.6897 94.398 35.1014 93.8297C34.5131 93.2613 34.1083 92.53 33.9388 91.7298L33.9391 91.7297L33.9372 91.723C33.8934 91.5699 33.8823 91.4569 33.8864 91.3799C33.8884 91.3414 33.8941 91.3135 33.9004 91.2947C33.9064 91.2765 33.9119 91.2702 33.9118 91.2702C33.9118 91.2702 33.9118 91.2702 33.9118 91.2702L45.8994 100.711ZM33.4278 90.2041C33.5824 90.2041 33.7308 90.2648 33.841 90.3732L32.6292 91.1142C32.6946 90.8392 32.8271 90.5847 33.0147 90.3732C33.1249 90.2648 33.2733 90.2041 33.4278 90.2041ZM42.3697 97.0972C42.1904 96.2524 42.2411 95.3751 42.5161 94.5568C42.7166 94.3708 42.95 94.2239 43.2045 94.1236C45.4172 93.2584 47.7462 92.7269 50.1151 92.5465L50.1156 92.5464C50.6313 92.5047 51.2149 92.5054 51.7261 92.619C52.237 92.7325 52.6587 92.9548 52.8801 93.3419C53.0467 93.7024 53.1019 94.1045 53.0387 94.4967L53.0387 94.4967L53.0383 94.4997C52.944 95.2243 52.6387 95.9053 52.1604 96.4578C51.6304 97.0183 51.0088 97.4844 50.3221 97.836L50.3219 97.8356L50.3133 97.8411C48.9554 98.7217 47.3903 99.2306 45.7743 99.317C44.387 99.316 42.7827 98.513 42.3697 97.0972Z" fill="white" stroke="white" stroke-width="0.2"/>
<path d="M49.0769 103.994L49.077 103.994C48.3595 103.562 47.7766 102.938 47.3937 102.193C47.0109 101.448 46.8432 100.611 46.9095 99.7761L46.9096 99.7749L46.9096 99.7749C46.9178 99.6854 46.9436 99.5985 46.9854 99.519L47.0739 99.5656M49.0769 103.994L48.1722 99.8911M49.0769 103.994L49.0789 103.995C49.8507 104.436 50.7267 104.663 51.6157 104.651C52.3693 104.653 53.1177 104.527 53.8289 104.278L53.8289 104.278L53.8336 104.276C55.2345 103.704 56.5347 102.911 57.6847 101.927C59.4802 100.529 61.213 98.8837 61.3859 96.634C61.4249 96.3124 61.3832 95.9861 61.2647 95.6846L61.2649 95.6846L61.2621 95.6786C61.0901 95.3135 60.8078 95.0115 60.4551 94.8152L60.4545 94.8149C59.1915 94.1227 57.7109 93.9414 56.3182 94.3085L56.3179 94.3086C55.1692 94.615 54.0638 95.0654 53.0281 95.6491L52.8604 95.7405C52.7067 95.8243 52.5907 95.9635 52.5358 96.1297C52.481 96.2959 52.4914 96.4767 52.5651 96.6355L52.5649 96.6356L52.5679 96.6413C52.6518 96.7953 52.7918 96.9111 52.9588 96.9645C53.1258 97.0179 53.307 97.005 53.4647 96.9282L53.4647 96.9282L53.4656 96.9278L53.6339 96.8436L53.634 96.8438L53.639 96.8409C54.5707 96.3059 55.5683 95.8951 56.6066 95.6189L56.6073 95.6187C57.6573 95.3304 58.7776 95.4534 59.74 95.9626L59.7399 95.9627L59.7419 95.9636C59.8517 96.0187 59.9453 96.1013 60.0136 96.2032C60.0308 96.2978 60.0297 96.3948 60.0102 96.489L60.0095 96.4889L60.0085 96.5002C59.9305 97.354 59.5349 98.1239 58.9563 98.8384C58.3773 99.5534 57.6194 100.208 56.8252 100.83L56.8252 100.83L56.8217 100.833C55.783 101.726 54.6094 102.448 53.3445 102.974C52.7697 103.211 52.1502 103.319 51.5292 103.292C50.9094 103.265 50.3029 103.104 49.7518 102.819M49.0769 103.994L49.7024 102.906M47.0739 99.5656L46.9854 99.519C47.0273 99.4395 47.0843 99.3691 47.1534 99.3116C47.2225 99.2542 47.3022 99.211 47.388 99.1844L47.4176 99.2799L47.388 99.1844C47.4738 99.1578 47.5639 99.1483 47.6534 99.1565C47.7428 99.1648 47.8298 99.1905 47.9092 99.2324C47.9887 99.2742 48.0592 99.3313 48.1166 99.4004C48.174 99.4694 48.2173 99.5492 48.2439 99.6349C48.2704 99.7205 48.2799 99.8104 48.2718 99.8995M47.0739 99.5656C47.0382 99.6334 47.0162 99.7077 47.0092 99.784L47.0739 99.5656ZM48.2718 99.8995C48.2718 99.8993 48.2718 99.8991 48.2719 99.8988L48.1722 99.8911M48.2718 99.8995C48.2718 99.8998 48.2718 99.9001 48.2717 99.9003L48.1722 99.8911M48.2718 99.8995C48.2275 100.476 48.3424 101.053 48.6039 101.568C48.8649 102.082 49.2619 102.515 49.7518 102.819M48.1722 99.8911C48.1263 100.486 48.2448 101.081 48.5147 101.613C48.7846 102.145 49.1955 102.592 49.7024 102.906M49.7518 102.819C49.7507 102.818 49.7495 102.818 49.7484 102.817L49.7024 102.906M49.7518 102.819C49.7529 102.819 49.754 102.82 49.755 102.821L49.7024 102.906" fill="white" stroke="white" stroke-width="0.2"/>
<path d="M58.4162 106.311C58.7287 106.312 59.0408 106.289 59.3497 106.241L59.3497 106.241L59.3578 106.24C60.9388 105.859 62.3872 105.058 63.5491 103.921C64.0025 103.528 64.532 103.019 64.9244 102.411C65.3181 101.802 65.5776 101.088 65.4781 100.292L65.4783 100.292L65.477 100.285C65.3362 99.5644 64.955 98.9126 64.3958 98.4365C63.8365 97.9604 63.1322 97.6881 62.3982 97.6642L62.3982 97.6642L62.3947 97.6642C61.0951 97.6664 59.8417 98.1457 58.8722 99.0112C58.7311 99.1229 58.6397 99.2858 58.618 99.4645C58.5961 99.6444 58.6466 99.8256 58.7583 99.9682C58.8701 100.111 59.0339 100.203 59.2137 100.225C59.3936 100.247 59.5748 100.196 59.7174 100.085L59.7177 100.085L59.7239 100.079C60.4339 99.418 61.3635 99.0433 62.3335 99.0272C62.7509 99.036 63.1535 99.1833 63.478 99.446C63.8011 99.7077 64.0285 100.069 64.1246 100.473C64.1851 101.177 63.7381 101.941 62.6277 102.907L62.6275 102.907L62.6231 102.911C61.6455 103.876 60.4258 104.559 59.0925 104.889C58.2335 105.027 57.3526 104.897 56.5707 104.515C56.3273 104.393 56.0743 104.215 55.8835 104.002C55.6929 103.79 55.5716 103.551 55.5705 103.307C55.5761 103.218 55.5643 103.13 55.536 103.046C55.5073 102.961 55.462 102.882 55.4029 102.815C55.3437 102.748 55.2718 102.692 55.1913 102.653C55.1107 102.613 55.0232 102.59 54.9336 102.584L54.9328 102.584C54.7529 102.574 54.5762 102.635 54.4407 102.754C54.3052 102.873 54.2216 103.04 54.2078 103.22L54.2072 103.219L54.2076 103.231C54.2279 103.774 54.405 104.3 54.7175 104.745C55.0292 105.188 55.4624 105.533 55.965 105.736C56.726 106.116 57.5654 106.313 58.4162 106.311ZM58.4162 106.311C58.4161 106.311 58.416 106.311 58.4159 106.311L58.4163 106.211L58.4165 106.311C58.4164 106.311 58.4163 106.311 58.4162 106.311Z" fill="white" stroke="white" stroke-width="0.2"/>
<path d="M42.1059 94.0617L42.0963 94.0616C41.9351 94.0597 41.7796 94.0014 41.657 93.8967C41.5343 93.7921 41.4523 93.6477 41.4251 93.4888M42.1059 94.0617L41.5236 93.4719M42.1059 94.0617L42.1153 94.06L42.1985 94.0448C42.1987 94.0448 42.1989 94.0448 42.199 94.0448M42.1059 94.0617L42.199 94.0448M41.4251 93.4888L41.5236 93.4719M41.4251 93.4888C41.4251 93.4889 41.4251 93.489 41.4251 93.4891L41.5236 93.4719M41.4251 93.4888C41.3274 92.929 40.9648 92.4722 40.5223 92.112C40.0802 91.7522 39.5676 91.4964 39.1895 91.3376L39.1893 91.3375C36.9833 90.4051 35.0838 90.4418 33.5278 91.4218L33.5258 91.4231L33.5258 91.4231C33.3807 91.5097 33.2086 91.5393 33.0429 91.5061C32.8772 91.473 32.7297 91.3795 32.6291 91.2438L32.6274 91.2416L32.6275 91.2416C30.5557 88.2828 27.7158 85.9455 24.4137 84.4816M41.5236 93.4719C41.317 92.286 39.9934 91.5668 39.2282 91.2454C37.0017 90.3043 35.066 90.3349 33.4745 91.3372C33.3507 91.4111 33.2039 91.4364 33.0625 91.4081C32.9211 91.3798 32.7953 91.3 32.7094 91.1842C30.6271 88.2104 27.7726 85.8612 24.4537 84.3899M24.4137 84.4816C24.4139 84.4816 24.4141 84.4817 24.4143 84.4818L24.4537 84.3899M24.4137 84.4816C24.4135 84.4815 24.4134 84.4814 24.4132 84.4813L24.4537 84.3899M24.4137 84.4816C24.2476 84.4102 24.1165 84.2758 24.0494 84.1079C23.9821 83.9397 23.9844 83.7518 24.0557 83.5854C24.1271 83.419 24.2616 83.2877 24.4297 83.2204C24.5978 83.1532 24.7857 83.1555 24.9522 83.2268L24.9533 83.2273L24.9533 83.2273C28.2904 84.7051 31.1866 87.0234 33.3592 89.9548M24.4537 84.3899C24.3117 84.329 24.1996 84.2142 24.1422 84.0707C24.0848 83.9272 24.0868 83.7668 24.1477 83.6248C24.2085 83.4827 24.3233 83.3707 24.4668 83.3133C24.6103 83.2559 24.7707 83.2578 24.9128 83.3187C28.2599 84.801 31.1613 87.1327 33.3291 90.0824M33.3592 89.9548C33.3338 89.9676 33.3084 89.9805 33.2831 89.9937L33.3291 90.0824M33.3592 89.9548C33.3761 89.9776 33.3929 90.0004 33.4097 90.0232L33.3291 90.0824M33.3592 89.9548C35.2038 89.0289 37.3444 89.0777 39.7186 90.0821M33.3291 90.0824C35.1578 89.1337 37.2925 89.1643 39.6797 90.1742M39.6797 90.1742L39.7183 90.082C39.7184 90.082 39.7185 90.0821 39.7186 90.0821M39.6797 90.1742L39.7186 90.0821M39.6797 90.1742L42.7545 93.256M39.7186 90.0821C41.4345 90.801 42.5247 91.9243 42.7545 93.256M42.7545 93.256C42.77 93.3442 42.7678 93.4347 42.7482 93.5221C42.7286 93.6096 42.692 93.6924 42.6403 93.7657C42.5887 93.839 42.5231 93.9014 42.4473 93.9493C42.3716 93.9971 42.2872 94.0296 42.199 94.0448M42.7545 93.256L42.199 94.0448" fill="white" stroke="white" stroke-width="0.2"/>
<path d="M33.6707 58.5674L33.6894 58.5677L33.7069 58.5611C33.7651 58.5394 33.8188 58.5074 33.8656 58.4669C39.7838 57.0455 45.608 55.2577 51.3043 53.1136C51.3045 53.1135 51.3047 53.1134 51.3049 53.1134L51.7475 52.9531L51.7476 52.9532L51.7512 52.9517C53.5423 52.2231 55.4143 51.7116 57.327 51.428C61.6932 50.9427 65.8672 52.8863 69.5751 54.6177L69.5751 54.6177L69.5775 54.6188C69.7406 54.6897 69.9248 54.6949 70.0916 54.6332C70.2584 54.5714 70.3949 54.4476 70.4725 54.2876L70.4737 54.285C70.5471 54.1219 70.5535 53.9365 70.4914 53.7687L70.3976 53.8034L70.4914 53.7687C70.4294 53.601 70.3038 53.4643 70.1419 53.3883L70.1414 53.3881C70.0851 53.362 70.0286 53.336 69.9721 53.3098C66.1771 51.5553 61.8566 49.5579 57.1732 50.0741L57.1732 50.074L57.1691 50.0746C55.1451 50.3822 53.1652 50.9312 51.2719 51.7099L50.8302 51.8699L50.8288 51.8704C45.1742 54.0081 39.3932 55.7955 33.5187 57.2225C33.3431 57.2632 33.1907 57.3718 33.095 57.5246C32.9992 57.6776 32.9679 57.8624 33.0082 58.0383L33.0082 58.0383L33.0084 58.0394C33.0443 58.1886 33.1289 58.3215 33.2489 58.4172C33.3689 58.5128 33.5173 58.5657 33.6707 58.5674Z" fill="white" stroke="white" stroke-width="0.2"/>
</svg>
