<svg width="125" height="117" viewBox="0 0 125 117" fill="none" xmlns="http://www.w3.org/2000/svg">
<path d="M91.7755 38.5246C93.3019 35.1326 92.9768 24.1084 92.6235 19.0203L47.0427 1L2.09793 19.0203C-1.64747 41.3514 2.09793 90.6775 47.0427 109.334C53.0494 106.507 66.6741 98.8609 73.1191 90.8895M91.7755 38.5246H115.732V65.0251M91.7755 38.5246H88.3834H83.7195V74.7606M115.732 65.0251C118.488 65.4491 124 66.9331 124 69.4772V70.9612M115.732 65.0251C98.9412 64.0075 94.7435 67.5691 94.7435 69.4772V70.9612M87.7474 106.366C77.5712 107.044 73.7551 103.68 73.1191 101.914V95.1296M87.7474 106.366V111.242C87.7474 114.846 97.2169 115.623 101.952 115.906C112.128 115.906 117.004 113.998 117.004 111.666V106.366C117.021 106.072 117.011 105.789 116.975 105.518M87.7474 106.366C87.7474 106.092 87.7528 105.808 87.7732 105.518M94.7435 75.0942C100.252 76.147 101.898 78.5191 101.952 79.8653V80.7134M94.7435 75.0942C93.0232 74.7654 90.9262 74.5653 88.3834 74.5653C87.0821 74.5469 85.4404 74.598 83.7195 74.7606M94.7435 75.0942V70.9612M73.1191 90.8895V88.3455M73.1191 90.8895V95.1296M83.7195 74.7606C78.8052 75.2251 73.1191 76.2613 73.1191 79.8653V80.7134M73.1191 80.7134C78.6314 83.2574 89.8676 84.5294 101.952 80.7134M73.1191 80.7134V88.3455M101.952 80.7134V88.3455M101.952 80.7134C105.768 81.8496 115.52 83.1859 124 79.4413M73.1191 88.3455C77.0765 90.7482 89.2316 94.4936 101.952 88.3455M101.952 88.3455V89.1935M73.1191 95.1296C77.5711 97.8856 89.5705 101.744 101.952 95.1296M101.952 95.1296V97.8857C112.34 100.006 122.516 97.4616 124 95.3416V87.9215M101.952 95.1296V89.1935M87.7732 105.518C87.9742 102.653 89.6329 99.5817 101.952 99.5817C106.848 99.5817 116.314 100.456 116.975 105.518M87.7732 105.518C92.975 107.779 104.92 109.546 116.975 105.518M101.952 89.1935C105.909 90.1828 115.859 91.3135 124 87.9215M124 87.9215V79.4413M124 79.4413V70.9612M94.7435 70.9612C99.1248 73.2932 111.11 76.5581 124 70.9612" stroke="white" stroke-width="1.5"/>
<path d="M89.2322 48.7012H107.888M89.2322 53.3653H102.164M89.2322 59.0893H102.164M89.2322 64.1774H102.164" stroke="white" stroke-width="1.5"/>
</svg>
