<svg width="109" height="123" viewBox="0 0 109 123" fill="none" xmlns="http://www.w3.org/2000/svg">
<path d="M54.3615 19.5662C52.5254 19.5664 50.7304 19.0222 49.2037 18.0022C47.6769 16.9823 46.4868 15.5325 45.7841 13.8362C45.0813 12.1398 44.8974 10.2732 45.2555 8.47237C45.6137 6.67151 46.4979 5.01729 47.7962 3.71896C49.0946 2.42062 50.7487 1.53647 52.5496 1.17832C54.3504 0.820164 56.2171 1.00411 57.9134 1.70687C59.6097 2.40963 61.0595 3.59965 62.0794 5.12643C63.0994 6.65321 63.6437 8.44816 63.6435 10.2843C63.6406 12.7451 62.6618 15.1044 60.9217 16.8445C59.1816 18.5846 56.8224 19.5634 54.3615 19.5662V19.5662Z" stroke="white" stroke-width="1.7" stroke-miterlimit="10"/>
<path d="M60.9317 39.0401H47.7906C46.9203 39.0397 46.0618 38.8395 45.2811 38.4548C44.5005 38.0702 43.8186 37.5115 43.2881 36.8217C42.7575 36.1319 42.3924 35.3295 42.2209 34.4763C42.0494 33.6231 42.0761 32.7419 42.299 31.9007C43.8769 25.9785 48.3256 19.6055 54.3629 19.6055C60.4002 19.6055 64.849 25.9785 66.4256 31.9007C66.6485 32.7419 66.6752 33.6231 66.5038 34.4763C66.3323 35.3295 65.9672 36.1319 65.4366 36.8217C64.906 37.5115 64.2241 38.0702 63.4435 38.4548C62.6629 38.8395 61.8043 39.0397 60.9341 39.0401H60.9317Z" stroke="white" stroke-width="1.7" stroke-miterlimit="10"/>
<path d="M55.8282 39H53.8282V51H55.8282V39Z" fill="white"/>
<path d="M86.8282 62L86.8282 60L63.8282 60L63.8282 62L86.8282 62Z" fill="white"/>
<path d="M54.3615 101.812C52.5254 101.812 50.7304 101.268 49.2037 100.248C47.6769 99.2281 46.4868 97.7783 45.7841 96.082C45.0813 94.3857 44.8974 92.5191 45.2555 90.7182C45.6137 88.9174 46.4979 87.2631 47.7962 85.9648C49.0946 84.6665 50.7487 83.7823 52.5496 83.4242C54.3504 83.066 56.2171 83.25 57.9134 83.9527C59.6097 84.6555 61.0595 85.8455 62.0794 87.3723C63.0994 88.8991 63.6437 90.694 63.6435 92.5301C63.6406 94.991 62.6618 97.3503 60.9217 99.0903C59.1816 100.83 56.8224 101.809 54.3615 101.812V101.812Z" stroke="white" stroke-width="1.7" stroke-miterlimit="10"/>
<path d="M60.9317 121.286H47.7906C46.9203 121.286 46.0618 121.085 45.2811 120.701C44.5005 120.316 43.8186 119.757 43.2881 119.068C42.7575 118.378 42.3924 117.575 42.2209 116.722C42.0494 115.869 42.0761 114.988 42.299 114.147C43.8769 108.224 48.3256 101.851 54.3629 101.851C60.4002 101.851 64.849 108.224 66.4256 114.147C66.6485 114.988 66.6752 115.869 66.5038 116.722C66.3323 117.575 65.9672 118.378 65.4366 119.068C64.906 119.757 64.2241 120.316 63.4435 120.701C62.6629 121.085 61.8043 121.286 60.9341 121.286H60.9317Z" stroke="white" stroke-width="1.7" stroke-miterlimit="10"/>
<path d="M95.5031 55.3961C97.3391 55.3961 99.1339 54.8516 100.66 53.8316C102.187 52.8115 103.377 51.3617 104.08 49.6654C104.782 47.9692 104.966 46.1026 104.608 44.3019C104.25 42.5011 103.365 40.8471 102.067 39.5488C100.769 38.2505 99.1148 37.3664 97.3141 37.0082C95.5134 36.65 93.6469 36.8338 91.9506 37.5365C90.2543 38.2391 88.8045 39.4289 87.7845 40.9555C86.7644 42.4821 86.22 44.2769 86.22 46.1129C86.2231 48.574 87.2022 50.9334 88.9424 52.6736C90.6827 54.4139 93.042 55.3929 95.5031 55.3961V55.3961Z" stroke="white" stroke-width="1.7" stroke-miterlimit="10"/>
<path d="M88.9257 74.8684H102.069C102.94 74.8687 103.799 74.669 104.58 74.2846C105.361 73.9002 106.043 73.3414 106.573 72.6514C107.104 71.9614 107.469 71.1587 107.64 70.3052C107.812 69.4517 107.784 68.5704 107.561 67.7291C105.984 61.8069 101.535 55.4338 95.498 55.4338C89.4607 55.4338 85.0108 61.8069 83.4341 67.7291C83.211 68.5703 83.1841 69.4516 83.3555 70.3049C83.5268 71.1581 83.8919 71.9606 84.4225 72.6505C84.9532 73.3403 85.6352 73.8991 86.416 74.2837C87.1967 74.6682 88.0554 74.8683 88.9257 74.8684V74.8684Z" stroke="white" stroke-width="1.7" stroke-miterlimit="10"/>
<path d="M55.8282 70H53.8282V83H55.8282V70Z" fill="white"/>
<path d="M21.8292 62L21.8292 60L44.8292 60L44.8292 62L21.8292 62Z" fill="white"/>
<path d="M13.2483 55.3963C11.4123 55.3963 9.61748 54.8519 8.09088 53.8318C6.56429 52.8118 5.37443 51.362 4.67182 49.6657C3.9692 47.9694 3.78533 46.1029 4.14352 44.3021C4.50171 42.5014 5.38587 40.8473 6.68413 39.549C7.9824 38.2508 9.63651 37.3667 11.4373 37.0085C13.238 36.6503 15.1045 36.8341 16.8008 37.5367C18.497 38.2393 19.9469 39.4292 20.9669 40.9558C21.9869 42.4824 22.5314 44.2772 22.5314 46.1132C22.5282 48.5743 21.5492 50.9336 19.8089 52.6739C18.0687 54.4141 15.7093 55.3932 13.2483 55.3963V55.3963Z" stroke="white" stroke-width="1.7" stroke-miterlimit="10"/>
<path d="M19.8257 74.8687H6.68219C5.8117 74.869 4.95282 74.6692 4.17181 74.2848C3.39081 73.9004 2.70859 73.3416 2.17786 72.6517C1.64713 71.9617 1.28208 71.1589 1.11091 70.3054C0.939732 69.452 0.966993 68.5706 1.19061 67.7293C2.76726 61.8071 7.21606 55.4341 13.2533 55.4341C19.2906 55.4341 23.7406 61.8071 25.3172 67.7293C25.5403 68.5706 25.5673 69.4518 25.3959 70.3051C25.2245 71.1584 24.8595 71.9609 24.3288 72.6507C23.7982 73.3406 23.1161 73.8994 22.3354 74.2839C21.5546 74.6685 20.696 74.8685 19.8257 74.8687V74.8687Z" stroke="white" stroke-width="1.7" stroke-miterlimit="10"/>
<path d="M54.3733 70.2696C52.505 70.2691 50.6788 69.7147 49.1256 68.6763C47.5725 67.6379 46.3621 66.1622 45.6477 64.4359C44.9333 62.7096 44.7468 60.8102 45.1119 58.9779C45.477 57.1456 46.3772 55.4627 47.6988 54.1421C49.0204 52.8215 50.7039 51.9225 52.5364 51.5587C54.369 51.1949 56.2683 51.3828 57.9941 52.0985C59.7198 52.8142 61.1946 54.0256 62.2319 55.5795C63.2692 57.1334 63.8223 58.96 63.8214 60.8283C63.8172 63.3322 62.8202 65.7322 61.0491 67.502C59.2779 69.2719 56.8772 70.2672 54.3733 70.2696V70.2696Z" stroke="#A21D34" stroke-width="2" stroke-miterlimit="10"/>
</svg>
