<svg width="129" height="116" viewBox="0 0 129 116" fill="none" xmlns="http://www.w3.org/2000/svg">
<path d="M47.7607 49.5765C47.7607 49.3331 47.9581 49.1357 48.2015 49.1357C48.445 49.1357 48.6423 49.3331 48.6423 49.5765V52.3989H47.7607V49.5765Z" stroke="#F2AB27" stroke-width="1.19079"/>
<path d="M47.7607 65.3309H48.6423V74.3455C48.6423 74.5889 48.445 74.7862 48.2015 74.7862C47.9581 74.7862 47.7607 74.5889 47.7607 74.3455V65.3309Z" stroke="#F2AB27" stroke-width="1.19079"/>
<rect x="43.4763" y="53.4224" width="9.45531" height="10.8843" rx="4.72766" stroke="#F2AB27" stroke-width="1.5"/>
<path d="M63.0034 55.77C63.0034 55.5266 63.2008 55.3292 63.4442 55.3292C63.6877 55.3292 63.885 55.5266 63.885 55.77V58.5924H63.0034V55.77Z" stroke="#F2AB27" stroke-width="1.19079"/>
<path d="M63.8887 74.3464C63.8887 74.5899 63.6913 74.7872 63.4479 74.7872C63.2044 74.7872 63.0071 74.5899 63.0071 74.3464L63.0071 71.5241L63.8887 71.5241L63.8887 74.3464Z" stroke="#F2AB27" stroke-width="1.19079"/>
<rect x="58.719" y="59.6158" width="9.45531" height="10.8843" rx="4.72766" stroke="#F2AB27" stroke-width="1.5"/>
<path d="M78.249 41.955C78.249 41.7115 78.4464 41.5142 78.6898 41.5142C78.9333 41.5142 79.1306 41.7115 79.1306 41.955V44.7773H78.249V41.955Z" stroke="#F2AB27" stroke-width="1.19079"/>
<path d="M78.249 57.7094H79.1306V66.7239C79.1306 66.9673 78.9333 67.1647 78.6898 67.1647C78.4464 67.1647 78.249 66.9673 78.249 66.7239V57.7094Z" stroke="#F2AB27" stroke-width="1.19079"/>
<rect x="73.9646" y="45.8008" width="9.45531" height="10.8843" rx="4.72766" stroke="#F2AB27" stroke-width="1.5"/>
<path d="M105.869 75.92C112.523 60.7695 107.83 43.5418 104.652 36.8218C104.044 35.5377 103.396 34.3168 102.712 33.1564M105.869 75.92L127.576 92.8218L100.594 114V103.411H59.4119C52.2005 103.157 36.0067 98.5669 25.5764 82.64M105.869 75.92L100.594 72.0509V82.64H25.5764M23.5041 39.8764C15.0647 52.7462 19.9877 71.44 23.5041 79.1782C24.1642 80.3877 24.8565 81.5408 25.5764 82.64M23.5041 39.8764L2 22.5673L29.3873 2V12.3855H68.541C76.1858 12.3855 92.9923 16.6517 102.712 33.1564M23.5041 39.8764L29.3873 43.9491V33.1564H102.712" stroke="white" stroke-width="1.5"/>
</svg>
