<svg width="123" height="90" viewBox="0 0 123 90" fill="none" xmlns="http://www.w3.org/2000/svg">
<path d="M34.4004 25.7987H77.8004M34.4004 33.3987H60.6004M34.4004 40.9987H60.6004M34.4004 49.1987H60.6004M34.4004 56.5987H70.8004M65.8004 79.9987H78.8004" stroke="white" stroke-width="1.5"/>
<path d="M84.9998 61.3735V81.7988C84.9998 87.8788 81.3998 89.2655 79.5998 89.1988H31.5998C26.9598 89.1988 25.7998 84.2655 25.7998 81.7988V7.39883C25.7998 2.91883 29.6665 1.13216 31.5998 0.798828H79.5998C84.3998 0.798828 85.1998 5.19883 84.9998 7.39883V32.9988M74.9998 38.7988L89.1998 30.5988L103.4 38.7988M74.9998 38.7988V55.5988L89.1998 63.7988M74.9998 38.7988L89.1998 46.9988M103.4 38.7988V55.1988L89.1998 63.7988M103.4 38.7988L89.1998 46.9988M89.1998 63.7988V46.9988" stroke="white" stroke-width="1.5"/>
<path d="M19.2497 18.3987C19.2497 20.7333 18.2048 22.8231 16.5545 24.2275C15.2193 25.3637 13.4904 26.0487 11.5997 26.0487C7.37473 26.0487 3.94971 22.6236 3.94971 18.3987C3.94971 14.1737 7.37473 10.7487 11.5997 10.7487C15.8247 10.7487 19.2497 14.1737 19.2497 18.3987Z" stroke="#4BA6A6" stroke-width="1.5"/>
<path d="M16.8 24.5989L19.4 28.7989H25.6" stroke="#4BA6A6" stroke-width="1.5"/>
<circle cx="8.4" cy="42.3984" r="7.65" stroke="#4BA6A6" stroke-width="1.5"/>
<path d="M16.8 42.5986H25.6" stroke="#4BA6A6" stroke-width="1.5"/>
<path d="M17.2497 67.999C17.2497 72.224 13.8247 75.649 9.59971 75.649C5.37473 75.649 1.94971 72.224 1.94971 67.999C1.94971 63.774 5.37473 60.349 9.59971 60.349C11.0701 60.349 12.4416 60.7631 13.6063 61.4808C15.794 62.8286 17.2497 65.2442 17.2497 67.999Z" stroke="#4BA6A6" stroke-width="1.5"/>
<path d="M13.8 60.9985L18.2 54.7985H25.8" stroke="#4BA6A6" stroke-width="1.5"/>
<path d="M101.8 9.99883L110.2 4.79883L118.8 9.99883M101.8 9.99883V19.3988L110.2 24.3988M101.8 9.99883L110.2 14.5988M118.8 9.99883V19.3988L110.2 24.3988M118.8 9.99883L110.2 14.5988M110.2 24.3988V14.5988M122 74.1988L113.6 69.3988L105.2 74.1988M122 74.1988V83.7988L113.6 88.5988M122 74.1988L113.6 78.9988M113.6 88.5988L105.2 83.7988V74.1988M113.6 88.5988V78.9988M105.2 74.1988L113.6 78.9988" stroke="#4BA6A6" stroke-width="1.5"/>
<path d="M100.616 27.3809C100.289 27.0534 99.8442 26.8694 99.381 26.8694C98.9177 26.8694 98.4734 27.0534 98.1458 27.3809L96.9102 28.6161C96.5825 28.9437 96.3984 29.3881 96.3984 29.8515C96.3984 30.3148 96.5825 30.7592 96.9102 31.0869C97.2378 31.4145 97.6822 31.5986 98.1456 31.5986C98.6089 31.5986 99.0533 31.4145 99.381 31.0869L99.9986 30.4693" stroke="#4BA6A6" stroke-width="1.5" stroke-linecap="round" stroke-linejoin="round"/>
<path d="M99.3816 28.6163C99.7092 28.9438 100.154 29.1278 100.617 29.1278C101.08 29.1278 101.524 28.9438 101.852 28.6163L103.088 27.3811C103.415 27.0534 103.599 26.609 103.599 26.1457C103.599 25.6823 103.415 25.2379 103.088 24.9103C102.76 24.5826 102.316 24.3986 101.852 24.3986C101.389 24.3986 100.944 24.5826 100.617 24.9103L99.9992 25.5279" stroke="#4BA6A6" stroke-width="1.5" stroke-linecap="round" stroke-linejoin="round"/>
<path d="M103.418 66.2169C103.745 65.8892 103.929 65.4449 103.929 64.9817C103.929 64.5184 103.745 64.0741 103.418 63.7465L102.183 62.5109C101.855 62.1832 101.41 61.9991 100.947 61.9991C100.484 61.9991 100.039 62.1832 99.7117 62.5109C99.3841 62.8385 99.2 63.2829 99.2 63.7463C99.2 64.2096 99.3841 64.654 99.7117 64.9817L100.329 65.5993" stroke="#4BA6A6" stroke-width="1.5" stroke-linecap="round" stroke-linejoin="round"/>
<path d="M102.182 64.9816C101.855 65.3092 101.671 65.7535 101.671 66.2168C101.671 66.68 101.855 67.1243 102.182 67.452L103.417 68.6876C103.745 69.0152 104.189 69.1993 104.653 69.1993C105.116 69.1993 105.561 69.0152 105.888 68.6876C106.216 68.3599 106.4 67.9155 106.4 67.4522C106.4 66.9888 106.216 66.5444 105.888 66.2168L105.271 65.5992" stroke="#4BA6A6" stroke-width="1.5" stroke-linecap="round" stroke-linejoin="round"/>
</svg>
