<svg width="127" height="132" viewBox="0 0 127 132" fill="none" xmlns="http://www.w3.org/2000/svg">
<path d="M17.3383 7.29197L18.6175 3.51679L5.40438 1L1 25.7484L10.0185 28.8944L11.0845 25.7484M17.3383 7.29197C23.4974 7.71144 37.9548 7.79533 46.5119 4.77518C48.2597 3.93625 52.2167 2.92954 54.0623 5.61411L68.1357 22.3927M17.3383 7.29197L11.0845 25.7484M11.0845 25.7484L30.9917 34.3475C32.2501 34.6271 35.6897 35.1864 39.381 35.1864C40.7792 35.0466 44.3727 34.9767 47.5606 35.8156L54.6915 37.4934M44.2049 20.7148C44.9416 22.245 45.9065 23.4674 46.9314 24.4287M46.9314 24.4287C48.9407 26.3134 51.1807 27.1948 52.3844 27.4263L58.8861 29.5236M46.9314 24.4287L55.7402 22.8122L60.847 26.6627M58.8861 29.5236L66.2268 32.2501C68.5758 33.4246 68.4639 36.235 68.1144 37.4934C67.2754 40.6814 64.5489 40.4996 63.2905 40.0102L54.6915 37.4934M58.8861 29.5236C60.0047 26.1329 68.1144 19.2467 79.2302 22.3927C83.4248 23.8608 93.2823 28.2652 92.8628 41.6881C92.6072 49.8677 88.4834 60.1445 74.4063 60.1445C66.2268 60.1445 57.6277 56.5791 55.111 44.6243C54.8557 43.4119 54.6915 40.055 54.6915 37.4934" stroke="#9E9BF2" stroke-width="1.5"/>
<path d="M42.737 35.1863C41.4786 36.5146 39.0457 39.5907 39.3813 41.2685C39.3115 42.3871 39.8849 44.4565 42.737 43.7853L54.4817 37.7031" stroke="#9E9BF2" stroke-width="1.5"/>
<path d="M55.1108 75.874H97.267M38.7517 89.068V94.3114M38.7517 96.6375V115.094M29.3137 82.5854H126V68.9528H29.3137V82.5854ZM48.6091 89.9261H107.124V125.161H48.6091V89.9261Z" stroke="white" stroke-width="1.5"/>
<path d="M32.8801 82.7954V131.034H121.597V82.7954" stroke="white" stroke-width="1.5"/>
</svg>
