<svg width="110" height="132" viewBox="0 0 110 132" fill="none" xmlns="http://www.w3.org/2000/svg">
<circle cx="55.0005" cy="23.2608" r="21.4425" stroke="#A199FF" stroke-width="2"/>
<circle cx="55" cy="23.1227" r="15.4348" stroke="#A199FF" stroke-width="2"/>
<path d="M46.1957 78.2966C40.6857 78.2966 36.2174 82.6728 36.2174 88.0718C36.2174 92.4302 37.9636 102.774 55.1521 113.231C55.46 113.416 55.8135 113.514 56.1739 113.514C56.5343 113.514 56.8878 113.416 57.1957 113.231C74.3842 102.774 76.1304 92.4302 76.1304 88.0718C76.1304 82.6728 71.6622 78.2966 66.1522 78.2966C60.6422 78.2966 56.1739 84.221 56.1739 84.221C56.1739 84.221 51.7056 78.2966 46.1957 78.2966Z" stroke="white" stroke-width="1.7" stroke-linecap="round" stroke-linejoin="round"/>
<path d="M24.0648 45.1928H87.4118M109 58.7317V130.294H1V58.7317M109 58.7317L100.406 30.1662H75.4586M109 58.7317H1M1 58.7317L10.6276 30.1662H34.8441" stroke="white" stroke-width="1.7"/>
</svg>
