<svg width="131" height="130" viewBox="0 0 131 130" fill="none" xmlns="http://www.w3.org/2000/svg">
<path d="M69.6397 23.5697V9.64865C69.5329 3.26195 63.9865 1.22176 61.2267 1H8.87888C3.00311 1 1.17805 6.76577 1 9.64865V119.42C0.999262 125.133 1.50745 129 8.87888 129H61.2267C68.5639 129 68.5639 124.059 68.5639 116.759M68.5639 116.759H121.721C124.48 116.271 130 113.752 130 107.578V98.9293M68.5639 116.759H57.087C49.3951 116.759 48.0953 110.638 48.4069 107.578V52.2266M48.4069 52.2266C48.4069 58.1875 54.8168 60.1213 58.0218 60.343H120.385C122.199 60.343 123.697 60.6962 124.925 61.2682M48.4069 52.2266C48.0953 49.3437 49.5821 43.578 58.0218 43.578H60.6258H67.2435M110.629 43.578C116.906 43.578 124.925 43.578 124.925 50.896V61.2682M124.925 61.2682C128.546 62.9537 129.834 66.5395 130 68.5925V77.5073M130 77.5073H100.888C97.6387 77.7734 91.1398 80.3547 91.1398 88.5509C90.9172 92.0104 92.5553 98.9293 100.888 98.9293H130M130 77.5073V98.9293" stroke="white" stroke-width="1.7"/>
<path d="M112 36.5C112 48.9067 101.722 59 89 59C76.2775 59 66 48.9067 66 36.5C66 24.0933 76.2775 14 89 14C101.722 14 112 24.0933 112 36.5Z" stroke="#8CB0BB" stroke-width="2"/>
<path d="M105 36.5C105 45.6402 97.8094 53 89 53C80.1906 53 73 45.6402 73 36.5C73 27.3598 80.1906 20 89 20C97.8094 20 105 27.3598 105 36.5Z" stroke="#8CB0BB" stroke-width="2"/>
<path fill-rule="evenodd" clip-rule="evenodd" d="M86.4227 27.0656C85.9878 27.2761 85.8533 27.5891 85.8533 28.3906V28.978L84.7187 28.9974C83.4774 29.0187 83.4264 29.0332 83.13 29.4483C82.9567 29.6908 82.9567 30.2852 83.13 30.5278C83.3979 30.903 83.5313 30.9574 84.2393 30.9803L84.8943 31.0015V36.0027V41.0038L84.2393 41.025C83.5313 41.0479 83.3979 41.1024 83.13 41.4776C82.9567 41.7202 82.9567 42.3145 83.13 42.5571C83.4262 42.9719 83.478 42.9866 84.7135 43.0079L85.8429 43.0272L85.8631 43.7083C85.8849 44.4442 85.9374 44.5843 86.296 44.8642C86.528 45.0453 87.0966 45.0453 87.3286 44.8642C87.6876 44.584 87.7397 44.4446 87.7616 43.7046L87.7819 43.0198H88.7302H89.6786L89.6989 43.7046C89.7208 44.4446 89.7729 44.584 90.1318 44.8642C90.3639 45.0453 90.9325 45.0453 91.1645 44.8642C91.5382 44.5726 91.5755 44.46 91.5966 43.5627L91.6159 42.7361L92.0133 42.5177C92.2586 42.3829 92.5838 42.1194 92.863 41.8293C94.298 40.3382 94.3846 38.0257 93.0663 36.4011L92.7411 36.0005L92.9983 35.6888C93.6233 34.9315 93.9319 34.1575 93.9848 33.2146C94.0264 32.4741 93.9033 31.8673 93.5717 31.1785C93.2512 30.5127 92.6073 29.8141 92.0133 29.4877L91.6159 29.2693L91.5966 28.4426C91.5755 27.5453 91.5382 27.4328 91.1645 27.1412C90.9325 26.9601 90.3639 26.9601 90.1318 27.1412C89.7729 27.4213 89.7208 27.5608 89.6989 28.3008L89.6786 28.9856H88.7302H87.7819L87.7616 28.3008C87.7398 27.5646 87.6869 27.4207 87.3375 27.1481C87.1389 26.9931 86.6616 26.95 86.4227 27.0656ZM91.0558 31.2359C91.4767 31.4744 91.6583 31.6712 91.8928 32.1428C92.0279 32.4147 92.052 32.5428 92.0532 32.9953C92.0544 33.483 92.0373 33.5612 91.8508 33.9227C91.6247 34.3609 91.4383 34.5497 90.9843 34.8001L90.6782 34.9689L88.7452 34.9885L86.8123 35.0081V32.9953V30.9826L88.7452 31.0022L90.6782 31.0218L91.0558 31.2359ZM91.0558 37.2505C91.4767 37.489 91.6583 37.6858 91.8928 38.1575C92.0279 38.4294 92.052 38.5575 92.0532 39.01C92.0544 39.4977 92.0373 39.5758 91.8508 39.9373C91.6247 40.3756 91.4383 40.5644 90.9843 40.8147L90.6782 40.9836L88.7452 41.0032L86.8123 41.0227V39.01V36.9973L88.7452 37.0168L90.6782 37.0364L91.0558 37.2505Z" fill="#8CB0BB"/>
</svg>
