<svg width="123" height="116" viewBox="0 0 123 116" fill="none" xmlns="http://www.w3.org/2000/svg">
<path d="M117.791 48.669V41.8595C118.396 29.7541 109.132 27.5684 104.424 27.9887H18.9296C4.40312 27.9887 0.939625 37.2359 1.02369 41.8595V101.63C0.687429 106.086 3.79785 114.997 18.9296 114.997H104.424C108.88 115.081 117.791 113.635 117.791 107.179V94.3166M117.791 55.4783H98.6236C92.5709 55.4783 85.5094 62.5398 85.5094 72.6277C85.6776 77.4194 88.5358 87.0029 98.6236 87.0029H117.791C119.136 87.0029 121.826 86.2463 121.826 83.2199V58.7569C121.994 57.664 121.422 55.4783 117.791 55.4783Z" stroke="white" stroke-width="1.5"/>
<path d="M16.1553 28.241L89.04 1.00376C91.8983 0.919693 97.6651 2.2143 97.8669 8.06526V28.241" stroke="white" stroke-width="1.5"/>
<circle cx="101.901" cy="71.3668" r="6.81589" stroke="white" stroke-width="1.5"/>
<path d="M14.6426 36.5635V43.625M14.6426 106.17V101.126M14.6426 75.1495H38.6012L51.7154 68.3402M14.6426 75.1495V101.126M14.6426 75.1495V43.625M14.6426 101.126H57.7682L66.8472 91.5423M14.6426 43.625H63.3165L70.6302 49.4255M79.457 38.8332H104.677V47.4079M104.677 94.8208V104.152H79.457" stroke="#BF9A78" stroke-width="1.5"/>
<circle cx="75.6733" cy="54.2173" r="6.81589" stroke="#BF9A78" stroke-width="1.5"/>
<circle cx="58.5249" cy="66.3227" r="6.81589" stroke="#BF9A78" stroke-width="1.5"/>
<circle cx="71.1342" cy="85.9936" r="6.81589" stroke="#BF9A78" stroke-width="1.5"/>
</svg>
