<svg width="131" height="131" viewBox="0 0 131 131" fill="none" xmlns="http://www.w3.org/2000/svg">
<path d="M65.1502 31.5C65.1502 48.415 51.2165 62.15 34.0002 62.15C16.7838 62.15 2.85018 48.415 2.85018 31.5C2.85018 14.585 16.7838 0.85 34.0002 0.85C51.2165 0.85 65.1502 14.585 65.1502 31.5Z" stroke="white" stroke-width="1.7"/>
<circle cx="34.0002" cy="32" r="22.15" stroke="white" stroke-width="1.7"/>
<path d="M33.2563 19.3112C33.3608 19.2081 33.545 19.0909 33.6654 19.0508C34.1259 18.8978 34.6133 19.0959 34.9445 19.5706C35.0881 19.7765 35.1033 19.9288 35.1248 21.3787L35.1484 22.9621L36.5697 22.9624C37.854 22.9627 38.0151 22.9783 38.239 23.1247C38.9686 23.6013 38.9656 24.6134 38.2329 25.1956C38.026 25.3599 37.9119 25.3675 35.0389 25.4068C32.0678 25.4475 32.0583 25.4481 31.6811 25.647C30.8423 26.0893 30.348 26.9022 30.291 27.933C30.264 28.4225 30.2899 28.6367 30.4209 29.0088C30.6354 29.6179 31.1537 30.2278 31.7017 30.5162C32.1346 30.744 32.1388 30.7445 34.1507 30.7926C35.9257 30.8352 36.2249 30.8617 36.6603 31.0146C38.0819 31.5141 39.2181 32.7071 39.7601 34.2695C40.0122 34.9961 40.0767 36.279 39.9014 37.0789C39.4931 38.9416 38.1165 40.4461 36.3832 40.924C36.1261 40.9949 35.7432 41.0529 35.5321 41.0529H35.1484L35.1248 42.6362C35.0991 44.3664 35.0827 44.4331 34.5836 44.8325C34.3043 45.0558 33.6929 45.0558 33.4136 44.8325C32.9145 44.4331 32.8981 44.3664 32.8724 42.6362L32.8488 41.0529L31.4274 41.0526C30.1432 41.0523 29.9821 41.0367 29.7582 40.8903C29.0285 40.4137 29.0315 39.4016 29.7642 38.8194C29.9712 38.655 30.0853 38.6475 32.9583 38.6082C35.9208 38.5677 35.94 38.5663 36.3122 38.37C37.4539 37.7679 38.0191 36.2638 37.5762 35.0062C37.3618 34.3971 36.8435 33.7872 36.2955 33.4988C35.8619 33.2707 35.8611 33.2706 33.8465 33.2254C31.9189 33.1821 31.8069 33.1708 31.2734 32.9663C30.5154 32.6757 29.9649 32.3058 29.4086 31.7136C28.5304 30.7786 28.0727 29.6956 28.0093 28.4028C27.9461 27.1105 28.2083 26.1091 28.872 25.109C29.7092 23.8474 31.1928 22.9621 32.4695 22.9621H32.8578V21.4927C32.8578 19.9121 32.9041 19.659 33.2563 19.3112Z" fill="white"/>
<path d="M98.3786 4L79.0002 23.1731L98.3786 42.8941V32.6227C113.106 29.1168 123.34 47.4134 126.616 57C139.35 27.0899 113.097 16.3256 98.3786 14.6822V4Z" stroke="#A21D34" stroke-width="2"/>
<path d="M33.4838 124.191L52.265 104.574L32.6362 85.2441L32.8601 95.5293C18.3452 99.3575 7.80758 81.2568 4.35313 71.7279C-7.61162 101.953 18.6331 112.166 33.251 113.494L33.4838 124.191Z" stroke="#A21D34" stroke-width="2"/>
<circle cx="96.1446" cy="97.183" r="32.0611" stroke="white" stroke-width="1.7"/>
<circle cx="96.1454" cy="97.183" r="23.4756" stroke="white" stroke-width="1.7"/>
<path fill-rule="evenodd" clip-rule="evenodd" d="M93.4417 85.8243C92.8759 86.1087 92.701 86.5317 92.701 87.6149V88.4087L91.2251 88.4349C89.6103 88.4637 89.544 88.4833 89.1583 89.0442C88.9329 89.372 88.9329 90.1752 89.1583 90.5031C89.5069 91.0102 89.6805 91.0837 90.6013 91.1146L91.4535 91.1433V97.902V104.661L90.6013 104.689C89.6805 104.72 89.5069 104.794 89.1583 105.301C88.9329 105.629 88.9329 106.432 89.1583 106.76C89.5437 107.32 89.6111 107.34 91.2183 107.369L92.6874 107.395L92.7137 108.316C92.7421 109.31 92.8104 109.499 93.2768 109.878C93.5787 110.122 94.3182 110.122 94.6201 109.878C95.0871 109.499 95.1548 109.311 95.1833 108.31L95.2097 107.385H96.4434H97.677L97.7035 108.31C97.7319 109.311 97.7997 109.499 98.2666 109.878C98.5685 110.122 99.3081 110.122 99.61 109.878C100.096 109.484 100.145 109.331 100.172 108.119L100.197 107.002L100.714 106.706C101.033 106.524 101.456 106.168 101.819 105.776C103.686 103.761 103.799 100.636 102.084 98.4405L101.661 97.899L101.995 97.4779C102.808 96.4544 103.21 95.4084 103.279 94.1342C103.333 93.1334 103.173 92.3134 102.741 91.3825C102.324 90.4827 101.487 89.5387 100.714 89.0975L100.197 88.8023L100.172 87.6852C100.145 86.4725 100.096 86.3204 99.61 85.9264C99.3081 85.6816 98.5685 85.6816 98.2666 85.9264C97.7997 86.305 97.7319 86.4934 97.7035 87.4935L97.677 88.4189H96.4434H95.2097L95.1833 87.4935C95.155 86.4986 95.0861 86.3042 94.6317 85.9357C94.3733 85.7262 93.7524 85.6681 93.4417 85.8243ZM99.4686 91.46C100.016 91.7824 100.252 92.0483 100.557 92.6857C100.733 93.0532 100.764 93.2262 100.766 93.8378C100.767 94.4969 100.745 94.6025 100.503 95.091C100.209 95.6833 99.9661 95.9384 99.3755 96.2767L98.9773 96.5049L96.4629 96.5314L93.9484 96.5578V93.8378V91.1178L96.4629 91.1442L98.9773 91.1707L99.4686 91.46ZM99.4686 99.5884C100.016 99.9107 100.252 100.177 100.557 100.814C100.733 101.182 100.764 101.355 100.766 101.966C100.767 102.625 100.745 102.731 100.503 103.219C100.209 103.812 99.9661 104.067 99.3755 104.405L98.9773 104.633L96.4629 104.66L93.9484 104.686V101.966V99.2461L96.4629 99.2725L98.9773 99.299L99.4686 99.5884Z" fill="white"/>
</svg>
