<svg width="125" height="121" viewBox="0 0 125 121" fill="none" xmlns="http://www.w3.org/2000/svg">
<path d="M109.913 51.7559H14.6787C3.32279 51.7559 1 57.4997 1 64.2869V107.101C1 118.797 10.1191 120.502 14.6787 119.893H109.913C122.095 119.893 124.452 111.365 124.108 107.101V64.2869C124.108 51.7564 114.645 51.4948 109.913 51.7559Z" stroke="white" stroke-width="1.5"/>
<path d="M15.4899 52.5523V12.857C15.4034 9.42022 17.2538 2.54657 25.3468 2.54657H100.571C103.943 2.63249 110.687 4.81487 110.687 12.857V52.5523M25.3468 1H100.571M38.576 51.5176L43.7639 44.558C44.4556 43.6988 46.1503 42.4959 47.3953 44.558C48.7421 46.3647 51.5784 49.5786 54.1395 50.9119L66.8498 34.7631C67.8009 33.3883 70.2219 31.4637 72.297 34.7631L84.7478 51.5176" stroke="#D95276" stroke-width="1.5"/>
</svg>
