<svg width="115" height="133" viewBox="0 0 115 133" fill="none" xmlns="http://www.w3.org/2000/svg">
<circle cx="57.4063" cy="22.0119" r="20.6748" stroke="white" stroke-width="1.7"/>
<circle cx="57.406" cy="22.0119" r="15.0596" stroke="white" stroke-width="1.7"/>
<path fill-rule="evenodd" clip-rule="evenodd" d="M55.6392 14.5827C55.2692 14.7687 55.1548 15.0453 55.1548 15.7538V16.2729L54.1895 16.2901C53.1334 16.3089 53.09 16.3217 52.8378 16.6886C52.6904 16.903 52.6904 17.4283 52.8378 17.6427C53.0658 17.9744 53.1793 18.0225 53.7816 18.0427L54.3389 18.0615V22.4818V26.9021L53.7816 26.9209C53.1793 26.9411 53.0658 26.9893 52.8378 27.3209C52.6904 27.5353 52.6904 28.0606 52.8378 28.275C53.0899 28.6417 53.1339 28.6547 54.1851 28.6735L55.1459 28.6906L55.1631 29.2926C55.1817 29.943 55.2263 30.0669 55.5314 30.3142C55.7288 30.4743 56.2125 30.4743 56.41 30.3142C56.7154 30.0666 56.7597 29.9433 56.7783 29.2893L56.7956 28.684H57.6024H58.4093L58.4266 29.2893C58.4452 29.9433 58.4895 30.0666 58.7949 30.3142C58.9923 30.4743 59.476 30.4743 59.6735 30.3142C59.9914 30.0565 60.0231 29.957 60.041 29.1639L60.0575 28.4333L60.3956 28.2402C60.6042 28.121 60.881 27.8882 61.1185 27.6317C62.3393 26.3139 62.413 24.2699 61.2915 22.834L61.0148 22.4799L61.2336 22.2044C61.7653 21.535 62.0279 20.851 62.0729 20.0175C62.1083 19.363 62.0036 18.8267 61.7214 18.2179C61.4487 17.6294 60.901 17.012 60.3956 16.7234L60.0575 16.5304L60.041 15.7997C60.0231 15.0066 59.9914 14.9072 59.6735 14.6494C59.476 14.4893 58.9923 14.4893 58.7949 14.6494C58.4895 14.897 58.4452 15.0203 58.4266 15.6744L58.4093 16.2796H57.6024H56.7956L56.7783 15.6744C56.7598 15.0237 56.7147 14.8965 56.4175 14.6555C56.2485 14.5185 55.8424 14.4805 55.6392 14.5827ZM59.581 18.2686C59.939 18.4794 60.0935 18.6533 60.293 19.0702C60.408 19.3106 60.4285 19.4237 60.4295 19.8237C60.4305 20.2548 60.416 20.3238 60.2573 20.6434C60.065 21.0307 59.9064 21.1976 59.5201 21.4189L59.2597 21.5681L57.6152 21.5854L55.9707 21.6027V19.8237V18.0448L57.6152 18.062L59.2597 18.0794L59.581 18.2686ZM59.581 23.5847C59.939 23.7956 60.0935 23.9695 60.293 24.3864C60.408 24.6267 60.4285 24.7399 60.4295 25.1399C60.4305 25.5709 60.416 25.64 60.2573 25.9595C60.065 26.3469 59.9064 26.5137 59.5201 26.735L59.2597 26.8843L57.6152 26.9016L55.9707 26.9189V25.1399V23.3609L57.6152 23.3782L59.2597 23.3955L59.581 23.5847Z" fill="white"/>
<path d="M89.2816 27.5854C103.65 37.7327 126.835 67.5007 104.624 105.395M27.9108 25.6371C11.7158 37.8139 1.00033 48.4076 1 82.2589" stroke="white" stroke-width="1.7"/>
<path d="M63.5884 132.792L66.0237 118.667C66.1455 116.759 67.4849 112.749 71.8685 111.97L82.584 108.195M82.584 108.195V102.228M82.584 108.195L88.9159 109.534L94.1503 107.221M82.584 102.228C81.4476 101.254 79.1746 98.5995 79.1746 95.7745V88.1032C79.4993 85.5867 81.756 80.4806 88.1853 80.1883C91.3919 80.2695 97.878 81.9661 98.1703 88.1032V95.7745C97.6743 97.7965 96.3967 100.484 94.1503 102.228M82.584 102.228C87.8507 104.965 91.6167 104.196 94.1503 102.228M94.1503 102.228V107.221M94.1503 107.221L105.233 111.97C106.978 112.619 110.542 114.868 110.834 118.667L114 132.792M102.432 132.792V121.589M74.9127 132.792V121.589M42.0356 129.017C44.4709 129.748 50.9246 131.209 57.2565 131.209M47.6369 81.0407C42.4739 67.5976 51.8987 63.425 57.2565 63.0191V67.5245L66.0237 58.6355L57.2565 49.7465V55.1043C50.2427 55.1043 44.1868 60.3808 42.0356 63.0191C34.8269 71.689 39.032 81.8931 42.0356 85.9114L26.5711 76.7788L1 90.295V117.084L26.5711 131.209L51.6552 117.084V93.8529M67.6067 68.4987C71.9903 82.3314 62.533 85.8708 57.2565 85.9114V81.0407L48.3675 90.295L51.6552 93.8529M73.3298 63.0191C78.1193 71.5834 81.6099 89.8323 57.2565 94.3133V99.9146L51.6552 93.8529" stroke="white" stroke-width="1.7"/>
<path d="M11.4724 98.1351L11.8585 97.7467C12.2321 97.3705 12.7624 97.2588 13.2607 97.4511C13.3933 97.5024 14.7261 99.1895 16.2226 101.2L18.9433 104.856L19.022 101.409C19.0992 98.0227 19.107 97.9573 19.4719 97.6604C19.9889 97.2393 20.6838 97.2751 21.1523 97.7467L21.5385 98.1351V103.69V109.245L21.1523 109.633C20.7788 110.009 20.2484 110.121 19.7502 109.929C19.6176 109.877 18.2848 108.19 16.7882 106.179L14.0675 102.523L13.9889 105.97C13.9117 109.357 13.9038 109.423 13.5389 109.719C13.0219 110.141 12.3271 110.105 11.8585 109.633L11.4724 109.245V103.69V98.1351Z" fill="#C94C97"/>
<path d="M24.055 98.1351L24.4411 97.7467C24.8239 97.3612 24.8515 97.358 27.8298 97.358C30.8081 97.358 30.8356 97.3612 31.2184 97.7467C31.4619 97.9915 31.6046 98.316 31.6046 98.6244C31.6046 98.9328 31.4619 99.2573 31.2184 99.5022C30.8466 99.8765 30.7543 99.8908 28.7019 99.8908H26.5715V101.157V102.424H28.7019C30.7543 102.424 30.8466 102.438 31.2184 102.812C31.7293 103.326 31.7293 104.054 31.2184 104.568C30.8466 104.942 30.7543 104.956 28.7019 104.956H26.5715V107.1C26.5715 109.166 26.5574 109.259 26.1854 109.633C25.9421 109.878 25.6196 110.022 25.3133 110.022C25.0069 110.022 24.6844 109.878 24.4411 109.633L24.055 109.245V103.69V98.1351Z" fill="#C94C97"/>
<path d="M34.1211 98.6244C34.1211 98.316 34.2637 97.9915 34.5072 97.7467C34.89 97.3612 34.9176 97.358 37.8959 97.358C40.8742 97.358 40.9017 97.3612 41.2845 97.7467C41.528 97.9915 41.6707 98.316 41.6707 98.6244C41.6707 99.4327 41.0758 99.8908 40.0263 99.8908H39.1541V104.568V109.245L38.768 109.633C38.5247 109.878 38.2023 110.022 37.8959 110.022C37.5895 110.022 37.2671 109.878 37.0237 109.633L36.6376 109.245V104.568V99.8908H35.7655C34.7159 99.8908 34.1211 99.4327 34.1211 98.6244Z" fill="#C94C97"/>
</svg>
