<svg width="21" height="23" viewBox="0 0 21 23" fill="none" xmlns="http://www.w3.org/2000/svg">
<path fill-rule="evenodd" clip-rule="evenodd" d="M9.73315 0.0300531C6.06417 0.380324 3.02093 3.08409 2.27008 6.66064C1.51377 10.2633 3.23396 14.1268 7.29357 17.9431C8.09552 18.697 9.2394 19.6346 9.95589 20.1254C10.4642 20.4736 10.5552 20.4684 11.1395 20.057C12.9756 18.7643 14.9945 16.8243 16.2926 15.1055C18.7511 11.85 19.4772 8.69921 18.4633 5.68528C17.6342 3.22054 15.6475 1.25958 13.1321 0.423029C12.1132 0.0841823 10.7804 -0.0699193 9.73315 0.0300531ZM11.3756 4.8102C12.6738 5.10884 13.761 6.19642 14.0836 7.51906C14.1939 7.97112 14.1908 8.78051 14.0772 9.22188C13.7292 10.5736 12.6913 11.6035 11.3509 11.9269C10.9156 12.0319 10.0876 12.0319 9.65236 11.9269C8.31279 11.6037 7.24462 10.5411 6.91965 9.20864C6.81407 8.77565 6.81407 7.95204 6.91965 7.51906C7.19454 6.39191 8.02006 5.42856 9.08848 4.98803C9.39733 4.8607 9.56157 4.81878 10.1566 4.71537C10.3568 4.68056 11.0446 4.7341 11.3756 4.8102ZM4.09388 17.3333C2.22735 17.7443 1.05932 18.2364 0.431996 18.8758C-0.00358348 19.3197 -0.120352 19.9151 0.130092 20.415C0.505439 21.1642 1.75485 21.8352 3.62562 22.2921C6.79218 23.0655 11.5717 23.2225 15.3567 22.6775C18.9384 22.1617 21.0021 21.1329 21 19.8641C20.9984 18.8478 19.8307 18.0521 17.4762 17.4625C16.895 17.317 16.2419 17.1893 16.0788 17.1893C15.9063 17.1893 15.6278 17.4876 15.6278 17.6724C15.6278 18.0268 15.7977 18.1835 16.2739 18.2679C17.3369 18.4565 18.6903 18.8831 19.2978 19.221C19.6472 19.4153 19.9654 19.7363 19.9654 19.8945C19.9654 20.0579 19.5905 20.3795 19.1513 20.5926C17.9763 21.1631 16.1259 21.5822 13.7055 21.826C12.6628 21.931 9.56305 21.9746 8.38215 21.9008C5.5407 21.7232 3.21567 21.2546 1.82844 20.5797C1.41519 20.3786 1.03787 20.0533 1.03787 19.8981C1.03787 19.6272 1.57824 19.2328 2.39055 18.911C2.90805 18.706 4.10004 18.378 4.72933 18.2674C5.08915 18.2042 5.23742 18.1234 5.31855 17.9462C5.4228 17.7186 5.38849 17.5357 5.20784 17.356C5.00191 17.1511 4.92782 17.1496 4.09388 17.3333Z" fill="#1A1C3B"/>
</svg>
