<svg width="24" height="35" viewBox="0 0 24 35" fill="none" xmlns="http://www.w3.org/2000/svg">
<path d="M22.3073 10.7578L1.68663 10.8296C1.20938 10.8313 0.823399 11.2187 0.823465 11.6959C0.823532 12.1754 1.21316 12.5637 1.69267 12.562L22.3133 12.4901C22.7905 12.4884 23.1765 12.1011 23.1765 11.6239C23.1765 11.1444 22.7868 10.7561 22.3073 10.7578Z" fill="#2E3159"/>
<path d="M22.3073 16.5141L1.68663 16.586C1.20938 16.5877 0.823399 16.975 0.823465 17.4523C0.823532 17.9318 1.21316 18.32 1.69267 18.3183L22.3133 18.2465C22.7905 18.2448 23.1765 17.8575 23.1765 17.3803C23.1765 16.9007 22.7868 16.5124 22.3073 16.5141Z" fill="#2E3159"/>
<path d="M22.3073 22.2455L1.68663 22.3174C1.20938 22.3191 0.823399 22.7065 0.823465 23.1837C0.823532 23.6632 1.21316 24.0515 1.69267 24.0498L22.3133 23.9779C22.7905 23.9762 23.1765 23.5889 23.1765 23.1117C23.1765 22.6322 22.7868 22.2439 22.3073 22.2455Z" fill="#2E3159"/>
</svg>
