<?xml version="1.0" encoding="UTF-8"?><svg xmlns="http://www.w3.org/2000/svg" xmlns:xlink="http://www.w3.org/1999/xlink" viewBox="0 0 59.89 52.68"><defs><style>.e{fill:url(#d);}</style><linearGradient id="d" x1="0" y1="26.34" x2="59.89" y2="26.34" gradientTransform="matrix(1, 0, 0, 1, 0, 0)" gradientUnits="userSpaceOnUse"><stop offset="0" stop-color="#2e3159"/><stop offset="1" stop-color="#a21d34"/></linearGradient></defs><g id="a"/><g id="b"><g id="c"><path class="e" d="M55.13,52.6l-1.3,.09c-1.68-.23-2.95-1.12-4.14-2.25-6.44-6.11-12.91-12.18-19.37-18.26-.12-.11-.25-.23-.38-.35-.16,.15-.29,.26-.41,.38-6.66,6.27-13.32,12.53-19.97,18.81-.77,.73-1.72,1.24-2.75,1.5l-.06,.02c-.3,.07-.61,.11-.92,.11h-.31c-.24,0-.62-.04-.85-.09h-.02c-2.18-.46-3.91-2.1-4.5-4.25h0C.05,47.97,0,47.62,0,47.27v-14.75H8.03v8.97l16.09-15.15c-5.36-5.04-10.69-10.06-16.02-15.08l-.11,.05v8.85H0V5.34c0-.27,.05-.53,.1-.79h0C.73,1.4,3.87-.57,6.98,.21c1.24,.31,2.18,1.07,3.08,1.92,6.49,6.13,12.99,12.24,19.49,18.35,.12,.12,.25,.23,.39,.35,.11-.1,.21-.18,.3-.26,1.54-1.44,3.07-2.89,4.61-4.34,5.2-4.9,10.39-9.81,15.62-14.68,1.77-1.65,3.88-1.99,6.09-1.02,2.19,.97,3.31,2.75,3.32,5.15,.02,4.64,0,9.28,0,13.93v.51h-8.01V11.17l-16.11,15.17,16.12,15.18v-8.97h8v.44c0,4.71,0,9.41,0,14.12,0,2.53-1.73,4.73-4.18,5.35-.19,.05-.37,.1-.56,.15Z"/></g></g></svg>