<svg width="18" height="17" viewBox="0 0 18 17" fill="none" xmlns="http://www.w3.org/2000/svg">
<path fill-rule="evenodd" clip-rule="evenodd" d="M7.50758 0.0235406C5.64777 0.17035 3.78013 0.547276 2.0792 1.11909C1.00655 1.47969 0.814188 1.57167 0.520177 1.8645C0.297209 2.08652 0.132179 2.37811 0.0603271 2.67693C-0.0200622 3.01122 -0.0201325 8.22757 0.0602569 8.41615C0.165241 8.66239 0.338528 8.77658 0.604255 8.77455C0.751261 8.77345 0.996048 8.66325 2.64617 7.85522C3.67739 7.35029 4.55816 6.90384 4.60348 6.86313C4.79683 6.68939 4.80133 6.66149 4.81331 5.55865L4.82441 4.5348L4.95385 4.50105C5.36251 4.39447 6.39418 4.24125 7.33191 4.14782C7.98461 4.0828 10.1499 4.0941 10.863 4.16624C11.7371 4.25465 12.5824 4.38462 13.0478 4.50212L13.1772 4.5348L13.1883 5.55865C13.2003 6.66149 13.2048 6.68939 13.3982 6.86313C13.4435 6.90384 14.3254 7.35084 15.358 7.85646C17.0371 8.67861 17.2531 8.77565 17.4025 8.77452C17.6693 8.77248 17.837 8.66097 17.9414 8.41615C17.9885 8.30568 17.9954 7.94239 17.9949 5.59346C17.9944 2.62366 17.9964 2.65513 17.7765 2.25069C17.5157 1.77121 17.1547 1.535 16.1684 1.19864C14.4816 0.62335 12.8842 0.270118 11.0738 0.0720984C10.4777 0.00690701 8.12431 -0.0251549 7.50758 0.0235406ZM6.93748 5.32867C6.85287 5.36972 6.75467 5.45489 6.7091 5.52665C6.63346 5.64591 6.62826 5.69574 6.61164 6.46093L6.59407 7.26922L4.06433 8.62085C2.67298 9.36427 1.43974 10.0335 1.32379 10.1081C0.690407 10.5154 0.209933 11.2364 0.0619082 12.0016C-0.0181298 12.4154 -0.0193946 15.3223 0.0603271 15.6537C0.204206 16.252 0.675826 16.752 1.26599 16.9319C1.48548 16.9988 1.61755 17 9.00083 17C16.4247 17 16.515 16.9992 16.7409 16.9308C17.3253 16.7539 17.7976 16.2515 17.9413 15.6537C18.0192 15.3301 18.0197 12.4619 17.942 12.0253C17.8089 11.2772 17.3395 10.5509 16.7182 10.1317C16.6187 10.0645 15.3831 9.39234 13.9725 8.6379L11.4076 7.26619L11.39 6.45941C11.3734 5.69437 11.3683 5.64609 11.2921 5.52593C11.2046 5.38804 10.9721 5.25659 10.8156 5.25659C10.701 5.25659 10.4873 5.3401 10.3938 5.42148C10.2279 5.56581 10.197 5.71651 10.1962 6.38444L10.1954 7.01294H9.00083H7.80623L7.80546 6.38444C7.80448 5.58733 7.75413 5.45017 7.41082 5.30956C7.23613 5.23803 7.11421 5.24295 6.93748 5.32867ZM9.76801 10.0878C10.472 10.3297 11.0427 10.8911 11.2732 11.5686C11.3587 11.8199 11.3696 11.9034 11.3707 12.3164C11.3719 12.75 11.3647 12.8013 11.2638 13.0781C10.9164 14.0314 10.0187 14.6582 9.00083 14.6582C7.98293 14.6582 7.08522 14.0314 6.73788 13.0781C6.63746 12.8026 6.6297 12.748 6.62945 12.3164C6.62924 11.8962 6.63869 11.8244 6.72804 11.5694C6.90062 11.0767 7.23255 10.6529 7.66808 10.3691C8.14307 10.0596 8.47085 9.97035 9.0711 9.98708C9.43095 9.99714 9.55684 10.0153 9.76801 10.0878Z" fill="#1A1C3B"/>
</svg>
