<svg width="323" height="113" viewBox="0 0 323 113" fill="none" xmlns="http://www.w3.org/2000/svg">
<rect width="322.903" height="112.775" rx="28.7666" fill="white"/>
<path d="M117.865 41.4494L122.642 49.1693L127.42 41.4494L128.479 50.6992H131.986L129.539 33.4L122.642 44.0384L115.746 33.4L113.298 50.6992H116.805L117.865 41.4494ZM133.615 45.2859C133.615 46.3999 133.874 47.3884 134.392 48.2514C134.925 49.0987 135.639 49.7578 136.534 50.2285C137.444 50.6992 138.472 50.9346 139.617 50.9346C140.762 50.9346 141.782 50.6992 142.677 50.2285C143.587 49.7578 144.301 49.0987 144.819 48.2514C145.352 47.3884 145.619 46.3999 145.619 45.2859C145.619 44.1561 145.352 43.1676 144.819 42.3203C144.301 41.473 143.587 40.814 142.677 40.3432C141.782 39.8725 140.762 39.6371 139.617 39.6371C138.472 39.6371 137.444 39.8725 136.534 40.3432C135.639 40.814 134.925 41.473 134.392 42.3203C133.874 43.1676 133.615 44.1561 133.615 45.2859ZM136.722 45.2859C136.722 44.6739 136.848 44.1326 137.099 43.6618C137.365 43.1911 137.718 42.8302 138.158 42.5792C138.597 42.3281 139.084 42.2026 139.617 42.2026C140.151 42.2026 140.637 42.3281 141.076 42.5792C141.516 42.8302 141.861 43.1911 142.112 43.6618C142.379 44.1326 142.512 44.6739 142.512 45.2859C142.512 45.8978 142.379 46.4391 142.112 46.9099C141.861 47.3649 141.516 47.7258 141.076 47.9925C140.637 48.2436 140.151 48.3691 139.617 48.3691C139.084 48.3691 138.597 48.2436 138.158 47.9925C137.718 47.7258 137.365 47.3649 137.099 46.9099C136.848 46.4391 136.722 45.8978 136.722 45.2859ZM156.073 32.3409V50.6992H159.133V32.3409H156.073ZM147.176 45.2859C147.176 46.4784 147.419 47.4983 147.906 48.3456C148.392 49.1929 149.036 49.8362 149.836 50.2755C150.636 50.7149 151.483 50.9346 152.378 50.9346C153.288 50.9346 154.088 50.707 154.778 50.252C155.485 49.797 156.034 49.1458 156.426 48.2985C156.834 47.4512 157.038 46.447 157.038 45.2859C157.038 44.109 156.834 43.1048 156.426 42.2732C156.034 41.4259 155.485 40.7747 154.778 40.3197C154.088 39.8647 153.288 39.6371 152.378 39.6371C151.483 39.6371 150.636 39.8568 149.836 40.2962C149.036 40.7355 148.392 41.3788 147.906 42.2261C147.419 43.0577 147.176 44.0777 147.176 45.2859ZM150.33 45.2859C150.33 44.6425 150.463 44.0855 150.73 43.6148C150.997 43.144 151.358 42.7832 151.813 42.5321C152.268 42.281 152.754 42.1555 153.272 42.1555C153.727 42.1555 154.167 42.281 154.59 42.5321C155.03 42.7675 155.383 43.1205 155.649 43.5912C155.932 44.062 156.073 44.6268 156.073 45.2859C156.073 45.9449 155.932 46.5097 155.649 46.9805C155.383 47.4512 155.03 47.8121 154.59 48.0631C154.167 48.2985 153.727 48.4162 153.272 48.4162C152.754 48.4162 152.268 48.2907 151.813 48.0396C151.358 47.7885 150.997 47.4277 150.73 46.9569C150.463 46.4862 150.33 45.9292 150.33 45.2859ZM165.218 46.4627V39.8725H162.064V46.7922C162.064 48.0788 162.378 49.0909 163.006 49.8284C163.649 50.5658 164.614 50.9346 165.901 50.9346C166.67 50.9346 167.321 50.7777 167.854 50.4638C168.388 50.1343 168.827 49.6636 169.172 49.0517V50.6992H172.209V39.8725H169.172V46.4627C169.172 46.9177 169.078 47.31 168.89 47.6395C168.717 47.969 168.466 48.2279 168.137 48.4162C167.823 48.5888 167.446 48.6751 167.007 48.6751C166.379 48.6751 165.924 48.4868 165.642 48.1102C165.36 47.7179 165.218 47.1688 165.218 46.4627ZM175.212 32.3409V50.6992H178.271V32.3409H175.212ZM183.445 47.3335C183.445 47.0197 183.516 46.7608 183.657 46.5568C183.798 46.3371 184.018 46.1724 184.316 46.0625C184.614 45.937 184.998 45.8743 185.469 45.8743C186.05 45.8743 186.599 45.9527 187.117 46.1096C187.65 46.2665 188.129 46.5019 188.552 46.8157V45.4035C188.395 45.2152 188.137 45.0191 187.776 44.8151C187.415 44.6111 186.968 44.4385 186.434 44.2973C185.916 44.1561 185.312 44.0855 184.622 44.0855C183.272 44.0855 182.229 44.3915 181.491 45.0034C180.754 45.6154 180.385 46.447 180.385 47.4983C180.385 48.2357 180.558 48.8634 180.903 49.3812C181.264 49.8833 181.735 50.2677 182.315 50.5344C182.896 50.8012 183.523 50.9346 184.198 50.9346C184.857 50.9346 185.485 50.8169 186.081 50.5815C186.693 50.3462 187.187 49.9931 187.564 49.5224C187.956 49.0517 188.152 48.4711 188.152 47.7807L187.776 46.3685C187.776 46.8863 187.658 47.3335 187.423 47.7101C187.187 48.071 186.881 48.3534 186.505 48.5574C186.128 48.7457 185.704 48.8398 185.234 48.8398C184.904 48.8398 184.598 48.7849 184.316 48.6751C184.049 48.5496 183.837 48.377 183.68 48.1573C183.523 47.9219 183.445 47.6473 183.445 47.3335ZM182.268 42.9322C182.425 42.8224 182.668 42.689 182.998 42.5321C183.327 42.3752 183.72 42.2418 184.175 42.132C184.63 42.0221 185.108 41.9672 185.61 41.9672C185.94 41.9672 186.238 41.9986 186.505 42.0614C186.771 42.1241 186.999 42.2261 187.187 42.3673C187.391 42.5086 187.54 42.689 187.634 42.9087C187.729 43.1127 187.776 43.3637 187.776 43.6618V50.6992H190.718V43.0264C190.718 42.2889 190.514 41.6691 190.106 41.167C189.698 40.6492 189.133 40.2569 188.411 39.9902C187.689 39.7234 186.866 39.5901 185.94 39.5901C184.936 39.5901 184.026 39.7313 183.21 40.0137C182.394 40.2805 181.703 40.5629 181.138 40.861L182.268 42.9322ZM196.543 39.8725H193.553V50.6992H196.543V39.8725ZM199.72 43.0499L201.109 40.4609C200.889 40.1785 200.599 39.9666 200.238 39.8254C199.893 39.6842 199.524 39.6136 199.132 39.6136C198.567 39.6136 198.017 39.8176 197.484 40.2255C196.951 40.6178 196.519 41.1513 196.19 41.826C195.86 42.485 195.695 43.246 195.695 44.109L196.543 44.9563C196.543 44.4385 196.605 43.9992 196.731 43.6383C196.872 43.2617 197.076 42.9714 197.343 42.7675C197.61 42.5635 197.931 42.4615 198.308 42.4615C198.622 42.4615 198.88 42.5164 199.084 42.6262C199.304 42.7204 199.516 42.8616 199.72 43.0499ZM211.499 45.1682L209.098 46.8628C209.459 47.6316 209.961 48.3456 210.604 49.0046C211.248 49.6636 212.001 50.1893 212.864 50.5815C213.743 50.9581 214.684 51.1464 215.688 51.1464C216.441 51.1464 217.155 51.0287 217.83 50.7933C218.52 50.5737 219.14 50.252 219.689 49.8284C220.239 49.389 220.67 48.8555 220.984 48.2279C221.298 47.6003 221.455 46.8863 221.455 46.0861C221.455 45.38 221.337 44.7602 221.102 44.2267C220.882 43.6775 220.568 43.2068 220.16 42.8145C219.768 42.4066 219.321 42.0614 218.819 41.7789C218.332 41.4965 217.822 41.2611 217.289 41.0729C216.457 40.7904 215.767 40.5158 215.218 40.2491C214.668 39.9666 214.26 39.6764 213.994 39.3782C213.727 39.0644 213.594 38.7035 213.594 38.2956C213.594 37.8876 213.758 37.5346 214.088 37.2364C214.417 36.9226 214.912 36.7657 215.571 36.7657C216.073 36.7657 216.52 36.8677 216.912 37.0717C217.304 37.26 217.65 37.5189 217.948 37.8484C218.262 38.1622 218.528 38.5152 218.748 38.9075L221.384 37.4483C221.102 36.8677 220.701 36.3107 220.184 35.7772C219.682 35.228 219.046 34.7808 218.277 34.4356C217.524 34.0747 216.622 33.8943 215.571 33.8943C214.551 33.8943 213.625 34.0826 212.793 34.4591C211.977 34.82 211.326 35.3457 210.84 36.0361C210.369 36.7108 210.134 37.5189 210.134 38.4603C210.134 39.2449 210.283 39.9196 210.581 40.4844C210.879 41.0336 211.256 41.5044 211.711 41.8966C212.166 42.2732 212.644 42.587 213.146 42.8381C213.664 43.0734 214.119 43.2617 214.511 43.4029C215.249 43.6854 215.869 43.9521 216.371 44.2032C216.889 44.4385 217.273 44.7131 217.524 45.027C217.791 45.3408 217.924 45.7566 217.924 46.2744C217.924 46.8706 217.712 47.3414 217.289 47.6866C216.865 48.0318 216.316 48.2044 215.641 48.2044C215.061 48.2044 214.519 48.0788 214.017 47.8278C213.515 47.5767 213.052 47.2237 212.629 46.7686C212.221 46.3136 211.844 45.7801 211.499 45.1682ZM234.225 39.8725H231.048L227.635 48.4397L229.141 48.4868L225.658 39.8725H222.269L226.764 49.6165L224.034 55.8772H227.164L234.225 39.8725ZM236.134 46.9569L234.651 48.8634C235.059 49.2556 235.514 49.6244 236.016 49.9696C236.534 50.2991 237.107 50.5658 237.734 50.7698C238.378 50.9738 239.084 51.0758 239.852 51.0758C241.092 51.0758 242.065 50.7777 242.771 50.1814C243.477 49.5695 243.83 48.7222 243.83 47.6395C243.83 46.9805 243.681 46.447 243.383 46.039C243.085 45.6311 242.685 45.2937 242.183 45.027C241.696 44.7445 241.163 44.4935 240.582 44.2738C240.111 44.0698 239.688 43.8972 239.311 43.756C238.95 43.6148 238.668 43.4579 238.464 43.2853C238.276 43.097 238.181 42.8851 238.181 42.6498C238.181 42.383 238.276 42.1869 238.464 42.0614C238.668 41.9202 238.942 41.8495 239.288 41.8495C239.805 41.8495 240.331 41.9829 240.865 42.2497C241.414 42.5164 241.884 42.8616 242.277 43.2853L243.618 41.4024C243.273 41.0572 242.873 40.759 242.418 40.508C241.963 40.2412 241.469 40.0294 240.935 39.8725C240.402 39.7156 239.829 39.6371 239.217 39.6371C238.495 39.6371 237.836 39.7548 237.24 39.9902C236.659 40.2099 236.197 40.5472 235.851 41.0022C235.506 41.4416 235.334 41.9829 235.334 42.6262C235.334 43.301 235.483 43.858 235.781 44.2973C236.095 44.721 236.487 45.0662 236.958 45.3329C237.428 45.584 237.915 45.8037 238.417 45.9919C238.95 46.1645 239.39 46.3293 239.735 46.4862C240.08 46.6431 240.339 46.8236 240.512 47.0275C240.7 47.2158 240.794 47.4512 240.794 47.7336C240.794 48.0474 240.684 48.2985 240.464 48.4868C240.245 48.6594 239.931 48.7457 239.523 48.7457C239.209 48.7457 238.872 48.6829 238.511 48.5574C238.166 48.4319 237.797 48.2436 237.405 47.9925C237.012 47.7258 236.589 47.3806 236.134 46.9569ZM244.547 39.8725V42.438H251.231V39.8725H244.547ZM246.406 36.1067V50.6992H249.348V36.1067H246.406ZM257.961 50.9346C259.264 50.9346 260.378 50.6835 261.303 50.1814C262.245 49.6636 262.998 48.8948 263.563 47.8748L260.903 47.0511C260.59 47.5689 260.189 47.9611 259.703 48.2279C259.232 48.4789 258.66 48.6045 257.985 48.6045C257.389 48.6045 256.879 48.4711 256.455 48.2044C256.031 47.9376 255.71 47.5532 255.49 47.0511C255.286 46.549 255.184 45.937 255.184 45.2152C255.2 44.4621 255.31 43.8344 255.514 43.3323C255.733 42.8145 256.039 42.4301 256.431 42.1791C256.839 41.9123 257.342 41.7789 257.938 41.7789C258.424 41.7789 258.848 41.8888 259.209 42.1084C259.57 42.3281 259.844 42.6262 260.032 43.0028C260.236 43.3794 260.338 43.8344 260.338 44.3679C260.338 44.4778 260.307 44.619 260.244 44.7916C260.197 44.9485 260.142 45.074 260.08 45.1682L260.903 44.0855H253.866V45.9684H263.563C263.579 45.8743 263.586 45.7487 263.586 45.5918C263.602 45.4349 263.61 45.2859 263.61 45.1446C263.61 43.9835 263.39 42.995 262.951 42.1791C262.512 41.3474 261.868 40.7198 261.021 40.2962C260.189 39.8568 259.177 39.6371 257.985 39.6371C256.792 39.6371 255.757 39.8725 254.878 40.3432C253.999 40.7983 253.317 41.4494 252.83 42.2967C252.36 43.1284 252.124 44.1247 252.124 45.2859C252.124 46.4313 252.36 47.4277 252.83 48.275C253.317 49.1066 253.999 49.7578 254.878 50.2285C255.757 50.6992 256.784 50.9346 257.961 50.9346ZM281.914 43.7795C281.914 42.9008 281.788 42.1555 281.537 41.5436C281.302 40.9159 280.933 40.4452 280.431 40.1314C279.929 39.8019 279.278 39.6371 278.478 39.6371C277.74 39.6371 277.081 39.794 276.501 40.1079C275.936 40.4217 275.457 40.8846 275.065 41.4965C274.829 40.8846 274.453 40.4217 273.935 40.1079C273.417 39.794 272.758 39.6371 271.958 39.6371C271.236 39.6371 270.616 39.794 270.099 40.1079C269.581 40.4217 269.165 40.8767 268.851 41.473V39.8725H265.909V50.6992H268.851V44.109C268.851 43.6383 268.93 43.2382 269.087 42.9087C269.244 42.5635 269.463 42.3124 269.746 42.1555C270.028 41.9829 270.358 41.8966 270.734 41.8966C271.299 41.8966 271.707 42.0849 271.958 42.4615C272.209 42.8224 272.335 43.3716 272.335 44.109V50.6992H275.371V44.109C275.371 43.6383 275.449 43.2382 275.606 42.9087C275.763 42.5635 275.983 42.3124 276.265 42.1555C276.548 41.9829 276.877 41.8966 277.254 41.8966C277.819 41.8966 278.227 42.0849 278.478 42.4615C278.729 42.8224 278.854 43.3716 278.854 44.109V50.6992H281.914V43.7795ZM116.523 73.9569H125.231L124.831 71.2973H116.923L116.523 73.9569ZM120.83 66.5665L123.301 72.2859L123.254 73.1332L125.373 77.6992H129.185L120.83 60.2588L112.475 77.6992H116.264L118.429 72.9919L118.359 72.2388L120.83 66.5665ZM133.679 66.8725H130.69V77.6992H133.679V66.8725ZM136.857 70.0499L138.245 67.4609C138.026 67.1785 137.736 66.9666 137.375 66.8254C137.029 66.6842 136.661 66.6136 136.268 66.6136C135.704 66.6136 135.154 66.8176 134.621 67.2255C134.087 67.6178 133.656 68.1513 133.326 68.826C132.997 69.485 132.832 70.246 132.832 71.109L133.679 71.9563C133.679 71.4385 133.742 70.9992 133.868 70.6383C134.009 70.2617 134.213 69.9714 134.48 69.7675C134.746 69.5635 135.068 69.4615 135.445 69.4615C135.758 69.4615 136.017 69.5164 136.221 69.6262C136.441 69.7204 136.653 69.8616 136.857 70.0499ZM141.823 72.2859C141.823 71.6739 141.964 71.1326 142.247 70.6618C142.529 70.1911 142.906 69.8224 143.376 69.5556C143.863 69.2732 144.396 69.132 144.977 69.132C145.416 69.132 145.856 69.2026 146.295 69.3438C146.734 69.485 147.134 69.689 147.495 69.9558C147.872 70.2068 148.154 70.5049 148.343 70.8501V67.7198C147.966 67.3903 147.472 67.1314 146.86 66.9431C146.264 66.7391 145.565 66.6371 144.765 66.6371C143.62 66.6371 142.584 66.8725 141.658 67.3432C140.748 67.814 140.026 68.473 139.493 69.3203C138.975 70.1676 138.716 71.1561 138.716 72.2859C138.716 73.3999 138.975 74.3884 139.493 75.2514C140.026 76.0987 140.748 76.7578 141.658 77.2285C142.584 77.6992 143.62 77.9346 144.765 77.9346C145.565 77.9346 146.264 77.8404 146.86 77.6521C147.472 77.4481 147.966 77.1736 148.343 76.8284V73.698C148.154 74.0432 147.88 74.3492 147.519 74.6159C147.174 74.867 146.781 75.071 146.342 75.2279C145.903 75.3691 145.448 75.4397 144.977 75.4397C144.396 75.4397 143.863 75.3063 143.376 75.0396C142.906 74.7729 142.529 74.4041 142.247 73.9334C141.964 73.4627 141.823 72.9135 141.823 72.2859ZM154.092 59.3409H151.032V77.6992H154.092V59.3409ZM158.022 71.109V77.6992H161.082V70.6618C161.082 69.7675 160.948 69.0143 160.682 68.4024C160.415 67.7747 160.007 67.304 159.458 66.9902C158.909 66.6764 158.21 66.5195 157.363 66.5195C156.516 66.5195 155.802 66.7234 155.221 67.1314C154.641 67.5394 154.201 68.0885 153.903 68.7789C153.621 69.4693 153.48 70.246 153.48 71.109H154.092C154.092 70.654 154.178 70.2617 154.35 69.9322C154.523 69.6027 154.774 69.3517 155.104 69.1791C155.433 68.9908 155.81 68.8966 156.233 68.8966C156.877 68.8966 157.332 69.0849 157.598 69.4615C157.881 69.8381 158.022 70.3873 158.022 71.109ZM163.946 62.683C163.946 63.1695 164.126 63.5774 164.487 63.9069C164.848 64.2364 165.28 64.4012 165.782 64.4012C166.284 64.4012 166.707 64.2364 167.053 63.9069C167.414 63.5774 167.594 63.1695 167.594 62.683C167.594 62.1809 167.414 61.773 167.053 61.4591C166.707 61.1296 166.284 60.9649 165.782 60.9649C165.28 60.9649 164.848 61.1296 164.487 61.4591C164.126 61.773 163.946 62.1809 163.946 62.683ZM164.275 66.8725V77.6992H167.241V66.8725H164.275ZM169.088 66.8725V69.438H175.772V66.8725H169.088ZM170.948 63.1067V77.6992H173.89V63.1067H170.948ZM182.503 77.9346C183.805 77.9346 184.919 77.6835 185.845 77.1814C186.786 76.6636 187.539 75.8948 188.104 74.8748L185.445 74.0511C185.131 74.5689 184.731 74.9611 184.244 75.2279C183.774 75.4789 183.201 75.6045 182.526 75.6045C181.93 75.6045 181.42 75.4711 180.996 75.2044C180.573 74.9376 180.251 74.5532 180.031 74.0511C179.827 73.549 179.725 72.937 179.725 72.2152C179.741 71.4621 179.851 70.8344 180.055 70.3323C180.274 69.8145 180.58 69.4301 180.973 69.1791C181.381 68.9123 181.883 68.7789 182.479 68.7789C182.965 68.7789 183.389 68.8888 183.75 69.1084C184.111 69.3281 184.385 69.6262 184.574 70.0028C184.778 70.3794 184.88 70.8344 184.88 71.3679C184.88 71.4778 184.848 71.619 184.786 71.7916C184.739 71.9485 184.684 72.074 184.621 72.1682L185.445 71.0855H178.407V72.9684H188.104C188.12 72.8743 188.128 72.7487 188.128 72.5918C188.143 72.4349 188.151 72.2859 188.151 72.1446C188.151 70.9835 187.932 69.995 187.492 69.1791C187.053 68.3474 186.41 67.7198 185.562 67.2962C184.731 66.8568 183.719 66.6371 182.526 66.6371C181.334 66.6371 180.298 66.8725 179.419 67.3432C178.541 67.7983 177.858 68.4494 177.372 69.2967C176.901 70.1284 176.666 71.1247 176.666 72.2859C176.666 73.4313 176.901 74.4277 177.372 75.275C177.858 76.1066 178.541 76.7578 179.419 77.2285C180.298 77.6992 181.326 77.9346 182.503 77.9346ZM192.757 72.2859C192.757 71.6739 192.898 71.1326 193.181 70.6618C193.463 70.1911 193.84 69.8224 194.31 69.5556C194.797 69.2732 195.33 69.132 195.911 69.132C196.35 69.132 196.79 69.2026 197.229 69.3438C197.668 69.485 198.068 69.689 198.429 69.9558C198.806 70.2068 199.088 70.5049 199.277 70.8501V67.7198C198.9 67.3903 198.406 67.1314 197.794 66.9431C197.198 66.7391 196.499 66.6371 195.699 66.6371C194.554 66.6371 193.518 66.8725 192.592 67.3432C191.682 67.814 190.96 68.473 190.427 69.3203C189.909 70.1676 189.65 71.1561 189.65 72.2859C189.65 73.3999 189.909 74.3884 190.427 75.2514C190.96 76.0987 191.682 76.7578 192.592 77.2285C193.518 77.6992 194.554 77.9346 195.699 77.9346C196.499 77.9346 197.198 77.8404 197.794 77.6521C198.406 77.4481 198.9 77.1736 199.277 76.8284V73.698C199.088 74.0432 198.814 74.3492 198.453 74.6159C198.108 74.867 197.715 75.071 197.276 75.2279C196.837 75.3691 196.382 75.4397 195.911 75.4397C195.33 75.4397 194.797 75.3063 194.31 75.0396C193.84 74.7729 193.463 74.4041 193.181 73.9334C192.898 73.4627 192.757 72.9135 192.757 72.2859ZM200.577 66.8725V69.438H207.262V66.8725H200.577ZM202.437 63.1067V77.6992H205.379V63.1067H202.437ZM212.038 73.4627V66.8725H208.884V73.7922C208.884 75.0788 209.198 76.0909 209.826 76.8284C210.469 77.5658 211.434 77.9346 212.721 77.9346C213.489 77.9346 214.141 77.7777 214.674 77.4638C215.208 77.1343 215.647 76.6636 215.992 76.0517V77.6992H219.028V66.8725H215.992V73.4627C215.992 73.9177 215.898 74.31 215.71 74.6395C215.537 74.969 215.286 75.2279 214.957 75.4162C214.643 75.5888 214.266 75.6751 213.827 75.6751C213.199 75.6751 212.744 75.4868 212.462 75.1102C212.179 74.7179 212.038 74.1688 212.038 73.4627ZM225.021 66.8725H222.031V77.6992H225.021V66.8725ZM228.198 70.0499L229.587 67.4609C229.367 67.1785 229.077 66.9666 228.716 66.8254C228.371 66.6842 228.002 66.6136 227.61 66.6136C227.045 66.6136 226.496 66.8176 225.962 67.2255C225.429 67.6178 224.997 68.1513 224.668 68.826C224.338 69.485 224.173 70.246 224.173 71.109L225.021 71.9563C225.021 71.4385 225.083 70.9992 225.209 70.6383C225.35 70.2617 225.554 69.9714 225.821 69.7675C226.088 69.5635 226.409 69.4615 226.786 69.4615C227.1 69.4615 227.359 69.5164 227.562 69.6262C227.782 69.7204 227.994 69.8616 228.198 70.0499ZM235.965 77.9346C237.267 77.9346 238.381 77.6835 239.307 77.1814C240.249 76.6636 241.002 75.8948 241.567 74.8748L238.907 74.0511C238.593 74.5689 238.193 74.9611 237.707 75.2279C237.236 75.4789 236.663 75.6045 235.988 75.6045C235.392 75.6045 234.882 75.4711 234.459 75.2044C234.035 74.9376 233.713 74.5532 233.494 74.0511C233.29 73.549 233.188 72.937 233.188 72.2152C233.203 71.4621 233.313 70.8344 233.517 70.3323C233.737 69.8145 234.043 69.4301 234.435 69.1791C234.843 68.9123 235.345 68.7789 235.941 68.7789C236.428 68.7789 236.851 68.8888 237.212 69.1084C237.573 69.3281 237.848 69.6262 238.036 70.0028C238.24 70.3794 238.342 70.8344 238.342 71.3679C238.342 71.4778 238.311 71.619 238.248 71.7916C238.201 71.9485 238.146 72.074 238.083 72.1682L238.907 71.0855H231.87V72.9684H241.567C241.582 72.8743 241.59 72.7487 241.59 72.5918C241.606 72.4349 241.614 72.2859 241.614 72.1446C241.614 70.9835 241.394 69.995 240.955 69.1791C240.515 68.3474 239.872 67.7198 239.025 67.2962C238.193 66.8568 237.181 66.6371 235.988 66.6371C234.796 66.6371 233.76 66.8725 232.882 67.3432C232.003 67.7983 231.32 68.4494 230.834 69.2967C230.363 70.1284 230.128 71.1247 230.128 72.2859C230.128 73.4313 230.363 74.4277 230.834 75.275C231.32 76.1066 232.003 76.7578 232.882 77.2285C233.76 77.6992 234.788 77.9346 235.965 77.9346Z" fill="#1B1D3B"/>
<g clip-path="url(#clip0_297_1223)">
<path d="M93.0883 64.4192C91.163 61.1492 89.2641 57.8618 87.3917 54.557C86.8856 53.667 86.2108 53.2894 85.1987 53.2962C81.3909 53.3175 77.5836 53.3175 73.7768 53.2962C72.7326 53.2877 72.0562 53.7007 71.5434 54.6075C69.8852 57.5489 68.1696 60.4581 66.4962 63.3876C66.4305 63.5374 66.3186 63.6622 66.1769 63.7441C66.0352 63.8259 65.8711 63.8605 65.7085 63.8427C62.7216 63.8248 59.7346 63.8248 56.7477 63.8427C56.5865 63.8593 56.4242 63.8245 56.284 63.7433C56.1437 63.6622 56.0327 63.5389 55.9667 63.391C54.2916 60.4565 52.5778 57.5505 50.9195 54.6109C50.4135 53.7041 49.7286 53.2928 48.6844 53.2995C44.8777 53.3265 41.0704 53.3265 37.2625 53.2995C36.2504 53.2995 35.5757 53.6704 35.0696 54.5603C33.0453 58.1253 30.9738 61.6684 28.9209 65.2182V66.2295C29.0884 66.7903 29.3283 67.3269 29.6344 67.8257C29.9853 68.4224 30.3379 69.0191 30.6854 69.6175C32.1007 72.0717 33.5278 74.5208 34.9296 76.9817C35.1277 77.3654 35.4208 77.692 35.7811 77.9304C36.1414 78.1689 36.5567 78.3111 36.9876 78.3436C37.2802 78.3715 37.5742 78.3833 37.8681 78.379C40.8286 78.379 43.7908 78.4144 46.7513 78.3571C47.6386 78.3386 48.1126 78.6538 48.5292 79.4056C50.0559 82.1581 51.6702 84.8617 53.2255 87.5991C53.5629 88.184 53.9998 88.57 54.6695 88.6778H67.7968C68.4716 88.3862 68.9051 87.8536 69.2661 87.2181C70.8956 84.3527 72.5623 81.5176 74.1901 78.6555C74.2656 78.4891 74.3917 78.3507 74.5503 78.26C74.709 78.1692 74.8922 78.1307 75.074 78.1498C78.4613 78.1667 81.8486 78.1498 85.2341 78.165C86.2142 78.165 86.889 77.7874 87.3832 76.9193C89.2692 73.6022 91.181 70.299 93.1186 67.0099C93.6382 66.1065 93.6163 65.3126 93.0883 64.4192ZM48.2205 73.941C48.1595 74.0813 48.0557 74.1988 47.924 74.2769C47.7923 74.355 47.6393 74.3896 47.4867 74.3758C44.4785 74.359 41.4713 74.359 38.4653 74.3758C38.3127 74.3887 38.1599 74.3533 38.0285 74.2747C37.8971 74.196 37.7938 74.0781 37.7332 73.9376C36.2453 71.3351 34.7446 68.7404 33.2309 66.1537C33.1421 66.0285 33.0943 65.8789 33.0943 65.7255C33.0943 65.5721 33.1421 65.4225 33.2309 65.2974C34.7446 62.7129 36.2453 60.1177 37.7332 57.5118C37.7954 57.3728 37.8997 57.2569 38.0313 57.1804C38.163 57.1039 38.3154 57.0706 38.467 57.0853C39.9852 57.1072 41.4949 57.0954 43.0081 57.0954C44.4807 57.0954 45.9534 57.1056 47.4243 57.0954C47.7988 57.0954 48.0299 57.1814 48.2273 57.5286C49.7117 60.1255 51.2091 62.7174 52.7195 65.3041C52.8091 65.4286 52.8573 65.5781 52.8573 65.7314C52.8573 65.8848 52.8091 66.0342 52.7195 66.1587C51.2058 68.7477 49.7061 71.3418 48.2205 73.941ZM70.98 76.6615C69.4528 79.2662 67.9425 81.88 66.449 84.5027C66.3912 84.6321 66.2941 84.74 66.1715 84.8111C66.0488 84.8822 65.9069 84.9129 65.7658 84.8988C62.7373 84.8831 59.7088 84.8831 56.6803 84.8988C56.5494 84.9169 56.4162 84.893 56.2998 84.8306C56.1834 84.7682 56.0898 84.6705 56.0325 84.5516C54.5143 81.8951 52.9826 79.2454 51.4374 76.6025C51.2687 76.3243 51.3092 76.1339 51.4627 75.8726C52.9944 73.2465 54.5154 70.6148 56.0257 67.9774C56.0779 67.8565 56.1675 67.7554 56.2813 67.689C56.3952 67.6226 56.5273 67.5943 56.6583 67.6083C58.1934 67.6235 59.7301 67.6083 61.2652 67.6083C62.7379 67.6083 64.2088 67.6201 65.6815 67.6083C66.056 67.6083 66.2753 67.6909 66.4726 68.0381C67.9537 70.644 69.4517 73.2409 70.9665 75.8288C71.0572 75.949 71.1073 76.0949 71.1098 76.2455C71.1122 76.396 71.0667 76.5434 70.98 76.6665V76.6615ZM89.1983 66.1857C87.6947 68.7545 86.2047 71.3311 84.7281 73.9157C84.6626 74.0645 84.552 74.189 84.4118 74.2716C84.2717 74.3542 84.1091 74.3906 83.9471 74.3758C80.9613 74.359 77.9749 74.359 74.988 74.3758C74.5916 74.3758 74.3993 74.2342 74.212 73.9056C72.7411 71.3266 71.2561 68.7539 69.757 66.1874C69.6611 66.0559 69.6095 65.8974 69.6095 65.7348C69.6095 65.5721 69.6611 65.4137 69.757 65.2822C71.2594 62.7134 72.7478 60.1356 74.2222 57.5489C74.2876 57.3994 74.3984 57.2743 74.5388 57.1911C74.6792 57.1079 74.8423 57.0709 75.0049 57.0853C76.4978 57.1089 77.9907 57.0954 79.4836 57.0954C80.9764 57.0954 82.4693 57.1089 83.9622 57.0853C84.3536 57.0853 84.5526 57.2185 84.7433 57.5505C86.2199 60.1351 87.7099 62.7117 89.2135 65.2805C89.3066 65.4138 89.3558 65.5728 89.3543 65.7353C89.3527 65.8978 89.3006 66.0558 89.2051 66.1874L89.1983 66.1857Z" fill="#1A1C3B"/>
<path d="M74.9184 35.3704C72.956 31.9993 71.0054 28.6214 69.0666 25.2368C68.6111 24.4446 67.965 24.094 67.0524 24.0974C63.1614 24.1142 59.2697 24.1142 55.3775 24.0974C54.4632 24.0974 53.8323 24.4682 53.3802 25.2604C51.4403 28.6439 49.4886 32.0207 47.5251 35.3907C47.3079 35.727 47.1924 36.1188 47.1924 36.5191C47.1924 36.9194 47.3079 37.3112 47.5251 37.6476C49.4931 41.039 51.4544 44.4343 53.4089 47.8335C53.5912 48.1907 53.874 48.487 54.2226 48.6858C54.5711 48.8847 54.9702 48.9774 55.3708 48.9527C56.5516 48.9358 57.7324 48.9527 58.9048 48.9527C59.1916 48.9527 59.3586 48.9662 59.3518 49.3437C59.3248 50.6922 59.34 52.0288 59.34 53.3722L59.1713 53.4751C59.0578 53.3002 58.9315 53.134 58.7934 52.9778C58.0006 52.2362 56.8637 52.2311 56.1265 52.9525C55.364 53.7009 55.3539 54.8538 56.1417 55.6579C57.3787 56.9187 58.6281 58.1671 59.8899 59.4032C60.6052 60.1027 61.7067 60.2055 62.4068 59.5448C63.799 58.2334 65.1536 56.885 66.4705 55.4994C67.1655 54.7662 67.044 53.62 66.3237 52.9407C65.9772 52.6119 65.5188 52.4267 65.0409 52.4227C64.5631 52.4186 64.1015 52.5959 63.7495 52.9188C63.5835 53.1008 63.4371 53.2997 63.3126 53.5121L63.122 53.3773C63.122 52.0002 63.1321 50.6231 63.122 49.246C63.122 48.9089 63.316 48.946 63.5268 48.946C64.684 48.946 65.8413 48.9257 66.9968 48.946C67.9583 48.9695 68.6246 48.5886 69.1054 47.7475C71.0284 44.3764 72.9683 41.0171 74.9251 37.6695C75.1458 37.3264 75.2625 36.9269 75.2613 36.519C75.2601 36.1111 75.141 35.7123 74.9184 35.3704V35.3704ZM71.0132 36.8874C69.4703 39.5315 67.938 42.1818 66.4165 44.8382C66.3661 44.9483 66.2827 45.0399 66.1778 45.1004C66.0728 45.1608 65.9517 45.187 65.8311 45.1753C62.7588 45.1652 59.6881 45.1652 56.6191 45.1753C56.4978 45.1851 56.3765 45.1565 56.2723 45.0936C56.1682 45.0306 56.0865 44.9366 56.0388 44.8248C54.5138 42.1694 52.9804 39.5197 51.4386 36.8756C51.3652 36.7668 51.3278 36.6376 51.3317 36.5063C51.3356 36.3751 51.3807 36.2484 51.4606 36.1441C52.9923 33.518 54.5133 30.8863 56.0236 28.2489C56.0769 28.1282 56.1672 28.0275 56.2815 27.9615C56.3958 27.8954 56.5282 27.8674 56.6595 27.8815C58.1946 27.8966 59.7297 27.8815 61.2647 27.8815C62.7593 27.8815 64.2522 27.8815 65.7451 27.8815C66.0639 27.8815 66.2613 27.9388 66.4418 28.2523C67.9431 30.8953 69.4613 33.5281 70.9964 36.1508C71.0762 36.2554 71.1208 36.3824 71.1239 36.5139C71.1269 36.6453 71.0882 36.7743 71.0132 36.8824V36.8874Z" fill="#A21D34"/>
</g>
<defs>
<clipPath id="clip0_297_1223">
<rect width="64.5807" height="64.5807" fill="white" transform="translate(28.917 24.0974)"/>
</clipPath>
</defs>
</svg>
