<svg width="252" height="151" viewBox="0 0 252 151" fill="none" xmlns="http://www.w3.org/2000/svg">
<rect width="252" height="151" rx="28.7666" fill="white"/>
<path d="M29.4134 36.7502L34.1912 44.4701L38.9691 36.7502L40.0282 46H43.5351L41.0874 28.7008L34.1912 39.3392L27.2951 28.7008L24.8473 46H28.3542L29.4134 36.7502ZM45.1641 40.5866C45.1641 41.7007 45.423 42.6892 45.9408 43.5522C46.4743 44.3995 47.1882 45.0585 48.0826 45.5293C48.9927 46 50.0204 46.2354 51.1659 46.2354C52.3113 46.2354 53.3312 46 54.2256 45.5293C55.1357 45.0585 55.8496 44.3995 56.3674 43.5522C56.9009 42.6892 57.1676 41.7007 57.1676 40.5866C57.1676 39.4569 56.9009 38.4684 56.3674 37.6211C55.8496 36.7738 55.1357 36.1147 54.2256 35.644C53.3312 35.1733 52.3113 34.9379 51.1659 34.9379C50.0204 34.9379 48.9927 35.1733 48.0826 35.644C47.1882 36.1147 46.4743 36.7738 45.9408 37.6211C45.423 38.4684 45.1641 39.4569 45.1641 40.5866ZM48.2709 40.5866C48.2709 39.9747 48.3964 39.4334 48.6475 38.9626C48.9142 38.4919 49.2673 38.131 49.7066 37.88C50.146 37.6289 50.6324 37.5034 51.1659 37.5034C51.6994 37.5034 52.1858 37.6289 52.6251 37.88C53.0645 38.131 53.4097 38.4919 53.6607 38.9626C53.9275 39.4334 54.0608 39.9747 54.0608 40.5866C54.0608 41.1986 53.9275 41.7399 53.6607 42.2107C53.4097 42.6657 53.0645 43.0266 52.6251 43.2933C52.1858 43.5444 51.6994 43.6699 51.1659 43.6699C50.6324 43.6699 50.146 43.5444 49.7066 43.2933C49.2673 43.0266 48.9142 42.6657 48.6475 42.2107C48.3964 41.7399 48.2709 41.1986 48.2709 40.5866ZM67.6218 27.6417V46H70.6815V27.6417H67.6218ZM58.7251 40.5866C58.7251 41.7792 58.9683 42.7991 59.4547 43.6464C59.9411 44.4937 60.5844 45.137 61.3847 45.5763C62.1849 46.0157 63.0322 46.2354 63.9266 46.2354C64.8367 46.2354 65.6369 46.0078 66.3273 45.5528C67.0334 45.0978 67.5826 44.4466 67.9748 43.5993C68.3828 42.752 68.5868 41.7478 68.5868 40.5866C68.5868 39.4098 68.3828 38.4056 67.9748 37.574C67.5826 36.7267 67.0334 36.0755 66.3273 35.6205C65.6369 35.1655 64.8367 34.9379 63.9266 34.9379C63.0322 34.9379 62.1849 35.1576 61.3847 35.5969C60.5844 36.0363 59.9411 36.6796 59.4547 37.5269C58.9683 38.3585 58.7251 39.3785 58.7251 40.5866ZM61.8789 40.5866C61.8789 39.9433 62.0123 39.3863 62.2791 38.9156C62.5458 38.4448 62.9067 38.084 63.3617 37.8329C63.8168 37.5818 64.3032 37.4563 64.821 37.4563C65.276 37.4563 65.7154 37.5818 66.139 37.8329C66.5784 38.0683 66.9314 38.4213 67.1981 38.892C67.4806 39.3628 67.6218 39.9276 67.6218 40.5866C67.6218 41.2457 67.4806 41.8105 67.1981 42.2813C66.9314 42.752 66.5784 43.1129 66.139 43.3639C65.7154 43.5993 65.276 43.717 64.821 43.717C64.3032 43.717 63.8168 43.5915 63.3617 43.3404C62.9067 43.0893 62.5458 42.7285 62.2791 42.2577C62.0123 41.787 61.8789 41.23 61.8789 40.5866ZM76.7671 41.7635V35.1733H73.6133V42.093C73.6133 43.3796 73.9271 44.3917 74.5547 45.1292C75.198 45.8666 76.163 46.2354 77.4497 46.2354C78.2185 46.2354 78.8697 46.0785 79.4032 45.7646C79.9367 45.4351 80.376 44.9644 80.7212 44.3525V46H83.7574V35.1733H80.7212V41.7635C80.7212 42.2185 80.6271 42.6108 80.4388 42.9403C80.2662 43.2698 80.0151 43.5287 79.6856 43.717C79.3718 43.8896 78.9952 43.9759 78.5559 43.9759C77.9282 43.9759 77.4732 43.7876 77.1908 43.411C76.9083 43.0187 76.7671 42.4696 76.7671 41.7635ZM86.7605 27.6417V46H89.8202V27.6417H86.7605ZM94.9938 42.6343C94.9938 42.3205 95.0644 42.0616 95.2056 41.8576C95.3468 41.6379 95.5665 41.4732 95.8646 41.3633C96.1628 41.2378 96.5472 41.1751 97.0179 41.1751C97.5985 41.1751 98.1477 41.2535 98.6655 41.4104C99.1989 41.5673 99.6775 41.8027 100.101 42.1165V40.7043C99.9443 40.516 99.6854 40.3199 99.3245 40.1159C98.9636 39.9119 98.5164 39.7393 97.9829 39.5981C97.4651 39.4569 96.861 39.3863 96.1706 39.3863C94.8212 39.3863 93.7778 39.6923 93.0403 40.3042C92.3028 40.9162 91.9341 41.7478 91.9341 42.7991C91.9341 43.5365 92.1067 44.1642 92.4519 44.682C92.8128 45.1841 93.2835 45.5685 93.8641 45.8352C94.4446 46.102 95.0722 46.2354 95.747 46.2354C96.406 46.2354 97.0336 46.1177 97.6299 45.8823C98.2418 45.647 98.7361 45.2939 99.1126 44.8232C99.5049 44.3525 99.7011 43.7719 99.7011 43.0815L99.3245 41.6693C99.3245 42.1871 99.2068 42.6343 98.9714 43.0109C98.7361 43.3718 98.4301 43.6542 98.0535 43.8582C97.6769 44.0465 97.2533 44.1406 96.7826 44.1406C96.453 44.1406 96.1471 44.0857 95.8646 43.9759C95.5979 43.8504 95.3861 43.6778 95.2292 43.4581C95.0722 43.2227 94.9938 42.9481 94.9938 42.6343ZM93.817 38.233C93.9739 38.1232 94.2171 37.9898 94.5466 37.8329C94.8761 37.676 95.2684 37.5426 95.7234 37.4328C96.1785 37.3229 96.657 37.268 97.1591 37.268C97.4886 37.268 97.7868 37.2994 98.0535 37.3622C98.3203 37.4249 98.5478 37.5269 98.7361 37.6681C98.94 37.8094 99.0891 37.9898 99.1833 38.2095C99.2774 38.4135 99.3245 38.6645 99.3245 38.9626V46H102.267V38.3272C102.267 37.5897 102.063 36.9699 101.655 36.4678C101.247 35.95 100.682 35.5577 99.96 35.291C99.2382 35.0242 98.4144 34.8909 97.4886 34.8909C96.4844 34.8909 95.5744 35.0321 94.7584 35.3145C93.9425 35.5813 93.2521 35.8637 92.6872 36.1618L93.817 38.233ZM108.091 35.1733H105.102V46H108.091V35.1733ZM111.269 38.3507L112.657 35.7617C112.438 35.4793 112.147 35.2674 111.787 35.1262C111.441 34.985 111.073 34.9144 110.68 34.9144C110.116 34.9144 109.566 35.1184 109.033 35.5263C108.499 35.9186 108.068 36.4521 107.738 37.1268C107.409 37.7858 107.244 38.5468 107.244 39.4098L108.091 40.2571C108.091 39.7393 108.154 39.3 108.28 38.9391C108.421 38.5625 108.625 38.2722 108.892 38.0683C109.158 37.8643 109.48 37.7623 109.857 37.7623C110.17 37.7623 110.429 37.8172 110.633 37.927C110.853 38.0212 111.065 38.1624 111.269 38.3507ZM123.048 40.469L120.647 42.1636C121.008 42.9324 121.51 43.6464 122.153 44.3054C122.797 44.9644 123.55 45.49 124.413 45.8823C125.291 46.2589 126.233 46.4472 127.237 46.4472C127.99 46.4472 128.704 46.3295 129.379 46.0941C130.069 45.8745 130.689 45.5528 131.238 45.1292C131.787 44.6898 132.219 44.1563 132.533 43.5287C132.847 42.9011 133.003 42.1871 133.003 41.3869C133.003 40.6808 132.886 40.061 132.65 39.5275C132.431 38.9783 132.117 38.5076 131.709 38.1153C131.317 37.7074 130.87 37.3622 130.367 37.0797C129.881 36.7973 129.371 36.5619 128.838 36.3736C128.006 36.0912 127.316 35.8166 126.766 35.5499C126.217 35.2674 125.809 34.9772 125.542 34.679C125.276 34.3652 125.142 34.0043 125.142 33.5964C125.142 33.1884 125.307 32.8354 125.637 32.5372C125.966 32.2234 126.46 32.0665 127.119 32.0665C127.621 32.0665 128.069 32.1685 128.461 32.3725C128.853 32.5608 129.198 32.8197 129.497 33.1492C129.81 33.463 130.077 33.816 130.297 34.2083L132.933 32.7491C132.65 32.1685 132.25 31.6115 131.733 31.078C131.23 30.5288 130.595 30.0816 129.826 29.7364C129.073 29.3755 128.171 29.1951 127.119 29.1951C126.099 29.1951 125.174 29.3834 124.342 29.7599C123.526 30.1208 122.875 30.6465 122.389 31.3369C121.918 32.0116 121.682 32.8197 121.682 33.7611C121.682 34.5457 121.832 35.2204 122.13 35.7852C122.428 36.3344 122.804 36.8051 123.259 37.1974C123.714 37.574 124.193 37.8878 124.695 38.1389C125.213 38.3742 125.668 38.5625 126.06 38.7037C126.798 38.9862 127.418 39.2529 127.92 39.504C128.437 39.7393 128.822 40.0139 129.073 40.3277C129.34 40.6416 129.473 41.0574 129.473 41.5752C129.473 42.1714 129.261 42.6422 128.838 42.9874C128.414 43.3326 127.865 43.5052 127.19 43.5052C126.609 43.5052 126.068 43.3796 125.566 43.1286C125.064 42.8775 124.601 42.5245 124.177 42.0694C123.769 41.6144 123.393 41.0809 123.048 40.469ZM145.774 35.1733H142.597L139.184 43.7405L140.69 43.7876L137.207 35.1733H133.817L138.313 44.9173L135.583 51.178H138.713L145.774 35.1733ZM147.683 42.2577L146.2 44.1642C146.608 44.5564 147.063 44.9252 147.565 45.2704C148.083 45.5999 148.655 45.8666 149.283 46.0706C149.926 46.2746 150.632 46.3766 151.401 46.3766C152.641 46.3766 153.614 46.0785 154.32 45.4822C155.026 44.8703 155.379 44.0229 155.379 42.9403C155.379 42.2813 155.23 41.7478 154.932 41.3398C154.634 40.9318 154.234 40.5945 153.731 40.3277C153.245 40.0453 152.712 39.7943 152.131 39.5746C151.66 39.3706 151.237 39.198 150.86 39.0568C150.499 38.9156 150.217 38.7587 150.013 38.5861C149.824 38.3978 149.73 38.1859 149.73 37.9506C149.73 37.6838 149.824 37.4877 150.013 37.3622C150.217 37.221 150.491 37.1503 150.836 37.1503C151.354 37.1503 151.88 37.2837 152.413 37.5505C152.963 37.8172 153.433 38.1624 153.826 38.5861L155.167 36.7032C154.822 36.358 154.422 36.0598 153.967 35.8088C153.512 35.542 153.017 35.3302 152.484 35.1733C151.951 35.0164 151.378 34.9379 150.766 34.9379C150.044 34.9379 149.385 35.0556 148.789 35.291C148.208 35.5106 147.745 35.848 147.4 36.303C147.055 36.7424 146.882 37.2837 146.882 37.927C146.882 38.6018 147.031 39.1588 147.33 39.5981C147.643 40.0218 148.036 40.367 148.506 40.6337C148.977 40.8848 149.463 41.1044 149.966 41.2927C150.499 41.4653 150.938 41.6301 151.284 41.787C151.629 41.9439 151.888 42.1244 152.06 42.3283C152.249 42.5166 152.343 42.752 152.343 43.0344C152.343 43.3482 152.233 43.5993 152.013 43.7876C151.794 43.9602 151.48 44.0465 151.072 44.0465C150.758 44.0465 150.421 43.9837 150.06 43.8582C149.715 43.7327 149.346 43.5444 148.954 43.2933C148.561 43.0266 148.138 42.6814 147.683 42.2577ZM156.096 35.1733V37.7388H162.78V35.1733H156.096ZM157.955 31.4075V46H160.897V31.4075H157.955ZM169.51 46.2354C170.812 46.2354 171.927 45.9843 172.852 45.4822C173.794 44.9644 174.547 44.1955 175.112 43.1756L172.452 42.3519C172.138 42.8697 171.738 43.2619 171.252 43.5287C170.781 43.7797 170.208 43.9053 169.534 43.9053C168.937 43.9053 168.427 43.7719 168.004 43.5052C167.58 43.2384 167.258 42.854 167.039 42.3519C166.835 41.8498 166.733 41.2378 166.733 40.516C166.749 39.7629 166.858 39.1352 167.062 38.6331C167.282 38.1153 167.588 37.7309 167.98 37.4799C168.388 37.2131 168.89 37.0797 169.487 37.0797C169.973 37.0797 170.397 37.1896 170.758 37.4092C171.118 37.6289 171.393 37.927 171.581 38.3036C171.785 38.6802 171.887 39.1352 171.887 39.6687C171.887 39.7786 171.856 39.9198 171.793 40.0924C171.746 40.2493 171.691 40.3748 171.628 40.469L172.452 39.3863H165.415V41.2692H175.112C175.127 41.1751 175.135 41.0495 175.135 40.8926C175.151 40.7357 175.159 40.5866 175.159 40.4454C175.159 39.2843 174.939 38.2958 174.5 37.4799C174.06 36.6482 173.417 36.0206 172.57 35.5969C171.738 35.1576 170.726 34.9379 169.534 34.9379C168.341 34.9379 167.306 35.1733 166.427 35.644C165.548 36.0991 164.866 36.7502 164.379 37.5975C163.908 38.4292 163.673 39.4255 163.673 40.5866C163.673 41.7321 163.908 42.7285 164.379 43.5758C164.866 44.4074 165.548 45.0585 166.427 45.5293C167.306 46 168.333 46.2354 169.51 46.2354ZM193.463 39.0803C193.463 38.2016 193.337 37.4563 193.086 36.8444C192.851 36.2167 192.482 35.746 191.98 35.4322C191.478 35.1027 190.827 34.9379 190.026 34.9379C189.289 34.9379 188.63 35.0948 188.049 35.4087C187.485 35.7225 187.006 36.1854 186.614 36.7973C186.378 36.1854 186.002 35.7225 185.484 35.4087C184.966 35.0948 184.307 34.9379 183.507 34.9379C182.785 34.9379 182.165 35.0948 181.648 35.4087C181.13 35.7225 180.714 36.1775 180.4 36.7738V35.1733H177.458V46H180.4V39.4098C180.4 38.9391 180.479 38.539 180.635 38.2095C180.792 37.8643 181.012 37.6132 181.294 37.4563C181.577 37.2837 181.906 37.1974 182.283 37.1974C182.848 37.1974 183.256 37.3857 183.507 37.7623C183.758 38.1232 183.883 38.6724 183.883 39.4098V46H186.92V39.4098C186.92 38.9391 186.998 38.539 187.155 38.2095C187.312 37.8643 187.532 37.6132 187.814 37.4563C188.096 37.2837 188.426 37.1974 188.803 37.1974C189.367 37.1974 189.775 37.3857 190.026 37.7623C190.277 38.1232 190.403 38.6724 190.403 39.4098V46H193.463V39.0803ZM28.0718 69.2577H36.7802L36.3801 66.5981H28.4719L28.0718 69.2577ZM32.3789 61.8673L34.8502 67.5866L34.8032 68.434L36.9214 73H40.7343L32.3789 55.5596L24.0235 73H27.8129L29.9782 68.2927L29.9076 67.5396L32.3789 61.8673ZM45.2283 62.1733H42.2392V73H45.2283V62.1733ZM48.4057 65.3507L49.7943 62.7617C49.5747 62.4793 49.2844 62.2674 48.9235 62.1262C48.5783 61.985 48.2095 61.9144 47.8173 61.9144C47.2524 61.9144 46.7032 62.1184 46.1697 62.5263C45.6362 62.9186 45.2047 63.4521 44.8752 64.1268C44.5457 64.7858 44.381 65.5468 44.381 66.4098L45.2283 67.2571C45.2283 66.7393 45.291 66.3 45.4166 65.9391C45.5578 65.5625 45.7618 65.2722 46.0285 65.0683C46.2953 64.8643 46.6169 64.7623 46.9935 64.7623C47.3073 64.7623 47.5662 64.8172 47.7702 64.927C47.9899 65.0212 48.2017 65.1624 48.4057 65.3507ZM53.3718 67.5866C53.3718 66.9747 53.5131 66.4334 53.7955 65.9626C54.0779 65.4919 54.4545 65.1232 54.9252 64.8564C55.4117 64.574 55.9451 64.4328 56.5257 64.4328C56.9651 64.4328 57.4044 64.5034 57.8437 64.6446C58.2831 64.7858 58.6832 64.9898 59.0441 65.2566C59.4207 65.5076 59.7031 65.8057 59.8914 66.1509V63.0206C59.5148 62.6911 59.0206 62.4322 58.4086 62.2439C57.8124 62.0399 57.1141 61.9379 56.3139 61.9379C55.1685 61.9379 54.1329 62.1733 53.2071 62.644C52.297 63.1147 51.5752 63.7738 51.0418 64.6211C50.524 65.4684 50.2651 66.4569 50.2651 67.5866C50.2651 68.7007 50.524 69.6892 51.0418 70.5522C51.5752 71.3995 52.297 72.0585 53.2071 72.5293C54.1329 73 55.1685 73.2354 56.3139 73.2354C57.1141 73.2354 57.8124 73.1412 58.4086 72.9529C59.0206 72.7489 59.5148 72.4744 59.8914 72.1292V68.9988C59.7031 69.344 59.4285 69.65 59.0676 69.9167C58.7224 70.1678 58.3302 70.3718 57.8908 70.5287C57.4515 70.6699 56.9964 70.7405 56.5257 70.7405C55.9451 70.7405 55.4117 70.6071 54.9252 70.3404C54.4545 70.0737 54.0779 69.7049 53.7955 69.2342C53.5131 68.7635 53.3718 68.2143 53.3718 67.5866ZM65.6403 54.6417H62.5806V73H65.6403V54.6417ZM69.5709 66.4098V73H72.6306V65.9626C72.6306 65.0683 72.4972 64.3151 72.2305 63.7032C71.9638 63.0755 71.5558 62.6048 71.0066 62.291C70.4574 61.9772 69.7592 61.8203 68.9119 61.8203C68.0646 61.8203 67.3506 62.0242 66.7701 62.4322C66.1895 62.8402 65.7502 63.3893 65.452 64.0797C65.1696 64.7701 65.0284 65.5468 65.0284 66.4098H65.6403C65.6403 65.9548 65.7266 65.5625 65.8992 65.233C66.0718 64.9035 66.3229 64.6525 66.6524 64.4799C66.9819 64.2916 67.3585 64.1974 67.7821 64.1974C68.4255 64.1974 68.8805 64.3857 69.1472 64.7623C69.4297 65.1389 69.5709 65.6881 69.5709 66.4098ZM75.4947 57.9838C75.4947 58.4702 75.6751 58.8782 76.036 59.2077C76.3969 59.5372 76.8284 59.702 77.3305 59.702C77.8326 59.702 78.2563 59.5372 78.6015 59.2077C78.9624 58.8782 79.1428 58.4702 79.1428 57.9838C79.1428 57.4817 78.9624 57.0738 78.6015 56.7599C78.2563 56.4304 77.8326 56.2657 77.3305 56.2657C76.8284 56.2657 76.3969 56.4304 76.036 56.7599C75.6751 57.0738 75.4947 57.4817 75.4947 57.9838ZM75.8242 62.1733V73H78.7898V62.1733H75.8242ZM80.637 62.1733V64.7388H87.3213V62.1733H80.637ZM82.4964 58.4075V73H85.4384V58.4075H82.4964ZM94.0514 73.2354C95.3538 73.2354 96.4678 72.9843 97.3936 72.4822C98.335 71.9644 99.0882 71.1955 99.6531 70.1756L96.9935 69.3519C96.6796 69.8697 96.2795 70.2619 95.7931 70.5287C95.3224 70.7797 94.7497 70.9053 94.075 70.9053C93.4787 70.9053 92.9688 70.7719 92.5451 70.5052C92.1214 70.2384 91.7998 69.854 91.5801 69.3519C91.3761 68.8498 91.2741 68.2378 91.2741 67.516C91.2898 66.7629 91.3997 66.1352 91.6036 65.6331C91.8233 65.1153 92.1293 64.7309 92.5216 64.4799C92.9295 64.2131 93.4316 64.0797 94.0279 64.0797C94.5143 64.0797 94.938 64.1896 95.2988 64.4092C95.6597 64.6289 95.9343 64.927 96.1226 65.3036C96.3266 65.6802 96.4286 66.1352 96.4286 66.6687C96.4286 66.7786 96.3972 66.9198 96.3344 67.0924C96.2874 67.2493 96.2325 67.3748 96.1697 67.469L96.9935 66.3863H89.9561V68.2692H99.6531C99.6688 68.1751 99.6766 68.0495 99.6766 67.8926C99.6923 67.7357 99.7001 67.5866 99.7001 67.4454C99.7001 66.2843 99.4805 65.2958 99.0411 64.4799C98.6018 63.6482 97.9584 63.0206 97.1111 62.5969C96.2795 62.1576 95.2675 61.9379 94.075 61.9379C92.8825 61.9379 91.8469 62.1733 90.9682 62.644C90.0895 63.0991 89.4069 63.7502 88.9205 64.5975C88.4498 65.4292 88.2144 66.4255 88.2144 67.5866C88.2144 68.7321 88.4498 69.7285 88.9205 70.5758C89.4069 71.4074 90.0895 72.0585 90.9682 72.5293C91.8469 73 92.8746 73.2354 94.0514 73.2354ZM104.306 67.5866C104.306 66.9747 104.447 66.4334 104.73 65.9626C105.012 65.4919 105.389 65.1232 105.859 64.8564C106.346 64.574 106.879 64.4328 107.46 64.4328C107.899 64.4328 108.338 64.5034 108.778 64.6446C109.217 64.7858 109.617 64.9898 109.978 65.2566C110.355 65.5076 110.637 65.8057 110.825 66.1509V63.0206C110.449 62.6911 109.955 62.4322 109.343 62.2439C108.746 62.0399 108.048 61.9379 107.248 61.9379C106.102 61.9379 105.067 62.1733 104.141 62.644C103.231 63.1147 102.509 63.7738 101.976 64.6211C101.458 65.4684 101.199 66.4569 101.199 67.5866C101.199 68.7007 101.458 69.6892 101.976 70.5522C102.509 71.3995 103.231 72.0585 104.141 72.5293C105.067 73 106.102 73.2354 107.248 73.2354C108.048 73.2354 108.746 73.1412 109.343 72.9529C109.955 72.7489 110.449 72.4744 110.825 72.1292V68.9988C110.637 69.344 110.363 69.65 110.002 69.9167C109.656 70.1678 109.264 70.3718 108.825 70.5287C108.386 70.6699 107.93 70.7405 107.46 70.7405C106.879 70.7405 106.346 70.6071 105.859 70.3404C105.389 70.0737 105.012 69.7049 104.73 69.2342C104.447 68.7635 104.306 68.2143 104.306 67.5866ZM112.126 62.1733V64.7388H118.81V62.1733H112.126ZM113.985 58.4075V73H116.927V58.4075H113.985ZM123.587 68.7635V62.1733H120.433V69.093C120.433 70.3796 120.747 71.3917 121.375 72.1292C122.018 72.8666 122.983 73.2354 124.269 73.2354C125.038 73.2354 125.689 73.0785 126.223 72.7646C126.756 72.4351 127.196 71.9644 127.541 71.3525V73H130.577V62.1733H127.541V68.7635C127.541 69.2185 127.447 69.6108 127.259 69.9403C127.086 70.2698 126.835 70.5287 126.505 70.717C126.192 70.8896 125.815 70.9759 125.376 70.9759C124.748 70.9759 124.293 70.7876 124.011 70.411C123.728 70.0187 123.587 69.4696 123.587 68.7635ZM136.569 62.1733H133.58V73H136.569V62.1733ZM139.747 65.3507L141.135 62.7617C140.916 62.4793 140.625 62.2674 140.265 62.1262C139.919 61.985 139.551 61.9144 139.158 61.9144C138.594 61.9144 138.044 62.1184 137.511 62.5263C136.977 62.9186 136.546 63.4521 136.216 64.1268C135.887 64.7858 135.722 65.5468 135.722 66.4098L136.569 67.2571C136.569 66.7393 136.632 66.3 136.758 65.9391C136.899 65.5625 137.103 65.2722 137.37 65.0683C137.636 64.8643 137.958 64.7623 138.335 64.7623C138.648 64.7623 138.907 64.8172 139.111 64.927C139.331 65.0212 139.543 65.1624 139.747 65.3507ZM147.514 73.2354C148.816 73.2354 149.93 72.9843 150.856 72.4822C151.797 71.9644 152.551 71.1955 153.115 70.1756L150.456 69.3519C150.142 69.8697 149.742 70.2619 149.255 70.5287C148.785 70.7797 148.212 70.9053 147.537 70.9053C146.941 70.9053 146.431 70.7719 146.007 70.5052C145.584 70.2384 145.262 69.854 145.042 69.3519C144.838 68.8498 144.736 68.2378 144.736 67.516C144.752 66.7629 144.862 66.1352 145.066 65.6331C145.286 65.1153 145.592 64.7309 145.984 64.4799C146.392 64.2131 146.894 64.0797 147.49 64.0797C147.977 64.0797 148.4 64.1896 148.761 64.4092C149.122 64.6289 149.397 64.927 149.585 65.3036C149.789 65.6802 149.891 66.1352 149.891 66.6687C149.891 66.7786 149.86 66.9198 149.797 67.0924C149.75 67.2493 149.695 67.3748 149.632 67.469L150.456 66.3863H143.418V68.2692H153.115C153.131 68.1751 153.139 68.0495 153.139 67.8926C153.155 67.7357 153.162 67.5866 153.162 67.4454C153.162 66.2843 152.943 65.2958 152.503 64.4799C152.064 63.6482 151.421 63.0206 150.574 62.5969C149.742 62.1576 148.73 61.9379 147.537 61.9379C146.345 61.9379 145.309 62.1733 144.431 62.644C143.552 63.0991 142.869 63.7502 142.383 64.5975C141.912 65.4292 141.677 66.4255 141.677 67.5866C141.677 68.7321 141.912 69.7285 142.383 70.5758C142.869 71.4074 143.552 72.0585 144.431 72.5293C145.309 73 146.337 73.2354 147.514 73.2354Z" fill="#1B1D3B"/>
<path d="M229.538 110.582C227.362 106.885 225.215 103.169 223.099 99.4328C222.527 98.4267 221.764 97.9999 220.62 98.0075C216.315 98.0316 212.011 98.0316 207.708 98.0075C206.527 97.998 205.763 98.4648 205.183 99.4899C203.308 102.815 201.369 106.104 199.477 109.415C199.403 109.585 199.276 109.726 199.116 109.818C198.956 109.911 198.771 109.95 198.587 109.93C195.21 109.91 191.834 109.91 188.457 109.93C188.275 109.949 188.091 109.909 187.933 109.818C187.774 109.726 187.649 109.586 187.574 109.419C185.681 106.102 183.743 102.817 181.869 99.4938C181.296 98.4686 180.522 98.0037 179.342 98.0113C175.038 98.0418 170.734 98.0418 166.43 98.0113C165.286 98.0113 164.523 98.4305 163.951 99.4366C161.662 103.467 159.321 107.472 157 111.485V112.628C157.189 113.262 157.461 113.869 157.807 114.433C158.203 115.107 158.602 115.782 158.995 116.458C160.595 119.232 162.208 122.001 163.793 124.783C164.017 125.217 164.348 125.586 164.755 125.855C165.162 126.125 165.632 126.286 166.119 126.323C166.45 126.354 166.782 126.367 167.114 126.363C170.461 126.363 173.81 126.403 177.156 126.338C178.16 126.317 178.695 126.673 179.166 127.523C180.892 130.635 182.717 133.691 184.475 136.785C184.857 137.447 185.351 137.883 186.108 138.005H200.948C201.71 137.675 202.2 137.073 202.609 136.355C204.451 133.116 206.335 129.911 208.175 126.675C208.26 126.487 208.403 126.331 208.582 126.228C208.761 126.125 208.969 126.082 209.174 126.103C213.003 126.123 216.832 126.103 220.66 126.121C221.768 126.121 222.53 125.694 223.089 124.712C225.221 120.963 227.382 117.228 229.573 113.51C230.16 112.489 230.135 111.592 229.538 110.582ZM178.817 121.346C178.748 121.504 178.631 121.637 178.482 121.725C178.333 121.814 178.16 121.853 177.988 121.837C174.587 121.818 171.188 121.818 167.79 121.837C167.617 121.852 167.444 121.812 167.296 121.723C167.147 121.634 167.03 121.501 166.962 121.342C165.28 118.4 163.583 115.467 161.872 112.542C161.772 112.401 161.718 112.232 161.718 112.058C161.718 111.885 161.772 111.716 161.872 111.574C163.583 108.653 165.28 105.719 166.962 102.773C167.032 102.616 167.15 102.485 167.299 102.398C167.448 102.312 167.62 102.274 167.791 102.291C169.508 102.316 171.214 102.302 172.925 102.302C174.59 102.302 176.254 102.314 177.917 102.302C178.341 102.302 178.602 102.4 178.825 102.792C180.503 105.728 182.196 108.658 183.903 111.582C184.005 111.723 184.059 111.892 184.059 112.065C184.059 112.238 184.005 112.407 183.903 112.548C182.192 115.475 180.497 118.407 178.817 121.346ZM204.546 124.421C202.82 127.366 201.112 130.32 199.424 133.285C199.359 133.431 199.249 133.553 199.11 133.634C198.972 133.714 198.811 133.749 198.652 133.733C195.228 133.715 191.804 133.715 188.381 133.733C188.233 133.753 188.082 133.726 187.951 133.656C187.819 133.585 187.713 133.475 187.649 133.34C185.932 130.337 184.201 127.342 182.454 124.354C182.263 124.04 182.309 123.825 182.483 123.529C184.214 120.56 185.934 117.585 187.641 114.604C187.7 114.467 187.801 114.353 187.93 114.278C188.058 114.203 188.208 114.171 188.356 114.187C190.091 114.204 191.829 114.187 193.564 114.187C195.229 114.187 196.891 114.2 198.556 114.187C198.98 114.187 199.228 114.28 199.451 114.673C201.125 117.618 202.818 120.554 204.531 123.48C204.633 123.616 204.69 123.78 204.693 123.951C204.695 124.121 204.644 124.288 204.546 124.427V124.421ZM225.141 112.579C223.441 115.482 221.757 118.395 220.088 121.317C220.014 121.485 219.889 121.626 219.73 121.719C219.572 121.813 219.388 121.854 219.205 121.837C215.829 121.818 212.453 121.818 209.077 121.837C208.629 121.837 208.411 121.677 208.2 121.306C206.537 118.39 204.858 115.482 203.163 112.58C203.055 112.432 202.997 112.253 202.997 112.069C202.997 111.885 203.055 111.706 203.163 111.557C204.862 108.653 206.544 105.739 208.211 102.815C208.285 102.646 208.41 102.505 208.569 102.411C208.728 102.317 208.912 102.275 209.096 102.291C210.784 102.318 212.471 102.302 214.159 102.302C215.847 102.302 217.534 102.318 219.222 102.291C219.664 102.291 219.889 102.441 220.105 102.817C221.774 105.739 223.458 108.651 225.158 111.555C225.263 111.706 225.319 111.886 225.317 112.069C225.316 112.253 225.257 112.432 225.149 112.58L225.141 112.579Z" fill="#1A1C3B"/>
<path d="M208.998 77.7437C206.78 73.9328 204.575 70.1143 202.383 66.2881C201.868 65.3926 201.138 64.9962 200.106 65C195.707 65.0191 191.308 65.0191 186.908 65C185.875 65 185.161 65.4192 184.65 66.3148C182.457 70.1397 180.251 73.9569 178.031 77.7666C177.786 78.1468 177.655 78.5898 177.655 79.0423C177.655 79.4948 177.786 79.9377 178.031 80.318C180.256 84.1518 182.473 87.99 184.683 91.8327C184.889 92.2365 185.208 92.5714 185.602 92.7962C185.996 93.021 186.448 93.1258 186.9 93.0979C188.235 93.0788 189.57 93.0979 190.896 93.0979C191.22 93.0979 191.408 93.1131 191.401 93.54C191.37 95.0643 191.388 96.5754 191.388 98.094L191.197 98.2102C191.069 98.0126 190.926 97.8247 190.77 97.6481C189.873 96.8097 188.588 96.804 187.755 97.6195C186.893 98.4656 186.881 99.7689 187.772 100.678C189.17 102.103 190.583 103.514 192.009 104.912C192.818 105.702 194.063 105.819 194.854 105.072C196.428 103.589 197.959 102.065 199.448 100.499C200.234 99.6698 200.097 98.3741 199.282 97.6062C198.891 97.2345 198.372 97.0252 197.832 97.0206C197.292 97.016 196.77 97.2164 196.372 97.5814C196.185 97.7871 196.019 98.0119 195.878 98.2522L195.663 98.0997C195.663 96.543 195.674 94.9862 195.663 93.4294C195.663 93.0484 195.882 93.0903 196.121 93.0903C197.429 93.0903 198.737 93.0674 200.043 93.0903C201.13 93.1169 201.883 92.6863 202.427 91.7355C204.601 87.9246 206.794 84.127 209.006 80.3428C209.255 79.9548 209.387 79.5032 209.386 79.0421C209.385 78.581 209.25 78.1302 208.998 77.7437ZM204.584 79.4586C202.839 82.4477 201.107 85.4437 199.387 88.4467C199.33 88.5711 199.236 88.6747 199.117 88.743C198.999 88.8113 198.862 88.8409 198.725 88.8278C195.252 88.8163 191.781 88.8163 188.312 88.8278C188.174 88.8388 188.037 88.8064 187.92 88.7353C187.802 88.6642 187.71 88.5579 187.656 88.4314C185.932 85.4297 184.198 82.4343 182.455 79.4453C182.372 79.3222 182.33 79.1762 182.334 79.0278C182.339 78.8795 182.39 78.7362 182.48 78.6183C184.212 75.6496 185.931 72.6746 187.638 69.6932C187.699 69.5567 187.801 69.4429 187.93 69.3682C188.059 69.2935 188.209 69.2619 188.357 69.2778C190.093 69.2949 191.828 69.2778 193.563 69.2778C195.253 69.2778 196.941 69.2778 198.628 69.2778C198.989 69.2778 199.212 69.3426 199.416 69.697C201.113 72.6847 202.829 75.6611 204.565 78.626C204.655 78.7441 204.705 78.8878 204.709 79.0363C204.712 79.1849 204.668 79.3308 204.584 79.4529V79.4586Z" fill="#A21D34"/>
<mask id="mask0_2_647" style="mask-type:alpha" maskUnits="userSpaceOnUse" x="0" y="16" width="101" height="67">
<rect y="16" width="101" height="67" fill="#D9D9D9"/>
</mask>
<g mask="url(#mask0_2_647)">
<path d="M96.1908 38.0063C92.3745 31.5369 88.6106 25.033 84.8991 18.4946C83.896 16.7339 82.5585 15.9869 80.5523 16.0002C73.0045 16.0425 65.4577 16.0425 57.9121 16.0002C55.8424 15.9836 54.5016 16.8006 53.4851 18.5947C50.1982 24.4138 46.7977 30.1696 43.4808 35.9654C43.3504 36.2616 43.1287 36.5086 42.8478 36.6706C42.567 36.8325 42.2417 36.9009 41.9193 36.8658C35.9987 36.8302 30.0781 36.8302 24.1576 36.8658C23.838 36.8984 23.5163 36.8296 23.2383 36.6691C22.9603 36.5086 22.7402 36.2647 22.6094 35.9721C19.2891 30.1663 15.892 24.4172 12.6051 18.6014C11.602 16.8073 10.2445 15.9936 8.17471 16.0069C0.629105 16.0603 -6.91761 16.0603 -14.4654 16.0069C-16.4717 16.0069 -17.8091 16.7406 -18.8122 18.5013C-22.8247 25.5543 -26.9307 32.564 -31 39.5869V41.5878C-30.668 42.6972 -30.1925 43.7588 -29.5856 44.7458C-28.8901 45.9263 -28.1913 47.1068 -27.5025 48.2906C-24.6971 53.146 -21.8684 57.9914 -19.0898 62.8602C-18.6971 63.6193 -18.116 64.2655 -17.4019 64.7372C-16.6878 65.2088 -15.8645 65.4903 -15.0105 65.5546C-14.4304 65.6097 -13.8477 65.633 -13.2651 65.6247C-7.39687 65.6247 -1.52534 65.6947 4.34284 65.5813C6.10162 65.5446 7.0412 66.1682 7.86709 67.6555C10.8931 73.1012 14.093 78.4501 17.1759 83.8658C17.8447 85.0229 18.7107 85.7866 20.0381 86L46.0588 86C47.3962 85.4231 48.2556 84.3693 48.9711 83.1121C52.2011 77.443 55.5047 71.834 58.7313 66.1716C58.8811 65.8424 59.1309 65.5687 59.4454 65.3891C59.7599 65.2095 60.1231 65.1333 60.4835 65.1712C67.1976 65.2045 73.9117 65.1711 80.6225 65.2012C82.5652 65.2012 83.9027 64.4542 84.8824 62.7368C88.6206 56.174 92.4101 49.639 96.2509 43.1318C97.2808 41.3444 97.2373 39.7737 96.1908 38.0063ZM7.25519 56.8443C7.13415 57.1219 6.92848 57.3545 6.66738 57.5089C6.40628 57.6634 6.10303 57.7319 5.80069 57.7046C-0.162228 57.6713 -6.12292 57.6713 -12.0814 57.7046C-12.3839 57.7301 -12.6867 57.6601 -12.9471 57.5045C-13.2076 57.3489 -13.4123 57.1156 -13.5325 56.8376C-16.4817 51.6888 -19.4565 46.5555 -22.4569 41.4377C-22.6329 41.1902 -22.7275 40.8942 -22.7275 40.5907C-22.7275 40.2872 -22.6329 39.9912 -22.4569 39.7437C-19.4565 34.6304 -16.4817 29.496 -13.5325 24.3405C-13.4093 24.0656 -13.2025 23.8363 -12.9416 23.6849C-12.6806 23.5335 -12.3785 23.4677 -12.078 23.4968C-9.06871 23.5401 -6.07611 23.5168 -3.07682 23.5168C-0.157774 23.5168 2.76127 23.5368 5.67697 23.5168C6.41927 23.5168 6.87736 23.6869 7.26857 24.3738C10.211 29.5115 13.1791 34.6393 16.1728 39.757C16.3505 40.0033 16.4461 40.299 16.4461 40.6024C16.4461 40.9058 16.3505 41.2015 16.1728 41.4477C13.1724 46.5699 10.1999 51.7021 7.25519 56.8443ZM52.3683 62.2266C49.3411 67.3799 46.3474 72.551 43.3872 77.7398C43.2726 77.9958 43.0801 78.2093 42.837 78.3499C42.5939 78.4906 42.3126 78.5513 42.033 78.5235C36.0299 78.4924 30.0269 78.4924 24.0238 78.5235C23.7645 78.5592 23.5004 78.512 23.2697 78.3885C23.0389 78.2651 22.8534 78.0718 22.7398 77.8365C19.7305 72.581 16.6944 67.3387 13.6316 62.1098C13.2972 61.5596 13.3775 61.1828 13.6818 60.6659C16.7178 55.4704 19.7327 50.2637 22.7265 45.0459C22.8299 44.8067 23.0075 44.6067 23.2331 44.4753C23.4587 44.3439 23.7206 44.2879 23.9804 44.3156C27.0231 44.3456 30.0692 44.3156 33.112 44.3156C36.031 44.3156 38.9467 44.339 41.8658 44.3156C42.6081 44.3156 43.0427 44.479 43.434 45.166C46.3697 50.3215 49.3389 55.4592 52.3416 60.5792C52.5213 60.8171 52.6208 61.1057 52.6256 61.4035C52.6304 61.7014 52.5403 61.993 52.3683 62.2366V62.2266ZM88.4802 41.5011C85.4999 46.5833 82.5463 51.681 79.6194 56.7943C79.4896 57.0887 79.2703 57.335 78.9925 57.4984C78.7147 57.6618 78.3924 57.7339 78.0713 57.7046C72.1529 57.6713 66.2335 57.6713 60.3129 57.7046C59.5272 57.7046 59.146 57.4245 58.7748 56.7742C55.8591 51.6721 52.9156 46.5821 49.9441 41.5044C49.7541 41.2443 49.6518 40.9308 49.6518 40.609C49.6518 40.2873 49.7541 39.9738 49.9441 39.7137C52.9222 34.6315 55.8725 29.5316 58.7949 24.4138C58.9246 24.1182 59.1441 23.8706 59.4225 23.7061C59.7009 23.5415 60.024 23.4683 60.3464 23.4968C63.3055 23.5435 66.2647 23.5168 69.2239 23.5168C72.183 23.5168 75.1422 23.5435 78.1014 23.4968C78.8771 23.4968 79.2717 23.7602 79.6495 24.4172C82.5764 29.5304 85.53 34.6282 88.5103 39.7103C88.6948 39.974 88.7923 40.2885 88.7893 40.61C88.7863 40.9316 88.6829 41.2442 88.4936 41.5044L88.4802 41.5011Z" fill="#1A1C3B" fill-opacity="0.05"/>
</g>
<mask id="mask1_2_647" style="mask-type:alpha" maskUnits="userSpaceOnUse" x="19" y="101" width="129" height="50">
<rect x="19" y="101" width="129" height="50" fill="#D9D9D9"/>
</mask>
<g mask="url(#mask1_2_647)">
<path d="M27.727 149.194C31.1557 155.017 34.5373 160.87 37.8719 166.755C38.7731 168.339 39.9748 169.012 41.7772 169C48.5585 168.962 55.3387 168.962 62.118 169C63.9775 169.015 65.1822 168.279 66.0954 166.665C69.0484 161.428 72.1036 156.247 75.0837 151.031C75.2008 150.765 75.4 150.542 75.6523 150.396C75.9046 150.251 76.1969 150.189 76.4866 150.221C81.8059 150.253 87.1251 150.253 92.4444 150.221C92.7315 150.191 93.0205 150.253 93.2703 150.398C93.5201 150.542 93.7178 150.762 93.8353 151.025C96.8183 156.25 99.8705 161.425 102.824 166.659C103.725 168.273 104.944 169.006 106.804 168.994C113.583 168.946 120.363 168.946 127.145 168.994C128.947 168.994 130.149 168.333 131.05 166.749C134.655 160.401 138.344 154.092 142 147.772L142 145.971C141.702 144.973 141.275 144.017 140.729 143.129C140.104 142.066 139.477 141.004 138.858 139.938C136.337 135.569 133.796 131.208 131.299 126.826C130.947 126.143 130.425 125.561 129.783 125.137C129.141 124.712 128.402 124.459 127.634 124.401C127.113 124.351 126.59 124.33 126.066 124.338C120.794 124.338 115.519 124.275 110.247 124.377C108.667 124.41 107.822 123.849 107.08 122.51C104.362 117.609 101.487 112.795 98.7169 107.921C98.1161 106.879 97.3381 106.192 96.1454 106L72.7675 106C71.5659 106.519 70.7938 107.468 70.151 108.599C67.249 113.701 64.2809 118.749 61.382 123.846C61.2475 124.142 61.023 124.388 60.7405 124.55C60.4579 124.711 60.1316 124.78 59.8078 124.746C53.7756 124.716 47.7434 124.746 41.7141 124.719C39.9688 124.719 38.7671 125.391 37.8869 126.937C34.5283 132.843 31.1237 138.725 27.673 144.581C26.7477 146.19 26.7868 147.604 27.727 149.194ZM107.63 132.24C107.739 131.99 107.924 131.781 108.158 131.642C108.393 131.503 108.665 131.441 108.937 131.466C114.294 131.496 119.65 131.496 125.003 131.466C125.275 131.443 125.547 131.506 125.781 131.646C126.015 131.786 126.199 131.996 126.307 132.246C128.956 136.88 131.629 141.5 134.325 146.106C134.483 146.329 134.568 146.595 134.568 146.868C134.568 147.142 134.483 147.408 134.325 147.631C131.629 152.233 128.956 156.854 126.307 161.494C126.196 161.741 126.01 161.947 125.776 162.084C125.541 162.22 125.27 162.279 125 162.253C122.296 162.214 119.607 162.235 116.913 162.235C114.29 162.235 111.668 162.217 109.048 162.235C108.381 162.235 107.97 162.082 107.618 161.464C104.974 156.84 102.308 152.225 99.6182 147.619C99.4585 147.397 99.3726 147.131 99.3726 146.858C99.3726 146.585 99.4585 146.319 99.6182 146.097C102.314 141.487 104.984 136.868 107.63 132.24ZM67.0988 127.396C69.8185 122.758 72.5082 118.104 75.1678 113.434C75.2707 113.204 75.4436 113.012 75.662 112.885C75.8804 112.758 76.1332 112.704 76.3845 112.729C81.7778 112.757 87.1712 112.757 92.5645 112.729C92.7976 112.697 93.0348 112.739 93.2421 112.85C93.4494 112.961 93.6161 113.135 93.7181 113.347C96.4218 118.077 99.1495 122.795 101.901 127.501C102.202 127.996 102.13 128.335 101.856 128.801C99.1285 133.477 96.4198 138.163 93.7301 142.859C93.6372 143.074 93.4777 143.254 93.275 143.372C93.0723 143.491 92.837 143.541 92.6036 143.516C89.8699 143.489 87.1331 143.516 84.3994 143.516C81.7768 143.516 79.1572 143.495 76.5347 143.516C75.8678 143.516 75.4772 143.369 75.1257 142.751C72.4881 138.111 69.8205 133.487 67.1228 128.879C66.9613 128.665 66.872 128.405 66.8677 128.137C66.8633 127.869 66.9443 127.606 67.0988 127.387L67.0988 127.396ZM34.6545 146.049C37.3322 141.475 39.9858 136.887 42.6154 132.285C42.732 132.02 42.929 131.798 43.1786 131.651C43.4282 131.504 43.7177 131.439 44.0063 131.466C49.3235 131.496 54.6418 131.496 59.961 131.466C60.667 131.466 61.0095 131.718 61.3429 132.303C63.9625 136.895 66.6071 141.476 69.2768 146.046C69.4474 146.28 69.5394 146.562 69.5394 146.852C69.5394 147.141 69.4474 147.424 69.2768 147.658C66.6011 152.232 63.9505 156.822 61.3249 161.428C61.2084 161.694 61.0111 161.916 60.761 162.065C60.5109 162.213 60.2206 162.279 59.931 162.253C57.2724 162.211 54.6137 162.235 51.9551 162.235C49.2965 162.235 46.6378 162.211 43.9792 162.253C43.2823 162.253 42.9278 162.016 42.5883 161.425C39.9587 156.823 37.3051 152.235 34.6275 147.661C34.4617 147.423 34.3741 147.14 34.3768 146.851C34.3795 146.562 34.4724 146.28 34.6425 146.046L34.6545 146.049Z" fill="#1A1C3B" fill-opacity="0.05"/>
</g>
</svg>
