<svg width="153" height="143" viewBox="0 0 153 143" fill="none" xmlns="http://www.w3.org/2000/svg">
<path d="M33.3047 65.9024H40.0399V64.181H33.3047V65.9024ZM33.3047 71.9275H39.8247V70.206H33.3047V71.9275ZM32.2934 64.181V79.2437H34.1224V64.181H32.2934ZM44.246 75.3704V69.3453H42.5246V75.5856C42.5246 76.7619 42.833 77.7015 43.4498 78.4044C44.0667 79.1074 44.8916 79.4588 45.9244 79.4588C46.5843 79.4588 47.1581 79.3154 47.6459 79.0285C48.1336 78.7272 48.5425 78.2825 48.8724 77.6943V79.2437H50.5939V69.3453H48.8724V75.3704C48.8724 75.8581 48.7648 76.2885 48.5496 76.6615C48.3488 77.0345 48.0547 77.3285 47.6674 77.5437C47.2944 77.7446 46.8569 77.845 46.3548 77.845C45.6662 77.845 45.1426 77.6298 44.784 77.1994C44.4253 76.7691 44.246 76.1594 44.246 75.3704ZM52.3237 69.3453V70.9592H57.2729V69.3453H52.3237ZM53.9376 65.9024V79.2437H55.659V65.9024H53.9376ZM60.7208 75.3704V69.3453H58.9994V75.5856C58.9994 76.7619 59.3078 77.7015 59.9246 78.4044C60.5415 79.1074 61.3664 79.4588 62.3992 79.4588C63.0591 79.4588 63.6329 79.3154 64.1207 79.0285C64.6084 78.7272 65.0173 78.2825 65.3472 77.6943V79.2437H67.0687V69.3453H65.3472V75.3704C65.3472 75.8581 65.2396 76.2885 65.0244 76.6615C64.8236 77.0345 64.5295 77.3285 64.1422 77.5437C63.7692 77.7446 63.3317 77.845 62.8296 77.845C62.141 77.845 61.6174 77.6298 61.2588 77.1994C60.9001 76.7691 60.7208 76.1594 60.7208 75.3704ZM72.0262 69.3453H70.3048V79.2437H72.0262V69.3453ZM75.0172 71.2389L75.964 69.8187C75.7058 69.5462 75.4189 69.3668 75.1033 69.2808C74.8021 69.1804 74.4721 69.1301 74.1135 69.1301C73.6544 69.1301 73.2025 69.3095 72.7578 69.6681C72.3131 70.0267 71.9473 70.5145 71.6604 71.1313C71.3879 71.7338 71.2516 72.4296 71.2516 73.2186H72.0262C72.0262 72.7452 72.0693 72.322 72.1553 71.949C72.2558 71.576 72.4279 71.282 72.6718 71.0668C72.9156 70.8516 73.2528 70.744 73.6831 70.744C73.97 70.744 74.2067 70.787 74.3932 70.8731C74.5797 70.9448 74.7877 71.0668 75.0172 71.2389ZM81.1956 79.4588C82.2572 79.4588 83.1753 79.2508 83.9499 78.8348C84.7389 78.4044 85.3917 77.7732 85.9081 76.9412L84.5094 76.059C84.1508 76.6615 83.7132 77.1134 83.1968 77.4146C82.6804 77.7015 82.085 77.845 81.4108 77.845C80.7366 77.845 80.1628 77.7015 79.6894 77.4146C79.216 77.1277 78.8573 76.7117 78.6135 76.1666C78.3696 75.6214 78.2476 74.9615 78.2476 74.1869C78.262 73.4266 78.3911 72.7882 78.635 72.2718C78.8932 71.741 79.2518 71.3393 79.7109 71.0668C80.1843 70.7799 80.7509 70.6364 81.4108 70.6364C81.9703 70.6364 82.458 70.7583 82.874 71.0022C83.2901 71.2461 83.6128 71.5832 83.8424 72.0136C84.0862 72.4439 84.2082 72.9532 84.2082 73.5414C84.2082 73.6418 84.1866 73.7709 84.1436 73.9287C84.1006 74.0721 84.0575 74.1797 84.0145 74.2515L84.7031 73.2616H77.6021V74.7248H86.0587C86.0587 74.6962 86.0587 74.6316 86.0587 74.5312C86.0731 74.4164 86.0802 74.3088 86.0802 74.2084C86.0802 73.1612 85.8938 72.2574 85.5208 71.4971C85.1478 70.7368 84.6098 70.1558 83.9069 69.7542C83.2183 69.3382 82.3863 69.1301 81.4108 69.1301C80.4353 69.1301 79.5746 69.3453 78.8286 69.7757C78.097 70.206 77.5232 70.8086 77.1072 71.5832C76.7055 72.3579 76.5047 73.2616 76.5047 74.2945C76.5047 75.313 76.6983 76.2096 77.0857 76.9843C77.4873 77.7589 78.0396 78.3686 78.7426 78.8133C79.4598 79.2437 80.2775 79.4588 81.1956 79.4588Z" fill="black"/>
<path d="M48.6663 43.2853L53.5724 52.0647L58.4786 43.2853L59.5975 53.4634H61.4265L59.5975 37.6476L53.5724 48.5573L47.5474 37.6476L45.7183 53.4634H47.5474L48.6663 43.2853ZM69.1638 43.565L66.7968 47.0079L64.4298 43.565H62.4932L65.8715 48.3636L62.278 53.4634H64.2146L66.7968 49.7192L69.379 53.4634H71.3156L67.7221 48.3636L71.1004 43.565H69.1638Z" fill="black"/>
<path d="M112.44 47.0668C114.314 42.9026 113.915 29.3688 113.481 23.1225L57.524 1L2.34786 23.1225C-2.25015 50.537 2.34786 111.092 57.524 133.995C64.898 130.525 81.6243 121.138 89.5365 111.352M112.44 47.0668H141.85V79.5999M112.44 47.0668H108.276H102.55V91.5517M141.85 79.5999C145.233 80.1204 152 81.9423 152 85.0655V86.8873M141.85 79.5999C121.237 78.3506 116.083 82.7231 116.083 85.0655V86.8873M107.495 130.352C95.0021 131.184 90.3173 127.055 89.5365 124.886V116.557M107.495 130.352V136.338C107.495 140.762 119.12 141.716 124.932 142.063C137.425 142.063 143.411 139.721 143.411 136.858V130.352C143.432 129.991 143.42 129.644 143.376 129.31M107.495 130.352C107.495 130.016 107.501 129.667 107.526 129.31M116.083 91.9611C122.846 93.2536 124.866 96.1657 124.932 97.8184V98.8595M116.083 91.9611C113.972 91.5575 111.397 91.3118 108.276 91.3118C106.678 91.2893 104.663 91.352 102.55 91.5517M116.083 91.9611V86.8873M89.5365 111.352V108.229M89.5365 111.352V116.557M102.55 91.5517C96.5169 92.1219 89.5365 93.3939 89.5365 97.8184V98.8595M89.5365 98.8595C96.3036 101.983 110.098 103.544 124.932 98.8595M89.5365 98.8595V108.229M124.932 98.8595V108.229M124.932 98.8595C129.617 100.254 141.589 101.895 152 97.2979M89.5365 108.229C94.3947 111.179 109.317 115.777 124.932 108.229M124.932 108.229V109.27M89.5365 116.557C95.002 119.941 109.733 124.678 124.932 116.557M124.932 116.557V119.941C137.686 122.544 150.178 119.42 152 116.818V107.708M124.932 116.557V109.27M107.526 129.31C107.773 125.793 109.809 122.023 124.932 122.023C130.943 122.023 142.564 123.097 143.376 129.31M107.526 129.31C113.912 132.087 128.576 134.255 143.376 129.31M124.932 109.27C129.791 110.485 142.006 111.873 152 107.708M152 107.708V97.2979M152 97.2979V86.8873M116.083 86.8873C121.462 89.7502 136.176 93.7583 152 86.8873" stroke="black" stroke-width="1.84146"/>
<path d="M109.317 59.5601H132.221M109.317 65.2859H125.194M109.317 72.313H125.194M109.317 78.5594H125.194" stroke="black" stroke-width="1.84146"/>
<path d="M107.349 130.351C94.8562 131.184 90.1714 127.055 89.3906 124.886V116.557M107.349 130.351V136.337C107.349 140.762 118.974 141.716 124.787 142.063C137.279 142.063 143.265 139.721 143.265 136.858V130.351C143.287 129.991 143.274 129.644 143.231 129.31M107.349 130.351C107.349 130.016 107.356 129.667 107.381 129.31M115.938 91.961C122.7 93.2535 124.72 96.1656 124.787 97.8183V98.8593M115.938 91.961C113.826 91.5573 111.251 91.3117 108.13 91.3117C106.532 91.2892 104.517 91.3519 102.404 91.5515C96.3711 92.1217 89.3906 93.3938 89.3906 97.8183V98.8593M115.938 91.961V86.8872M89.3906 98.8593C96.1577 101.983 109.952 103.544 124.787 98.8593M89.3906 98.8593V108.229M124.787 98.8593V108.229M124.787 98.8593C129.471 100.254 141.443 101.895 151.854 97.2977M89.3906 108.229V111.352V116.557M89.3906 108.229C94.2488 111.179 109.171 115.777 124.787 108.229M124.787 108.229V109.27M89.3906 116.557C94.8561 119.941 109.587 124.678 124.787 116.557M124.787 116.557V119.941C137.54 122.543 150.032 119.42 151.854 116.818V107.708M124.787 116.557V109.27M107.381 129.31C107.627 125.793 109.664 122.023 124.787 122.023C130.797 122.023 142.418 123.096 143.231 129.31M107.381 129.31C113.767 132.086 128.431 134.255 143.231 129.31M124.787 109.27C129.645 110.484 141.86 111.873 151.854 107.708M151.854 107.708V97.2977M151.854 97.2977V86.8872M115.938 86.8872V85.0653C115.938 82.7229 121.091 78.3505 141.704 79.5998C145.087 80.1203 151.854 81.9421 151.854 85.0653V86.8872M115.938 86.8872C121.316 89.7501 136.03 93.7582 151.854 86.8872" stroke="#00ACD7" stroke-width="1.84146"/>
</svg>
