<svg width="200" height="200" viewBox="0 0 200 200" fill="none" xmlns="http://www.w3.org/2000/svg">
<mask id="mask0_325_1583" style="mask-type:alpha" maskUnits="userSpaceOnUse" x="0" y="0" width="200" height="200">
<rect width="200" height="200" rx="17" fill="white" fill-opacity="0.1"/>
</mask>
<g mask="url(#mask0_325_1583)">
<circle cx="116.121" cy="44.5988" r="31.8071" stroke="white" stroke-opacity="0.7" stroke-width="2.63026"/>
<path d="M129.009 111.769L136.923 111.769L136.923 125.252L105.266 125.252L105.266 129.062L93.8347 120.562L105.266 111.769L105.266 116.458L129.009 116.458L129.009 111.769Z" stroke="white" stroke-opacity="0.7" stroke-width="2.63026"/>
<path d="M178.7 31.8629L178.7 23.9487L192.184 23.9487L192.184 55.6053L195.994 55.6053L187.494 67.0369L178.7 55.6053L183.39 55.6053L183.39 31.8629L178.7 31.8629Z" stroke="white" stroke-opacity="0.7" stroke-width="2.63026"/>
<path d="M51.5424 59.3695L51.5424 67.2837L38.0591 67.2837L38.0591 35.6271L34.2485 35.6271L42.7489 24.1955L51.5424 35.6271L46.8526 35.6271L46.8526 59.3695L51.5424 59.3695Z" stroke="white" stroke-opacity="0.7" stroke-width="2.63026"/>
<mask id="path-6-inside-1_325_1583" fill="white">
<path d="M102.012 37.2157C102.012 36.6497 102.471 36.1909 103.037 36.1909V36.1909C103.603 36.1909 104.062 36.6497 104.062 37.2157V40.2902H102.012V37.2157Z"/>
</mask>
<path d="M104.062 40.2902V42.9205H106.692V40.2902H104.062ZM102.012 40.2902H99.3819V42.9205H102.012V40.2902ZM101.432 37.2157V40.2902H106.692V37.2157H101.432ZM104.062 37.66H102.012V42.9205H104.062V37.66ZM104.642 40.2902V37.2157H99.3819V40.2902H104.642ZM103.037 38.8212C102.15 38.8212 101.432 38.1024 101.432 37.2157H106.692C106.692 35.1971 105.056 33.5607 103.037 33.5607V38.8212ZM103.037 33.5607C101.018 33.5607 99.3819 35.1971 99.3819 37.2157H104.642C104.642 38.1024 103.924 38.8212 103.037 38.8212V33.5607Z" fill="white" fill-opacity="0.7" mask="url(#path-6-inside-1_325_1583)"/>
<mask id="path-8-inside-2_325_1583" fill="white">
<path d="M102.012 50.1279H104.062V58.5315C104.062 59.0975 103.603 59.5563 103.037 59.5563V59.5563C102.471 59.5563 102.012 59.0975 102.012 58.5315V50.1279Z"/>
</mask>
<path d="M102.012 50.1279V47.4977H99.3819V50.1279H102.012ZM104.062 50.1279H106.692V47.4977H104.062V50.1279ZM102.012 52.7582H104.062V47.4977H102.012V52.7582ZM101.432 50.1279V58.5315H106.692V50.1279H101.432ZM104.642 58.5315V50.1279H99.3819V58.5315H104.642ZM103.037 56.9261C103.924 56.9261 104.642 57.6448 104.642 58.5315H99.3819C99.3819 60.5502 101.018 62.1866 103.037 62.1866V56.9261ZM101.432 58.5315C101.432 57.6448 102.15 56.9261 103.037 56.9261V62.1866C105.056 62.1866 106.692 60.5502 106.692 58.5315H101.432Z" fill="white" fill-opacity="0.7" mask="url(#path-8-inside-2_325_1583)"/>
<rect x="99.6397" y="41.1955" width="6.79814" height="8.02793" rx="3.39907" stroke="white" stroke-opacity="0.7" stroke-width="2.63026"/>
<mask id="path-11-inside-3_325_1583" fill="white">
<path d="M115.134 42.5473C115.134 41.9813 115.592 41.5225 116.158 41.5225V41.5225C116.724 41.5225 117.183 41.9813 117.183 42.5473V45.6218H115.134V42.5473Z"/>
</mask>
<path d="M117.183 45.6218V48.252H119.813V45.6218H117.183ZM115.134 45.6218H112.503V48.252H115.134V45.6218ZM114.553 42.5473V45.6218H119.813V42.5473H114.553ZM117.183 42.9915H115.134V48.252H117.183V42.9915ZM117.764 45.6218V42.5473H112.503V45.6218H117.764ZM116.158 44.1527C115.272 44.1527 114.553 43.4339 114.553 42.5473H119.813C119.813 40.5286 118.177 38.8922 116.158 38.8922V44.1527ZM116.158 38.8922C114.14 38.8922 112.503 40.5286 112.503 42.5473H117.764C117.764 43.4339 117.045 44.1527 116.158 44.1527V38.8922Z" fill="white" fill-opacity="0.7" mask="url(#path-11-inside-3_325_1583)"/>
<mask id="path-13-inside-4_325_1583" fill="white">
<path d="M117.185 58.5352C117.185 59.1012 116.726 59.5601 116.16 59.5601V59.5601C115.594 59.5601 115.136 59.1012 115.136 58.5352L115.136 55.4608L117.185 55.4608L117.185 58.5352Z"/>
</mask>
<path d="M115.136 55.4608L115.136 52.8305L112.505 52.8305L112.505 55.4608L115.136 55.4608ZM117.185 55.4608L119.815 55.4608L119.815 52.8305L117.185 52.8305L117.185 55.4608ZM117.766 58.5352L117.766 55.4608L112.505 55.4608L112.505 58.5352L117.766 58.5352ZM115.136 58.091L117.185 58.091L117.185 52.8305L115.136 52.8305L115.136 58.091ZM114.555 55.4608L114.555 58.5352L119.815 58.5352L119.815 55.4608L114.555 55.4608ZM116.16 56.9298C117.047 56.9298 117.766 57.6486 117.766 58.5352L112.505 58.5352C112.505 60.5539 114.142 62.1903 116.16 62.1903L116.16 56.9298ZM116.16 62.1903C118.179 62.1903 119.815 60.5539 119.815 58.5352L114.555 58.5352C114.555 57.6486 115.274 56.9298 116.16 56.9298L116.16 62.1903Z" fill="white" fill-opacity="0.7" mask="url(#path-13-inside-4_325_1583)"/>
<rect x="112.761" y="46.5266" width="6.79814" height="8.02793" rx="3.39907" stroke="white" stroke-opacity="0.7" stroke-width="2.63026"/>
<mask id="path-16-inside-5_325_1583" fill="white">
<path d="M128.25 30.6611C128.25 30.0951 128.709 29.6362 129.275 29.6362V29.6362C129.841 29.6362 130.3 30.0951 130.3 30.6611V33.7355H128.25V30.6611Z"/>
</mask>
<path d="M130.3 33.7355V36.3658H132.93V33.7355H130.3ZM128.25 33.7355H125.62V36.3658H128.25V33.7355ZM127.669 30.6611V33.7355H132.93V30.6611H127.669ZM130.3 31.1053H128.25V36.3658H130.3V31.1053ZM130.88 33.7355V30.6611H125.62V33.7355H130.88ZM129.275 32.2665C128.388 32.2665 127.669 31.5477 127.669 30.6611H132.93C132.93 28.6424 131.293 27.006 129.275 27.006V32.2665ZM129.275 27.006C127.256 27.006 125.62 28.6424 125.62 30.6611H130.88C130.88 31.5477 130.161 32.2665 129.275 32.2665V27.006Z" fill="white" fill-opacity="0.7" mask="url(#path-16-inside-5_325_1583)"/>
<mask id="path-18-inside-6_325_1583" fill="white">
<path d="M128.25 43.5732H130.3V51.9768C130.3 52.5428 129.841 53.0016 129.275 53.0016V53.0016C128.709 53.0016 128.25 52.5428 128.25 51.9768V43.5732Z"/>
</mask>
<path d="M128.25 43.5732V40.943H125.62V43.5732H128.25ZM130.3 43.5732H132.93V40.943H130.3V43.5732ZM128.25 46.2035H130.3V40.943H128.25V46.2035ZM127.669 43.5732V51.9768H132.93V43.5732H127.669ZM130.88 51.9768V43.5732H125.62V51.9768H130.88ZM129.275 50.3714C130.161 50.3714 130.88 51.0902 130.88 51.9768H125.62C125.62 53.9955 127.256 55.6319 129.275 55.6319V50.3714ZM127.669 51.9768C127.669 51.0902 128.388 50.3714 129.275 50.3714V55.6319C131.293 55.6319 132.93 53.9955 132.93 51.9768H127.669Z" fill="white" fill-opacity="0.7" mask="url(#path-18-inside-6_325_1583)"/>
<rect x="125.877" y="34.6408" width="6.79814" height="8.02793" rx="3.39907" stroke="white" stroke-opacity="0.7" stroke-width="2.63026"/>
<path d="M24.9796 -15.2108C17.5251 -22.4695 11.4766 -43.7617 32.043 -56.3434C38.3945 -59.6705 50.4923 -61.7876 60.7754 -51.8068C65.8162 -46.262 73.5386 -31.9663 64.1023 -19.1426L62.5901 -17.0255M62.5901 -17.0255L63.4974 -9.4643C63.7999 -6.74228 62.8925 -1.29824 56.8436 -1.29824H29.6234C27.9095 -1.49987 24.4818 -3.05243 24.4818 -7.64962C24.381 -10.3716 24.6028 -16.4811 26.2965 -19.1426C27.4055 -20.8565 30.2888 -24.2842 32.9503 -24.2842C36.5797 -21.3605 46.016 -17.2674 54.7265 -24.2842C57.0295 -24.7882 61.8264 -24.0422 62.5901 -17.0255Z" stroke="white" stroke-opacity="0.7" stroke-width="2.63026"/>
<path d="M169.423 -15.2108C161.968 -22.4695 155.92 -43.7617 176.486 -56.3434C182.838 -59.6705 194.935 -61.7876 205.219 -51.8068C210.259 -46.262 217.982 -31.9663 208.545 -19.1426L207.033 -17.0255M207.033 -17.0255L207.941 -9.4643C208.243 -6.74228 207.336 -1.29824 201.287 -1.29824H174.067C172.353 -1.49987 168.925 -3.05243 168.925 -7.64962C168.824 -10.3716 169.046 -16.4811 170.74 -19.1426C171.849 -20.8565 174.732 -24.2842 177.393 -24.2842C181.023 -21.3605 190.459 -17.2674 199.17 -24.2842C201.473 -24.7882 206.27 -24.0422 207.033 -17.0255Z" stroke="white" stroke-opacity="0.7" stroke-width="2.63026"/>
<path d="M24.9796 132.849C17.5251 125.59 11.4766 104.298 32.043 91.7161C38.3945 88.389 50.4923 86.272 60.7754 96.2528C65.8162 101.798 73.5386 116.093 64.1023 128.917L62.5901 131.034M62.5901 131.034L63.4974 138.595C63.7999 141.317 62.8925 146.761 56.8436 146.761H29.6234C27.9095 146.56 24.4818 145.007 24.4818 140.41C24.381 137.688 24.6028 131.579 26.2965 128.917C27.4055 127.203 30.2888 123.775 32.9503 123.775C36.5797 126.699 46.016 130.792 54.7265 123.775C57.0295 123.271 61.8264 124.017 62.5901 131.034Z" stroke="white" stroke-opacity="0.7" stroke-width="2.63026"/>
<circle cx="43.8447" cy="108.35" r="9.57295" stroke="white" stroke-opacity="0.7" stroke-width="2.63026"/>
<path d="M169.423 132.847C161.968 125.588 155.92 104.296 176.486 91.7142C182.838 88.3871 194.935 86.27 205.219 96.2508C210.259 101.796 217.982 116.091 208.545 128.915L207.033 131.032M207.033 131.032L207.941 138.593C208.243 141.315 207.336 146.759 201.287 146.759H174.067C172.353 146.558 168.925 145.005 168.925 140.408C168.824 137.686 169.046 131.577 170.74 128.915C171.849 127.201 174.732 123.773 177.393 123.773C181.023 126.697 190.459 130.79 199.17 123.773C201.473 123.269 206.27 124.015 207.033 131.032Z" stroke="white" stroke-opacity="0.7" stroke-width="2.63026"/>
<circle cx="188.288" cy="108.349" r="9.57295" stroke="white" stroke-opacity="0.7" stroke-width="2.63026"/>
</g>
</svg>
