<svg width="200" height="200" viewBox="0 0 200 200" fill="none" xmlns="http://www.w3.org/2000/svg">
<mask id="mask0_325_1574" style="mask-type:alpha" maskUnits="userSpaceOnUse" x="0" y="0" width="200" height="200">
<rect width="200" height="200" rx="17" fill="white" fill-opacity="0.1"/>
</mask>
<g mask="url(#mask0_325_1574)">
<path d="M54.43 43.3325H63.4845V41.0182H54.43V43.3325ZM54.43 51.4324H63.1953V49.1182H54.43V51.4324ZM53.0704 41.0182V61.2681H55.5293V41.0182H53.0704ZM69.1391 56.061V47.961H66.8249V56.3503C66.8249 57.9317 67.2395 59.1949 68.0688 60.1399C68.8981 61.0849 70.007 61.5573 71.3955 61.5573C72.2827 61.5573 73.0541 61.3645 73.7098 60.9788C74.3655 60.5738 74.9151 59.9759 75.3587 59.1852V61.2681H77.673V47.961H75.3587V56.061C75.3587 56.7167 75.2141 57.2952 74.9248 57.7967C74.6548 58.2981 74.2594 58.6934 73.7387 58.9827C73.2373 59.2527 72.6491 59.3877 71.9741 59.3877C71.0484 59.3877 70.3445 59.0984 69.8623 58.5199C69.3802 57.9413 69.1391 57.1217 69.1391 56.061ZM79.9985 47.961V50.1307H86.6521V47.961H79.9985ZM82.1682 43.3325V61.2681H84.4824V43.3325H82.1682ZM91.2874 56.061V47.961H88.9731V56.3503C88.9731 57.9317 89.3877 59.1949 90.217 60.1399C91.0463 61.0849 92.1552 61.5573 93.5438 61.5573C94.4309 61.5573 95.2023 61.3645 95.858 60.9788C96.5137 60.5738 97.0634 59.9759 97.507 59.1852V61.2681H99.8212V47.961H97.507V56.061C97.507 56.7167 97.3623 57.2952 97.073 57.7967C96.803 58.2981 96.4077 58.6934 95.887 58.9827C95.3855 59.2527 94.7973 59.3877 94.1223 59.3877C93.1966 59.3877 92.4927 59.0984 92.0106 58.5199C91.5284 57.9413 91.2874 57.1217 91.2874 56.061ZM106.486 47.961H104.172V61.2681H106.486V47.961ZM110.507 50.5067L111.78 48.5975C111.433 48.231 111.047 47.99 110.623 47.8743C110.218 47.7393 109.774 47.6718 109.292 47.6718C108.675 47.6718 108.067 47.9128 107.47 48.395C106.872 48.8771 106.38 49.5328 105.994 50.3621C105.628 51.1721 105.445 52.1074 105.445 53.1681H106.486C106.486 52.5317 106.544 51.9628 106.66 51.4614C106.795 50.9599 107.026 50.5646 107.354 50.2753C107.682 49.986 108.135 49.8414 108.714 49.8414C109.099 49.8414 109.417 49.8992 109.668 50.015C109.919 50.1114 110.199 50.2753 110.507 50.5067ZM118.813 61.5573C120.24 61.5573 121.475 61.2777 122.516 60.7184C123.577 60.1399 124.454 59.2913 125.148 58.1727L123.268 56.9867C122.786 57.7967 122.198 58.4042 121.503 58.8092C120.809 59.1949 120.009 59.3877 119.102 59.3877C118.196 59.3877 117.425 59.1949 116.788 58.8092C116.152 58.4234 115.67 57.8642 115.342 57.1313C115.014 56.3985 114.85 55.5113 114.85 54.4699C114.869 53.4478 115.043 52.5896 115.371 51.8953C115.718 51.1817 116.2 50.6417 116.817 50.2753C117.453 49.8896 118.215 49.6967 119.102 49.6967C119.855 49.6967 120.51 49.8607 121.07 50.1885C121.629 50.5164 122.063 50.9696 122.371 51.5482C122.699 52.1267 122.863 52.8114 122.863 53.6021C122.863 53.7371 122.834 53.9106 122.776 54.1228C122.718 54.3156 122.661 54.4603 122.603 54.5567L123.528 53.226H113.982V55.1931H125.351C125.351 55.1545 125.351 55.0678 125.351 54.9328C125.37 54.7785 125.38 54.6338 125.38 54.4988C125.38 53.091 125.129 51.876 124.628 50.8539C124.126 49.8317 123.403 49.0507 122.458 48.5107C121.532 47.9514 120.414 47.6718 119.102 47.6718C117.791 47.6718 116.634 47.961 115.631 48.5396C114.647 49.1182 113.876 49.9282 113.317 50.9696C112.777 52.011 112.507 53.226 112.507 54.6146C112.507 55.9838 112.767 57.1892 113.288 58.2306C113.828 59.272 114.57 60.0916 115.515 60.6895C116.48 61.2681 117.579 61.5573 118.813 61.5573Z" fill="white"/>
<path d="M75.0806 12.9268L81.6763 24.7295L88.2719 12.9268L89.7762 26.6099H92.2351L89.7762 5.34755L81.6763 20.0142L73.5763 5.34755L71.1174 26.6099H73.5763L75.0806 12.9268ZM102.637 13.3028L99.4547 17.9314L96.2726 13.3028H93.6691L98.2108 19.7539L93.3798 26.6099H95.9833L99.4547 21.5763L102.926 26.6099H105.53L100.699 19.7539L105.24 13.3028H102.637Z" fill="white"/>
<path d="M160.816 17.9309C163.336 12.3326 162.799 -5.86176 162.216 -14.2592L86.9892 -44L12.812 -14.2592C6.6306 22.5961 12.812 104.004 86.9892 134.795C96.9027 130.13 119.389 117.51 130.026 104.354M160.816 17.9309H200.354V61.6674M160.816 17.9309H155.218H147.521V77.735M200.354 61.6674C204.903 62.3672 214 64.8165 214 69.0152V71.4644M200.354 61.6674C172.643 59.9879 165.715 65.8661 165.715 69.0152V71.4644M154.168 129.896C137.374 131.016 131.076 125.464 130.026 122.549V111.352M154.168 129.896V137.944C154.168 143.892 169.797 145.175 177.611 145.642C194.406 145.642 202.454 142.492 202.454 138.644V129.896C202.482 129.412 202.465 128.945 202.407 128.497M154.168 129.896C154.168 129.445 154.177 128.976 154.211 128.497M165.715 78.2855C174.806 80.0231 177.522 83.938 177.611 86.1599V87.5594M165.715 78.2855C162.876 77.7428 159.415 77.4126 155.218 77.4126C153.07 77.3823 150.361 77.4666 147.521 77.735M165.715 78.2855V71.4644M130.026 104.354V100.156M130.026 104.354V111.352M147.521 77.735C139.41 78.5016 130.026 80.2117 130.026 86.1599V87.5594M130.026 87.5594C139.123 91.7581 157.668 93.8575 177.611 87.5594M130.026 87.5594V100.156M177.611 87.5594V100.156M177.611 87.5594C183.909 89.4347 200.004 91.6401 214 85.4601M130.026 100.156C136.557 104.121 156.618 110.302 177.611 100.156M177.611 100.156V101.555M130.026 111.352C137.374 115.901 157.177 122.269 177.611 111.352M177.611 111.352V115.901C194.756 119.4 211.551 115.201 214 111.702V99.4558M177.611 111.352V101.555M154.211 128.497C154.543 123.768 157.28 118.7 177.611 118.7C185.692 118.7 201.314 120.143 202.407 128.497M154.211 128.497C162.796 132.229 182.51 135.145 202.407 128.497M177.611 101.555C184.142 103.188 200.564 105.054 214 99.4558M214 99.4558V85.4601M214 85.4601V71.4644M165.715 71.4644C172.946 75.3132 192.726 80.7016 214 71.4644" stroke="white" stroke-width="2.47561"/>
<path d="M156.619 34.7261H187.409M156.619 42.4237H177.962M156.619 51.8708H177.962M156.619 60.2682H177.962" stroke="white" stroke-width="2.47561"/>
</g>
</svg>
