<svg width="200" height="200" viewBox="0 0 200 200" fill="none" xmlns="http://www.w3.org/2000/svg">
<mask id="mask0_325_1620" style="mask-type:alpha" maskUnits="userSpaceOnUse" x="0" y="0" width="200" height="200">
<rect width="200" height="200" rx="17" fill="white" fill-opacity="0.1"/>
</mask>
<g mask="url(#mask0_325_1620)">
<path d="M92.1262 41.1835V46.3792H89.6625V41.1835C89.6625 40.5032 90.214 39.9517 90.8944 39.9517C91.5747 39.9517 92.1262 40.5032 92.1262 41.1835Z" stroke="white" stroke-width="1.5"/>
<path d="M89.6625 66.9062H92.1262V82.4077C92.1262 83.088 91.5747 83.6396 90.8944 83.6396C90.214 83.6396 89.6625 83.088 89.6625 82.4077V66.9062Z" stroke="white" stroke-width="1.5"/>
<rect x="82.5319" y="47.0859" width="16.7333" height="19.1116" rx="5.25" stroke="white" stroke-width="1.5"/>
<path d="M117.495 51.4916V56.6873H115.032V51.4916C115.032 50.8113 115.583 50.2598 116.263 50.2598C116.944 50.2598 117.495 50.8113 117.495 51.4916Z" stroke="white" stroke-width="1.5"/>
<path d="M115.038 82.4092L115.038 77.2136L117.501 77.2136L117.501 82.4092C117.501 83.0896 116.95 83.6411 116.269 83.6411C115.589 83.6411 115.038 83.0896 115.038 82.4092Z" stroke="white" stroke-width="1.5"/>
<rect x="107.901" y="57.394" width="16.7333" height="19.1116" rx="5.25" stroke="white" stroke-width="1.5"/>
<path d="M142.869 28.4985V33.6941H140.405V28.4985C140.405 27.8181 140.957 27.2666 141.637 27.2666C142.318 27.2666 142.869 27.8181 142.869 28.4985Z" stroke="white" stroke-width="1.5"/>
<path d="M140.405 54.2212H142.869V69.7226C142.869 70.403 142.318 70.9545 141.637 70.9545C140.957 70.9545 140.405 70.403 140.405 69.7226V54.2212Z" stroke="white" stroke-width="1.5"/>
<rect x="133.275" y="34.4009" width="16.7333" height="19.1116" rx="5.25" stroke="white" stroke-width="1.5"/>
<path d="M186.872 85.0276C197.947 59.812 190.136 31.1395 184.847 19.9551C183.835 17.8179 182.756 15.7859 181.619 13.8546M186.872 85.0276L223 113.158L178.094 148.405V130.782H109.553C97.5504 130.359 70.5984 122.72 53.239 96.2119M186.872 85.0276L178.094 78.5881V96.2119H53.239M49.79 25.0389C35.7441 46.4586 43.9375 77.5713 49.79 90.4503C50.8886 92.4632 52.0409 94.3825 53.239 96.2119M49.79 25.0389L14 -3.76919L59.5816 -38V-20.7151H124.746C137.47 -20.7151 165.442 -13.6146 181.619 13.8546M49.79 25.0389L59.5816 31.8173V13.8546H181.619" stroke="white" stroke-width="1.5"/>
</g>
</svg>
