<svg width="200" height="187" viewBox="0 0 200 187" fill="none" xmlns="http://www.w3.org/2000/svg">
<mask id="mask0_325_1641" style="mask-type:alpha" maskUnits="userSpaceOnUse" x="0" y="-13" width="200" height="200">
<rect y="-13" width="200" height="200" rx="17" fill="white" fill-opacity="0.1"/>
</mask>
<g mask="url(#mask0_325_1641)">
<path d="M76.0334 19.875H154.296M76.0334 33.5799H123.279M76.0334 47.2848H123.279M76.0334 62.0716H123.279M76.0334 75.4158H141.673M132.656 117.612H156.099" stroke="white" stroke-width="1.5"/>
<path d="M167.278 84.0262V120.859C167.278 131.823 160.786 134.323 157.541 134.203H70.9834C62.6162 134.203 60.5244 125.307 60.5244 120.859V-13.3049C60.5244 -21.3836 67.4971 -24.6055 70.9834 -25.2065H157.541C166.196 -25.2065 167.639 -17.2721 167.278 -13.3049V32.8589M149.246 43.3179L174.852 28.531L200.459 43.3179M149.246 43.3179V73.6129L174.852 88.3997M149.246 43.3179L174.852 58.1047M200.459 43.3179V72.8916L174.852 88.3997M200.459 43.3179L174.852 58.1047M174.852 88.3997V58.1047" stroke="white" stroke-width="1.5"/>
<path d="M34.9173 20.9278C26.9658 20.9278 20.5198 14.4818 20.5198 6.53032C20.5198 -1.42121 26.9658 -7.86719 34.9173 -7.86719C42.8688 -7.86719 49.3148 -1.42121 49.3148 6.53032C49.3148 10.9244 47.3473 14.8581 44.2426 17.5001C41.7299 19.6382 38.4752 20.9278 34.9173 20.9278Z" stroke="white" stroke-width="1.5"/>
<path d="M44.2947 17.7114L48.9832 25.2852H60.1635" stroke="white" stroke-width="1.5"/>
<circle cx="29.1475" cy="49.8091" r="14.3975" stroke="white" stroke-width="1.5"/>
<path d="M44.2947 50.1699H60.1635" stroke="white" stroke-width="1.5"/>
<path d="M45.7086 95.9738C45.7086 103.925 39.2626 110.371 31.3111 110.371C23.3596 110.371 16.9136 103.925 16.9136 95.9738C16.9136 88.0223 23.3596 81.5763 31.3111 81.5763C34.0774 81.5763 36.6594 82.3558 38.8521 83.7067C42.9677 86.2424 45.7086 90.7883 45.7086 95.9738Z" stroke="white" stroke-width="1.5"/>
<path d="M38.8848 83.3497L46.8192 72.1694H60.5241" stroke="white" stroke-width="1.5"/>
<path d="M197.574 -8.61663L212.721 -17.9937L228.23 -8.61663M197.574 -8.61663V8.33415L212.721 17.3505M197.574 -8.61663L212.721 -0.321566M228.23 -8.61663V8.33415L212.721 17.3505M228.23 -8.61663L212.721 -0.321566M212.721 17.3505V-0.321566M234 107.154L218.853 98.4979L203.705 107.154M234 107.154V124.465L218.853 133.121M234 107.154L218.853 115.809M218.853 133.121L203.705 124.465V107.154M218.853 133.121V115.809M203.705 107.154L218.853 115.809" stroke="white" stroke-width="1.5"/>
<path d="M195.439 22.7285C194.848 22.1379 194.047 21.8062 193.211 21.8062C192.376 21.8062 191.575 22.1379 190.984 22.7285L188.756 24.9559C188.165 25.5467 187.833 26.3481 187.833 27.1837C187.833 28.0192 188.165 28.8206 188.756 29.4114C189.347 30.0023 190.148 30.3342 190.984 30.3342C191.819 30.3342 192.62 30.0023 193.211 29.4114L194.325 28.2977" stroke="white" stroke-width="1.5" stroke-linecap="round" stroke-linejoin="round"/>
<path d="M193.213 24.9563C193.803 25.5469 194.605 25.8786 195.44 25.8786C196.275 25.8786 197.077 25.5469 197.667 24.9563L199.896 22.7289C200.486 22.138 200.818 21.3367 200.818 20.5011C200.818 19.6655 200.486 18.8642 199.896 18.2734C199.305 17.6825 198.503 17.3506 197.668 17.3506C196.832 17.3506 196.031 17.6825 195.44 18.2734L194.326 19.3871" stroke="white" stroke-width="1.5" stroke-linecap="round" stroke-linejoin="round"/>
<path d="M200.49 92.76C201.081 92.1692 201.413 91.368 201.413 90.5326C201.413 89.6972 201.081 88.896 200.49 88.3052L198.263 86.0771C197.672 85.4862 196.871 85.1543 196.035 85.1543C195.2 85.1543 194.398 85.4862 193.808 86.0771C193.217 86.6679 192.885 87.4693 192.885 88.3048C192.885 89.1404 193.217 89.9418 193.808 90.5326L194.921 91.6463" stroke="white" stroke-width="1.5" stroke-linecap="round" stroke-linejoin="round"/>
<path d="M198.263 90.5327C197.672 91.1235 197.341 91.9247 197.341 92.7601C197.341 93.5955 197.672 94.3967 198.263 94.9875L200.49 97.2156C201.081 97.8065 201.883 98.1384 202.718 98.1384C203.554 98.1384 204.355 97.8065 204.946 97.2156C205.537 96.6248 205.869 95.8235 205.869 94.9879C205.869 94.1523 205.537 93.351 204.946 92.7601L203.832 91.6464" stroke="white" stroke-width="1.5" stroke-linecap="round" stroke-linejoin="round"/>
</g>
</svg>
