<svg width="200" height="200" viewBox="0 0 200 200" fill="none" xmlns="http://www.w3.org/2000/svg">
<mask id="mask0_328_1797" style="mask-type:alpha" maskUnits="userSpaceOnUse" x="0" y="0" width="200" height="200">
<rect width="200" height="200" rx="17" fill="white" fill-opacity="0.1"/>
</mask>
<g mask="url(#mask0_328_1797)">
<path d="M43.8342 -38.4362L45.7786 -44.1745L25.6946 -48L19 -10.3825L32.7081 -5.6006L34.3284 -10.3825M43.8342 -38.4362C53.196 -37.7986 75.1712 -37.6711 88.178 -42.2617C90.8346 -43.5369 96.8491 -45.0671 99.6545 -40.9866L121.046 -15.4832M43.8342 -38.4362L34.3284 -10.3825M34.3284 -10.3825L64.5873 2.68801C66.5001 3.11306 71.7283 3.96318 77.339 3.96318C79.4643 3.75065 84.9263 3.64438 89.7719 4.91955L100.611 7.46989M84.6712 -18.0335C85.7911 -15.7076 87.2577 -13.8497 88.8155 -12.3885M88.8155 -12.3885C91.8697 -9.5238 95.2745 -8.184 97.1041 -7.83215L106.987 -4.64422M88.8155 -12.3885L102.205 -14.8456L109.967 -8.99275M106.987 -4.64422L118.144 -0.499919C121.715 1.28532 121.545 5.55714 121.014 7.46989C119.738 12.3155 115.594 12.0393 113.681 11.2954L100.611 7.46989M106.987 -4.64422C108.687 -9.79803 121.014 -20.2651 137.91 -15.4832C144.285 -13.2516 159.269 -6.55698 158.631 13.8457C158.243 26.2787 151.974 41.8995 130.577 41.8995C118.144 41.8995 105.074 36.48 101.248 18.3088C100.86 16.466 100.611 11.3634 100.611 7.46989" stroke="white" stroke-width="1.5"/>
<path d="M82.4401 3.96289C80.5273 5.98191 76.8294 10.6575 77.3394 13.2079C77.2333 14.9081 78.1049 18.0535 82.4401 17.0334L100.292 7.7884" stroke="white" stroke-width="1.5"/>
<path d="M101.248 65.8082H165.326M76.3824 85.8632V93.833M76.3824 97.3687V125.422M62.0367 76.0096H209V55.2881H62.0367V76.0096ZM91.3657 87.1673H180.309V140.724H91.3657V87.1673Z" stroke="white" stroke-width="1.5"/>
<path d="M67.4575 76.3286V149.651H202.307V76.3286" stroke="white" stroke-width="1.5"/>
</g>
</svg>
