<svg width="200" height="200" viewBox="0 0 200 200" fill="none" xmlns="http://www.w3.org/2000/svg">
<mask id="mask0_328_1799" style="mask-type:alpha" maskUnits="userSpaceOnUse" x="0" y="0" width="200" height="200">
<rect width="200" height="200" rx="17" fill="white" fill-opacity="0.1"/>
</mask>
<g mask="url(#mask0_328_1799)">
<path d="M225.742 24.1996V12.0288C226.823 -9.6074 210.266 -13.5139 201.852 -12.7627H49.0459C23.0825 -12.7627 16.8921 3.76498 17.0423 12.0288V118.858C16.4413 126.821 22.0006 142.748 49.0459 142.748H201.852C209.815 142.898 225.742 140.314 225.742 128.775V105.786M225.742 36.37H191.484C180.666 36.37 168.045 48.9911 168.045 67.0213C168.345 75.5856 173.454 92.7143 191.484 92.7143H225.742C228.146 92.7143 232.954 91.362 232.954 85.953V42.2298C233.254 40.2765 232.233 36.37 225.742 36.37Z" stroke="white" stroke-width="1.5"/>
<circle cx="197.342" cy="64.7675" r="12.7726" stroke="white" stroke-width="1.5"/>
<path d="M41.3835 2.56323V15.1844M41.3835 126.971V117.956M41.3835 71.5287H84.2052L107.644 59.3583M41.3835 71.5287V117.956M41.3835 71.5287V15.1844M41.3835 117.956H118.463L134.69 100.828M41.3835 15.1844H128.379L141.451 25.5517M157.227 6.62002H202.303V21.9457M202.303 106.687V123.365H157.227" stroke="white" stroke-width="1.5"/>
<circle cx="150.465" cy="34.1161" r="12.7726" stroke="white" stroke-width="1.5"/>
<circle cx="119.815" cy="55.7524" r="12.7726" stroke="white" stroke-width="1.5"/>
<circle cx="142.352" cy="90.9106" r="12.7726" stroke="white" stroke-width="1.5"/>
</g>
</svg>
