<svg width="200" height="200" viewBox="0 0 200 200" fill="none" xmlns="http://www.w3.org/2000/svg">
<mask id="mask0_328_1803" style="mask-type:alpha" maskUnits="userSpaceOnUse" x="0" y="0" width="200" height="200">
<rect width="200" height="200" rx="17" fill="white" fill-opacity="0.1"/>
</mask>
<g mask="url(#mask0_328_1803)">
<path d="M115.094 80.5187V94.0366L101.343 79.6106V98.6809H103.548V85.1631L117.3 99.589V80.5187H115.094ZM122.681 82.5944H130.802V80.5187H122.681V82.5944ZM122.681 89.8593H130.542V87.7836H122.681V89.8593ZM121.461 80.5187V98.6809H123.667V80.5187H121.461ZM131.833 82.5944H136.503V98.6809H138.708V82.5944H143.379V80.5187H131.833V82.5944Z" fill="white"/>
<path d="M193.819 36.139H45.3279C27.6217 36.139 24 45.0948 24 55.6775V122.434C24 140.67 38.2186 143.329 45.3279 142.379H193.819C212.812 142.379 216.488 129.082 215.951 122.434V55.6775C215.951 36.1397 201.196 35.7319 193.819 36.139Z" stroke="white" stroke-width="1.5"/>
<path d="M46.5928 37.3808V-24.5126C46.458 -29.8713 49.3431 -40.5888 61.9618 -40.5888H179.252C184.51 -40.4548 195.025 -37.052 195.025 -24.5126V37.3808M61.9618 -43.0002H179.252M82.5889 35.7673L90.6779 24.9159C91.7564 23.5762 94.3988 21.7007 96.3402 24.9159C98.4401 27.733 102.862 32.7441 106.856 34.823L126.674 9.64351C128.157 7.50002 131.932 4.49913 135.167 9.64351L154.581 35.7673" stroke="white" stroke-width="1.5"/>
<path d="M86.3684 67.5442C86.3684 65.2667 87.5009 60.551 92.0307 59.908H147.036C149.058 60.0419 153.102 61.7567 153.102 67.5442" stroke="white" stroke-width="1.5"/>
</g>
</svg>
