<svg width="50" height="50" viewBox="0 0 50 50" fill="none" xmlns="http://www.w3.org/2000/svg">
<path fill-rule="evenodd" clip-rule="evenodd" d="M17.0822 0.227468C16.8455 0.352493 16.5201 0.642131 16.3589 0.870968L16.066 1.287L16.0338 3.035L16.0014 4.78299L16.249 5.03079C16.5622 5.34428 16.9339 5.34731 17.2422 5.03861C17.4761 4.80459 17.4819 4.76178 17.4819 3.28612C17.4819 2.04135 17.5091 1.74633 17.6353 1.61984C17.7734 1.48172 19.1773 1.46628 31.6289 1.46628C42.2631 1.46628 45.4961 1.49345 45.5861 1.58358C45.6752 1.67273 45.7033 3.43431 45.7033 8.91496V16.129H44.5803H43.4573V12.0723C43.4573 8.14594 43.4511 8.00938 43.262 7.82014C42.8824 7.44008 42.2405 7.65122 41.1527 8.51417C39.4185 9.88983 38.0873 12.3426 37.6002 15.0594C37.5381 15.4058 37.4675 15.7881 37.4432 15.9091L37.3992 16.129H27.4406H17.4819V12.1781C17.4819 10.0051 17.4534 8.15269 17.4185 8.06168C17.2517 7.62649 16.3386 7.59707 16.1128 8.01945C16.0534 8.1306 16.0172 10.4724 16.0172 14.2011V20.2038L16.2444 20.6347C16.3693 20.8717 16.6587 21.1975 16.8874 21.3587L17.3032 21.652L22.5437 21.7009L27.7842 21.7498L27.8114 23.045L27.8387 24.3402H19.5272H11.2158L11.5044 23.9736C11.9368 23.4243 12.3949 22.4524 12.6002 21.6485C12.8069 20.8396 13.0343 18.3129 12.9393 17.8802C12.8201 17.3372 12.6643 17.3021 10.3804 17.3021H8.30265V16.6178V15.9335H9.0161C11.2033 15.9335 13.0756 14.2027 13.1224 12.1376C13.1355 11.5566 13.1173 11.5016 12.8231 11.2384C11.9583 10.4649 9.93862 10.4894 8.77168 11.2878C8.57315 11.4236 8.38634 11.5347 8.35666 11.5347C8.32697 11.5347 8.30265 11.264 8.30265 10.9332C8.30265 10.3446 8.3133 10.3205 8.79619 9.80929C10.2681 8.25132 10.2909 5.76647 8.84745 4.2217C7.95111 3.26246 7.23747 3.1957 6.45664 3.99824C4.84011 5.65943 4.79168 8.16598 6.34434 9.80929C6.82879 10.322 6.83788 10.343 6.83788 10.9413C6.83788 11.2766 6.80487 11.5364 6.76464 11.5184C6.72431 11.5005 6.34307 11.3104 5.91731 11.0959C5.18531 10.7271 5.09508 10.7059 4.25723 10.7049C3.20855 10.7036 2.61258 10.8617 2.23281 11.2418C1.98448 11.4904 1.95528 11.5869 1.95528 12.1589C1.95528 13.0644 2.23769 13.7527 2.90592 14.4751C3.80608 15.4484 4.88953 15.9335 6.163 15.9335H6.83788V16.6178V17.3021H4.54306C1.59026 17.3021 1.80724 17.1431 1.8879 19.2467C1.97325 21.4739 2.33769 22.7814 3.1816 23.8878L3.5267 24.3402H2.01944C0.680927 24.3402 0.486306 24.3611 0.281628 24.5271L0.0510719 24.7139L0.0255848 37.0735L0 49.4332L0.203506 49.6922C0.45828 50.0163 0.980327 50.0473 1.27172 49.7556C1.45335 49.5738 1.46702 49.4298 1.46702 47.7028V45.8456H8.10735H14.7477V47.7461C14.7477 49.5994 14.753 49.6505 14.9648 49.7989C15.2756 50.0169 15.755 49.9916 15.9776 49.7454C16.1575 49.5464 16.1645 49.2254 16.1895 40.0676L16.2153 30.5956L29.1284 30.6203L42.0414 30.6452L42.0692 31.6471L42.097 32.6491L35.5265 32.6499C31.9127 32.6502 28.5926 32.6924 28.1483 32.7435C26.9951 32.8762 26.1413 33.1058 25.2453 33.524C24.2383 33.994 23.4852 34.6182 22.9183 35.4524C22.3129 36.3436 22.065 37.0851 21.9999 38.2002C21.9502 39.0522 21.9608 39.1231 22.1727 39.3488L22.3986 39.5894H27.2641H32.1297V40.2248V40.8602H30.7283C29.1335 40.8602 28.7825 40.9423 28.6116 41.3553C28.4613 41.7185 28.6374 42.2081 28.944 42.2796C29.058 42.3063 29.8105 42.3386 30.6161 42.3517L32.0809 42.3754V45.4545V48.5337L27.2471 48.5575C22.4564 48.5809 22.4118 48.583 22.2425 48.7882C22.0184 49.0595 22.0253 49.4812 22.2583 49.7692L22.4449 50H32.8621H43.2793L43.4659 49.7692C43.692 49.4897 43.7061 49.0936 43.5006 48.7999L43.3486 48.5826H38.4715H33.5945V44.0942V39.6059L36.7438 39.5671C39.6502 39.5313 39.9422 39.5119 40.5319 39.3168C41.7144 38.9254 42.4285 38.2972 42.9251 37.2112C43.3585 36.2637 43.4654 35.508 43.5258 32.9668L43.5821 30.5963H46.0587H48.5352V34.206V37.8157L48.7925 38.0183C49.1338 38.2871 49.4674 38.2742 49.7603 37.9809L50 37.7411V31.3779C50 24.6463 49.9951 24.5695 49.5562 24.4009C49.4693 24.3675 48.0614 24.3402 46.4277 24.3402H43.4573V23.0205V21.7009H44.5346C46.0069 21.7009 46.5441 21.4604 46.9823 20.6051C47.1612 20.256 47.1681 19.89 47.1681 10.8504C47.1681 1.81085 47.1612 1.44487 46.9823 1.0958C46.7474 0.637243 46.434 0.343891 45.9736 0.15132C45.6528 0.0171065 44.0225 0 31.5623 0H17.5127L17.0822 0.227468ZM8.27648 5.95503C8.63799 6.89247 8.40919 8.19238 7.77846 8.78553L7.54888 9.00137L7.24645 8.6565C6.92791 8.29335 6.64257 7.50557 6.64257 6.98925C6.64257 6.48201 6.91082 5.74154 7.23805 5.34545L7.54624 4.97253L7.82504 5.23998C7.97845 5.387 8.18157 5.7088 8.27648 5.95503ZM41.9925 18.8844V27.9935L41.6911 27.7065C41.1262 27.1685 40.4991 26.248 40.0302 25.2688C39.1235 23.3751 38.757 21.5176 38.757 18.8172C38.757 15.3192 39.5118 12.6043 40.9993 10.7527C41.3476 10.3193 41.8789 9.77517 41.9541 9.77517C41.9753 9.77517 41.9925 13.8743 41.9925 18.8844ZM5.03747 12.285C5.88245 12.5733 6.89813 13.8167 6.70341 14.3246C6.62861 14.5197 5.73812 14.5133 5.15182 14.3133C4.3581 14.0426 3.66741 13.2973 3.46801 12.4966C3.41752 12.2935 3.44252 12.2264 3.58255 12.1902C3.97228 12.0895 4.58036 12.1291 5.03747 12.285ZM11.4683 12.1805C11.8003 12.308 11.5307 13.0866 10.9554 13.6626C10.4445 14.1741 9.73892 14.4652 9.0076 14.4663C8.27717 14.4675 8.2053 14.3729 8.47481 13.7657C8.75761 13.1284 9.12596 12.7507 9.78696 12.4201C10.3698 12.1285 11.0724 12.0284 11.4683 12.1805ZM37.2923 18.915V20.2346H27.5406C18.8056 20.2346 17.7728 20.2186 17.6353 20.081C17.5131 19.9586 17.4819 19.691 17.4819 18.7614V17.5953H27.3871H37.2923V18.915ZM45.7033 18.7977C45.7033 19.6024 45.6646 20.0388 45.5861 20.1173C45.5102 20.1934 45.1153 20.2346 44.4631 20.2346H43.4573V18.915V17.5953H44.5803H45.7033V18.7977ZM11.3966 19.7214C11.2574 21.9159 10.5914 23.2361 9.3031 23.871C8.66406 24.1859 8.61846 24.1936 7.37496 24.1936C6.13185 24.1936 6.08576 24.1858 5.4478 23.8715C5.0737 23.6871 4.6659 23.3944 4.49433 23.1872C3.8634 22.4249 3.48227 21.2249 3.35825 19.6108L3.2936 18.7683H7.37535H11.457L11.3966 19.7214ZM33.9851 23.0205V24.3402H31.6415H29.2978V23.0205V21.7009H31.6415H33.9851V23.0205ZM37.6776 22.8013C37.8018 23.4058 37.9278 23.9992 37.9575 24.1202C38.0115 24.3399 38.0099 24.3402 36.7308 24.3402H35.4499V23.0205V21.7009L36.4508 21.7016L37.4517 21.7022L37.6776 22.8013ZM38.7764 26.1151C39.0098 26.679 39.8585 27.891 40.4567 28.5147L41.047 29.13H21.2571H1.46702V27.4682V25.8065H20.0579H38.6487L38.7764 26.1151ZM48.5352 27.4682V29.13H45.9963H43.4573V27.4682V25.8065H45.9963H48.5352V27.4682ZM14.7246 33.6999L14.7504 36.7546H8.10872H1.46702V33.6748V30.5949L8.08294 30.62L14.6989 30.6452L14.7246 33.6999ZM4.88484 33.1378C4.58309 33.4399 4.5912 33.9724 4.90154 34.2375C5.08297 34.3926 5.38882 34.4086 8.15989 34.4086H11.2181L11.4204 34.151C11.6889 33.8094 11.676 33.4755 11.3831 33.1823L11.1434 32.9423H8.11174C5.21031 32.9423 5.07174 32.9507 4.88484 33.1378ZM42.0507 34.433C42.0241 34.6078 41.9759 34.9865 41.9438 35.2746C41.7648 36.8788 41.0641 37.7226 39.6685 38.0149C39.3145 38.089 36.6653 38.1232 31.2839 38.1232H23.4169L23.481 37.7566C23.5794 37.1922 24.0814 36.2338 24.5101 35.7916C25.0067 35.2795 25.5484 34.94 26.3527 34.637C27.5996 34.1671 28.1653 34.135 35.381 34.1248L42.0991 34.1153L42.0507 34.433ZM14.7477 41.3001V44.3793H8.10735H1.46702V41.3001V38.2209H8.10735H14.7477V41.3001ZM4.88484 40.7625C4.58309 41.0645 4.5912 41.5971 4.90154 41.8622C5.08297 42.0172 5.38882 42.0332 8.15989 42.0332H11.2181L11.4204 41.7757C11.6889 41.434 11.676 41.1001 11.3831 40.8069L11.1434 40.567H8.11174C5.21031 40.567 5.07174 40.5754 4.88484 40.7625ZM48.7925 41.0629L48.5352 41.2654V45.4128C48.5352 49.4298 48.5414 49.5663 48.7305 49.7556C49.023 50.0484 49.544 50.0163 49.8007 49.6897C50.003 49.4321 50.0057 49.3684 49.9786 45.3311L49.9512 41.2338L49.7206 41.047C49.422 40.805 49.1133 40.8103 48.7925 41.0629Z" fill="white"/>
</svg>
