<svg width="184" height="149" viewBox="0 0 184 149" fill="none" xmlns="http://www.w3.org/2000/svg">
<circle cx="100.121" cy="44.5988" r="31.8071" stroke="white" stroke-opacity="0.7" stroke-width="2.63026"/>
<path d="M113.009 111.769L120.923 111.769L120.923 125.252L89.2662 125.252L89.2662 129.062L77.8347 120.562L89.2662 111.769L89.2662 116.458L113.009 116.458L113.009 111.769Z" stroke="white" stroke-opacity="0.7" stroke-width="2.63026"/>
<path d="M162.7 31.8629L162.7 23.9487L176.184 23.9487L176.184 55.6053L179.994 55.6053L171.494 67.0369L162.7 55.6053L167.39 55.6053L167.39 31.8629L162.7 31.8629Z" stroke="white" stroke-opacity="0.7" stroke-width="2.63026"/>
<path d="M35.5424 59.3695L35.5424 67.2837L22.0591 67.2837L22.0591 35.6271L18.2485 35.6271L26.7489 24.1955L35.5424 35.6271L30.8526 35.6271L30.8526 59.3695L35.5424 59.3695Z" stroke="white" stroke-opacity="0.7" stroke-width="2.63026"/>
<mask id="path-5-inside-1_325_1585" fill="white">
<path d="M86.0122 37.2157C86.0122 36.6497 86.471 36.1909 87.037 36.1909C87.603 36.1909 88.0619 36.6497 88.0619 37.2157V40.2902H86.0122V37.2157Z"/>
</mask>
<path d="M88.0619 40.2902V42.9205H90.6921V40.2902H88.0619ZM86.0122 40.2902H83.3819V42.9205H86.0122V40.2902ZM85.4316 37.2157V40.2902H90.6921V37.2157H85.4316ZM88.0619 37.66H86.0122V42.9205H88.0619V37.66ZM88.6425 40.2902V37.2157H83.3819V40.2902H88.6425ZM87.037 38.8212C86.1504 38.8212 85.4316 38.1024 85.4316 37.2157H90.6921C90.6921 35.1971 89.0557 33.5607 87.037 33.5607V38.8212ZM87.037 33.5607C85.0184 33.5607 83.3819 35.1971 83.3819 37.2157H88.6425C88.6425 38.1024 87.9237 38.8212 87.037 38.8212V33.5607Z" fill="white" fill-opacity="0.7" mask="url(#path-5-inside-1_325_1585)"/>
<mask id="path-7-inside-2_325_1585" fill="white">
<path d="M86.0122 50.1279H88.0619V58.5315C88.0619 59.0975 87.603 59.5563 87.037 59.5563C86.471 59.5563 86.0122 59.0975 86.0122 58.5315V50.1279Z"/>
</mask>
<path d="M86.0122 50.1279V47.4977H83.3819V50.1279H86.0122ZM88.0619 50.1279H90.6921V47.4977H88.0619V50.1279ZM86.0122 52.7582H88.0619V47.4977H86.0122V52.7582ZM85.4316 50.1279V58.5315H90.6921V50.1279H85.4316ZM88.6425 58.5315V50.1279H83.3819V58.5315H88.6425ZM87.037 56.9261C87.9237 56.9261 88.6425 57.6448 88.6425 58.5315H83.3819C83.3819 60.5502 85.0184 62.1866 87.037 62.1866V56.9261ZM85.4316 58.5315C85.4316 57.6448 86.1504 56.9261 87.037 56.9261V62.1866C89.0557 62.1866 90.6921 60.5502 90.6921 58.5315H85.4316Z" fill="white" fill-opacity="0.7" mask="url(#path-7-inside-2_325_1585)"/>
<rect x="83.6397" y="41.1955" width="6.79814" height="8.02793" rx="3.39907" stroke="white" stroke-opacity="0.7" stroke-width="2.63026"/>
<mask id="path-10-inside-3_325_1585" fill="white">
<path d="M99.1335 42.5473C99.1335 41.9813 99.5924 41.5225 100.158 41.5225C100.724 41.5225 101.183 41.9813 101.183 42.5473V45.6218H99.1335V42.5473Z"/>
</mask>
<path d="M101.183 45.6218V48.252H103.813V45.6218H101.183ZM99.1335 45.6218H96.5033V48.252H99.1335V45.6218ZM98.5529 42.5473V45.6218H103.813V42.5473H98.5529ZM101.183 42.9915H99.1335V48.252H101.183V42.9915ZM101.764 45.6218V42.5473H96.5033V45.6218H101.764ZM100.158 44.1527C99.2717 44.1527 98.5529 43.4339 98.5529 42.5473H103.813C103.813 40.5286 102.177 38.8922 100.158 38.8922V44.1527ZM100.158 38.8922C98.1397 38.8922 96.5033 40.5286 96.5033 42.5473H101.764C101.764 43.4339 101.045 44.1527 100.158 44.1527V38.8922Z" fill="white" fill-opacity="0.7" mask="url(#path-10-inside-3_325_1585)"/>
<mask id="path-12-inside-4_325_1585" fill="white">
<path d="M101.185 58.5352C101.185 59.1012 100.726 59.5601 100.16 59.5601C99.5944 59.5601 99.1355 59.1012 99.1355 58.5352L99.1355 55.4608L101.185 55.4608L101.185 58.5352Z"/>
</mask>
<path d="M99.1355 55.4608L99.1355 52.8305L96.5053 52.8305L96.5053 55.4608L99.1355 55.4608ZM101.185 55.4608L103.815 55.4608L103.815 52.8305L101.185 52.8305L101.185 55.4608ZM101.766 58.5352L101.766 55.4608L96.5053 55.4608L96.5053 58.5352L101.766 58.5352ZM99.1355 58.091L101.185 58.091L101.185 52.8305L99.1355 52.8305L99.1355 58.091ZM98.5549 55.4608L98.5549 58.5352L103.815 58.5352L103.815 55.4608L98.5549 55.4608ZM100.16 56.9298C101.047 56.9298 101.766 57.6486 101.766 58.5352L96.5053 58.5352C96.5053 60.5539 98.1417 62.1903 100.16 62.1903L100.16 56.9298ZM100.16 62.1903C102.179 62.1903 103.815 60.5539 103.815 58.5352L98.5549 58.5352C98.5549 57.6486 99.2737 56.9298 100.16 56.9298L100.16 62.1903Z" fill="white" fill-opacity="0.7" mask="url(#path-12-inside-4_325_1585)"/>
<rect x="96.7608" y="46.5266" width="6.79814" height="8.02793" rx="3.39907" stroke="white" stroke-opacity="0.7" stroke-width="2.63026"/>
<mask id="path-15-inside-5_325_1585" fill="white">
<path d="M112.25 30.6611C112.25 30.0951 112.709 29.6362 113.275 29.6362C113.841 29.6362 114.3 30.0951 114.3 30.6611V33.7355H112.25V30.6611Z"/>
</mask>
<path d="M114.3 33.7355V36.3658H116.93V33.7355H114.3ZM112.25 33.7355H109.62V36.3658H112.25V33.7355ZM111.669 30.6611V33.7355H116.93V30.6611H111.669ZM114.3 31.1053H112.25V36.3658H114.3V31.1053ZM114.88 33.7355V30.6611H109.62V33.7355H114.88ZM113.275 32.2665C112.388 32.2665 111.669 31.5477 111.669 30.6611H116.93C116.93 28.6424 115.293 27.006 113.275 27.006V32.2665ZM113.275 27.006C111.256 27.006 109.62 28.6424 109.62 30.6611H114.88C114.88 31.5477 114.161 32.2665 113.275 32.2665V27.006Z" fill="white" fill-opacity="0.7" mask="url(#path-15-inside-5_325_1585)"/>
<mask id="path-17-inside-6_325_1585" fill="white">
<path d="M112.25 43.5732H114.3V51.9768C114.3 52.5428 113.841 53.0016 113.275 53.0016C112.709 53.0016 112.25 52.5428 112.25 51.9768V43.5732Z"/>
</mask>
<path d="M112.25 43.5732V40.943H109.62V43.5732H112.25ZM114.3 43.5732H116.93V40.943H114.3V43.5732ZM112.25 46.2035H114.3V40.943H112.25V46.2035ZM111.669 43.5732V51.9768H116.93V43.5732H111.669ZM114.88 51.9768V43.5732H109.62V51.9768H114.88ZM113.275 50.3714C114.161 50.3714 114.88 51.0902 114.88 51.9768H109.62C109.62 53.9955 111.256 55.6319 113.275 55.6319V50.3714ZM111.669 51.9768C111.669 51.0902 112.388 50.3714 113.275 50.3714V55.6319C115.293 55.6319 116.93 53.9955 116.93 51.9768H111.669Z" fill="white" fill-opacity="0.7" mask="url(#path-17-inside-6_325_1585)"/>
<rect x="109.877" y="34.6408" width="6.79814" height="8.02793" rx="3.39907" stroke="white" stroke-opacity="0.7" stroke-width="2.63026"/>
<path d="M8.97956 -15.2108C1.52513 -22.4695 -4.5234 -43.7617 16.043 -56.3434C22.3945 -59.6705 34.4923 -61.7876 44.7754 -51.8068C49.8162 -46.262 57.5386 -31.9663 48.1023 -19.1426L46.5901 -17.0255M46.5901 -17.0255L47.4974 -9.4643C47.7999 -6.74228 46.8925 -1.29824 40.8436 -1.29824H13.6234C11.9095 -1.49987 8.48181 -3.05243 8.48181 -7.64962C8.38099 -10.3716 8.60278 -16.4811 10.2965 -19.1426C11.4055 -20.8565 14.2888 -24.2842 16.9503 -24.2842C20.5797 -21.3605 30.016 -17.2674 38.7265 -24.2842C41.0295 -24.7882 45.8264 -24.0422 46.5901 -17.0255Z" stroke="white" stroke-opacity="0.7" stroke-width="2.63026"/>
<path d="M153.423 -15.2108C145.968 -22.4695 139.92 -43.7617 160.486 -56.3434C166.838 -59.6705 178.935 -61.7876 189.219 -51.8068C194.259 -46.262 201.982 -31.9663 192.545 -19.1426L191.033 -17.0255M191.033 -17.0255L191.941 -9.4643C192.243 -6.74228 191.336 -1.29824 185.287 -1.29824H158.067C156.353 -1.49987 152.925 -3.05243 152.925 -7.64962C152.824 -10.3716 153.046 -16.4811 154.74 -19.1426C155.849 -20.8565 158.732 -24.2842 161.393 -24.2842C165.023 -21.3605 174.459 -17.2674 183.17 -24.2842C185.473 -24.7882 190.27 -24.0422 191.033 -17.0255Z" stroke="white" stroke-opacity="0.7" stroke-width="2.63026"/>
<path d="M8.97956 132.849C1.52513 125.59 -4.5234 104.298 16.043 91.7161C22.3945 88.389 34.4923 86.272 44.7754 96.2528C49.8162 101.798 57.5386 116.093 48.1023 128.917L46.5901 131.034M46.5901 131.034L47.4974 138.595C47.7999 141.317 46.8925 146.761 40.8436 146.761H13.6234C11.9095 146.56 8.48181 145.007 8.48181 140.41C8.38099 137.688 8.60278 131.579 10.2965 128.917C11.4055 127.203 14.2888 123.775 16.9503 123.775C20.5797 126.699 30.016 130.792 38.7265 123.775C41.0295 123.271 45.8264 124.017 46.5901 131.034Z" stroke="white" stroke-opacity="0.7" stroke-width="2.63026"/>
<circle cx="27.8447" cy="108.35" r="9.57295" stroke="white" stroke-opacity="0.7" stroke-width="2.63026"/>
<path d="M153.423 132.847C145.968 125.588 139.92 104.296 160.486 91.7142C166.838 88.3871 178.935 86.27 189.219 96.2508C194.259 101.796 201.982 116.091 192.545 128.915L191.033 131.032M191.033 131.032L191.941 138.593C192.243 141.315 191.336 146.759 185.287 146.759H158.067C156.353 146.558 152.925 145.005 152.925 140.408C152.824 137.686 153.046 131.577 154.74 128.915C155.849 127.201 158.732 123.773 161.393 123.773C165.023 126.697 174.459 130.79 183.17 123.773C185.473 123.269 190.27 124.015 191.033 131.032Z" stroke="white" stroke-opacity="0.7" stroke-width="2.63026"/>
<circle cx="172.288" cy="108.349" r="9.57295" stroke="white" stroke-opacity="0.7" stroke-width="2.63026"/>
</svg>
