<svg width="191" height="147" viewBox="0 0 191 147" fill="none" xmlns="http://www.w3.org/2000/svg">
<path d="M151.816 17.9309C154.336 12.3326 153.799 -5.86176 153.216 -14.2592L77.9892 -44L3.81202 -14.2592C-2.3694 22.5961 3.81203 104.004 77.9892 134.795C87.9027 130.13 110.389 117.51 121.026 104.354M151.816 17.9309H191.354V61.6674M151.816 17.9309H146.218H138.521V77.735M191.354 61.6674C195.903 62.3672 205 64.8165 205 69.0152V71.4644M191.354 61.6674C163.643 59.9879 156.715 65.8661 156.715 69.0152V71.4644M145.168 129.896C128.374 131.016 122.076 125.464 121.026 122.549V111.352M145.168 129.896V137.944C145.168 143.892 160.797 145.175 168.611 145.642C185.406 145.642 193.454 142.492 193.454 138.644V129.896C193.482 129.412 193.465 128.945 193.407 128.497M145.168 129.896C145.168 129.445 145.177 128.976 145.211 128.497M156.715 78.2855C165.806 80.0231 168.522 83.938 168.611 86.1599V87.5594M156.715 78.2855C153.876 77.7428 150.415 77.4126 146.218 77.4126C144.07 77.3823 141.361 77.4666 138.521 77.735M156.715 78.2855V71.4644M121.026 104.354V100.156M121.026 104.354V111.352M138.521 77.735C130.41 78.5016 121.026 80.2117 121.026 86.1599V87.5594M121.026 87.5594C130.123 91.7581 148.668 93.8575 168.611 87.5594M121.026 87.5594V100.156M168.611 87.5594V100.156M168.611 87.5594C174.909 89.4347 191.004 91.6401 205 85.4601M121.026 100.156C127.557 104.121 147.618 110.302 168.611 100.156M168.611 100.156V101.555M121.026 111.352C128.374 115.901 148.177 122.269 168.611 111.352M168.611 111.352V115.901C185.756 119.4 202.551 115.201 205 111.702V99.4558M168.611 111.352V101.555M145.211 128.497C145.543 123.768 148.28 118.7 168.611 118.7C176.692 118.7 192.314 120.143 193.407 128.497M145.211 128.497C153.796 132.229 173.51 135.145 193.407 128.497M168.611 101.555C175.142 103.188 191.564 105.054 205 99.4558M205 99.4558V85.4601M205 85.4601V71.4644M156.715 71.4644C163.946 75.3132 183.726 80.7016 205 71.4644" stroke="white" stroke-width="2.47561"/>
</svg>
