<svg width="188" height="150" viewBox="0 0 188 150" fill="none" xmlns="http://www.w3.org/2000/svg">
<path d="M174.872 85.0276C185.947 59.812 178.136 31.1395 172.847 19.9551C171.835 17.8179 170.756 15.7859 169.619 13.8546M174.872 85.0276L211 113.158L166.094 148.405V130.782H97.5525C85.5504 130.359 58.5984 122.72 41.239 96.2119M174.872 85.0276L166.094 78.5881V96.2119H41.239M37.79 25.0389C23.7441 46.4586 31.9375 77.5713 37.79 90.4503C38.8886 92.4632 40.0409 94.3825 41.239 96.2119M37.79 25.0389L2 -3.76919L47.5816 -38V-20.7151H112.746C125.47 -20.7151 153.442 -13.6146 169.619 13.8546M37.79 25.0389L47.5816 31.8173V13.8546H169.619" stroke="white" stroke-width="1.5"/>
</svg>
