<svg width="186" height="148" viewBox="0 0 186 148" fill="none" xmlns="http://www.w3.org/2000/svg">
<path d="M62.0334 32.875H140.296M62.0334 46.5799H109.279M62.0334 60.2848H109.279M62.0334 75.0716H109.279M62.0334 88.4158H127.673M118.656 130.612H142.099" stroke="white" stroke-width="1.5"/>
<path d="M153.278 97.0262V133.859C153.278 144.823 146.786 147.323 143.541 147.203H56.9834C48.6162 147.203 46.5244 138.307 46.5244 133.859V-0.304934C46.5244 -8.3836 53.4971 -11.6055 56.9834 -12.2065H143.541C152.196 -12.2065 153.639 -4.27214 153.278 -0.304934V45.8589M135.246 56.3179L160.852 41.531L186.459 56.3179M135.246 56.3179V86.6129L160.852 101.4M135.246 56.3179L160.852 71.1047M186.459 56.3179V85.8916L160.852 101.4M186.459 56.3179L160.852 71.1047M160.852 101.4V71.1047" stroke="white" stroke-width="1.5"/>
<path d="M35.3148 19.5303C35.3148 23.9244 33.3473 27.8581 30.2426 30.5001C27.7299 32.6382 24.4752 33.9278 20.9173 33.9278C12.9658 33.9278 6.51978 27.4818 6.51978 19.5303C6.51978 11.5788 12.9658 5.13281 20.9173 5.13281C28.8688 5.13281 35.3148 11.5788 35.3148 19.5303Z" stroke="white" stroke-width="1.5"/>
<path d="M30.2947 30.7114L34.9832 38.2852H46.1635" stroke="white" stroke-width="1.5"/>
<circle cx="15.1475" cy="62.8091" r="14.3975" stroke="white" stroke-width="1.5"/>
<path d="M30.2947 63.1699H46.1635" stroke="white" stroke-width="1.5"/>
<path d="M31.7086 108.974C31.7086 116.925 25.2626 123.371 17.3111 123.371C9.35956 123.371 2.91357 116.925 2.91357 108.974C2.91357 101.022 9.35956 94.5763 17.3111 94.5763C20.0774 94.5763 22.6594 95.3558 24.8521 96.7067C28.9677 99.2424 31.7086 103.788 31.7086 108.974Z" stroke="white" stroke-width="1.5"/>
<path d="M24.8848 96.3497L32.8192 85.1694H46.5241" stroke="white" stroke-width="1.5"/>
<path d="M183.574 4.38337L198.721 -4.99365L214.23 4.38337M183.574 4.38337V21.3342L198.721 30.3505M183.574 4.38337L198.721 12.6784M214.23 4.38337V21.3342L198.721 30.3505M214.23 4.38337L198.721 12.6784M198.721 30.3505V12.6784M220 120.154L204.853 111.498L189.705 120.154M220 120.154V137.465L204.853 146.121M220 120.154L204.853 128.809M204.853 146.121L189.705 137.465V120.154M204.853 146.121V128.809M189.705 120.154L204.853 128.809" stroke="white" stroke-width="1.5"/>
<path d="M181.439 35.7285C180.848 35.1379 180.047 34.8062 179.211 34.8062C178.376 34.8062 177.575 35.1379 176.984 35.7285L174.756 37.9559C174.165 38.5467 173.833 39.3481 173.833 40.1837C173.833 41.0192 174.165 41.8206 174.756 42.4114C175.347 43.0023 176.148 43.3342 176.984 43.3342C177.819 43.3342 178.62 43.0023 179.211 42.4114L180.325 41.2977" stroke="white" stroke-width="1.5" stroke-linecap="round" stroke-linejoin="round"/>
<path d="M179.213 37.9563C179.803 38.5469 180.605 38.8786 181.44 38.8786C182.275 38.8786 183.077 38.5469 183.667 37.9563L185.896 35.7289C186.486 35.138 186.818 34.3367 186.818 33.5011C186.818 32.6655 186.486 31.8642 185.896 31.2734C185.305 30.6825 184.503 30.3506 183.668 30.3506C182.832 30.3506 182.031 30.6825 181.44 31.2734L180.326 32.3871" stroke="white" stroke-width="1.5" stroke-linecap="round" stroke-linejoin="round"/>
<path d="M186.49 105.76C187.081 105.169 187.413 104.368 187.413 103.533C187.413 102.697 187.081 101.896 186.49 101.305L184.263 99.0771C183.672 98.4862 182.871 98.1543 182.035 98.1543C181.2 98.1543 180.398 98.4862 179.808 99.0771C179.217 99.6679 178.885 100.469 178.885 101.305C178.885 102.14 179.217 102.942 179.808 103.533L180.921 104.646" stroke="white" stroke-width="1.5" stroke-linecap="round" stroke-linejoin="round"/>
<path d="M184.263 103.533C183.672 104.124 183.341 104.925 183.341 105.76C183.341 106.596 183.672 107.397 184.263 107.988L186.49 110.216C187.081 110.806 187.883 111.138 188.718 111.138C189.554 111.138 190.355 110.806 190.946 110.216C191.537 109.625 191.869 108.823 191.869 107.988C191.869 107.152 191.537 106.351 190.946 105.76L189.832 104.646" stroke="white" stroke-width="1.5" stroke-linecap="round" stroke-linejoin="round"/>
</svg>
