<svg width="182" height="151" viewBox="0 0 182 151" fill="none" xmlns="http://www.w3.org/2000/svg">
<path d="M25.8342 -38.4362L27.7786 -44.1745L7.69464 -48L1 -10.3825L14.7081 -5.6006L16.3284 -10.3825M25.8342 -38.4362C35.196 -37.7986 57.1712 -37.6711 70.178 -42.2617C72.8346 -43.5369 78.8491 -45.0671 81.6545 -40.9866L103.046 -15.4832M25.8342 -38.4362L16.3284 -10.3825M16.3284 -10.3825L46.5873 2.68801C48.5001 3.11306 53.7283 3.96318 59.339 3.96318C61.4643 3.75065 66.9263 3.64438 71.7719 4.91955L82.6109 7.46989M66.6712 -18.0335C67.7911 -15.7076 69.2577 -13.8497 70.8155 -12.3885M70.8155 -12.3885C73.8697 -9.5238 77.2745 -8.184 79.1041 -7.83215L88.9867 -4.64422M70.8155 -12.3885L84.2048 -14.8456L91.9673 -8.99275M88.9867 -4.64422L100.144 -0.499919C103.715 1.28532 103.545 5.55714 103.014 7.46989C101.738 12.3155 97.5941 12.0393 95.6814 11.2954L82.6109 7.46989M88.9867 -4.64422C90.6869 -9.79803 103.014 -20.2651 119.91 -15.4832C126.285 -13.2516 141.269 -6.55698 140.631 13.8457C140.243 26.2787 133.974 41.8995 112.577 41.8995C100.144 41.8995 87.074 36.48 83.2484 18.3088C82.8605 16.466 82.6109 11.3634 82.6109 7.46989" stroke="white" stroke-width="1.5"/>
<path d="M64.4401 3.96289C62.5273 5.98191 58.8294 10.6575 59.3394 13.2079C59.2333 14.9081 60.1049 18.0535 64.4401 17.0334L82.292 7.7884" stroke="white" stroke-width="1.5"/>
<path d="M83.2482 65.8082H147.326M58.3824 85.8632V93.833M58.3824 97.3687V125.422M44.0367 76.0096H191V55.2881H44.0367V76.0096ZM73.3657 87.1673H162.309V140.724H73.3657V87.1673Z" stroke="white" stroke-width="1.5"/>
<path d="M49.4575 76.3286V149.651H184.307V76.3286" stroke="white" stroke-width="1.5"/>
</svg>
