<svg width="184" height="144" viewBox="0 0 184 144" fill="none" xmlns="http://www.w3.org/2000/svg">
<path d="M209.742 24.1996V12.0288C210.823 -9.6074 194.266 -13.5139 185.852 -12.7627H33.0459C7.08245 -12.7627 0.89209 3.76498 1.04234 12.0288V118.858C0.441338 126.821 6.00064 142.748 33.0459 142.748H185.852C193.815 142.898 209.742 140.314 209.742 128.775V105.786M209.742 36.37H175.484C164.666 36.37 152.045 48.9911 152.045 67.0213C152.345 75.5856 157.454 92.7143 175.484 92.7143H209.742C212.146 92.7143 216.954 91.362 216.954 85.953V42.2298C217.254 40.2765 216.233 36.37 209.742 36.37Z" stroke="white" stroke-width="1.5"/>
<circle cx="181.342" cy="64.7675" r="12.7726" stroke="white" stroke-width="1.5"/>
<path d="M25.3835 2.56323V15.1844M25.3835 126.971V117.956M25.3835 71.5287H68.2052L91.6444 59.3583M25.3835 71.5287V117.956M25.3835 71.5287V15.1844M25.3835 117.956H102.463L118.69 100.828M25.3835 15.1844H112.379L125.451 25.5517M141.227 6.62002H186.303V21.9457M186.303 106.687V123.365H141.227" stroke="white" stroke-width="1.5"/>
<circle cx="134.465" cy="34.1161" r="12.7726" stroke="white" stroke-width="1.5"/>
<circle cx="103.815" cy="55.7524" r="12.7726" stroke="white" stroke-width="1.5"/>
<circle cx="126.352" cy="90.9106" r="12.7726" stroke="white" stroke-width="1.5"/>
</svg>
