<svg width="177" height="144" viewBox="0 0 177 144" fill="none" xmlns="http://www.w3.org/2000/svg">
<path d="M170.819 36.139H22.3279C4.62172 36.139 1 45.0948 1 55.6775V122.434C1 140.67 15.2186 143.329 22.3279 142.379H170.819C189.812 142.379 193.488 129.082 192.951 122.434V55.6775C192.951 36.1397 178.196 35.7319 170.819 36.139Z" stroke="white" stroke-width="1.5"/>
<path d="M23.5928 37.381V-24.5124C23.458 -29.8711 26.3431 -40.5886 38.9618 -40.5886H156.252C161.51 -40.4546 172.025 -37.0518 172.025 -24.5124V37.381M38.9618 -43H156.252M59.5889 35.7676L67.6779 24.9161C68.7564 23.5765 71.3988 21.7009 73.3402 24.9161C75.4401 27.7332 79.8624 32.7443 83.8558 34.8233L103.674 9.64376C105.157 7.50026 108.932 4.49937 112.167 9.64376L131.581 35.7676" stroke="white" stroke-width="1.5"/>
</svg>
