<svg width="40" height="42" viewBox="0 0 40 42" fill="none" xmlns="http://www.w3.org/2000/svg">
<path fill-rule="evenodd" clip-rule="evenodd" d="M12.8009 3.89663L5.99716 7.7899L5.51181 7.43624C4.82676 6.93703 4.31774 6.78022 3.40684 6.7877C2.84315 6.7923 2.54686 6.83811 2.20238 6.97387C1.27296 7.34019 0.567484 8.03807 0.194436 8.96059C-0.064812 9.60148 -0.064812 10.7866 0.194436 11.4274C0.563082 12.3389 1.28692 13.0616 2.16085 13.3907L2.57618 13.547L2.61771 21.4707C2.64828 27.2958 2.68491 29.438 2.75618 29.5588C2.80951 29.6493 3.83745 30.2838 5.04049 30.9688C12.6847 35.3214 16.6138 37.5867 16.6103 37.6392C16.6081 37.6723 16.5756 37.9139 16.538 38.1761C16.3982 39.1501 16.8265 40.3169 17.5899 41.0414C19.3165 42.6801 22.124 42.1467 23.1591 39.9833C23.4098 39.4595 23.4259 39.3703 23.4288 38.4883L23.4318 37.5503L30.2401 33.6606C33.9848 31.5214 37.1139 29.6915 37.1938 29.5942C37.3301 29.4284 37.3392 28.9175 37.3392 21.4888C37.3392 14.0093 37.3474 13.5577 37.4846 13.5164C40.1138 12.7239 40.8724 9.43628 38.8444 7.62257C37.5808 6.4925 35.5812 6.46652 34.3188 7.56377L34.0348 7.81054L32.4267 6.89073C20.1592 -0.126076 20.3824 -0.0024865 19.9842 0.000473728C19.6368 0.00310504 19.0288 0.332842 12.8009 3.89663ZM26.5616 5.43578C30.1364 7.47702 33.0859 9.16986 33.1161 9.19774C33.1461 9.22561 33.1362 9.4621 33.0938 9.72326C32.8609 11.1601 33.7179 12.673 35.1372 13.3305L35.6779 13.5809L35.6773 21.1176L35.6767 28.6543L29.1032 32.4089L22.5298 36.1635L22.1265 35.8479C21.5026 35.3597 20.9057 35.1639 20.02 35.1566C19.1108 35.1491 18.6001 35.3059 17.9203 35.8012L17.44 36.1512L10.9219 32.424C7.33684 30.3741 4.37555 28.6966 4.34133 28.6962C4.3071 28.6958 4.27903 25.29 4.27903 21.1279C4.27903 13.9935 4.28733 13.5575 4.42439 13.5128C6.09451 12.9683 7.15825 11.3283 6.88854 9.71364L6.80722 9.22709L13.3721 5.47599C16.9828 3.41296 19.965 1.72489 19.9994 1.72472C20.0337 1.72456 22.9867 3.39454 26.5616 5.43578ZM14.0532 9.55979C10.1561 11.7902 8.38331 12.8478 8.3039 12.99C8.13145 13.2983 8.12763 25.9668 8.29983 26.2944C8.46554 26.6095 19.5892 32.9713 19.9746 32.9713C20.2918 32.9713 20.1515 33.0419 22.512 31.6946C23.5627 31.095 25.9924 29.7096 27.9112 28.6163C29.8301 27.523 31.4841 26.5364 31.5869 26.424L31.7738 26.2194V19.6503V13.0812L31.5869 12.876C31.4841 12.7631 28.8983 11.2439 25.8407 9.50001C21.3121 6.91721 20.2262 6.32977 19.9845 6.33215C19.7478 6.33446 18.5482 6.98719 14.0532 9.55979ZM25.0218 10.9341C27.3584 12.2682 29.2446 13.3843 29.2136 13.4143C29.1826 13.4442 27.1049 14.6409 24.5965 16.0735C20.7596 18.265 20.0082 18.6659 19.8617 18.5997C19.543 18.4558 10.9676 13.5478 10.8592 13.4473C10.7748 13.3689 11.7121 12.8008 15.3786 10.708L20.0046 8.06751L20.3891 8.28796C20.6005 8.40917 22.6852 9.59992 25.0218 10.9341ZM4.15443 8.53884C4.88042 8.8671 5.33023 9.6046 5.25804 10.3483C5.17846 11.1678 4.50605 11.8732 3.7028 11.9799C2.31726 12.1639 1.20518 10.729 1.777 9.49508C2.20413 8.57329 3.27659 8.14192 4.15443 8.53884ZM37.3445 8.61112C37.9587 8.91939 38.2719 9.37223 38.3192 10.0204C38.3656 10.6548 38.2258 11.0476 37.8061 11.4624C36.6593 12.596 34.7378 11.8017 34.7378 10.194C34.7378 8.83346 36.118 7.99539 37.3445 8.61112ZM14.953 17.7205C17.5571 19.2078 19.7852 20.439 19.9044 20.4563C20.1884 20.4977 20.0733 20.5593 25.332 17.5525C27.8344 16.1217 29.9336 14.9314 29.9971 14.9073C30.0948 14.8702 30.1125 15.6733 30.1125 20.1573V25.4512L25.4816 28.0979L20.8506 30.7446L20.8303 28.7949C20.8084 26.7022 20.7805 26.5499 20.3801 26.3449C20.0337 26.1676 19.7592 26.2044 19.4606 26.4684L19.1893 26.7081L19.1478 28.7144L19.1063 30.7205L14.4782 28.0839L9.85008 25.4474L9.84726 20.1137L9.84443 14.7799L10.0313 14.8981C10.1342 14.963 12.3489 16.2331 14.953 17.7205ZM19.4625 22.7666C19.2396 22.9638 19.1931 23.0644 19.1931 23.3506C19.1931 23.944 19.8186 24.3435 20.337 24.081C21.1317 23.6787 20.8403 22.5283 19.9437 22.5283C19.8272 22.5283 19.6106 22.6355 19.4625 22.7666ZM20.9508 37.0485C21.4503 37.3503 21.8059 37.9823 21.8059 38.5682C21.8059 39.725 20.6354 40.5976 19.4924 40.293C18.7928 40.1065 18.151 39.2787 18.151 38.5629C18.151 37.8987 18.7187 37.1074 19.365 36.8704C19.851 36.6922 20.4777 36.7626 20.9508 37.0485Z" fill="white"/>
</svg>
