<svg width="71" height="70" viewBox="0 0 71 70" fill="none" xmlns="http://www.w3.org/2000/svg">
<path fill-rule="evenodd" clip-rule="evenodd" d="M32.1786 0.0801715C29.2916 0.355313 26.3314 1.01333 23.4383 2.023C21.6709 2.63981 21.321 2.93289 21.321 3.79609C21.321 4.17951 21.4162 4.42522 21.6564 4.6619C22.2335 5.23039 22.5492 5.21752 24.5459 4.54514C28.76 3.12576 32.4599 2.56576 36.6064 2.71948C42.6431 2.94329 48.1039 4.61385 53.2082 7.79825C54.1233 8.3692 54.9538 8.83626 55.0539 8.83626C55.4227 8.83626 56.1817 8.44052 56.3274 8.17236C56.5645 7.73596 56.5039 6.98979 56.2004 6.6098C56.0481 6.41898 55.4384 5.95657 54.8456 5.58219C50.4289 2.79299 45.6073 1.01634 40.4278 0.269759C38.7137 0.0226791 33.9341 -0.0872408 32.1786 0.0801715ZM10.0716 6.24801C8.54192 6.54341 7.06382 7.65849 6.38209 9.03118C5.61685 10.5717 5.61754 12.22 6.3839 13.7111L6.71531 14.3561L5.83473 15.6685C2.79821 20.1941 0.960065 25.048 0.179673 30.6012C-0.0598912 32.306 -0.0598912 37.6572 0.179673 39.362C1.29899 47.327 4.72876 54.1912 10.3616 59.74C18.9203 68.1711 30.8517 71.6639 42.8596 69.2533C45.3318 68.757 48.8007 67.6144 49.2864 67.1364C50.028 66.4065 49.6659 65.136 48.6441 64.8835C48.4043 64.8242 47.696 64.9972 46.4436 65.4212C44.285 66.1517 42.3093 66.6325 40.0804 66.9695C37.8393 67.3084 33.1329 67.3038 30.8396 66.9605C24.9832 66.0836 19.6953 63.8152 14.9935 60.1627C12.4693 58.2019 9.37998 54.7605 7.56713 51.8899C5.35519 48.3876 3.71506 43.957 3.03097 39.6357C2.68385 37.4425 2.68246 32.5253 3.02832 30.3552C3.58791 26.8446 4.59175 23.6837 6.10181 20.6769C6.83982 19.2075 8.40533 16.6066 8.80066 16.1931C8.85514 16.1363 9.19823 16.1899 9.56299 16.3125C10.5458 16.6423 12.2574 16.5253 13.2942 16.0573C14.3059 15.6005 15.3195 14.6053 15.8417 13.5558C16.2095 12.8168 16.249 12.6049 16.249 11.3687C16.249 10.1724 16.2023 9.90178 15.8794 9.22296C15.145 7.6797 13.6612 6.556 11.9504 6.24732C11.0257 6.08046 10.9395 6.08046 10.0716 6.24801ZM12.4596 9.32782C13.4016 9.92765 13.7978 11.2472 13.3516 12.2992C13.128 12.8262 12.2859 13.5884 11.7922 13.7105C11.5985 13.7584 11.1332 13.7686 10.7585 13.7331C9.19461 13.585 8.17688 11.9945 8.73105 10.5647C9.32968 9.02078 11.0707 8.44326 12.4596 9.32782ZM58.9681 10.4684C58.0245 11.3978 58.8509 12.9884 60.1523 12.7479C60.8163 12.6253 61.2653 12.0879 61.2653 11.4153C61.2653 10.9636 61.1822 10.7884 60.8145 10.4649C60.1977 9.9219 59.5215 9.92314 58.9681 10.4684ZM33.6484 11.44C31.8939 11.7137 29.7298 12.5525 28.2977 13.5137C27.3466 14.152 25.8285 15.6227 25.1323 16.5802C24.3244 17.6912 23.4746 19.4728 23.1126 20.8138C22.8863 21.6521 22.8001 22.4707 22.7445 24.3044L22.6719 26.7L21.9317 27.1695C20.9586 27.7868 20.1666 28.8537 19.8711 29.9458C19.6613 30.7207 19.6422 31.7887 19.6806 40.6624L19.723 50.5182L20.0844 51.2774C20.5339 52.2215 21.1334 52.9036 21.9895 53.4447C23.3513 54.3055 23.1565 54.2941 35.8606 54.2522L47.3757 54.2141L48.1681 53.8988C49.2785 53.4568 50.2562 52.5458 50.8106 51.4363L51.2666 50.5244L51.3057 40.6127C51.3481 29.856 51.3508 29.8998 50.583 28.7027C50.1749 28.0665 49.3417 27.2699 48.7636 26.9633L48.3123 26.7239L48.2424 24.3163C48.1618 21.5402 47.9257 20.4285 47.0214 18.5651C46.2998 17.0782 45.4882 15.9708 44.2994 14.8509C41.9572 12.6444 39.1987 11.4906 35.9811 11.3711C35.1404 11.3399 34.0907 11.3708 33.6484 11.44ZM38.0116 14.3774C40.3678 15.002 42.4453 16.4662 43.7784 18.4415C45.0097 20.2659 45.4998 22.0506 45.4998 24.7093V26.3577H44.0407H42.5816V24.8772C42.5816 22.2119 42.0849 20.7309 40.695 19.252C39.1691 17.6285 37.7309 17.0077 35.4948 17.0077C34.3472 17.0077 33.86 17.0708 33.2132 17.303C30.9026 18.1324 29.0468 20.2045 28.5614 22.4974C28.4769 22.8964 28.4079 23.9281 28.4079 24.7902V26.3577H26.9488H25.4897V24.7271C25.4897 22.1236 25.9461 20.3725 27.0796 18.6269C28.478 16.4736 30.892 14.7977 33.2714 14.3283C33.6918 14.2453 34.1608 14.149 34.3136 14.1142C34.8251 13.9977 37.2227 14.1683 38.0116 14.3774ZM63.0596 15.1018C62.6286 15.4458 62.4138 15.9336 62.5019 16.3679C62.5444 16.5769 62.8693 17.1899 63.2239 17.7298C65.4471 21.1155 67.1201 25.4936 67.8838 29.9251C68.3069 32.3802 68.3441 37.2149 67.9585 39.6357C67.2382 44.1583 65.6119 48.5009 63.2936 52.0924C62.0386 54.0366 62.1933 53.9082 61.42 53.6485C60.3989 53.3059 58.6879 53.4383 57.6454 53.9408C56.6006 54.4444 55.6646 55.3686 55.1478 56.4073C54.78 57.1464 54.7405 57.3583 54.7405 58.5945C54.7405 59.7908 54.7872 60.0614 55.1101 60.7402C56.1126 62.8466 58.5409 64.1346 60.753 63.733C63.0602 63.3142 64.7289 61.6311 65.1229 59.3251C65.2983 58.299 65.122 57.2569 64.6017 56.2444L64.2663 55.5918L64.9392 54.6292C67.9192 50.3659 69.8752 45.3592 70.7431 39.7726C71.0861 37.5652 71.0855 32.3914 70.742 30.1906C70.1405 26.3351 69.0988 22.9713 67.5303 19.8172C66.3843 17.5128 65.082 15.3737 64.639 15.068C64.2368 14.7905 63.4279 14.8079 63.0596 15.1018ZM37.3931 20.1346C38.2367 20.5406 39.0226 21.3502 39.4319 22.2344C39.6678 22.7443 39.7349 23.2056 39.7775 24.6124L39.8304 26.3577H35.5086H31.187V24.8769C31.187 23.1394 31.4127 22.2457 32.0634 21.4052C33.3409 19.7553 35.5238 19.2348 37.3931 20.1346ZM47.4466 29.4035C47.6992 29.5729 48.0367 29.8853 48.1967 30.0979C48.4843 30.4802 48.4878 30.5867 48.5249 40.0983L48.5623 49.7121L48.2396 50.3133C48.0181 50.7259 47.727 51.0133 47.3118 51.2296L46.7066 51.5449H35.4948H24.2829L23.6703 51.2266C23.2899 51.0288 22.9398 50.7049 22.746 50.3711L22.4342 49.8338L22.4681 40.159C22.5018 30.5831 22.505 30.4803 22.7928 30.0979C22.9528 29.8853 23.2903 29.5729 23.5429 29.4035L24.0023 29.0955H35.4948H46.9872L47.4466 29.4035ZM34.0357 32.162C32.5579 32.6236 31.4334 33.56 30.7319 34.9131C29.9548 36.4126 30.0586 38.5335 30.9775 39.9243C31.2857 40.3908 31.3064 40.5615 31.3496 43.0042C31.3921 45.4051 31.4192 45.6379 31.7279 46.2553C33.2896 49.3808 37.7075 49.3622 39.2772 46.2237C39.5668 45.6448 39.5979 45.368 39.6399 43.0042C39.6831 40.5615 39.7038 40.3908 40.012 39.9243C41.5308 37.6257 40.7176 34.2425 38.2823 32.7282C37.1503 32.0243 35.2766 31.7745 34.0357 32.162ZM36.5089 34.8927C36.7559 34.9945 37.1574 35.3011 37.4007 35.5743C38.1992 36.47 38.1925 37.6987 37.3831 38.8564L36.8843 39.5696V42.2698V44.9699L36.4816 45.4138C36.1484 45.7812 35.9783 45.8579 35.4948 45.8579C35.0112 45.8579 34.8411 45.7812 34.5079 45.4138L34.1052 44.9699V42.2698V39.5696L33.6064 38.8564C32.7971 37.6988 32.7903 36.47 33.5884 35.5747C33.8316 35.3019 34.2193 34.9976 34.4499 34.8986C34.9983 34.6633 35.9448 34.6606 36.5089 34.8927ZM61.394 56.6563C62.6789 57.6219 62.7483 59.3872 61.5423 60.4303C60.3119 61.4945 58.4493 61.1506 57.7098 59.7226C57.1316 58.6062 57.5793 57.1342 58.6968 56.4777C59.4193 56.0532 60.7046 56.1385 61.394 56.6563Z" fill="#A21D34"/>
</svg>
