<svg width="16" height="15" viewBox="0 0 16 15" fill="none" xmlns="http://www.w3.org/2000/svg">
<path d="M13.3333 4.70703C12.9444 4.86979 12.5243 4.98047 12.0729 5.03906C12.5451 4.77865 12.8681 4.39779 13.0417 3.89648C12.5903 4.14388 12.125 4.3099 11.6458 4.39453C11.2222 3.96484 10.691 3.75 10.0521 3.75C9.44792 3.75 8.93229 3.9502 8.50521 4.35059C8.07812 4.75098 7.86458 5.23438 7.86458 5.80078C7.86458 5.98958 7.88194 6.14583 7.91667 6.26953C7.02083 6.22396 6.18056 6.01237 5.39583 5.63477C4.61111 5.25716 3.94444 4.7526 3.39583 4.12109C3.19444 4.44661 3.09375 4.79167 3.09375 5.15625C3.09375 5.89844 3.40972 6.4681 4.04167 6.86523C3.71528 6.85872 3.36806 6.77409 3 6.61133V6.63086C3 7.11914 3.17361 7.55371 3.52083 7.93457C3.86806 8.31543 4.29514 8.55143 4.80208 8.64258C4.60069 8.69466 4.42361 8.7207 4.27083 8.7207C4.18056 8.7207 4.04514 8.70768 3.86458 8.68164C4.01042 9.0918 4.2691 9.43034 4.64062 9.69727C5.01215 9.96419 5.43403 10.1009 5.90625 10.1074C5.10069 10.6934 4.19444 10.9863 3.1875 10.9863C3.00694 10.9863 2.83333 10.9766 2.66667 10.957C3.69444 11.569 4.8125 11.875 6.02083 11.875C6.79861 11.875 7.52778 11.7594 8.20833 11.5283C8.88889 11.2972 9.47222 10.988 9.95833 10.6006C10.4444 10.2132 10.8628 9.76725 11.2135 9.2627C11.5642 8.75814 11.8247 8.23079 11.9948 7.68066C12.1649 7.13053 12.25 6.58203 12.25 6.03516C12.25 5.91797 12.2465 5.83008 12.2396 5.77148C12.6771 5.47852 13.0417 5.1237 13.3333 4.70703ZM16 2.8125V12.1875C16 12.9622 15.7066 13.6247 15.1198 14.1748C14.533 14.7249 13.8264 15 13 15H3C2.17361 15 1.46701 14.7249 0.880208 14.1748C0.293403 13.6247 0 12.9622 0 12.1875V2.8125C0 2.03776 0.293403 1.37533 0.880208 0.825195C1.46701 0.275065 2.17361 0 3 0H13C13.8264 0 14.533 0.275065 15.1198 0.825195C15.7066 1.37533 16 2.03776 16 2.8125Z" fill="#1A1C3B"/>
</svg>
